<?xml version="1.0" encoding="utf-8"?>
<!-- Generator: Adobe Illustrator 18.0.0, SVG Export Plug-In . SVG Version: 6.00 Build 0)  -->
<!DOCTYPE svg PUBLIC "-//W3C//DTD SVG 1.1//EN" "http://www.w3.org/Graphics/SVG/1.1/DTD/svg11.dtd">
<svg version="1.1" id="Layer_1" xmlns="http://www.w3.org/2000/svg" xmlns:xlink="http://www.w3.org/1999/xlink" x="0px" y="0px"
	 viewBox="0 0 143.8 142.9" enable-background="new 0 0 143.8 142.9" xml:space="preserve">
<g>
	<g>
		<path fill="#010101" d="M40.6,133.7c0,0.1,0,0.1-0.2,0c-0.1,0-0.1-0.1-0.2-0.1c-0.1-0.1-0.9-0.5-2.4-1.3c-0.3-0.2-0.6-0.3-0.9-0.5
			c-0.1-0.1-0.4-0.2-0.7-0.4c-0.1-0.1-0.2-0.1-0.3-0.2c0,0,0.1,0,0.4,0.2c0.5,0.2,0.7,0.4,0.7,0.4c0,0-0.1-0.1-0.3-0.3
			c-1.6-1.5-2.4-2.3-3.9-3.9c-0.2-0.3-0.4-0.4-0.5-0.4c-0.1,0-0.6,0.1-1.2,0.4c-0.3,0.1-0.4,0.2-0.4,0.2c0,0,0-0.1,0.2-0.2
			c1.1-0.6,1.7-0.8,3-1.1c0.2-0.1,0.7-0.2,1.4-0.3c0.4-0.1,0.5-0.1,0.9-0.2c0.2-0.1,0.4-0.1,0.4,0c0,0.1-0.3,0.2-1,0.3
			c-0.4,0.1-0.6,0.2-0.7,0.3c-0.1,0.1,0,0.2,0.1,0.4c1.4,2.1,2.1,3.2,3.6,5.2c0.3,0.4,0.4,0.6,0.5,0.6c0.2,0.1,0.6,0.4,1.3,0.7
			C40.5,133.6,40.6,133.7,40.6,133.7z"/>
		<path fill="#010101" d="M50.2,137.5c0,0.1-0.1,0.1-0.3,0.1c-0.1,0-0.1,0-0.2-0.1c-0.2-0.1-0.5-0.2-0.9-0.3c-1.3-0.4-2-0.7-2.2-0.8
			c-0.1,0-0.1,0-0.1,0c-0.2-0.1-0.3-0.1-0.3-0.2c0-0.1,0-0.1,0.1-0.1c0.1,0,0.3,0.1,0.7,0.2c0.2,0.1,0.4,0.1,0.4,0.1
			c0,0,0-0.2-0.1-0.5c-0.3-1.3-0.4-2-0.7-3.3c-0.3-1.3-0.5-2.1-0.6-2.3c-0.4-0.5-0.9-0.8-1.6-0.8c-0.7,0-1.3,0.2-1.6,0.6
			c-0.1,0.1-0.1,0.3,0,0.5c0.6,1.9,0.9,2.8,1.5,4.6c0,0.1,0.2,0.2,0.5,0.3c0.2,0.1,0.3,0.1,0.6,0.2c0.1,0,0.2,0.1,0.2,0.2
			c0,0.1,0,0.1-0.2,0c-0.1,0-0.2-0.1-0.3-0.1c-0.3-0.1-0.7-0.3-1.3-0.5c-0.1-0.1-0.4-0.2-0.9-0.4c-0.4-0.2-0.7-0.3-0.8-0.4
			c0,0-0.1,0-0.1-0.1c-0.2-0.1-0.3-0.2-0.3-0.2c0,0,0.1,0,0.3,0.1c0.2,0.1,0.3,0.1,0.5,0.2c0.2,0.1,0.3,0.1,0.3,0.1
			c0-0.1,0-0.1,0-0.2c-0.5-1.1-0.7-1.7-1.2-2.9c-0.4-1-0.6-1.6-0.7-1.7c-0.1-0.1-0.3-0.2-0.6-0.2c-0.1,0-0.3,0-0.5,0
			c0,0-0.1,0-0.1,0c-0.3,0-0.4,0-0.5-0.1c0-0.1,0.1-0.1,0.4-0.1c0.4,0,0.9,0,1.3-0.1c0.5-0.1,0.8-0.2,0.9-0.3
			c0.1-0.1,0.2-0.1,0.3-0.1c0.1,0,0.2,0.1,0.2,0.3c0.1,0.3,0.1,0.4,0.2,0.7c0.5-0.6,1.4-1,2.6-1c1,0,1.9,0.3,2.4,1
			c0.3,0.4,0.6,1.1,0.7,2.2c0.3,1.7,0.4,2.6,0.7,4.3c0.1,0.4,0.1,0.6,0.2,0.7c0.1,0.1,0.3,0.2,0.6,0.3c0,0,0.1,0,0.2,0.1
			c0.1,0,0.1,0,0.1,0C50.1,137.4,50.2,137.4,50.2,137.5z"/>
		<path fill="#010101" d="M57.8,131.4c0,0.7-0.3,1.1-0.9,1c-0.6,0-1-0.4-1-1c0-0.2,0-0.4,0.2-0.8c0-0.1,0.1-0.2,0-0.3
			c0-0.3-0.2-0.6-0.5-0.8c-0.3-0.2-0.7-0.3-1.1-0.3c-0.9,0-1.5,0.4-1.9,1.1c-0.4,0.7-0.5,1.7-0.4,3.1c0.2,1.5,0.5,2.7,1,3.6
			c0.5,0.9,1.2,1.5,2,1.7c0.6,0.1,1,0,1.5-0.3c0.2-0.1,0.4-0.4,0.7-0.9c0.1-0.1,0.1-0.1,0.2-0.1c0.1,0,0.2,0.1,0.2,0.2
			c0,0.2-0.2,0.6-0.7,1c-0.6,0.6-1.3,0.8-2.2,0.6c-1.2-0.3-2.1-1-3-2.1c-0.9-1.1-1.4-2.2-1.6-3.5c-0.2-1.4,0.1-2.5,0.9-3.4
			c0.8-0.9,1.8-1.4,3.2-1.4c0.9,0,1.6,0.3,2.3,0.8C57.4,130.2,57.7,130.7,57.8,131.4z"/>
		<path fill="#010101" d="M68.7,140c0,0.1-0.2,0.2-0.5,0.2c-1.1,0-2.1,0.3-2.9,0.7c-0.1,0-0.1,0-0.1,0c-0.1,0-0.1-0.1-0.1-0.2
			c0-0.6,0-0.9,0-1.4c-0.7,1-1.5,1.5-2.7,1.3c-1-0.1-1.7-0.6-2.2-1.4c-0.2-0.3-0.3-0.6-0.3-0.8c0-0.2-0.1-0.9-0.1-2
			c-0.1-2.2-0.1-3.3-0.1-5.6c0-0.6-0.1-0.9-0.1-1c-0.1-0.1-0.3-0.2-0.6-0.2c-0.1,0-0.2,0-0.3,0c-0.4,0-0.6,0-0.6-0.2
			c0-0.1,0.1-0.2,0.4-0.2c0.3,0,0.6,0,1.1,0.1c0.3,0,0.4,0,0.4,0c0.5,0,1,0,1.4-0.1c0,2.8,0.1,4.2,0.1,7c0,1.3,0.1,2.1,0.2,2.6
			c0.2,0.7,0.7,1.1,1.4,1.1c0.7,0.1,1.3-0.2,1.6-1c0.3-0.5,0.4-1.4,0.4-2.6c0-1.6,0-2.4,0-4c0-0.6,0-1-0.1-1.3c0-0.3,0-0.5,0-0.9
			c0-0.3-0.1-0.4-0.1-0.5c-0.1,0-0.3-0.1-0.5-0.1c-0.6,0-0.9-0.1-0.9-0.2c0-0.1,0.2-0.2,0.5-0.2c0.1,0,0.1,0,0.2,0
			c0.1,0,0.5,0,1.2,0c0.9,0,1.4,0,1.6,0c0,3-0.1,4.5-0.1,7.5c0,1.3,0,2.1,0,2.4c0,0.3,0.1,0.5,0.3,0.6c0.2,0.1,0.6,0.1,1.2,0.1
			C68.7,139.8,68.8,139.8,68.7,140z"/>
		<path fill="#010101" d="M78.8,140.4c0,0.1-0.1,0.2-0.3,0.2c-0.1,0-0.2,0-0.3,0c-0.3,0-0.6,0.1-1,0.1c-1.4,0.1-2.2,0.1-2.4,0.1
			c-0.1,0-0.1,0-0.1,0c-0.2,0-0.3-0.1-0.3-0.2c0-0.1,0-0.1,0.1-0.2c0.1,0,0.4,0,0.8-0.1c0.3,0,0.4-0.1,0.5-0.2
			c0-0.1,0.1-0.4,0.1-0.9c0.1-2.1,0.2-3.1,0.3-5.3c0.1-2,0.1-3.2,0-3.6c-0.2-0.8-0.7-1.2-1.5-1.2c-0.7,0-1.4,0.5-1.9,1.3
			c-0.2,0.2-0.2,0.6-0.3,1c-0.1,3.4-0.2,5.1-0.4,8.5c0,0.2,0.1,0.3,0.4,0.3c0.3,0,0.4,0,0.6,0c0.1,0,0.2,0.1,0.2,0.2
			c0,0.1-0.1,0.2-0.3,0.2c-0.1,0-0.2,0-0.3,0c-0.3,0-0.8,0-1.5,0c-0.2,0-0.5,0-1,0c-0.5,0-0.8,0-0.9,0c-0.1,0-0.1,0-0.1,0
			c-0.2,0-0.3-0.1-0.3-0.2c0-0.1,0.1-0.2,0.4-0.2c0.2,0,0.4,0,0.5,0c0.2,0,0.3-0.1,0.4-0.2c0-0.2,0-0.2,0.1-0.4
			c0.1-2.3,0.2-3.5,0.2-5.9c0.1-2.1,0.1-3.2,0.1-3.4c0-0.2-0.2-0.3-0.5-0.3c-0.1,0-0.3,0-0.5,0c0,0-0.1,0-0.1,0
			c-0.3,0-0.4-0.1-0.4-0.2c0-0.2,0.2-0.3,0.5-0.3c0.4,0,0.9-0.1,1.5-0.3c0.5-0.2,0.9-0.4,1.1-0.7c0.1-0.2,0.2-0.2,0.3-0.2
			c0.1,0,0.2,0.2,0.1,0.5c0,0.5,0,0.8,0,1.3c0.8-1.3,1.9-2,3.1-2c1.1-0.1,1.8,0.4,2.3,1.3c0.2,0.5,0.3,1.6,0.2,3.2
			c-0.2,2.5-0.3,3.8-0.5,6.3c0,0.6-0.1,0.9,0,0.9c0.1,0.1,0.3,0.1,0.6,0.1c0,0,0.1,0,0.2,0c0.1,0,0.1,0,0.1,0
			C78.8,140.3,78.8,140.3,78.8,140.4z"/>
		<path fill="#010101" d="M87.8,137.9c0,0.3-0.3,0.7-0.9,1.1c-0.5,0.4-1,0.7-1.4,0.8c-0.9,0.2-1.3-0.4-1.2-1.6
			c-0.7,1.4-1.6,2.2-2.7,2.4c-0.6,0.1-1-0.1-1.4-0.5c-0.3-0.4-0.5-1-0.4-1.7c0.1-1.5,0.9-2.8,2.4-3.8c0.5-0.4,1.4-0.7,2.6-1.2
			c0-0.3,0-0.4,0.1-0.7c0.2-1.6,0.2-2.7,0.1-3.2c-0.1-0.9-0.6-1.3-1.4-1.2c-0.5,0.1-1,0.3-1.3,0.7c-0.4,0.4-0.6,0.9-0.6,1.4
			c0,0.1,0.1,0.2,0.3,0.2c0.2,0,0.3,0.1,0.5,0.3c0.1,0.2,0.2,0.4,0.2,0.7c-0.1,0.8-0.4,1.3-1.1,1.3c-0.3,0-0.6-0.1-0.8-0.3
			c-0.2-0.3-0.3-0.6-0.2-1.1c0.1-0.9,0.4-1.7,1-2.4c0.7-0.8,1.5-1.2,2.6-1.3c1.6-0.2,2.6,0.1,2.8,1.2c0.1,0.4,0.1,1.2-0.1,2.5
			c-0.2,2.1-0.4,3.1-0.7,5.1c-0.1,0.8-0.2,1.3-0.2,1.5c0,0.6,0.1,0.9,0.5,0.9c0.4-0.1,0.7-0.3,1-0.7c0.2-0.2,0.3-0.3,0.3-0.4
			C87.8,137.8,87.9,137.8,87.8,137.9z M84.6,135.8c0.1-0.8,0.1-1.2,0.2-2c-1.1,0.5-1.9,1-2.4,1.6c-0.5,0.6-0.8,1.3-0.9,2.1
			c-0.1,0.6,0,1,0.2,1.4c0.2,0.3,0.5,0.5,0.9,0.4c0.6-0.1,1.1-0.6,1.6-1.5C84.4,137.5,84.5,136.8,84.6,135.8z"/>
		<path fill="#010101" d="M97.3,130.8c-0.4,1.8-1.2,3.4-2.3,4.8c-1.1,1.5-2.2,2.4-3.4,2.8c-0.4,0.1-0.8,0.1-1.2,0
			c-0.4-0.1-0.7-0.2-0.8-0.1c-0.1,0-0.3,0.2-0.5,0.4c-0.2,0.2-0.4,0.3-0.5,0.4c-0.1,0-0.1-0.3,0-0.9c0.9-5.6,1.3-8.5,2-14.4
			c0.2-1.9,0.2-3,0.1-3.1c-0.1,0-0.4,0-0.9,0.1c-0.4,0.1-0.5,0-0.5-0.1c0-0.1,0.1-0.2,0.3-0.3c0.1,0,0.2,0,0.3-0.1
			c0.8-0.2,1.7-0.5,2.5-1.1c0.2-0.2,0.4-0.3,0.5-0.3c0,0,0.1,0,0.1,0c-0.4,3.6-0.7,5.4-1.2,8.9c0.7-1.2,1.6-1.8,2.7-2
			c1.2-0.1,2.1,0.3,2.7,1.2C97.7,127.9,97.7,129.2,97.3,130.8z M95.4,131.3c0.3-1.6,0.4-2.9,0.1-3.7c-0.3-0.8-0.8-1.2-1.5-1.1
			c-0.4,0.1-0.8,0.3-1.2,0.7c-0.4,0.4-0.7,0.8-0.9,1.3c-0.2,0.5-0.5,2-0.9,4.4c-0.4,2.5-0.6,4-0.6,4.4c0,0.7,0.4,1,1.2,0.7
			c0.8-0.2,1.4-0.8,2-1.7C94.4,135,95,133.4,95.4,131.3z"/>
		<path fill="#010101" d="M100.7,134.7c-0.1,0.1-0.2,0.2-0.3,0.3c-0.1,0-0.1,0.1-0.2,0.1c0,0-0.3,0.1-1,0.4
			c-0.2,0.1-0.3,0.1-0.6,0.2c-0.1,0-0.6,0.3-1.5,0.6c-0.1,0-0.2,0.1-0.2,0.1c-0.2,0.1-0.3,0.1-0.2-0.1c0-0.1,0.1-0.2,0.3-0.2
			c0.2-0.1,0.3-0.1,0.5-0.2c0.4-0.1,0.6-0.3,0.6-0.5c0-0.1,0.2-0.7,0.6-1.9c1.5-4.9,2.1-7.4,3.3-12.7c0.1-0.6,0.2-0.9,0.2-0.9
			c0-0.1-0.1-0.2-0.3-0.2c-0.1,0-0.1,0-0.2,0c-0.3,0-0.4,0-0.6,0c-0.2,0-0.3-0.1-0.3-0.2c0-0.1,0.2-0.2,0.6-0.3
			c0.8-0.1,1.5-0.3,2.2-0.7c0.2-0.1,0.3-0.2,0.6-0.3c0.1,0,0.1,0,0.2-0.1c0,0.5-0.1,1.2-0.4,2.2c-0.2,0.7-0.3,1.1-0.5,1.8
			c-1.3,4.8-2,7.2-3.5,11.7c-0.2,0.5-0.2,0.7-0.3,0.8c0,0.1,0,0.1,0.1,0.1c0,0,0.2-0.1,0.7-0.2C100.6,134.6,100.7,134.6,100.7,134.7
			z"/>
		<path fill="#010101" d="M109.2,129.2c-0.1,0.1-0.3,0.4-0.7,0.8c-0.4,0.4-0.7,0.7-1,1c-0.8,0.8-1.7,1.5-2.5,1.9
			c-1.1,0.6-1.7,0.6-2.1,0c-0.4-0.6-0.3-1.7,0.2-3.1c0.5-1.5,1.4-2.9,2.5-4c1.2-1.2,2.4-1.8,3.6-2c1-0.2,1.7,0,2.1,0.4
			c0.4,0.4,0.3,1-0.1,1.7c-0.5,0.2-1,0.4-1.7,0.6c-0.6,0.2-0.8,0.2-1.4,0.4c-0.1,0-0.9,0.3-2.5,0.7c-0.3,0.5-0.5,1-0.7,1.4
			c-0.6,1.4-0.8,2.5-0.7,3c0.1,0.5,0.6,0.6,1.4,0.1c0.5-0.2,0.9-0.6,1.3-0.9c0.4-0.4,1-0.9,1.7-1.7
			C109,129.3,109.1,129.2,109.2,129.2C109.3,129.1,109.3,129.1,109.2,129.2z M109.8,126c0.8-1.5,0.5-2.2-0.6-2
			c-1.1,0.2-2.2,1.2-3.2,3C107.5,126.7,108.3,126.5,109.8,126z"/>
		<path fill="#010101" d="M115.9,125.6c-0.6,0.5-1.3,1-2.2,1.7c-0.9,0.6-1.6,1.2-2.2,1.7c-0.4,0.3-0.7,0.4-1,0.5
			c-0.1,0-0.2,0.1-0.3,0.1c-0.2,0.1-0.4,0.3-0.6,0.5c-0.1,0.2-0.3,0.3-0.3,0.3c-0.1,0-0.1,0,0-0.1c0-0.1,0.1-0.1,0.2-0.2
			c0.2-0.2,0.4-0.5,0.7-1c0,0,0.1-0.2,0.3-0.4c0.2-0.2,0.3-0.4,0.3-0.5c0.1-0.1,0.1-0.1,0.1-0.2c0.1-0.1,0.2-0.2,0.3-0.2
			c0.1,0,0.1,0,0,0.1c-0.3,0.5-0.5,0.8-0.5,0.9c0,0.3,0.4,0.2,1.1-0.3c0.4-0.3,0.8-0.6,1.3-0.9c0.4-0.3,0.8-0.7,1.2-1
			c0.4-0.3,0.5-0.5,0.5-0.6c0,0-0.1,0-0.2,0c-0.1,0-0.4,0.1-0.9,0.2c-1,0.2-1.2-0.3-0.6-1.3c0.4-0.6,1-1.3,1.9-1.8
			c0.8-0.6,1.6-0.9,2.4-1c0.3-0.1,0.6-0.1,1.1-0.1c0.1,0,0.2,0,0.3,0c0.3-0.1,0.6-0.2,0.8-0.4c0.1-0.1,0.2-0.2,0.3-0.2
			c0.1,0,0.1,0,0,0.1c0,0,0,0-0.1,0.1c-0.2,0.2-0.3,0.4-0.6,0.6c-0.2,0.2-0.5,0.6-1,1c0,0,0,0,0,0c-0.1,0.1-0.2,0.1-0.3,0.2
			c-0.1,0,0-0.1,0.1-0.3c0.2-0.3,0.2-0.5,0-0.6c-0.2-0.1-0.5-0.1-1,0c-0.5,0.1-0.9,0.3-1.4,0.6s-0.8,0.6-1.1,1
			c-0.4,0.6-0.3,0.8,0.4,0.8c1,0,1.5-0.1,1.6,0C116.6,125,116.4,125.2,115.9,125.6z"/>
	</g>
</g>
<g>
	<g>
		<path fill="#1B3E71" d="M12.8,94.2c0.2,0.7,0,1.1-0.6,1c-0.7-0.1-1.4-0.8-2.1-1.9c-0.3-0.5-0.5-1-0.7-1.5
			c-0.2-0.5-0.6-1.6-1.1-3.5c-0.3-1.1-0.6-2-1-2.4c-0.4-0.5-1-0.7-1.7-0.7c0.6,3.4,1,5,2,8.3c0.1,0.3,0.3,0.5,0.6,0.6
			c0.1,0,0.3,0,0.6,0C8.9,94,9,94.1,9,94.2c0,0.2,0,0.2-0.1,0.2c-0.1,0-0.1,0-0.2,0c-0.1,0-0.5,0-1.1,0.1c-0.1,0-0.3,0-0.6,0
			c-0.3,0-0.5,0-0.6,0c-0.2,0-0.3,0-0.5-0.1c-0.2,0-0.3-0.1-0.3-0.3c0-0.1,0.1-0.1,0.3-0.1c0.4,0.1,0.5,0,0.5-0.2
			c0-0.1-0.1-0.4-0.3-1C4.4,87.1,3.8,84.1,3.3,78c-0.1-0.7-0.1-1.2-0.2-1.3c-0.1-0.1-0.3-0.2-0.7-0.2c-0.2,0-0.3,0-0.1,0
			c0.2,0,0.3,0,0.5-0.1c0,0,0.1,0,0.1,0c0.7,0,1-0.1,1.7-0.1c0.2,0,0.4,0,0.8-0.1c0.4,0,0.7,0,0.8-0.1c0.8,0,1-0.1,1.5,0.6
			c0.5,0.8,0.9,1.8,1,3.2c0.1,1.3,0,2.4-0.3,3.2c-0.4,0.8-1,1.3-1.8,1.4c-0.1,0-0.1,0-0.1,0.1c0,0.1,0.1,0.1,0.2,0.1
			c1,0.3,1.8,1,2.3,2.1c0.6,1,1.2,2.9,1.9,5.5c0.5,1.5,0.9,2.2,1.3,2.3c0.1,0,0.2,0,0.1-0.1c0,0,0,0,0-0.1c-0.1-0.2-0.2-0.4-0.2-0.5
			c-0.1-0.4-0.1-0.5,0.1-0.5C12.5,93.5,12.6,93.7,12.8,94.2z M7.3,80.3c-0.3-2.6-0.9-4-2-3.9c-0.3,0-0.5,0.1-0.6,0.3
			c-0.1,0.2-0.1,0.5-0.1,0.9c0.2,2.8,0.4,4.2,0.9,7c0.9,0,1.4-0.4,1.7-1C7.5,82.8,7.5,81.8,7.3,80.3z"/>
		<path fill="#1B3E71" d="M17.4,92.8c0,0.2,0,0.5,0,1c0,0.5-0.1,0.8-0.1,1.1c-0.2,0.8-0.5,1.1-1.2,1c-0.8-0.1-1.6-0.8-2.4-2.1
			s-1.5-2.7-1.8-4.5c-0.4-1.8-0.4-3.4-0.1-4.6c0.3-1.2,0.9-1.9,1.7-1.8c0.6,0,1.2,0.5,1.8,1.3c0.5,0.8,0.9,1.9,1.1,3.2
			c-0.3,0.1-0.6,0.1-1.1,0c-0.4,0-0.6-0.1-0.9-0.1c-0.1,0-0.6,0-1.6-0.1c0.1,0.6,0.2,1.2,0.3,1.8c0.4,1.9,0.9,3.3,1.5,4.4
			c0.6,1,1.2,1.6,1.8,1.7c0.3,0.1,0.6-0.1,0.7-0.4c0.1-0.3,0.2-0.9,0.2-1.8c0-0.1,0-0.2,0.1-0.2C17.3,92.6,17.3,92.6,17.4,92.8z
			 M15.1,86.8c-0.4-2.3-0.9-3.5-1.7-3.6c-0.7,0-1,1.1-0.8,3.4C13.7,86.6,14.2,86.7,15.1,86.8z"/>
		<path fill="#1B3E71" d="M22.9,85.2c0.1,1,0,1.4-0.4,1.4c-0.1,0-0.2-0.1-0.4-0.3c-0.1-0.2-0.2-0.4-0.2-0.7c0-0.1,0-0.2,0-0.4
			c0-0.2,0-0.3,0-0.4c0-0.3-0.1-0.4-0.2-0.4c-0.1,0-0.2,0.1-0.3,0.4c-0.1,0.3-0.1,0.5-0.1,0.8c0,0.1,0.1,0.4,0.2,1.1
			c0.1,0.6,0.2,1.1,0.2,1.5c0.2,1.4,0.1,2.5-0.1,3.4c-0.3,0.9-0.7,1.2-1.3,1.1c-0.2,0-0.5-0.2-0.9-0.6c-0.1-0.1-0.2-0.1-0.2-0.1
			c-0.2,0-0.3,0.1-0.4,0.4c-0.1,0.3-0.1,0.7,0,1c0.2,1,0.6,1.5,1.1,1.6c0.2,0,0.5,0,0.9-0.1c0.3-0.1,0.6-0.1,0.9,0
			c0.5,0.1,1,0.5,1.4,1.2c0.4,0.7,0.7,1.6,1,2.7c0.4,1.7,0.4,3,0.1,3.9c-0.3,0.9-0.9,1.2-1.8,1c-0.7-0.2-1.3-0.6-1.8-1.3
			c-0.6-0.7-1-1.6-1.3-2.7c-0.3-1-0.3-1.8-0.1-2.3c0.1-0.2,0.4-0.4,0.7-0.5c-0.7-0.6-1.2-1.5-1.5-2.6c-0.3-1.4-0.1-2.3,0.6-2.7
			c-0.7-1-1.2-2.2-1.4-3.7c-0.2-1.4-0.2-2.6,0.1-3.4c0.3-0.8,0.8-1.3,1.5-1.2c0.4,0,0.7,0.2,0.9,0.4c0.3,0.2,0.6,0.7,0.9,1.4
			c0.2-0.9,0.5-1.4,0.9-1.4C22.5,83.6,22.8,84.1,22.9,85.2z M23.8,99.6c-0.4-1.6-0.9-2.5-1.7-2.7c-0.2,0-0.6,0-1,0.1
			c-0.4,0.1-0.7,0.1-1,0.1c-0.3,0.4-0.3,1.3,0,2.5c0.3,0.9,0.6,1.7,1.1,2.4c0.5,0.6,0.9,1,1.4,1.2c0.6,0.2,1-0.1,1.2-0.8
			C24.1,101.7,24.1,100.7,23.8,99.6z M20.8,88c-0.4-2.9-0.9-4.5-1.6-4.5c-0.7,0-0.9,1.3-0.5,4c0.4,3,1.1,4.6,1.8,4.7
			C21.1,92.2,21.2,90.9,20.8,88z"/>
		<path fill="#1B3E71" d="M27.3,97.5c0,0.2,0,0.3-0.2,0.2c0,0-0.1,0-0.3-0.1c-0.3-0.1-0.5-0.2-0.6-0.2c-0.5-0.1-0.8-0.2-1.3-0.3
			c0,0.1-0.1,0.1-0.1,0.1c-0.1,0-0.2-0.1-0.2-0.2c0-0.2,0-0.3,0.2-0.3c0.3,0.1,0.5,0,0.5-0.1c0-0.1,0-0.5-0.2-1.2
			c-0.6-3.7-0.9-5.6-1.3-9.4c-0.1-0.5-0.1-0.8-0.1-0.9c0-0.1-0.1-0.1-0.2-0.2c-0.2,0-0.2,0-0.4,0c0,0-0.1,0-0.1,0
			c-0.1,0-0.2-0.1-0.2-0.2c0-0.1,0.1-0.2,0.2-0.2c0.6,0,1.1-0.3,1.4-0.9c0-0.1,0.1-0.1,0.1-0.2c0.1,0.3,0.2,0.9,0.3,1.8
			c0,0,0,0.1,0,0.3c0,0.3,0.1,0.7,0.1,1.2c0.4,3.5,0.6,5.2,1.1,8.5c0.1,0.8,0.2,1.3,0.3,1.4c0,0.1,0.1,0.2,0.2,0.3
			c0.1,0.1,0.3,0.2,0.6,0.2C27.2,97.2,27.3,97.3,27.3,97.5z M24.2,77.6c0,1-0.1,1.5-0.5,1.4c-0.2,0-0.3-0.2-0.5-0.4
			c-0.1-0.3-0.2-0.6-0.2-1c0-1,0.1-1.5,0.5-1.5C24,76.1,24.2,76.6,24.2,77.6z"/>
		<path fill="#1B3E71" d="M36.4,99.3c0,0.2,0,0.2-0.2,0.2c0,0-0.1,0-0.3-0.1c-0.2,0-0.4-0.1-0.7-0.1c0,0-0.5-0.1-1.4-0.3
			c-0.1,0-0.2-0.1-0.2-0.2c0-0.2,0-0.2,0.1-0.2c0,0,0.1,0,0.1,0c0.1,0,0.2,0,0.3,0.1c0.1,0,0.2-0.1,0.2-0.2c0-0.1,0-0.6-0.1-1.3
			c-0.4-3.2-0.5-4.8-0.8-8.2c-0.1-1.3-0.2-2.2-0.4-2.8c-0.2-0.6-0.4-0.9-0.8-0.9c-0.2,0-0.4,0.1-0.6,0.4c-0.2,0.3-0.3,0.7-0.3,1.3
			c0,0.3,0.1,1.6,0.3,3.7c0.2,2.5,0.4,3.7,0.7,6.1c0.1,0.7,0.1,1.1,0.2,1.2c0.1,0.3,0.2,0.4,0.3,0.4c0.1,0,0.2,0,0.4,0.1
			c0.1,0,0.2,0.1,0.2,0.3c0,0.1,0,0.2-0.2,0.2c0,0-0.1,0-0.1,0c-0.1,0-0.4-0.1-0.9-0.2c-0.2,0-0.4-0.1-0.7-0.1
			c-0.3-0.1-0.5-0.1-0.5-0.1c-0.1,0-0.1,0-0.1,0c-0.1,0-0.2-0.1-0.2-0.3c0-0.1,0-0.2,0-0.2c0,0,0.2,0,0.5,0.1c0.1,0,0.2-0.1,0.2-0.3
			c0-0.2,0-0.3,0-0.4c-0.5-3.5-0.7-5.3-1-9c-0.1-1.3-0.2-2.2-0.4-2.7c-0.2-0.5-0.4-0.8-0.7-0.8c-0.3,0-0.6,0.2-0.8,0.7
			c-0.2,0.5-0.2,1.1-0.2,1.9c0.3,3.7,0.5,5.5,1,9c0.1,0.6,0.2,1,0.2,1.1s0.2,0.2,0.4,0.2c0,0,0.1,0,0.1,0c0,0,0.1,0,0.1,0
			c0.1,0,0.1,0.1,0.2,0.3c0,0.1,0,0.2-0.1,0.2c-0.1,0-0.1,0-0.1,0c-0.2-0.1-0.5-0.1-0.9-0.2c-0.5-0.1-0.7-0.1-1.2-0.2
			c-0.1,0-0.2-0.1-0.2-0.3c0-0.1,0-0.2,0.1-0.2c0.3,0.1,0.5,0.1,0.5,0c0-0.1,0-0.2,0-0.4c-0.5-3.2-0.7-4.8-1-8.2
			c-0.2-1.6-0.3-2.6-0.3-2.8c-0.1-0.3-0.2-0.4-0.4-0.5c-0.1,0-0.1,0-0.2,0c-0.1,0-0.2,0-0.3,0c-0.1,0-0.2-0.1-0.2-0.2
			c0-0.1,0-0.2,0-0.2c0,0,0.2,0,0.4-0.1c0.2,0,0.4-0.1,0.7-0.3c0.3-0.2,0.4-0.4,0.5-0.6c0.1-0.2,0.1-0.3,0.2-0.3
			c0,0,0.1,0.1,0.1,0.3c0,0.2,0.1,0.8,0.2,1.8c0.2-1.4,0.7-2,1.5-1.9c0.8,0.1,1.3,0.9,1.6,2.4c0.2-1.4,0.8-2.1,1.5-2.1
			c0.7,0.1,1.1,0.7,1.5,1.9c0.2,0.6,0.3,1.7,0.4,3.2c0.2,3.3,0.4,4.9,0.8,8.1c0.1,0.7,0.1,1.1,0.2,1.2c0,0.1,0.2,0.2,0.4,0.2
			c0.1,0,0.1,0,0.2,0C36.3,99,36.4,99.1,36.4,99.3z"/>
		<path fill="#1B3E71" d="M39.5,99.8c0,0.2,0,0.3-0.2,0.3c0,0-0.1,0-0.3-0.1c-0.3-0.1-0.5-0.1-0.7-0.2c-0.5-0.1-0.8-0.1-1.4-0.2
			c0,0.1-0.1,0.1-0.1,0.1c-0.1,0-0.2-0.1-0.2-0.3c0-0.2,0.1-0.3,0.2-0.3c0.3,0,0.5,0,0.5-0.1c0-0.1,0-0.5-0.1-1.3
			c-0.4-4-0.6-6-0.8-10.1c0-0.6-0.1-0.9-0.1-1c0-0.1-0.1-0.2-0.2-0.2c-0.2,0-0.2,0-0.4,0c0,0-0.1,0-0.1,0c-0.1,0-0.2-0.1-0.2-0.3
			c0-0.1,0.1-0.2,0.2-0.2c0.6,0,1.1-0.3,1.5-0.9c0-0.1,0.1-0.1,0.1-0.2c0.1,0.4,0.2,1,0.2,1.9c0,0,0,0.1,0,0.3c0,0.3,0,0.7,0.1,1.3
			c0.2,3.7,0.4,5.5,0.7,9.1c0.1,0.9,0.1,1.4,0.2,1.5c0,0.2,0.1,0.3,0.2,0.3c0.1,0.1,0.3,0.2,0.6,0.2C39.5,99.5,39.5,99.6,39.5,99.8z
			 M37.1,78.5c0,1.1-0.2,1.6-0.6,1.5c-0.2,0-0.3-0.2-0.4-0.5c-0.1-0.3-0.2-0.7-0.2-1.1c0-1.1,0.2-1.6,0.6-1.6
			C36.9,76.9,37.1,77.5,37.1,78.5z"/>
		<path fill="#1B3E71" d="M44.7,97.1c0,0.2,0,0.6-0.1,1.2c-0.1,0.5-0.2,1-0.3,1.3c-0.3,0.9-0.8,1.3-1.4,1.2
			c-0.8-0.1-1.5-0.9-2.2-2.4c-0.7-1.5-1.1-3.3-1.3-5.5c-0.2-2.2,0-4.1,0.4-5.6c0.4-1.5,1-2.2,1.8-2.1c0.6,0.1,1.2,0.6,1.7,1.6
			c0.5,1,0.8,2.3,0.9,3.7c-0.3,0.1-0.7,0.1-1.1,0c-0.4,0-0.6-0.1-0.9-0.1c-0.1,0-0.6,0-1.6-0.1c0,0.7,0,1.4,0.1,2.1
			c0.2,2.3,0.5,4,0.9,5.3c0.4,1.2,1,1.9,1.6,2c0.3,0,0.6-0.1,0.8-0.5c0.2-0.4,0.3-1.1,0.5-2.2c0-0.2,0.1-0.3,0.1-0.3
			C44.6,96.9,44.7,97,44.7,97.1z M43.1,90.1c-0.2-2.7-0.6-4.2-1.4-4.3c-0.7-0.1-1.1,1.3-1.1,4C41.6,89.9,42.1,90,43.1,90.1z"/>
		<path fill="#1B3E71" d="M51.6,101.2c0,0.2-0.1,0.2-0.2,0.2c-0.1,0-0.1,0-0.2,0c-0.2,0-0.4,0-0.6,0c-0.9-0.1-1.4-0.1-1.5-0.1
			c0,0-0.1,0-0.1,0c-0.1,0-0.2-0.1-0.2-0.2c0-0.1,0-0.2,0.1-0.2c0,0,0.2,0,0.5,0c0.2,0,0.3-0.1,0.3-0.2c0-0.1,0-0.5,0-1.1
			c-0.2-2.5-0.2-3.8-0.4-6.4c-0.1-2.5-0.2-4-0.3-4.5c-0.2-1-0.5-1.6-1-1.6c-0.5,0-0.8,0.4-1.1,1.4c-0.1,0.3-0.1,0.7-0.1,1.2
			c0.2,4.3,0.3,6.4,0.6,10.5c0,0.3,0.1,0.4,0.3,0.5c0.2,0,0.2,0,0.4,0.1c0.1,0,0.1,0.1,0.1,0.2c0,0.2,0,0.2-0.1,0.2
			c-0.1,0-0.1,0-0.2,0c-0.2,0-0.5,0-0.9-0.1c-0.1,0-0.3,0-0.6-0.1s-0.5-0.1-0.6-0.1c0,0,0,0-0.1,0c-0.1,0-0.2-0.1-0.2-0.2
			c0-0.1,0.1-0.2,0.2-0.2c0.1,0,0.2,0,0.3,0c0.1,0,0.2-0.1,0.2-0.2c0-0.2,0-0.3,0-0.5c-0.2-2.9-0.3-4.3-0.5-7.3
			c-0.1-2.6-0.2-4-0.3-4.3c0-0.3-0.2-0.4-0.4-0.4c-0.1,0-0.2,0-0.3,0c0,0,0,0-0.1,0c-0.2,0-0.3-0.1-0.3-0.3c0-0.2,0.1-0.3,0.3-0.3
			c0.3,0,0.6-0.1,0.9-0.3c0.3-0.2,0.5-0.4,0.6-0.7c0.1-0.2,0.1-0.3,0.2-0.3c0.1,0,0.1,0.2,0.1,0.7c0,0.7,0,1,0.1,1.7
			c0.4-1.5,1-2.2,1.7-2.2c0.6,0.1,1.1,0.7,1.5,2c0.2,0.7,0.3,2,0.4,3.9c0.1,3.1,0.2,4.7,0.4,7.7c0,0.7,0.1,1.1,0.1,1.2
			c0.1,0.1,0.2,0.2,0.4,0.2c0,0,0.1,0,0.1,0c0,0,0.1,0,0.1,0C51.6,101,51.6,101.1,51.6,101.2z"/>
		<path fill="#1B3E71" d="M55.5,99.6c0,0.2-0.1,0.5-0.3,1c-0.3,0.8-0.8,1.2-1.3,1.2c-0.5,0-0.8-0.3-1.1-1c-0.2-0.4-0.3-1.4-0.4-3.1
			c-0.2-4-0.3-6-0.4-10.1c0-0.2-0.1-0.4-0.2-0.4c-0.2,0-0.3,0-0.5,0c-0.2,0-0.3-0.1-0.3-0.3c0-0.2,0-0.3,0.1-0.3
			c0.7-0.1,1.2-1,1.5-2.5c0-0.2,0.1-0.3,0.2-0.3c0.1,0,0.1,0.1,0.1,0.3c0,0.1,0,0.1,0,0.1c0,0.1,0,0.3,0,0.6c0,1,0.1,1.6,0.1,1.9
			c0.1,0.1,0.2,0.1,0.4,0.1c0.5,0,0.8,0,1-0.1c0,0,0.1,0,0.1,0c0.1,0,0.1,0.1,0.1,0.3c0,0.3-0.3,0.5-1.1,0.4c-0.1,0-0.3,0-0.6,0
			c0.1,2.6,0.1,3.8,0.2,6.3c0.1,3.2,0.3,5.1,0.4,5.9c0.1,0.8,0.3,1.2,0.7,1.2c0.3,0,0.6-0.4,0.9-1.2c0-0.1,0.1-0.2,0.1-0.2
			C55.5,99.5,55.5,99.5,55.5,99.6z"/>
		<path fill="#1B3E71" d="M61,94.6c0,2.1-0.2,3.9-0.7,5.3c-0.5,1.4-1.1,2.1-1.8,2.1c-0.8,0-1.5-0.7-2-2.2c-0.6-1.4-0.9-3.2-1-5.4
			c-0.1-2.2,0.1-4.1,0.6-5.6c0.5-1.5,1.1-2.2,1.9-2.1c0.8,0,1.5,0.8,2.1,2.4C60.7,90.6,61,92.5,61,94.6z M59.8,94.6
			c-0.1-2.4-0.3-4.4-0.6-5.7c-0.2-1-0.6-1.6-1.2-1.6c-0.5,0-0.9,0.6-1.1,1.9c-0.2,1.3-0.3,3.1-0.3,5.4c0.1,2.3,0.3,4,0.6,5.2
			c0.3,1.2,0.8,1.8,1.3,1.9c0.4,0,0.7-0.4,0.8-1.1C59.8,99,59.9,97.1,59.8,94.6z"/>
		<path fill="#1B3E71" d="M70.1,100.6c0,0.1-0.1,0.2-0.2,0.2c0,0,0,0-0.1,0c-0.1,0-0.1,0-0.2,0c0,0-0.1,0-0.1,0
			c-0.4,0-0.8,0.3-1.1,0.7c-0.1,0.2-0.2,0.2-0.2,0.3c-0.1,0-0.1-0.1-0.1-0.4c0-0.4,0-0.6,0-1c-0.4,0.9-0.8,1.4-1.3,1.4
			c-0.7,0-1.3-0.6-1.8-1.9c-0.5-1.3-0.7-3.1-0.8-5.3c0-2.2,0.2-4.1,0.7-5.5c0.5-1.4,1.1-2.1,1.9-2.1c0.6,0,1.1,0.6,1.4,1.6
			c0-2,0-3-0.1-5.1c0-1.7-0.1-2.7-0.1-3.1C68,80.2,67.9,80,67.8,80c-0.3,0-0.4,0.1-0.5,0.1c-0.1,0-0.2-0.1-0.2-0.3
			c0-0.2,0.1-0.3,0.2-0.3c0.2,0,0.3,0,0.5,0.1c0.3,0,0.8-0.1,1.6-0.5c0.1,0,0.1,0,0.1,0c0.1,0,0,0.2-0.2,0.5
			c-0.1,0.1-0.1,0.3-0.1,0.6c0,0.4,0,0.7,0,0.9c0.1,4.6,0.1,6.8,0.1,11.2c0,5,0,7.6,0,7.9c0,0.1,0.2,0.2,0.6,0.2
			C70,100.3,70.1,100.4,70.1,100.6z M68.2,92.9c0-2-0.1-3.4-0.3-4c-0.2-0.7-0.6-1.1-0.9-1.1c-0.5,0-0.9,0.6-1.1,1.8
			c-0.3,1.2-0.4,2.9-0.4,4.9c0,1.9,0.1,3.6,0.4,4.9c0.1,0.6,0.3,1,0.5,1.4c0.2,0.4,0.4,0.5,0.6,0.5c0.3,0,0.5-0.2,0.7-0.6
			c0.2-0.4,0.4-0.9,0.4-1.4C68.2,98.7,68.2,96.6,68.2,92.9z"/>
		<path fill="#1B3E71" d="M75.3,97.5c0,0.2-0.1,0.5-0.2,1.1c-0.2,0.5-0.3,0.9-0.5,1.3c-0.4,0.9-0.9,1.4-1.5,1.4
			c-0.8,0.1-1.4-0.5-1.9-1.7c-0.5-1.3-0.7-2.9-0.7-4.9c0-2.1,0.3-3.8,0.8-5.3c0.5-1.4,1.2-2.1,1.9-2.1c0.6,0,1.2,0.4,1.6,1.3
			c0.4,0.9,0.6,1.9,0.6,3.2c-0.3,0.1-0.7,0.2-1.1,0.2c-0.4,0-0.6,0-0.9,0c-0.1,0-0.6,0-1.6,0.1c-0.1,0.7-0.1,1.3-0.1,1.9
			c0,2.1,0.1,3.6,0.4,4.7c0.3,1.1,0.7,1.5,1.3,1.5c0.3,0,0.6-0.2,0.8-0.6c0.2-0.4,0.5-1.1,0.7-2.1c0-0.2,0.1-0.2,0.2-0.2
			C75.3,97.3,75.3,97.3,75.3,97.5z M74.3,91.4c0-2.4-0.4-3.7-1.1-3.7c-0.7,0-1.2,1.3-1.4,3.8C72.9,91.5,73.4,91.5,74.3,91.4z"/>
		<path fill="#1B3E71" d="M80.7,99.6c0,0.2-0.1,0.3-0.2,0.3c-0.1,0-0.1,0-0.2,0c0,0-0.2,0-0.7,0.1c-0.2,0-0.2,0-0.4,0.1
			c-0.1,0-0.4,0.1-1,0.2c-0.1,0-0.1,0-0.2,0c-0.1,0-0.2,0-0.2-0.2c0-0.1,0.1-0.2,0.2-0.2c0.1,0,0.2,0,0.3,0c0.2,0,0.4-0.2,0.4-0.4
			c0-0.1,0.1-0.8,0.2-2.2c0.3-5.8,0.4-8.8,0.4-15c0-0.7,0-1,0-1.1c0-0.2-0.1-0.2-0.2-0.3c0,0-0.1,0-0.1,0c-0.2,0-0.2,0-0.4,0
			c-0.1,0-0.2-0.1-0.2-0.3c0-0.2,0.1-0.2,0.3-0.2c0.4,0,0.9-0.2,1.5-0.4c0.2-0.1,0.2-0.1,0.4-0.2c0.1,0,0.1,0,0.1-0.1
			c-0.2,0.4-0.3,1.1-0.3,2.3c0,0.9,0,1.3,0,2.1c-0.1,5.9-0.2,8.7-0.6,14.2c0,0.6-0.1,0.9-0.1,1c0,0.1,0,0.2,0.1,0.2c0,0,0.2,0,0.5,0
			C80.6,99.5,80.7,99.5,80.7,99.6z"/>
		<path fill="#1B3E71" d="M87.1,93.2c-0.2,1.7-0.6,3.1-1.2,4.3c-0.6,1.2-1.3,1.9-2.1,2c-0.8,0.1-1.3-0.3-1.7-1.4
			c-0.4-1.1-0.6-2.6-0.5-4.4c0.1-1.9,0.4-3.5,1-4.8c0.6-1.3,1.3-1.9,2-2c0.8,0,1.4,0.6,1.9,1.7C87.1,90,87.2,91.4,87.1,93.2z
			 M85.9,93.3c0.2-2,0.1-3.5-0.1-4.6c-0.2-0.8-0.5-1.2-1.1-1.2c-0.5,0-0.9,0.6-1.2,1.7c-0.3,1.1-0.5,2.6-0.7,4.5
			c-0.1,1.9-0.1,3.3,0.1,4.2c0.2,1,0.5,1.4,1,1.3c0.4-0.1,0.7-0.4,1-1.1C85.4,96.9,85.7,95.3,85.9,93.3z"/>
		<path fill="#1B3E71" d="M91.6,94.7c-0.1,0.9-0.4,1.8-0.9,2.5c-0.5,0.7-0.9,1.1-1.4,1.2c-0.3,0.1-0.6-0.1-1-0.4
			C88.2,98,88.1,97.9,88,98c-0.1,0-0.2,0.2-0.3,0.5c-0.1,0.2-0.1,0.3-0.2,0.3c-0.1,0-0.1,0-0.1-0.2c0-0.1,0-0.2,0-0.3
			c0-0.3,0.1-0.8,0.2-1.5c0-0.1,0-0.3,0.1-0.6c0-0.4,0.1-0.6,0.1-0.7c0-0.1,0-0.2,0-0.3c0-0.2,0.1-0.3,0.1-0.3
			c0.1,0,0.1,0.1,0.1,0.3c0,0.8,0,1.4,0.1,1.8c0.2,0.8,0.6,1.1,1.2,1c0.3-0.1,0.6-0.3,0.8-0.7c0.2-0.4,0.4-0.8,0.5-1.4
			c0.1-0.6,0.1-1.1-0.1-1.5c-0.1-0.2-0.2-0.3-0.3-0.4c-0.1-0.1-0.4-0.3-0.8-0.5c-0.9-0.6-1.3-1.6-1.1-3.1c0.1-1,0.3-1.8,0.7-2.5
			c0.4-0.7,0.8-1.1,1.3-1.1c0.2,0,0.4,0.1,0.8,0.3c0.1,0,0.2,0.1,0.2,0.1c0.2,0,0.3-0.2,0.4-0.5c0-0.2,0.1-0.3,0.1-0.3
			c0.1,0,0.1,0.1,0.1,0.2c0,0,0,0.1,0,0.2c0,0.4,0,0.7-0.1,1.1c0,0.4-0.1,1.1-0.1,2c0,0,0,0,0,0.1c0,0.1-0.1,0.2-0.1,0.2
			c-0.1,0-0.1-0.2-0.1-0.8c0-0.6-0.2-1.1-0.4-1.5c-0.2-0.4-0.5-0.5-0.8-0.5c-0.3,0-0.6,0.2-0.8,0.6c-0.2,0.4-0.3,0.9-0.4,1.4
			c-0.1,0.9,0.2,1.5,0.7,1.9c0.8,0.6,1.4,1.1,1.5,1.5C91.6,93.2,91.7,93.9,91.6,94.7z"/>
		<path fill="#1B3E71" d="M102.1,84.2c-0.1,1.5-0.6,2.7-1.5,3.6c-0.5,0.6-1.1,0.9-1.9,1c-0.3,0-0.6,0-1-0.1c-0.3,2.7-0.5,4-1.1,6.5
			c-0.1,0.3-0.1,0.6-0.1,0.6c0,0.2,0.1,0.3,0.2,0.3c0.2,0,0.5,0,0.7-0.1c0.1,0,0.1,0,0.1,0.1c0,0.1-0.1,0.2-0.2,0.3
			c-0.1,0-0.1,0-0.1,0c-0.5,0.1-1.3,0.3-2.6,0.6c-0.1,0-0.1,0-0.2,0c-0.3,0.1-0.4,0-0.3-0.1c0-0.1,0.1-0.2,0.3-0.2
			c0.4-0.1,0.6-0.2,0.7-0.3c0.1-0.1,0.1-0.2,0.2-0.5c1.1-5.3,1.4-8.2,1.6-14.1c0-0.5-0.1-0.8-0.2-1c-0.1-0.1-0.2-0.1-0.4-0.1
			c-0.1,0-0.1,0-0.1,0c0,0-0.1,0-0.1,0c-0.1,0-0.2,0-0.1-0.1c0.1-0.1,0.2-0.2,0.5-0.2c1.2,0,1.8,0,3,0c1,0,1.6,0.2,2.1,0.8
			C102,82,102.2,82.9,102.1,84.2z M100.7,84.3c0.2-2.4-0.3-3.6-1.5-3.6c-0.4,0-0.7,0.1-0.8,0.3c-0.1,0.1-0.1,0.4-0.1,0.8
			c-0.1,2.6-0.2,4-0.5,6.5c0.1,0,0.1,0,0.2,0c0.6-0.1,1.1-0.3,1.6-0.8C100.2,86.9,100.6,85.9,100.7,84.3z"/>
		<path fill="#1B3E71" d="M106.1,86.2c0,0.4-0.2,0.7-0.3,0.9c-0.2,0.3-0.3,0.4-0.5,0.5c-0.2,0-0.3,0-0.3-0.1
			c-0.1-0.1-0.1-0.3-0.1-0.6c0-0.2,0.1-0.4,0.2-0.6c0.1-0.2,0.1-0.3,0.2-0.4c0-0.2,0-0.3-0.2-0.3c-0.2,0.1-0.5,0.4-0.7,1
			c-0.3,0.7-0.5,1.9-0.8,3.5c-0.3,1.8-0.5,2.6-1,4.3c0,0.2,0,0.3,0,0.3c0.1,0,0.3-0.1,0.6-0.1c0.1,0,0.1,0,0.1,0.1
			c0,0.1-0.1,0.2-0.2,0.2c-0.2,0.1-0.4,0.1-0.5,0.2c-0.2,0-0.5,0.1-0.9,0.3c-0.2,0.1-0.4,0.1-0.5,0.2c-0.1,0-0.2,0.1-0.4,0.1
			c-0.1,0-0.2,0-0.2-0.1c0-0.1,0.1-0.1,0.2-0.2c0.1,0,0.1,0,0.2-0.1c0.3-0.1,0.5-0.2,0.5-0.3c0-0.1,0.1-0.3,0.2-0.8
			c0.6-2.3,0.8-3.6,1.2-6c0.1-0.8,0.1-1.3,0-1.4c-0.1-0.1-0.3-0.1-0.6,0c-0.1,0-0.1,0-0.1-0.1c0-0.1,0.1-0.2,0.1-0.2
			c0,0,0.1,0,0.1,0c0.1,0,0.3-0.1,0.4-0.1c0.1,0,0.2,0,0.2,0c0.3-0.1,0.7-0.4,1.1-0.9c0.1-0.1,0.1-0.1,0.2-0.2c0,0,0.1-0.1,0.1-0.1
			c0,0.4,0,0.7-0.1,1.1c0,0.2,0,0.3-0.1,0.5c0.4-1.1,0.8-1.8,1.3-2c0.3-0.1,0.5,0,0.6,0.2C106.1,85.4,106.1,85.7,106.1,86.2z"/>
		<path fill="#1B3E71" d="M107.4,93.7c0,0.1-0.1,0.2-0.3,0.2c0,0-0.1,0-0.3,0c-0.2,0-0.4,0.1-0.6,0.1c-0.5,0.1-0.8,0.2-1.3,0.3
			c-0.1,0.1-0.1,0.1-0.2,0.1c-0.1,0-0.1,0-0.1-0.1c0-0.2,0.2-0.2,0.3-0.3c0.3-0.1,0.5-0.2,0.6-0.3c0-0.1,0.1-0.4,0.3-0.9
			c0.7-2.6,1-4,1.4-6.8c0-0.4,0.1-0.6,0.1-0.7c0-0.1-0.1-0.1-0.1-0.1c-0.1,0-0.2,0.1-0.4,0.1c0,0-0.1,0-0.1,0c-0.1,0-0.1,0-0.1-0.1
			c0-0.1,0.1-0.2,0.2-0.2c0.6-0.2,1.1-0.6,1.5-1.2c0.1-0.1,0.1-0.1,0.1-0.2c0,0.2,0,0.6-0.1,1.3c0,0,0,0,0,0.2
			c0,0.2-0.1,0.5-0.1,0.9c-0.4,2.5-0.6,3.8-1.3,6.2c-0.2,0.6-0.2,0.9-0.3,1c0,0.1,0,0.2,0.1,0.2c0.1,0,0.3,0,0.5-0.1
			C107.4,93.5,107.4,93.6,107.4,93.7z M108.8,79.5c0,0.7-0.2,1.2-0.6,1.3c-0.2,0.1-0.3,0-0.4-0.2c-0.1-0.2-0.1-0.4-0.1-0.7
			c0-0.8,0.2-1.2,0.6-1.3C108.6,78.5,108.8,78.8,108.8,79.5z"/>
		<path fill="#1B3E71" d="M113.7,92.4c0,0.1-0.1,0.2-0.2,0.2c-0.1,0-0.1,0-0.2,0c-0.2,0-0.4,0.1-0.6,0.1c-0.8,0.1-1.3,0.2-1.5,0.3
			c0,0-0.1,0-0.1,0c-0.1,0-0.2,0-0.1-0.1c0-0.1,0.1-0.1,0.1-0.1c0.1,0,0.2-0.1,0.5-0.1c0.2,0,0.3-0.1,0.3-0.2c0-0.1,0.1-0.3,0.2-0.7
			c0.5-1.7,0.7-2.6,1-4.4c0.3-1.7,0.4-2.7,0.4-3c0-0.7-0.3-1-0.7-0.9c-0.4,0.1-0.8,0.5-1.2,1.3c-0.1,0.2-0.2,0.5-0.3,0.9
			c-0.5,2.9-0.8,4.4-1.6,7.1c-0.1,0.2,0,0.3,0.2,0.2c0.2,0,0.2,0,0.4-0.1c0.1,0,0.1,0,0.1,0.1c0,0.1-0.1,0.2-0.2,0.2
			c-0.1,0-0.1,0-0.2,0c-0.2,0-0.5,0.1-0.9,0.2c-0.1,0-0.3,0.1-0.6,0.1c-0.3,0.1-0.5,0.1-0.5,0.1c0,0,0,0-0.1,0c-0.1,0-0.2,0-0.2-0.1
			c0-0.1,0.1-0.2,0.3-0.2c0.1,0,0.2,0,0.3-0.1c0.1,0,0.2-0.1,0.3-0.2c0.1-0.1,0.1-0.2,0.1-0.3c0.5-1.9,0.8-2.9,1.2-4.9
			c0.3-1.7,0.4-2.7,0.5-2.9c0-0.2-0.1-0.3-0.3-0.2c-0.1,0-0.2,0-0.3,0.1c0,0,0,0-0.1,0c-0.2,0-0.2,0-0.2-0.1c0-0.2,0.1-0.2,0.3-0.3
			c0.3-0.1,0.6-0.2,0.9-0.5c0.3-0.2,0.6-0.5,0.7-0.7c0.1-0.1,0.2-0.2,0.2-0.2c0.1,0,0.1,0.1,0,0.4c-0.1,0.5-0.1,0.7-0.1,1.1
			c0.6-1.2,1.2-1.9,1.9-2c0.6-0.1,1,0.2,1.2,1c0.1,0.4,0,1.4-0.2,2.7c-0.4,2.2-0.6,3.2-1.2,5.2c-0.1,0.5-0.2,0.7-0.2,0.8
			c0,0.1,0.1,0.1,0.3,0.1c0,0,0.1,0,0.1,0c0,0,0.1,0,0.1,0C113.7,92.3,113.7,92.3,113.7,92.4z"/>
		<path fill="#1B3E71" d="M120.8,83.8c-0.1,0.8-0.4,1.2-0.8,1.2c-0.4,0-0.5-0.3-0.4-1c0-0.2,0.1-0.5,0.3-0.8c0-0.1,0.1-0.2,0.1-0.4
			c0-0.3,0-0.6-0.2-0.8c-0.2-0.2-0.4-0.3-0.6-0.2c-0.5,0.1-1,0.6-1.4,1.5c-0.4,0.9-0.7,2.1-1,3.6c-0.3,1.7-0.5,2.9-0.5,3.7
			c0.1,0.8,0.3,1.2,0.9,1.2c0.4,0,0.7-0.2,1.2-0.7c0.2-0.2,0.5-0.6,0.8-1.1c0.1-0.1,0.1-0.1,0.1-0.1c0.1,0,0.1,0.1,0.1,0.2
			c-0.1,0.2-0.3,0.6-0.8,1.2c-0.6,0.7-1.2,1.1-1.8,1.2c-0.8,0.1-1.2-0.3-1.5-1.2c-0.2-0.9-0.2-2,0.2-3.5c0.3-1.6,0.8-3,1.5-4.2
			c0.7-1.2,1.4-1.9,2.2-2c0.5-0.1,1,0.1,1.3,0.6C120.7,82.6,120.9,83.2,120.8,83.8z"/>
		<path fill="#1B3E71" d="M122.1,91.9c0,0.1-0.1,0.2-0.3,0.2c0,0-0.1,0-0.3-0.1c-0.2,0-0.5-0.1-0.6-0.1c-0.5,0-0.8,0-1.3,0
			c-0.1,0.1-0.1,0.1-0.2,0.1c-0.1,0-0.1-0.1-0.1-0.2c0.1-0.2,0.2-0.2,0.3-0.3c0.3,0,0.5-0.1,0.6-0.1c0.1-0.1,0.2-0.4,0.3-1
			c0.8-2.9,1.2-4.3,1.6-7.4c0.1-0.4,0.1-0.7,0.1-0.7c0-0.1-0.1-0.1-0.2-0.1c-0.2,0-0.2,0-0.4,0c0,0-0.1,0-0.1,0
			c-0.1,0-0.1,0-0.1-0.2c0-0.1,0.1-0.2,0.2-0.2c0.6-0.1,1.1-0.4,1.6-0.9c0.1-0.1,0.1-0.1,0.1-0.2c0,0.3,0,0.7-0.1,1.4
			c0,0,0,0.1,0,0.3c0,0.2-0.1,0.5-0.1,1c-0.4,2.8-0.7,4.1-1.5,6.7c-0.2,0.6-0.3,1-0.3,1.1c0,0.1,0,0.2,0.1,0.2
			c0.1,0.1,0.3,0.1,0.5,0.1C122.1,91.7,122.2,91.8,122.1,91.9z M123.8,76.3c0,0.8-0.2,1.2-0.6,1.3c-0.2,0-0.3-0.1-0.4-0.3
			c-0.1-0.2-0.2-0.5-0.1-0.8c0-0.8,0.2-1.3,0.6-1.3C123.6,75.1,123.8,75.5,123.8,76.3z"/>
		<path fill="#1B3E71" d="M129.6,86.7c-0.4,1.8-1.1,3.2-1.9,4.3s-1.6,1.6-2.3,1.5c-0.6-0.1-0.9-0.5-0.9-1.3
			c-0.7,2.3-1.1,3.4-2.1,5.6c-0.1,0.3-0.2,0.5-0.2,0.6c0,0.1,0,0.1,0,0.2c0.1,0.1,0.3,0.1,0.7,0.2c0.1,0,0.1,0.1,0.1,0.2
			c0,0.1-0.1,0.2-0.2,0.1c-0.1,0-0.1,0-0.2,0c-0.1,0-0.1,0-0.3,0c-0.1,0-0.2,0-0.3,0c0,0-0.2,0-0.4-0.1c-0.2,0-0.4-0.1-0.5-0.1
			c-0.3,0-0.4,0-0.6-0.1c-0.2,0-0.3-0.1-0.3-0.2c0.1-0.1,0.1-0.2,0.2-0.2c0.1,0,0.2,0,0.4,0c0.2,0,0.4-0.1,0.5-0.2
			c0-0.1,0.4-0.8,0.9-2.1c1.8-4.6,2.5-7.1,3.3-12.3c0.1-0.5,0-0.7-0.3-0.7c-0.3,0-0.5,0-0.6,0c-0.1,0-0.1-0.1-0.1-0.2
			c0-0.2,0.1-0.3,0.3-0.3c0.5,0,1-0.3,1.4-0.8c0.1-0.1,0.2-0.2,0.3-0.2c0.1,0,0.1,0.1,0.1,0.2c0,0.1,0,0.5-0.1,1.2
			c0.5-0.9,1-1.5,1.6-1.5c0.8,0,1.3,0.5,1.7,1.7C130,83.5,130,85,129.6,86.7z M128.5,86.7c0.3-1.4,0.4-2.6,0.4-3.6
			c-0.1-1.4-0.4-2-1-2c-0.3,0-0.6,0.3-0.9,0.7c-0.3,0.4-0.5,1-0.6,1.6c-0.1,0.8-0.4,2.4-1,4.8c-0.3,1.2-0.5,1.9-0.5,2.1
			c-0.1,0.2-0.1,0.5-0.1,0.7c0,0.7,0.2,1.1,0.6,1.1c0.4,0,0.9-0.3,1.3-1C127.5,90,128.1,88.6,128.5,86.7z"/>
		<path fill="#1B3E71" d="M134.4,90.4c-0.1,0.2-0.2,0.5-0.5,1c-0.3,0.5-0.5,0.8-0.8,1.1c-0.6,0.8-1.2,1.1-1.8,0.9
			c-0.7-0.1-1.2-0.8-1.3-2c-0.2-1.2,0-2.7,0.4-4.4c0.4-1.8,0.9-3.3,1.6-4.6c0.7-1.3,1.4-1.9,2.2-1.9c0.6,0,1.1,0.4,1.4,1.2
			c0.3,0.8,0.4,1.9,0.1,3.2c-0.3,0.1-0.7,0.1-1.1,0.1c-0.4,0-0.5,0-0.9,0c-0.1,0-0.6,0-1.6,0c-0.2,0.6-0.3,1.2-0.4,1.7
			c-0.4,1.9-0.6,3.3-0.6,4.3c0,1,0.3,1.6,0.9,1.7c0.3,0.1,0.7-0.1,1-0.4c0.3-0.3,0.7-0.9,1.2-1.8c0.1-0.1,0.1-0.2,0.2-0.2
			C134.4,90.2,134.5,90.2,134.4,90.4z M134.7,84.4c0.4-2.3,0.1-3.5-0.6-3.5c-0.7,0-1.3,1.2-1.9,3.4
			C133.2,84.3,133.7,84.4,134.7,84.4z"/>
		<path fill="#1B3E71" d="M139.2,90.5c-0.3,1.2-0.8,2.1-1.5,2.9c-0.6,0.7-1.2,1-1.7,0.9c-0.3-0.1-0.5-0.4-0.8-0.9
			c-0.1-0.2-0.1-0.2-0.2-0.3c-0.1,0-0.3,0.1-0.4,0.5c-0.1,0.2-0.2,0.3-0.3,0.3c-0.1,0-0.1-0.1,0-0.2c0-0.1,0.1-0.2,0.1-0.3
			c0.1-0.4,0.3-0.9,0.5-1.7c0-0.1,0.1-0.3,0.2-0.7c0.1-0.4,0.2-0.7,0.2-0.8c0-0.1,0.1-0.2,0.1-0.3c0.1-0.2,0.1-0.3,0.2-0.3
			c0.1,0,0.1,0.1,0,0.3c-0.2,0.9-0.3,1.6-0.3,2.1c0,1.1,0.3,1.7,0.8,1.8c0.3,0.1,0.6-0.1,0.9-0.5c0.3-0.4,0.6-0.9,0.8-1.6
			c0.2-0.8,0.3-1.4,0.2-1.9c0-0.3-0.1-0.5-0.2-0.6c-0.1-0.1-0.3-0.4-0.7-0.9c-0.7-1-0.9-2.2-0.6-3.9c0.2-1.1,0.5-2.1,1-2.8
			c0.4-0.8,0.9-1.2,1.4-1.2c0.2,0,0.4,0.1,0.7,0.4c0.1,0.1,0.2,0.1,0.2,0.1c0.2,0,0.3-0.2,0.4-0.6c0.1-0.2,0.1-0.3,0.2-0.3
			c0.1,0,0.1,0.1,0.1,0.3c0,0,0,0.1,0,0.2c-0.1,0.5-0.1,0.8-0.2,1.3c-0.1,0.5-0.2,1.3-0.3,2.4c0,0,0,0,0,0.1c0,0.2-0.1,0.2-0.2,0.2
			c-0.1,0-0.1-0.3,0-1c0-0.8,0-1.4-0.2-1.9c-0.2-0.5-0.4-0.7-0.7-0.7c-0.3,0-0.6,0.2-0.8,0.6c-0.3,0.4-0.4,1-0.5,1.6
			c-0.2,1,0,1.8,0.4,2.4c0.7,0.9,1.1,1.7,1.2,2.3C139.5,88.6,139.5,89.5,139.2,90.5z"/>
	</g>
</g>
<g>
	<g>
		<path fill="#4D99D3" d="M42.8,9.5c-0.4,1.1-1.3,2.2-2.9,3.1c-0.8,0.4-1.5,0.7-2.2,0.9c0.6,0,1.1,0.1,1.3,0.3
			c0.3,0.3,0.4,0.7,0.2,1.3c-0.2,0.6-0.6,1.2-1.2,1.7c-0.6,0.5-1.3,0.9-2.2,1.2c-1,0.3-2.8,0.3-5.2,0.3c0,0-0.2,0-0.5,0
			c-0.3,0-0.5,0-0.8,0c-0.7,0-1.1,0-1.8,0c-0.8,0-1.2,0-1.3,0c0,0-0.1,0-0.1,0c-0.1,0-0.2,0-0.1-0.1c0.1-0.1,0.2-0.1,0.4-0.1
			c0.3,0,0.5,0,0.8,0c0.5,0,0.8-0.1,0.9-0.1c0.1,0,0.2-0.1,0.4-0.1c0.1,0,0.2-0.1,0.3-0.2c0.1-0.1,0.6-0.3,1.3-0.8
			c2.9-1.9,4.2-3,6.7-5.4c0.8-0.7,1.2-1.2,1.2-1.3c0.1-0.1-0.2,0-1,0.4c-0.1,0.1-0.2,0.1-0.2,0c0,0,0.1-0.1,0.3-0.2
			c0.3-0.2,0.5-0.3,0.8-0.4c1.1-0.6,1.6-0.8,2.7-1.4c1-0.5,1.6-0.6,1.9-0.5C43,8.3,43.1,8.8,42.8,9.5z M37.5,15.1
			c0.5-1.1,0-1.5-1.3-1.2c-0.3,0.1-0.6,0.1-0.9,0.2c-1.6,1.5-2.5,2.2-4.3,3.5c-0.3,0.2-0.5,0.4-0.5,0.4c-0.1,0.1,0,0.2,0.2,0.2
			c1.4,0,2.6-0.1,3.5-0.4C35.8,17.2,36.9,16.3,37.5,15.1z M41.4,9.6c0.3-0.9,0-1.1-1.1-0.6c-0.2,0.1-0.4,0.2-0.6,0.3
			c-0.2,0.2-0.4,0.5-0.7,0.8c-1.3,1.5-2,2.3-3.5,3.6c0.2,0,0.3-0.1,0.6-0.1c1.4-0.3,2.6-0.8,3.6-1.6C40.5,11.3,41.1,10.5,41.4,9.6z"
			/>
		<path fill="#4D99D3" d="M45.7,11.2c0,0-0.1,0.1-0.1,0.2c-0.1,0.2-0.3,0.5-0.6,1c-1.2,2.1-1.9,3-3.3,4.9c-0.5,0.6-0.7,1-0.8,1.1
			c-0.1,0.3,0.1,0.5,0.4,0.6c0.3,0,0.6,0,0.9-0.1c0.4-0.1,0.6-0.3,0.9-0.5c0.1-0.1,0.3-0.2,0.3-0.2c0.1,0,0.1,0.1,0.1,0.1
			c0,0.2-0.3,0.4-0.7,0.6c-0.6,0.4-1.3,0.5-2,0.4c-0.5-0.1-0.8-0.2-1.1-0.5c-0.2-0.2-0.3-0.5-0.2-0.8c0.1-0.3,0.4-0.7,0.9-1.3
			c1.3-1.6,1.9-2.4,3-4.1c0.1-0.2,0.2-0.4,0.3-0.5c0-0.1,0.1-0.1,0.1-0.1c0-0.1-0.2-0.1-0.7-0.1c-0.1,0-0.1,0-0.1-0.1
			c0-0.1,0.1-0.2,0.2-0.2c0,0,0.1,0,0.3,0c0.2,0,0.4,0,0.8-0.1c0.5-0.1,0.8-0.2,1.1-0.3c0.1-0.1,0.2-0.1,0.3-0.1
			C45.7,11,45.7,11.1,45.7,11.2z M47.6,7.3c-0.1,0.6-0.4,0.9-0.8,1c-0.2,0.1-0.4,0-0.5-0.1c-0.1-0.1-0.1-0.3-0.1-0.5
			c0.1-0.5,0.4-0.8,0.9-1C47.5,6.5,47.7,6.7,47.6,7.3z"/>
		<path fill="#4D99D3" d="M53.2,13.9c-0.2,2-1,3.8-2.4,5.2c-1.4,1.4-2.9,1.7-4.3,1.3c-0.7-0.2-1.2-0.5-1.6-1c-0.4-0.5-0.5-1-0.4-1.5
			c0.1-0.3,0.4-0.9,0.9-1.8c2.3-3.7,3.3-5.8,5.3-10.4c0.1-0.2,0.1-0.3,0.2-0.4c0.1-0.1,0.1-0.2,0.1-0.2c0-0.2-0.3-0.1-0.9,0.1
			c-0.1,0-0.1,0-0.1-0.1c0-0.1,0.2-0.2,0.4-0.3c0.9-0.3,1.4-0.4,1.5-0.5C51.9,4.1,52,4,52.1,4c0,0,0.1,0,0.1,0c0.1,0,0.1,0,0.1,0.1
			c0,0,0,0.1-0.1,0.2c-0.1,0.3-0.3,0.6-0.5,1.1c-0.9,2.3-1.3,3.4-2.3,5.6c-0.2,0.4-0.4,0.8-0.6,1.3c0.1-0.1,0.1-0.2,0.2-0.2
			c0.2-0.2,0.3-0.3,0.5-0.5c0.5-0.5,1-0.8,1.7-0.8c0.6,0,1.1,0.3,1.4,0.9C53.1,12.1,53.3,13,53.2,13.9z M51.8,12.8
			c0.1-1.1-0.1-1.7-0.7-1.7c-1.2,0-2.4,1.6-3.8,4.4c-0.2,0.5-0.4,0.7-0.6,1.2c-0.6,1.1-1,1.9-1,2.3c-0.1,0.6,0.2,0.9,0.9,1.1
			c1.2,0.3,2.5-0.4,3.7-2.7C51.2,15.5,51.7,13.9,51.8,12.8z"/>
		<path fill="#4D99D3" d="M60.3,2.4c0,0,0,0.2-0.1,0.4c0,0.2-0.1,0.4-0.2,0.8c-1.9,6.9-2.9,10.1-5,16c-0.4,1.1-0.6,1.8-0.6,2.1
			c0,0.5,0.2,0.9,0.6,1c0.4,0.2,0.9-0.1,1.4-0.8c0.2-0.3,0.3-0.5,0.4-0.4c0.1,0,0.1,0.1,0.1,0.3c0,0.3-0.2,0.6-0.7,1.1
			c-0.5,0.5-1.1,0.6-1.9,0.3c-1-0.4-1.5-1.1-1.4-2.3c0-0.4,0.2-1.1,0.6-2.1c2.1-5.6,3.1-8.7,5-15.4c0-0.1,0.1-0.2,0.1-0.2
			c0-0.2-0.1-0.2-0.3-0.2c-0.5,0.1-0.7,0.1-0.7,0c0-0.1,0.1-0.1,0.2-0.2c0.1,0,0.3-0.1,0.5-0.1c0.2,0,0.4-0.1,0.5-0.1
			c0.5-0.1,0.9-0.2,1.1-0.3c0.1,0,0.2-0.1,0.3-0.1C60.2,2.2,60.3,2.3,60.3,2.4z"/>
		<path fill="#4D99D3" d="M62.3,11.1c0,0.1,0,0.2-0.1,0.4c-0.1,0.3-0.3,0.8-0.5,1.6c-1,3.4-1.5,5-2.5,8.2c-0.3,1.1-0.5,1.7-0.5,2
			c0,0.6,0.1,0.9,0.5,1c0.2,0.1,0.5,0,0.8-0.2c0.3-0.2,0.6-0.5,0.7-0.9c0.1-0.2,0.2-0.3,0.3-0.3c0.1,0,0.1,0.1,0.1,0.2
			c0,0.3-0.2,0.6-0.6,1c-0.6,0.6-1.2,0.8-1.8,0.6c-0.4-0.1-0.8-0.5-1-0.9c-0.3-0.5-0.4-1-0.3-1.6c0-0.5,0.2-1.3,0.6-2.4
			c0.9-2.7,1.4-4.1,2.3-7c0.1-0.4,0.2-0.6,0.3-0.8c0-0.1,0.1-0.2,0.1-0.2c0-0.2-0.2-0.3-0.8-0.4c-0.1,0-0.1-0.1-0.1-0.2
			c0-0.2,0.1-0.3,0.2-0.3c0,0,0.1,0,0.3,0.1c0.2,0,0.4,0.1,0.8,0.1c0.5,0,0.9,0,1.1-0.2c0.1-0.1,0.2-0.1,0.3-0.1
			C62.3,10.8,62.3,10.9,62.3,11.1z M63.8,4.9c0,0.9-0.3,1.4-0.7,1.4c-0.2,0-0.4-0.1-0.6-0.4c-0.1-0.3-0.2-0.6-0.2-1
			c0-0.9,0.3-1.3,0.9-1.4C63.6,3.5,63.8,3.9,63.8,4.9z"/>
		<path fill="#4D99D3" d="M71.3,11.2c0,0.1-0.1,0.3-0.2,0.7c-1,4.2-1.6,6.4-2.7,10.6c-0.3,1-0.4,1.8-0.4,2.4c0,0.6,0.1,1,0.5,1
			c0.5,0,1.1-0.6,1.6-1.9c0.1-0.3,0.2-0.4,0.2-0.4c0.1,0,0.1,0.1,0.1,0.2c0,0.3-0.2,0.7-0.5,1.3c-0.6,1.1-1.3,1.6-2.1,1.6
			c-0.4,0-0.7-0.2-1-0.6c-0.2-0.4-0.4-0.9-0.3-1.4c0-0.4,0.1-0.8,0.2-1.2c-0.9,2.1-1.9,3.1-2.9,2.9c-0.7-0.1-1.2-0.7-1.5-1.5
			c-0.4-0.9-0.5-1.9-0.5-3c0.1-1.3,0.4-2.6,0.9-4.1c0.5-1.5,1.2-2.8,2-4c1.1-1.7,2.1-2.6,3-2.6c0.9,0,1.4,0.8,1.5,2.5
			c0.2-0.7,0.3-1.1,0.5-1.9c0.1-0.4,0.2-0.6,0.3-0.6c0,0,0.1,0,0.2,0.1c0.1,0,0.2,0.1,0.3,0.1c0.3,0,0.5,0,0.6-0.2
			c0.1-0.1,0.1-0.1,0.1-0.1C71.2,10.9,71.3,11,71.3,11.2z M68.9,14.1c0-0.7-0.1-1.3-0.3-1.8c-0.2-0.4-0.5-0.7-0.9-0.7
			c-0.6,0-1.2,0.7-1.8,2c-0.7,1.5-1.3,3.1-1.7,4.8c-0.5,1.7-0.7,3.1-0.8,4.4c-0.1,1.6,0.2,2.4,1,2.6c0.4,0.1,0.9-0.3,1.4-1
			c0.5-0.8,0.9-1.8,1.3-3c0.7-2.4,1-3.5,1.6-5.9C68.8,14.8,68.9,14.3,68.9,14.1z"/>
		<path fill="#4D99D3" d="M85.2,20.1c0,0.3-0.2,2.1-0.8,5.6c-0.1,0.4-0.1,0.7-0.2,1.1c0,0.2-0.1,0.4-0.2,0.4c-0.1,0-0.3,0-0.7,0
			c-0.5,0-0.7,0-1.2,0c-0.6,0-1.1-0.1-1.7-0.1c-0.6-0.1-0.8-0.1-0.8-0.1c-0.1,0-0.3,0-0.6,0c-0.4,0-0.7,0-1,0c-0.6,0-1,0-1.6-0.1
			c-0.3,0-0.5,0-0.8,0c-0.3,0-0.4,0-0.4,0c-0.2,0-0.4,0-0.8,0c-0.3,0-0.6,0-0.8,0c-0.2,0-0.3-0.1-0.3-0.3c0-0.2,0.2-0.3,0.5-0.3
			c0,0.1,0.4,0,1,0c0.2,0,0.4-0.1,0.5-0.2c0.1-0.1,0.2-0.4,0.2-0.8c0-0.1,0.2-0.6,0.3-1.5c1.7-7.7,2.5-11.5,3.7-18.8
			c0.2-0.9,0.2-1.5,0.2-1.8c0-0.3-0.3-0.6-0.9-0.6c0,0-0.1,0-0.5,0.1c-0.1,0-0.2-0.1-0.2-0.3C78.2,2,78.5,1.9,79,2
			c0,0,0.3,0,0.8,0.1c0.3,0,0.6,0.1,0.8,0.2c0.5,0.1,1.2,0.2,1.8,0.2c0.1,0,0.2,0,0.3,0c0.1-0.1,0.1-0.1,0.2-0.1
			c0.1,0,0.2,0.1,0.2,0.4c0,0.2,0,0.3-0.2,0.3c0,0-0.1,0-0.4-0.1c-0.1,0-0.1,0-0.2,0c-0.4-0.1-0.7,0-0.7,0.1c-0.1,0.1-0.2,1-0.5,2.6
			c-1.1,7.1-1.8,10.8-3.3,18.4c-0.1,0.5-0.2,0.8-0.2,1.1c0,0.1-0.1,0.2-0.1,0.3c0,0.4,0.3,0.6,0.8,0.6c1.9,0.1,3.1,0,3.8-0.3
			c1-0.4,1.8-1.8,2.3-4c0.2-0.8,0.3-1.4,0.4-1.9c0-0.2,0.1-0.3,0.2-0.3C85.2,19.8,85.2,19.9,85.2,20.1z"/>
		<path fill="#4D99D3" d="M94.3,13.4c0,0.1,0,0.3,0,0.7c-0.4,3.7-0.6,5.7-1.3,9.7c-0.2,1-0.2,1.7-0.2,2.3c0.1,0.6,0.2,0.9,0.6,0.9
			c0.5,0,1-0.6,1.4-1.8c0.1-0.2,0.1-0.4,0.2-0.4c0.1,0,0.1,0,0.1,0.1c0,0.2-0.1,0.6-0.3,1.2c-0.5,1.1-1.1,1.6-1.9,1.6
			c-0.4,0-0.8-0.2-1.1-0.5c-0.3-0.4-0.4-0.8-0.5-1.4c0-0.4,0-0.8,0-1.2c-0.7,2.1-1.6,3.2-2.7,3.2c-0.7,0-1.3-0.4-1.8-1.3
			c-0.5-0.8-0.7-1.9-0.8-3.1c-0.1-1.4,0.1-2.8,0.5-4.4c0.4-1.6,0.9-3,1.6-4.2c0.9-1.6,1.8-2.3,2.6-2.2c0.9,0.1,1.5,1,1.8,2.6
			c0.1-0.7,0.1-1,0.2-1.7c0-0.3,0.1-0.5,0.2-0.5c0,0,0.1,0,0.2,0.1c0.1,0.1,0.2,0.1,0.3,0.1c0.3,0,0.5,0,0.6,0c0,0,0.1-0.1,0.1-0.1
			C94.2,13.2,94.2,13.3,94.3,13.4z M92.3,15.8c-0.1-0.7-0.3-1.3-0.5-1.7c-0.3-0.5-0.6-0.7-0.9-0.8c-0.6-0.1-1.1,0.5-1.5,1.8
			c-0.5,1.5-0.9,3-1.2,4.7c-0.3,1.7-0.4,3.2-0.3,4.6c0.1,1.6,0.5,2.4,1.2,2.5c0.4,0,0.9-0.4,1.3-1.2c0.4-0.8,0.8-1.8,1-3
			c0.4-2.3,0.6-3.4,0.9-5.6C92.3,16.4,92.4,16,92.3,15.8z"/>
		<path fill="#4D99D3" d="M100,14.6c0.1,0.3-0.2,0.4-0.6,0.3c-0.3-0.1-0.4-0.1-0.7-0.1c-0.1,0-0.2,0-0.3-0.1
			c-0.2,3.5-0.4,5.4-0.9,9.4c-0.1,1.1-0.2,1.7-0.2,2c0.1,0.5,0.3,0.7,0.7,0.7c0.6,0,1.1-0.5,1.4-1.5c0.1-0.2,0.1-0.3,0.2-0.3
			c0.1,0,0.2,0.1,0.2,0.2c0,0.3-0.1,0.7-0.5,1.3c-0.4,0.7-1,1.1-1.7,1.1c-0.5,0-0.9-0.2-1.2-0.6c-0.3-0.4-0.5-0.9-0.6-1.6
			c0-0.4,0-1.1,0.2-2.2c0.6-3.7,0.8-5.4,1.1-8.8c-0.3-0.1-0.4-0.1-0.7-0.1c-0.2,0-0.3-0.1-0.3-0.3c0-0.3,0-0.4,0.2-0.3
			c0.1,0,0.1,0,0.2,0c0.1,0,0.1,0,0.3,0c0.2,0,0.3,0.1,0.5,0.1c0-0.5,0-0.8,0-1.3c0-0.4,0.1-0.6,0.1-0.6c0.1,0,0.1,0,0.3,0.1
			c0.1,0.1,0.2,0.1,0.3,0.1c0.1,0,0.3,0,0.5-0.1c0,0,0.1,0,0.1,0c0.1,0,0.1,0.1,0.1,0.1c0,0.3,0,0.4,0,0.7c0,0.5,0,0.8-0.1,1.3
			c0.2,0,0.3,0.1,0.4,0.1c0.3,0.1,0.4,0.1,0.7,0.1c0.1,0,0.1,0,0.2,0c0.1,0,0.1,0,0.1,0C99.9,14.4,100,14.5,100,14.6z"/>
		<path fill="#4D99D3" d="M103,15.1c0,0.1,0,0.2,0,0.3c0,0.2,0,0.6,0,1.3c0,2.8-0.1,4.3-0.4,7.5c-0.1,1.1-0.1,1.8-0.1,2
			c0.1,0.6,0.3,0.8,0.7,0.8c0.3,0,0.5-0.1,0.8-0.4c0.3-0.3,0.5-0.6,0.6-1c0.1-0.2,0.1-0.3,0.2-0.3c0.1,0,0.1,0.1,0.2,0.2
			c0,0.2-0.1,0.6-0.3,1.1c-0.4,0.7-1,1.1-1.7,1.1c-0.5,0-0.9-0.2-1.2-0.6c-0.4-0.4-0.6-0.9-0.7-1.5c-0.1-0.5-0.1-1.4,0.1-2.5
			c0.3-2.8,0.4-4.2,0.5-6.8c0-0.3,0-0.6,0-0.7c0-0.1,0-0.1,0-0.2c0-0.2-0.3-0.3-0.9-0.5c-0.1-0.1-0.2-0.1-0.2-0.2
			c0-0.2,0-0.2,0.1-0.2c0,0,0.1,0,0.3,0.1c0.2,0.1,0.4,0.1,0.8,0.2c0.5,0.1,0.8,0.1,1,0c0.1,0,0.2-0.1,0.2-0.1
			C102.9,14.9,103,15,103,15.1z M102.6,10.4c0.2,0.7,0.2,1-0.3,0.9c-0.2-0.1-0.4-0.2-0.6-0.5c-0.2-0.3-0.4-0.6-0.5-0.9
			c-0.2-0.7-0.1-1,0.4-0.8C102,9.2,102.3,9.7,102.6,10.4z"/>
		<path fill="#4D99D3" d="M111.4,18.7c0.2,0.4,0.3,1,0.4,1.9c0.2,1.6,0.2,2.5,0.2,4.4c0,0.5,0,0.9,0.1,1.1c0.1,0.4,0.3,0.5,0.6,0.5
			c0.4,0,0.8-0.4,1.2-1.2c0,0,0.1-0.1,0.1-0.1c0.1,0,0.1,0,0.2,0.1c0.1,0.2,0,0.5-0.3,0.9c-0.4,0.5-1,0.8-1.7,0.9
			c-0.4,0-0.8-0.1-1.1-0.3c-0.3-0.2-0.6-0.5-0.7-0.9c-0.1-0.3-0.1-0.8-0.1-1.6c0-1.9,0-2.8-0.1-4.4c-0.1-1-0.2-1.7-0.4-2
			c-0.2-0.5-0.6-0.9-0.9-1c-0.5-0.1-0.9,0.2-1.2,1.2c-0.2,0.7-0.4,1.9-0.4,3.5c0,2,0,3.1-0.2,5.3c0,0.3-0.1,0.4-0.2,0.4
			c0,0-0.2,0-0.4,0c0,0-0.1,0-0.2,0c-0.1,0-0.3,0-0.5,0c0,0-0.1,0-0.1,0c-0.1,0-0.2,0-0.2-0.1c0,0,0-0.1,0-0.2c0-0.2,0-0.3,0-0.4
			c0.3-4.4,0.3-6.4,0.1-10c0-0.1,0-0.2,0-0.2c-0.1-0.1-0.2-0.2-0.5-0.3c-0.3-0.1-0.6-0.2-0.6-0.4c0-0.1,0-0.2,0.1-0.1
			c0.1,0,0.2,0.1,0.4,0.1c0.2,0.1,0.3,0.1,0.4,0.1c0.6,0.1,1,0.2,1.1,0.1c0.1,0,0.1,0,0.1,0c0.1,0,0.1,0.1,0.2,0.2
			c0,0.1,0,0.1,0,0.1c0.1,0.9,0.1,1.3,0.2,2.3c0-0.1,0.1-0.3,0.2-0.6c0.4-1.2,0.9-1.6,1.7-1.4c0.4,0.1,0.9,0.4,1.3,0.8
			C110.8,17.7,111.2,18.2,111.4,18.7z"/>
		<path fill="#4D99D3" d="M119.3,19.7c0,0,0.1,0.1,0.2,0.3c1,1.5,1.4,2.4,1.9,4.6c0.1,0.5,0.3,0.9,0.5,1.2c0.2,0.3,0.5,0.5,0.8,0.5
			c0.5,0,0.8-0.4,0.8-1c0-0.1,0-0.2,0.1-0.2c0.1,0,0.1,0,0.1,0.1c0.1,0.1,0.1,0.3,0,0.6c-0.2,0.6-0.7,0.9-1.5,1
			c-0.4,0-0.8,0-1.2-0.2c-0.4-0.2-0.7-0.4-0.9-0.8c-0.1-0.2-0.2-0.4-0.3-0.7c-0.1,1.2-0.7,2-1.9,2.1c-0.7,0-1.4-0.2-2-0.7
			c-0.7-0.5-1.2-1.2-1.5-2c-0.4-0.9-0.6-1.8-0.6-2.8c0-1,0.1-1.8,0.4-2.3c0.4-0.8,0.9-1,1.7-0.7c0.8,0.3,1.6,0.8,2.4,1.6
			c-0.1-0.3-0.2-0.5-0.4-0.8c-0.1-0.1-0.1-0.2,0-0.2c0,0,0.1,0,0.2,0.1c0.1,0.1,0.2,0.1,0.3,0.1c0.2,0.1,0.4,0.1,0.5,0.1
			c0,0,0,0,0.1,0C119.2,19.6,119.3,19.7,119.3,19.7z M118.5,20.5c-0.3-0.4-0.6-0.7-1-0.9c-0.4-0.3-0.7-0.5-1.1-0.6
			c-0.5-0.2-0.8,0-0.8,0.7c0,0.7,0,1.6,0.2,2.6c0.2,1,0.4,2,0.8,2.8c0.5,1,1.1,1.5,1.8,1.5c0.4,0,0.8-0.3,1-0.8
			c0.2-0.5,0.3-1.1,0.2-1.8c-0.2-1.3-0.4-1.9-0.8-2.9C118.7,20.8,118.6,20.6,118.5,20.5z"/>
	</g>
</g>
<g>
	<g>
		<path fill="#2081C4" d="M16.7,43.8c-0.3,0.8-0.8,2.1-1.5,4.1c-0.1,0-0.1,0-0.2,0c-0.1,0-0.2,0-0.5-0.1s-0.6-0.1-0.9-0.1
			c-3,0.1-4.5,0.1-7.5,0.3c-0.2,0-0.3-0.1-0.2-0.4c0.1-0.2,0.3-0.4,0.7-0.5c0.5-0.1,0.8-0.3,1-0.5c0.2-0.2,0.4-0.8,0.8-1.8
			C11.9,36,17.2,27.9,24,21.2c0.9-0.9,1.4-1.4,1.5-1.5c0.1-0.1-0.1-0.2-0.5-0.2c-0.2,0-0.1-0.1,0.1-0.4c0.2-0.2,0.4-0.3,0.5-0.3
			c0.1,0,0.1,0,0.1,0c0.2,0.1,0.8,0.1,1.7,0.1c0.1,0,0.3,0,0.5-0.1c0.3,0,0.5-0.1,0.7-0.1c0.1,0,0.1,0,0.2,0c0.2,0,0.1,0.1-0.1,0.3
			c-0.1,0.1-0.3,0.2-0.3,0.3c-0.1,0-0.3,0.1-0.6,0.1c-0.3,0-0.6,0.1-0.8,0.3C26.6,20,26,20.6,25,21.6c-6.9,7.1-12.2,15.7-15.6,25.1
			c0.3,0,0.8,0,1.3,0c1.4-0.1,2.5-0.3,3.2-0.7c0.7-0.4,1.4-1.1,1.9-2.2c0.6-1,1.3-2.4,2.1-4.1c0.2-0.4,0.3-0.6,0.5-0.6
			c0.1,0,0.1,0.2-0.1,0.7c-0.2,0.4-0.3,0.7-0.5,1.1c0,0.1-0.1,0.2-0.2,0.4c-0.1,0.2-0.2,0.4-0.3,0.6C17.1,42.7,16.9,43,16.7,43.8z"
			/>
		<path fill="#2081C4" d="M24,45.3c-0.2,0.5-0.6,1.1-1.2,1.6c-0.6,0.6-1.1,0.9-1.5,0.9c-0.8,0-1-1.1-0.2-3.3
			c-1.2,2.3-2.3,3.5-3.3,3.5c-0.5,0-0.8-0.4-0.9-1.2c-0.1-0.8,0.1-1.8,0.6-3.1c1-2.5,2.4-4.5,4.2-5.9c0.6-0.5,1.5-0.9,2.7-1.4
			c0.2-0.4,0.3-0.6,0.5-1.1c1.3-2.5,2.2-4,2.5-4.8c0.7-1.4,0.7-2.1,0.1-2.1c-0.4,0-0.9,0.2-1.4,0.7c-0.6,0.5-1.1,1.1-1.6,1.9
			c-0.1,0.2-0.1,0.3,0,0.3c0.1,0,0.2,0.2,0.1,0.5c-0.1,0.3-0.2,0.7-0.5,1.1c-0.7,1.2-1.3,1.8-1.8,1.8c-0.3,0-0.4-0.2-0.3-0.7
			c0.1-0.4,0.3-1,0.7-1.7c0.8-1.3,1.7-2.4,2.7-3.3c1.1-1,2-1.4,2.8-1.4c1.2,0.1,1.4,0.9,0.7,2.5c-0.3,0.6-1,1.8-2,3.7
			c-1.6,3.1-2.4,4.7-3.7,8.1c-0.5,1.4-0.8,2.2-0.9,2.5c-0.3,1.1-0.3,1.7,0,1.7c0.3,0,0.7-0.3,1.1-0.9C23.8,45.2,24,45,24,45
			C24.1,45,24.1,45.1,24,45.3z M22.7,40.4c0.5-1.3,0.8-1.9,1.4-3.2c-1.1,0.5-2,1.1-2.7,1.9c-0.7,0.8-1.4,1.9-2,3.3
			c-0.4,1-0.6,1.8-0.6,2.4c0,0.6,0.2,1,0.5,0.9c0.5,0,1.2-0.8,2-2.2C21.5,43.3,21.9,42.2,22.7,40.4z"/>
		<path fill="#2081C4" d="M43.3,33.9c-2,4.4-3.9,8.1-6.2,10.7c-1.7,2-3.4,3-5.2,2.9c0,0-0.3,0-0.6,0c-0.4,0-0.9,0-1.7-0.1
			c-0.4,0-0.5,0-0.9,0c-0.6,0-0.9,0-1.4,0c-0.1,0-0.2,0-0.3,0c-0.2,0-0.3-0.2-0.2-0.5c0.1-0.3,0.3-0.4,0.7-0.4
			c0.5,0,0.9-0.2,1.1-0.7c0.1-0.2,0.3-0.8,0.6-1.7c3.1-9.6,5.5-14.1,11.3-21.4c0.9-1.1,1.4-1.7,1.4-1.9c0.1-0.2-0.1-0.3-0.5-0.4
			c-0.2,0-0.2-0.2,0-0.4c0.2-0.2,0.3-0.2,0.5-0.2c0,0,0.1,0,0.3,0c0.2,0,0.4,0.1,0.6,0.1c0.6,0.1,0.9,0.2,1.5,0.3
			c1.6,0.4,2.5,1,2.8,1.7c0.3,0.9,0,2.3-0.7,4.5C45.6,28.6,44.6,31,43.3,33.9z M41.6,33.4c2-4.2,3.5-7,4.1-8.9
			c0.6-1.9,0.4-3-0.9-3.3c-0.6-0.2-1.1-0.1-1.5,0.2c-0.2,0.1-0.6,0.7-1.4,1.6c-5.5,7.2-7.8,11.6-10.8,21c-0.3,0.8-0.4,1.3-0.4,1.5
			c0,0.2,0,0.3,0,0.5c0.2,0.4,0.7,0.6,1.7,0.6c1.3,0.1,2.6-1,4.1-3.1C37.9,41.3,39.5,37.8,41.6,33.4z"/>
		<path fill="#2081C4" d="M43.8,47.9c-0.1,0.2-0.2,0.4-0.4,0.4c0,0-0.1,0-0.4-0.1c-0.3-0.1-0.7-0.1-0.9-0.1c-0.8,0-1.1-0.1-1.9-0.1
			c-0.1,0.1-0.2,0.2-0.3,0.2c-0.1,0-0.2-0.1-0.1-0.3c0.1-0.3,0.2-0.4,0.5-0.4c0.5,0,0.7-0.1,0.8-0.2c0.1-0.1,0.2-0.7,0.5-1.7
			c1.3-5,2.1-7.4,4.1-11.8c0.3-0.6,0.4-1,0.5-1.1c0-0.1,0-0.2-0.1-0.2c-0.2,0-0.3-0.1-0.5-0.1c0,0-0.1,0-0.2,0c-0.1,0-0.1-0.1,0-0.3
			c0.1-0.1,0.2-0.2,0.4-0.2c0.7,0.1,1.5-0.2,2.3-0.7c0.1-0.1,0.2-0.1,0.3-0.2c-0.1,0.4-0.4,1-0.8,1.9c0,0,0,0.1-0.2,0.4
			c-0.1,0.3-0.3,0.7-0.6,1.4c-1.7,3.9-2.4,6.1-3.5,10.5c-0.3,1.1-0.4,1.7-0.4,1.9c0,0.2,0,0.3,0.1,0.4c0.2,0.1,0.4,0.2,0.8,0.2
			C43.8,47.6,43.8,47.7,43.8,47.9z M51.7,25.1c-0.6,0.9-1.1,1.3-1.5,1.2c-0.2-0.1-0.2-0.2-0.2-0.5c0-0.3,0.2-0.6,0.5-1
			c0.7-1,1.2-1.4,1.6-1.2C52.4,23.7,52.3,24.2,51.7,25.1z"/>
		<path fill="#2081C4" d="M55.6,33.3c-0.1,0.1-0.2,0.2-0.4,0.2c-0.1,0-0.2,0-0.3-0.1c0,0-0.1,0-0.1,0c-0.2,0-0.4,0.2-0.7,0.6
			c-0.2,0.4-0.5,0.8-0.7,1.2c-1.8,3.4-2.7,5.2-4.2,9.1c-0.2,0.5-0.5,1.3-0.9,2.3c-0.5,1.4-0.8,2.2-0.9,2.2c-0.1,0-0.1-0.3-0.1-0.8
			c0-0.3,0-0.7,0-1.1c0.2-5.9,0.8-8.6,0.8-8.5c0.7-3.8,1.3-5.7,1.3-6c0-0.2-0.1-0.4-0.3-0.4c-0.1,0-0.2,0-0.4-0.1
			c-0.1,0-0.1-0.1,0-0.3s0.2-0.2,0.3-0.2c0.4,0.1,0.6,0.2,1.1,0.3c0.2,0,0.5,0.1,1,0.2c0.5,0.1,0.8,0.2,0.8,0.2c0,0,0,0,0.1,0
			c0.1,0,0.1,0.1,0,0.3c-0.1,0.2-0.3,0.2-0.6,0.2c-0.3-0.1-0.5,0-0.6,0.2c-0.1,0.2-0.2,0.6-0.4,1.2c-0.2,1-0.7,3-1.2,6.3
			c-0.2,1.5-0.3,2.7-0.4,3.5c0.9-2.2,1.7-4.1,2.5-5.6c1.5-3,2.4-4.5,2.5-4.8c0.1-0.2,0-0.3-0.1-0.3c-0.1,0-0.1,0-0.2,0
			c-0.1,0-0.1,0-0.1,0c-0.1,0-0.2-0.1-0.1-0.3c0.1-0.1,0.1-0.2,0.3-0.2c0.4,0.1,0.6,0.1,1,0.2c0.2,0.1,0.3,0.1,0.6,0.1
			C55.6,33.1,55.7,33.2,55.6,33.3z"/>
		<path fill="#2081C4" d="M55.4,48.8c0,0.2-0.1,0.3-0.4,0.3c0,0-0.1,0-0.4-0.1c-0.4-0.1-0.7-0.1-0.9-0.1c-0.8-0.1-1.1-0.1-1.9-0.1
			c-0.1,0.1-0.2,0.1-0.2,0.1c-0.1,0-0.2-0.1-0.2-0.3c0-0.3,0.2-0.4,0.4-0.4c0.5,0,0.7,0,0.8-0.2c0.1-0.1,0.2-0.6,0.3-1.6
			c0.8-4.6,1.4-6.8,2.8-10.8c0.2-0.6,0.3-0.9,0.3-1c0-0.1,0-0.2-0.1-0.2c-0.2,0-0.3-0.1-0.5-0.1c0,0-0.1,0-0.2,0
			c-0.1,0-0.1-0.1-0.1-0.3c0.1-0.1,0.2-0.2,0.4-0.2c0.7,0.1,1.4-0.2,2.1-0.7c0.1-0.1,0.1-0.1,0.2-0.2c0,0.3-0.2,0.9-0.5,1.8
			c0,0,0,0.1-0.1,0.3c-0.1,0.3-0.2,0.7-0.4,1.3c-1.2,3.6-1.7,5.6-2.4,9.6c-0.2,1-0.3,1.6-0.3,1.8c0,0.2,0,0.3,0.1,0.4
			c0.2,0.1,0.4,0.2,0.8,0.2C55.3,48.4,55.4,48.6,55.4,48.8z M60.4,27.8c-0.4,0.8-0.8,1.2-1.3,1.1c-0.2,0-0.3-0.2-0.3-0.5
			c0-0.3,0.1-0.6,0.3-0.9c0.5-0.9,0.9-1.2,1.3-1.1C60.8,26.5,60.8,27,60.4,27.8z"/>
		<path fill="#2081C4" d="M64.4,49.4c0,0.2-0.1,0.3-0.3,0.3c-0.1,0-0.1,0-0.2,0c-0.2,0-0.5,0-0.9-0.1c-1.2-0.1-1.9-0.1-2.1-0.1
			c-0.1,0-0.1,0-0.1,0c-0.2,0-0.2-0.1-0.2-0.3c0-0.1,0.1-0.2,0.1-0.2c0.1,0,0.3,0,0.7,0c0.2,0,0.4-0.1,0.4-0.2
			c0-0.1,0.1-0.5,0.2-1.2c0.3-2.8,0.5-4.2,1-6.8c0.5-2.5,0.8-3.8,0.8-4.3c0.1-1-0.2-1.5-0.7-1.5c-0.5-0.1-1.1,0.3-1.7,1.2
			c-0.2,0.3-0.4,0.6-0.5,1.1c-1.1,4.1-1.5,6.3-2.1,10.9c0,0.3,0.1,0.5,0.3,0.5c0.2,0,0.3,0,0.6,0.1c0.1,0,0.2,0.1,0.2,0.3
			c0,0.2-0.1,0.3-0.2,0.2c-0.1,0-0.2,0-0.3,0c-0.3,0-0.7,0-1.3-0.1c-0.1,0-0.4,0-0.9-0.1c-0.4,0-0.7-0.1-0.8-0.1c0,0-0.1,0-0.1,0
			c-0.2,0-0.3-0.1-0.2-0.3c0-0.2,0.1-0.2,0.4-0.3c0.2,0,0.3,0,0.5,0c0.2,0,0.3-0.1,0.4-0.2c0.1-0.2,0.1-0.3,0.1-0.6
			c0.4-3.3,0.7-4.8,1.5-7.8c0.6-2.6,1.1-3.9,1.1-4.2c0.1-0.3,0-0.4-0.3-0.4c-0.1,0-0.2,0-0.4-0.1c0,0,0,0-0.1,0
			c-0.2,0-0.3-0.1-0.2-0.3c0.1-0.2,0.2-0.3,0.4-0.3c0.3,0,0.7,0,1.1-0.2c0.4-0.2,0.8-0.4,1-0.6c0.1-0.2,0.2-0.2,0.3-0.2
			c0.1,0,0,0.2-0.1,0.6c-0.2,0.6-0.3,0.9-0.5,1.5c1-1.4,1.9-1.9,2.8-1.9c0.8,0.1,1.1,0.6,1.2,1.8c0,0.6-0.2,1.9-0.5,3.7
			c-0.6,3.1-0.8,4.7-1.2,8c-0.1,0.8-0.1,1.2-0.1,1.3c0.1,0.2,0.2,0.2,0.5,0.3c0,0,0.1,0,0.2,0c0.1,0,0.1,0,0.1,0
			C64.3,49.2,64.4,49.2,64.4,49.4z"/>
		<path fill="#2081C4" d="M72.4,48.2c0,0.4-0.3,0.8-0.7,1.3c-0.5,0.4-0.9,0.7-1.3,0.7c-0.8,0-1.2-0.9-1.2-2.7
			c-0.6,1.8-1.4,2.7-2.3,2.7c-0.5,0-0.9-0.4-1.2-1c-0.3-0.7-0.4-1.5-0.3-2.4c0.2-2,1-3.5,2.3-4.5c0.4-0.3,1.2-0.7,2.2-1
			c0-0.3,0.1-0.5,0.1-0.8c0.3-2,0.4-3.2,0.5-3.8c0-1.1-0.3-1.6-0.9-1.7c-0.4,0-0.7,0.2-1.1,0.5c-0.3,0.4-0.6,0.9-0.7,1.5
			c0,0.2,0,0.3,0.2,0.3c0.1,0,0.2,0.1,0.3,0.4c0.1,0.3,0.1,0.6,0,0.9c-0.2,1-0.5,1.5-1,1.4c-0.3,0-0.4-0.2-0.6-0.6
			c-0.1-0.4-0.1-0.8,0-1.3c0.2-1,0.6-1.9,1.2-2.6c0.6-0.7,1.3-1.1,2.1-1c1.2,0.1,1.8,0.7,1.8,2c0,0.5-0.1,1.5-0.3,3
			c-0.3,2.5-0.5,3.8-0.7,6.5c-0.1,1.1-0.1,1.8-0.1,2c0,0.9,0.2,1.3,0.5,1.3c0.3,0,0.6-0.2,0.9-0.7c0.1-0.3,0.2-0.4,0.3-0.4
			C72.3,48,72.4,48.1,72.4,48.2z M69.5,44.3c0.1-1,0.2-1.5,0.3-2.5c-0.9,0.4-1.6,0.8-2,1.5c-0.5,0.6-0.8,1.5-0.9,2.6
			c-0.1,0.8,0,1.4,0.1,1.9c0.2,0.5,0.4,0.8,0.8,0.8c0.5,0,1-0.6,1.4-1.7C69.2,46.6,69.3,45.7,69.5,44.3z"/>
		<path fill="#2081C4" d="M86,42c0,0,0,0.3,0,0.9c0,1.3,0,2.6,0,3.8c0,0.1,0,0.4,0.1,0.9c0,0.4,0.1,1,0.1,1.6c0,0.1,0,0.2,0,0.3
			c0,0.3,0,0.5-0.1,0.5c-0.1,0-0.2-0.2-0.3-0.5c-0.2-0.8-0.4-1.3-0.6-1.5c-0.8,1.5-1.9,2.3-3.1,2.3c-1.8,0-3.3-1.2-4.4-3.6
			c-1.1-2.4-1.5-5.4-1.1-8.8c0.3-3.4,1.2-5.8,2.3-7.7c1.1-1.8,2.3-2.6,3.6-2.5c0.5,0,0.9,0.1,1.1,0.3c0.3,0.2,0.6,0.5,1,0.9
			c0.2,0.2,0.4,0.4,0.5,0.4c0.1,0,0.2-0.1,0.3-0.4c0.1-0.5,0.2-0.7,0.3-0.7c0.1,0,0.1,0.1,0.1,0.2c0,0.1,0,0.2,0,0.3
			c-0.1,0.8-0.2,2.4-0.3,5c0,0.4,0,0.6-0.1,0.6c0,0.1-0.1,0.1-0.1,0.1c-0.1,0-0.2-0.2-0.2-0.6c-0.1-1.6-0.3-2.7-0.5-3.4
			c-0.4-1.5-1.1-2.2-2.1-2.2c-0.8,0-1.4,0.4-2,1.4c-1,1.7-1.9,4.4-2.2,8.4c-0.3,3.6,0,6.6,0.8,8.8c0.7,1.9,1.7,2.8,2.9,2.8
			c0.6,0,1.2-0.3,1.7-1c0.5-0.6,0.9-1.5,1.1-2.5c0.3-1.2,0.5-2.5,0.6-3.8c0-0.5,0.1-0.8,0.2-0.8C86,41.5,86,41.7,86,42z"/>
		<path fill="#2081C4" d="M94.6,42c0.2,2.1,0,3.9-0.5,5.4c-0.6,1.5-1.4,2.4-2.5,2.4c-1.1,0.1-2.1-0.7-2.9-2.2
			c-0.8-1.5-1.3-3.3-1.3-5.5c-0.1-2.2,0.2-3.9,0.8-5.3c0.6-1.4,1.4-2,2.3-2c1,0,1.8,0.6,2.6,2C93.9,38.2,94.4,39.9,94.6,42z M93,42
			c-0.2-2.4-0.6-4.1-1-5.3c-0.3-0.9-0.8-1.3-1.5-1.3c-0.6,0-1,0.6-1.3,1.7c-0.3,1.2-0.4,2.8-0.3,5.1c0.1,2.2,0.4,4,0.9,5.3
			c0.5,1.3,1.1,1.9,1.8,1.9c0.6,0,0.9-0.5,1.1-1.3C93.2,46.5,93.2,44.5,93,42z"/>
		<path fill="#2081C4" d="M108.7,48.3c0,0.2-0.1,0.3-0.3,0.3c0,0-0.2,0-0.4,0c-0.2,0-0.6,0-1,0c0,0-0.7,0-1.9,0.1
			c-0.2,0-0.2-0.1-0.3-0.2c0-0.2,0-0.3,0.2-0.3c0.1,0,0.1,0,0.1,0c0.2,0,0.3,0,0.5,0c0.2,0,0.3-0.1,0.3-0.2c0-0.1-0.1-0.6-0.2-1.4
			c-0.6-3.3-0.9-4.8-1.5-7.8c-0.3-1.2-0.5-2-0.8-2.4c-0.3-0.5-0.6-0.7-1-0.7c-0.3,0-0.5,0.2-0.7,0.5c-0.2,0.3-0.3,0.7-0.3,1.2
			c0,0.3,0.2,1.4,0.6,3.4c0.4,2.3,0.6,3.5,1,6c0.1,0.7,0.2,1.1,0.2,1.3c0.1,0.3,0.2,0.4,0.4,0.4c0.2,0,0.3,0,0.5,0
			c0.2,0,0.2,0.1,0.3,0.2c0,0.1-0.1,0.2-0.2,0.2c-0.1,0-0.1,0-0.1,0c-0.1,0-0.5,0-1.2,0.1c-0.2,0-0.6,0-1,0.1c-0.4,0-0.7,0-0.7,0.1
			c-0.1,0-0.1,0-0.2,0c-0.1,0-0.2-0.1-0.3-0.3c0-0.1,0-0.2,0.1-0.2c0.1,0,0.3,0,0.7-0.1c0.2,0,0.3-0.2,0.3-0.4c0-0.2,0-0.3,0-0.5
			c-0.5-3.7-0.8-5.5-1.4-8.9c-0.2-1.2-0.4-1.9-0.7-2.4c-0.2-0.4-0.6-0.6-0.9-0.6c-0.4,0-0.7,0.2-0.9,0.7c-0.2,0.5-0.2,1-0.1,1.7
			c0.5,3.4,0.7,5.2,1.2,9.1c0.1,0.7,0.2,1.1,0.2,1.2c0.1,0.1,0.3,0.2,0.6,0.2c0.1,0,0.1,0,0.1,0c0.1,0,0.1,0,0.2,0
			c0.1,0,0.2,0.1,0.2,0.3c0,0.2,0,0.2-0.2,0.3c-0.1,0-0.1,0-0.2,0c-0.3,0-0.8,0-1.4,0.1c-0.7,0-1.1,0.1-1.8,0.1
			c-0.2,0-0.3-0.1-0.3-0.3c0-0.2,0.1-0.2,0.2-0.3c0.5,0,0.7-0.1,0.8-0.2c0.1-0.1,0.1-0.2,0.1-0.4c-0.4-3.5-0.6-5.2-1-8.4
			c-0.2-1.5-0.3-2.4-0.4-2.7c-0.1-0.3-0.2-0.4-0.5-0.4c-0.1,0-0.1,0-0.2,0c-0.1,0-0.2,0-0.3,0c-0.1,0-0.2-0.1-0.2-0.2
			c0-0.1,0-0.2,0-0.2c0,0,0.2-0.1,0.5-0.1c0.2,0,0.5-0.2,0.9-0.4c0.3-0.2,0.5-0.4,0.6-0.6c0.1-0.2,0.2-0.3,0.2-0.3
			c0.1,0,0.1,0.1,0.1,0.2c0,0.2,0.1,0.7,0.3,1.6c0.2-1.3,0.8-1.9,1.7-1.9c1,0,1.7,0.6,2.1,1.9c0.2-1.3,0.7-2,1.6-2
			c0.8,0,1.5,0.5,2,1.5c0.3,0.5,0.6,1.4,0.9,2.7c0.7,3,1,4.5,1.6,7.7c0.1,0.7,0.2,1.2,0.3,1.2c0.1,0.1,0.3,0.1,0.6,0.2
			c0.1,0,0.2,0,0.3,0C108.6,48,108.7,48.1,108.7,48.3z"/>
		<path fill="#2081C4" d="M115.3,44.7c0.1,0.2,0.1,0.6,0,1.1c-0.1,0.6-0.1,1-0.2,1.4c-0.3,1-0.9,1.5-1.8,1.5c-1.1,0-2.2-0.7-3.2-2.1
			c-1-1.4-1.7-3.1-2.2-5.1c-0.5-2.1-0.6-3.7-0.3-5c0.3-1.3,0.8-1.9,1.7-2c0.8,0,1.5,0.4,2.3,1.1c0.8,0.8,1.5,1.8,1.9,3.1
			c-0.3,0.1-0.8,0.2-1.4,0.1c-0.5,0-0.7,0-1.2,0c-0.1,0-0.7,0-2,0.1c0.1,0.7,0.3,1.3,0.4,1.9c0.5,2.1,1.1,3.7,1.8,4.9
			c0.7,1.2,1.5,1.7,2.4,1.7c0.5,0,0.8-0.2,1-0.6c0.2-0.4,0.3-1.2,0.4-2.2c0-0.2,0-0.3,0.1-0.3C115.2,44.5,115.2,44.6,115.3,44.7z
			 M112,38.5c-0.8-2.4-1.7-3.5-2.6-3.4c-0.9,0-1,1.1-0.6,3.5C110.1,38.5,110.7,38.5,112,38.5z"/>
		<path fill="#2081C4" d="M125.2,47.4c0,0.2,0,0.2-0.2,0.2c0,0-0.1,0-0.1,0c-0.1,0-0.2,0-0.3,0c-0.1,0-0.1,0-0.1,0
			c-0.6,0-1,0.2-1.3,0.7c-0.1,0.2-0.2,0.3-0.2,0.3c-0.1,0-0.2-0.1-0.3-0.4c-0.1-0.4-0.2-0.6-0.3-1c-0.3,0.9-0.8,1.4-1.5,1.4
			c-1,0-2-0.7-3.1-2.1c-1-1.4-1.8-3.1-2.4-5.2c-0.6-2.1-0.9-3.8-0.8-5c0.1-1.3,0.6-1.9,1.6-1.9c0.7,0,1.5,0.4,2.3,1.4
			c-0.8-1.8-1.2-2.7-2.1-4.4c-0.7-1.4-1.2-2.2-1.5-2.5c-0.2-0.3-0.4-0.4-0.5-0.3c-0.2,0.1-0.4,0.1-0.5,0.1c-0.1,0-0.2-0.1-0.3-0.2
			c-0.1-0.2-0.1-0.2,0-0.2c0.2,0,0.3,0,0.5,0c0.3,0,0.6-0.3,0.9-0.8c0,0,0-0.1,0.1-0.1c0.1,0,0.3,0.2,0.5,0.6
			c0.1,0.1,0.2,0.3,0.3,0.5c0.2,0.3,0.3,0.5,0.4,0.7c2.1,3.6,3.1,5.6,4.7,9.7c1.9,4.8,2.7,7.6,2.8,7.9c0.1,0.2,0.4,0.2,0.9,0.2
			C125,47.1,125.1,47.2,125.2,47.4z M119.9,39.6c-0.7-1.9-1.4-3.1-1.8-3.6c-0.6-0.6-1.1-1-1.5-0.9c-0.6,0-0.8,0.6-0.7,1.6
			c0.1,1.1,0.4,2.6,1.1,4.5c0.6,1.8,1.2,3.5,1.9,4.8c0.3,0.6,0.6,1.1,1,1.4c0.4,0.4,0.7,0.6,1,0.6c0.4,0,0.7-0.2,0.9-0.6
			c0.2-0.4,0.3-0.9,0.2-1.5C121.8,45.3,121.3,43.1,119.9,39.6z"/>
		<path fill="#2081C4" d="M129.7,47.7c0.1,0.2,0,0.3-0.2,0.3c0,0-0.1,0-0.5-0.1c-0.4,0-0.7,0-0.9,0c-0.8,0-1.1,0-1.9,0
			c0,0.1-0.1,0.1-0.2,0.1c-0.1,0-0.2-0.1-0.3-0.2c-0.1-0.2,0-0.3,0.3-0.4c0.4,0,0.7-0.1,0.7-0.2c0-0.1-0.1-0.6-0.4-1.3
			c-1.3-3.9-2-5.8-3.7-9.4c-0.2-0.5-0.4-0.8-0.5-0.9c-0.1-0.1-0.1-0.1-0.3-0.1c-0.2,0-0.3,0-0.5,0c0,0-0.1,0-0.2,0
			c-0.1,0-0.2-0.1-0.3-0.2c-0.1-0.1,0-0.2,0.2-0.2c0.7-0.1,1.2-0.4,1.4-1c0-0.1,0-0.1,0.1-0.2c0.2,0.3,0.6,0.8,0.9,1.6
			c0,0,0,0.1,0.1,0.3s0.3,0.6,0.6,1.1c1.5,3.2,2.2,4.9,3.4,8.4c0.3,0.9,0.5,1.4,0.5,1.5c0.1,0.2,0.2,0.2,0.3,0.3
			c0.2,0.1,0.5,0.1,0.8,0.1C129.6,47.5,129.7,47.6,129.7,47.7z M119.9,29.2c0.5,0.8,0.5,1.2,0.1,1.2c-0.2,0-0.4-0.1-0.7-0.3
			c-0.3-0.2-0.5-0.5-0.7-0.8c-0.5-0.8-0.6-1.2-0.1-1.3C118.9,28,119.4,28.4,119.9,29.2z"/>
		<path fill="#2081C4" d="M137.3,46.1c0.1,0.4,0.1,0.8-0.2,1.2c-0.3,0.4-0.6,0.7-1,0.7c-0.8,0-1.5-0.7-2.1-2.3
			c0.1,1.6-0.3,2.5-1.3,2.5c-0.5,0-1-0.2-1.6-0.8c-0.5-0.5-0.9-1.3-1.2-2.1c-0.6-1.8-0.6-3.1,0.1-4.2c0.2-0.3,0.8-0.7,1.6-1.1
			c-0.1-0.3-0.2-0.5-0.4-0.8c-0.9-1.8-1.6-2.9-2-3.5c-0.7-1-1.4-1.5-2-1.4c-0.4,0-0.6,0.2-0.6,0.6c-0.1,0.4,0.1,0.9,0.4,1.4
			c0.1,0.2,0.2,0.2,0.3,0.2c0.1,0,0.3,0.1,0.6,0.3c0.2,0.2,0.4,0.5,0.6,0.8c0.4,0.9,0.4,1.3-0.1,1.4c-0.3,0-0.6-0.1-0.9-0.4
			c-0.3-0.3-0.6-0.7-0.8-1.2c-0.5-0.9-0.7-1.7-0.6-2.4c0.1-0.7,0.5-1.1,1.2-1.2c1.2-0.1,2.3,0.5,3.2,1.6c0.4,0.4,0.9,1.3,1.6,2.7
			c1.2,2.3,1.7,3.4,2.7,5.8c0.4,1,0.6,1.6,0.7,1.7c0.4,0.8,0.7,1.2,1,1.1c0.3,0,0.5-0.2,0.6-0.7c0-0.2,0.1-0.4,0.1-0.4
			C137.2,45.9,137.2,46,137.3,46.1z M132.7,42.9c-0.4-0.9-0.6-1.4-1-2.3c-0.7,0.4-1.1,0.9-1.2,1.5c-0.1,0.6,0,1.4,0.4,2.3
			c0.3,0.7,0.6,1.2,0.9,1.7c0.4,0.4,0.7,0.6,1.1,0.6c0.5,0,0.7-0.6,0.7-1.6C133.5,44.9,133.3,44.1,132.7,42.9z"/>
	</g>
</g>
<g>
	<g>
		<path fill="#0361A3" d="M11.7,67.7c-0.1,2.3-0.5,4.2-1.5,5.9c-1,1.6-2.1,2.5-3.6,2.6c-0.8,0-1.9-0.3-3.1-1.1
			c-0.3-0.2-0.6-0.3-0.7-0.3c-0.2,0-0.3,0.4-0.3,1.1c0,0.4-0.1,0.6-0.3,0.6C2.1,76.5,2,76.4,2,76c0-0.2,0-0.4,0-0.5
			C2,74,2,72.5,2,71.1c0-0.3,0-1,0-2.2c0-0.2,0-0.4,0-0.6c0-0.4,0.1-0.6,0.3-0.6c0.2,0,0.2,0.3,0.3,0.9c0.2,4.7,1.8,7,4,6.8
			c1-0.1,1.7-0.5,2.1-1.5C9.3,73,9.5,71.7,9.5,70c0-1.5-0.2-2.7-0.7-3.8c-0.4-1-1.2-2-2.4-2.9c-1.3-1.1-2.2-2.2-2.6-3.3
			c-0.4-1.1-0.4-2.4-0.1-4.1c0.5-2.1,1.3-3.8,2.5-5.2c1.2-1.4,2.4-2.1,3.6-2.2c0.5,0,1.1,0.2,1.8,0.7c0.3,0.2,0.5,0.3,0.6,0.3
			c0.2,0,0.3-0.1,0.4-0.2c0.1-0.1,0.2-0.4,0.4-0.8c0.1-0.2,0.2-0.4,0.3-0.4c0.1,0,0.2,0.1,0.1,0.4c-0.1,0.2-0.1,0.3-0.1,0.4
			c-0.2,0.6-0.4,1.3-0.6,2.1c-0.3,1.2-0.5,2.1-0.5,2.8c0,0.2-0.1,0.4-0.1,0.6c0,0.3-0.1,0.4-0.3,0.4c-0.2,0-0.2-0.3-0.2-0.8
			c0.1-1.5,0.1-2.7-0.3-3.6c-0.3-0.9-0.9-1.4-1.6-1.3c-0.7,0-1.4,0.5-2.1,1.3c-0.7,0.8-1.2,1.9-1.5,3.3c-0.4,1.6-0.3,2.9,0.1,3.8
			c0.3,0.5,0.9,1.3,2,2.2c1.3,1.1,2.2,2.3,2.7,3.6C11.5,64.6,11.7,66.1,11.7,67.7z"/>
		<path fill="#0361A3" d="M21.9,70.9c0,0.3-0.1,0.7-0.3,1.4c-0.2,0.7-0.4,1.2-0.7,1.6c-0.6,1.1-1.5,1.7-2.6,1.7
			c-1.4,0-2.7-0.8-3.7-2.4s-1.5-3.8-1.4-6.3c0.1-2.6,0.8-4.8,1.8-6.6s2.3-2.6,3.6-2.6c1.1,0,1.9,0.5,2.5,1.6
			c0.6,1.1,0.9,2.4,0.8,4.1c-0.5,0.1-1.2,0.2-2,0.2c-0.7,0-1,0-1.6,0c-0.1,0-1,0-2.8,0.2c-0.1,0.9-0.2,1.7-0.3,2.5
			c-0.1,2.6,0.2,4.7,0.9,6.1c0.6,1.4,1.6,2.1,2.7,2.1c0.6,0,1.1-0.2,1.5-0.7c0.4-0.5,0.7-1.4,1.1-2.7c0.1-0.2,0.1-0.3,0.3-0.3
			C21.8,70.7,21.9,70.8,21.9,70.9z M20,62.9c0.2-3.1-0.3-4.6-1.5-4.6c-1.2,0-2.3,1.5-2.8,4.7C17.4,62.9,18.3,62.9,20,62.9z"/>
		<path fill="#0361A3" d="M34.1,75.4c0,0.2-0.1,0.3-0.3,0.3c-0.1,0-0.2,0-0.3,0c-0.3,0-0.7,0-1.2-0.1c-1.5-0.1-2.4-0.1-2.7-0.1
			c-0.1,0-0.1,0-0.2,0c-0.2,0-0.3-0.1-0.3-0.3c0-0.1,0-0.2,0.1-0.2c0.1,0,0.4,0,0.9,0c0.3,0,0.5-0.1,0.5-0.2s0-0.5,0-1.3
			c-0.1-3-0.2-4.6-0.1-7.6c0.1-2.9,0.1-4.5,0.1-5.1c-0.2-1.2-0.6-1.8-1.4-1.8c-0.8,0-1.5,0.5-2.1,1.6c-0.2,0.3-0.3,0.8-0.3,1.4
			c-0.3,4.8-0.3,7.4-0.1,12.2c0,0.3,0.2,0.5,0.5,0.5c0.3,0,0.4,0,0.7,0.1c0.2,0,0.2,0.1,0.3,0.3c0,0.2-0.1,0.3-0.3,0.3
			c-0.2,0-0.2,0-0.4,0c-0.3,0-0.9,0-1.6,0c-0.2,0-0.5,0-1.1,0c-0.6,0-0.9,0-1,0c-0.1,0-0.1,0-0.1,0c-0.2,0-0.4-0.1-0.4-0.2
			c0-0.2,0.1-0.3,0.4-0.3c0.2,0,0.4,0,0.6,0c0.2,0,0.4-0.1,0.4-0.3c0-0.2,0-0.3,0-0.6c-0.2-3.4-0.2-5.2-0.1-8.6
			c0.1-3,0.3-4.6,0.3-4.9c0-0.3-0.2-0.5-0.5-0.5c-0.1,0-0.3,0-0.6,0c0,0-0.1,0-0.1,0c-0.3,0-0.5-0.1-0.4-0.3c0-0.2,0.2-0.4,0.5-0.4
			c0.5,0,1-0.2,1.5-0.4c0.6-0.2,1-0.5,1.2-0.9c0.2-0.2,0.3-0.3,0.4-0.3c0.1,0,0.1,0.2,0.1,0.7c-0.1,0.7-0.1,1.1-0.2,1.8
			c0.9-1.7,2.1-2.5,3.3-2.5c1.1,0,1.8,0.7,2.2,2.1c0.2,0.8,0.3,2.2,0.2,4.4c-0.1,3.6-0.1,5.4,0.1,9c0,0.8,0.1,1.3,0.1,1.4
			c0.1,0.2,0.3,0.3,0.7,0.3c0,0,0.1,0,0.3,0c0.1,0,0.1,0,0.2,0C34,75.1,34,75.2,34.1,75.4z"/>
		<path fill="#0361A3" d="M43.5,72.1c0,0.3-0.1,0.7-0.3,1.4c-0.2,0.7-0.4,1.2-0.7,1.6c-0.6,1.1-1.5,1.6-2.6,1.5
			c-1.4-0.1-2.6-1.1-3.7-2.9c-1-1.8-1.6-4-1.5-6.5c0-2.6,0.6-4.8,1.6-6.5c1-1.7,2.2-2.5,3.5-2.4c1.1,0.1,2,0.7,2.6,1.8
			c0.7,1.1,1,2.5,1,4.3c-0.5,0.1-1.2,0.1-2,0c-0.7,0-1-0.1-1.6-0.1c-0.1,0-1,0-2.8-0.1c-0.1,0.9-0.2,1.7-0.2,2.5
			c0,2.7,0.3,4.8,1,6.2c0.7,1.5,1.6,2.3,2.7,2.4c0.6,0.1,1.1-0.1,1.5-0.6c0.4-0.4,0.7-1.3,1.1-2.6c0.1-0.2,0.1-0.3,0.2-0.3
			C43.4,71.8,43.4,71.9,43.5,72.1z M41.4,63.7c0-3.2-0.5-4.7-1.8-4.8c-1.2-0.1-2.2,1.4-2.6,4.5C38.8,63.5,39.6,63.6,41.4,63.7z"/>
		<path fill="#0361A3" d="M53.2,63.4c0,1.2-0.4,1.8-1.1,1.7c-0.7-0.1-1-0.6-1-1.7c0-0.3,0.1-0.7,0.3-1.3c0.1-0.2,0.1-0.4,0.1-0.5
			c0-0.5-0.1-1-0.4-1.3c-0.3-0.4-0.7-0.6-1.2-0.6c-0.9-0.1-1.7,0.5-2.2,1.9c-0.6,1.3-0.9,3.2-0.8,5.7c0,2.8,0.4,5.1,1,6.7
			c0.6,1.6,1.4,2.4,2.4,2.5c0.7,0.1,1.2-0.2,1.7-0.9c0.2-0.3,0.5-0.9,0.8-1.8c0.1-0.1,0.1-0.2,0.2-0.2c0.2,0,0.2,0.1,0.2,0.3
			c0,0.3-0.2,1-0.7,1.9c-0.6,1.2-1.5,1.7-2.6,1.6c-1.4-0.1-2.6-1.1-3.6-2.8c-1-1.8-1.5-3.9-1.5-6.5c0-2.8,0.5-5,1.5-6.6
			c1-1.7,2.2-2.5,3.6-2.4c0.9,0.1,1.7,0.5,2.4,1.4C52.9,61.3,53.2,62.3,53.2,63.4z"/>
		<path fill="#0361A3" d="M64.3,77.9c0,0.2-0.1,0.3-0.4,0.3c-0.1,0-0.2,0-0.3,0c-0.1,0-0.2,0-0.4,0c-0.9-0.1-1.4-0.1-2.3-0.2
			c-0.6,0-1-0.1-1.4-0.1c-0.3,0-0.5,0-0.7-0.1c-0.3,0-0.4-0.1-0.4-0.3c0-0.1,0-0.2,0.1-0.2c0.1,0,0.4,0,1,0c0.4,0,0.7-0.1,0.6-0.3
			c0-0.2-0.1-0.5-0.3-1c-0.4-1.2-1.1-3-1.9-5.4c-0.1-0.2-0.1-0.3-0.2-0.4c-1.5,3.8-2.2,5.9-2.2,6.4c0,0.2,0.5,0.4,1.3,0.5
			c0.2,0,0.2,0.1,0.2,0.3c0,0.2-0.1,0.3-0.4,0.3c-0.1,0-0.3,0-0.5,0c-0.3,0-0.6,0-1-0.1c-0.1,0-0.1,0-0.2,0c-0.2,0-0.4,0-0.6-0.1
			c-0.2,0-0.3,0-0.5,0c-0.2,0-0.3,0-0.4,0c-0.2,0-0.3-0.1-0.3-0.3s0.2-0.3,0.5-0.3c0.5,0,0.9-0.3,1.2-0.9c0.7-1.9,1-2.9,1.7-4.9
			c0.1-0.3,0.3-0.8,0.6-1.6c-0.3-0.8-1-3-2-6.6c-0.3-1.1-0.5-1.7-0.7-1.9c-0.2-0.2-0.5-0.3-1.2-0.4c-0.2,0-0.3-0.1-0.3-0.3
			c0-0.2,0.1-0.3,0.3-0.3c1,0.1,1.6,0.1,2.6,0.2c0.3,0,0.6,0,1.1,0.1c0.5,0,0.9,0.1,1.1,0.1c0.4,0,0.6,0.1,0.6,0.4
			c0,0.2-0.3,0.3-0.8,0.3c-0.7,0-1,0.1-1,0.4c0,0.2,0.1,0.7,0.4,1.7c0.5,1.6,0.9,2.9,1.1,3.7c0,0.1,0.1,0.2,0.1,0.3
			c0.4-1.1,0.9-2.2,1.4-3.5c0.5-1.3,0.7-2,0.7-2.2c0-0.2-0.2-0.2-0.6-0.2c-0.2,0-0.3,0-0.5,0c-0.1,0-0.2-0.1-0.2-0.3
			c0-0.2,0.1-0.3,0.3-0.3c-0.1,0,0.2,0,0.8,0.1c0.2,0,0.3,0.1,0.5,0.1c0.9,0,1.4,0,1.2,0c0.1,0,0.2,0,0.3,0c0.1,0,0.2,0,0.2,0
			c0.2,0,0.3,0.1,0.3,0.3c0,0.1,0,0.2-0.1,0.3c-0.1,0.1-0.3,0.1-0.6,0.1c-0.4,0-0.7,0.1-0.9,0.3c-0.1,0.2-0.3,0.5-0.4,1
			c-0.2,0.5-0.3,0.7-0.4,1.2c-0.2,0.6-0.5,1.3-0.9,2.3c-0.3,0.8-0.4,1.1-0.7,1.9c0.2,0.5,0.3,0.7,0.4,1.2c0.1,0.4,0.5,1.4,1,3.1
			c0.3,0.8,0.8,2.1,1.5,4c0.2,0.6,0.4,1,0.6,1.2c0.2,0.2,0.5,0.3,1,0.3C64.1,77.6,64.3,77.7,64.3,77.9z"/>
		<path fill="#0361A3" d="M73.7,77c0,0.5-0.2,0.9-0.8,1.4c-0.5,0.5-1,0.7-1.6,0.6c-1.1-0.1-1.7-1.1-1.8-3c-0.5,2-1.4,2.9-2.6,2.8
			c-0.7-0.1-1.2-0.4-1.7-1.2c-0.5-0.7-0.7-1.6-0.8-2.7c-0.1-2.2,0.6-3.9,2.1-5.1c0.5-0.4,1.4-0.8,2.7-1.1c0-0.4,0-0.6,0-1
			c-0.1-2.4-0.2-3.9-0.3-4.7c-0.3-1.4-0.8-2.1-1.7-2.1c-0.5,0-1,0.2-1.3,0.7c-0.4,0.5-0.5,1.1-0.5,1.9c0,0.2,0.1,0.3,0.3,0.3
			c0.2,0,0.4,0.2,0.5,0.5c0.2,0.3,0.2,0.7,0.3,1.1c0,1.2-0.3,1.8-1,1.7c-0.4,0-0.7-0.3-0.9-0.7c-0.2-0.4-0.4-1-0.4-1.6
			c0-1.3,0.3-2.3,0.8-3.2c0.6-0.9,1.5-1.4,2.6-1.3c1.7,0.1,2.7,0.9,3.1,2.5c0.2,0.6,0.3,1.8,0.3,3.7c0.1,3,0.2,4.6,0.3,7.7
			c0.1,1.3,0.1,2,0.1,2.2c0.1,1,0.4,1.5,0.8,1.5c0.4,0,0.8-0.2,1-0.8c0.1-0.3,0.3-0.4,0.3-0.4C73.7,76.8,73.7,76.8,73.7,77z
			 M69.4,72.4c0-1.2-0.1-1.8-0.1-3c-1.1,0.4-1.9,0.9-2.4,1.7c-0.5,0.7-0.7,1.7-0.6,3c0,0.9,0.2,1.6,0.5,2.2c0.3,0.6,0.7,0.9,1.1,0.9
			c0.7,0,1.2-0.6,1.5-1.8C69.5,75,69.5,74,69.4,72.4z"/>
		<path fill="#0361A3" d="M94.9,79.4c0,0.2-0.2,0.4-0.5,0.4c-0.1,0-0.2,0-0.3,0c-0.2,0-0.6,0-1.2,0c-0.6,0-1,0-1.3,0
			c-0.5,0-1,0-1.6,0c-0.6,0-1.1,0-1.3,0c-0.1,0-0.1,0-0.2,0c-0.3,0-0.5-0.1-0.5-0.4c0-0.3,0.2-0.4,0.7-0.4c0.8,0,1.3-0.1,1.4-0.4
			c0.1-0.1,0.1-1.1,0-2.9c-0.4-8.9-0.7-13.3-1.4-21.6c0,0,0,0.5-0.1,1.4c-0.4,3.3-0.9,8.2-1.7,15.1c-0.3,2.7-0.4,4-0.7,6.7
			c-0.2,1.3-0.3,2-0.4,2c-0.1,0-0.2-0.3-0.4-1c-0.6-2.6-2.2-9.2-4.7-18.9c-0.4-1.7-0.7-2.6-1.1-4.2c0,0.5,0.1,1.2,0.1,2.1
			c0.2,5.2,0.3,7.8,0.6,13.2c0.2,5.1,0.4,7.7,0.4,7.7c0.1,0.4,0.5,0.6,1.2,0.6c0.5,0,0.8,0.2,0.8,0.5c0,0.3-0.1,0.5-0.5,0.4
			c-0.2,0-0.4-0.1-0.6-0.1c-0.2-0.1-0.4-0.1-0.6-0.1c-1.1,0-1.6,0-2.7,0c-0.3,0-0.4-0.1-0.4-0.4c0-0.3,0.4-0.4,1.3-0.4
			c0.4,0,0.6-0.1,0.6-0.3c0.1-0.2,0-0.9,0-2.2c-0.4-8-0.6-12.1-0.9-19.6c-0.1-2.2-0.2-3.4-0.2-3.5c-0.1-0.4-0.2-0.6-0.4-0.7
			c-0.2-0.1-0.6-0.2-1.3-0.3c-0.2,0-0.4-0.1-0.4-0.3c0-0.3,0.2-0.4,0.6-0.4c0.1,0,0.2,0,0.4,0c0.5,0,0.7,0,1.2,0
			c0.9,0,1.5,0,1.9-0.1c0.1,0.3,0.6,2.3,1.6,6.2c0.4,1.6,1.7,6.2,3.7,14.4c0.2-1.8,0.4-3.6,0.6-5.4c0.7-5.5,1-8.2,1.5-13.6
			c0.1-0.8,0.1-1.4,0.2-1.9c1.3-0.1,2-0.1,3.3-0.2c0.5,0,0.8,0,0.9,0.1c0.1,0.1,0.1,0.2,0.1,0.4c0,0.3-0.1,0.4-0.3,0.4
			c-0.4,0-0.7,0.1-0.8,0.1c-0.3,0.1-0.6,0.4-0.7,0.7c-0.1,0.2,0,1.7,0.3,4.8c0.6,7.6,0.9,11.7,1.3,19.7c0.1,1.2,0.2,1.8,0.3,2
			c0.2,0.3,0.7,0.4,1.5,0.4c0.1,0,0.1,0,0.1,0C94.8,79,94.9,79.2,94.9,79.4z"/>
		<path fill="#0361A3" d="M105,69.3c0.2,2.7-0.1,5.2-0.9,7.4c-0.8,2.2-1.8,3.5-3.2,3.5c-1.4,0-2.7-0.9-3.7-2.8c-1-1.9-1.7-4.3-1.8-7
			c-0.2-2.9,0.1-5.2,0.9-7.1c0.8-1.9,1.8-2.9,3.2-2.9c1.4-0.1,2.6,0.7,3.7,2.4C104.2,64.4,104.9,66.5,105,69.3z M103,69.9
			c-0.2-3.2-0.7-5.5-1.3-7.1c-0.5-1.2-1.2-1.8-2.1-1.8c-0.9,0-1.5,0.9-1.8,2.5c-0.4,1.6-0.4,3.9-0.2,6.9c0.2,2.9,0.6,5.2,1.2,6.8
			s1.4,2.5,2.3,2.5c0.7,0,1.2-0.5,1.5-1.6C103.1,76.1,103.2,73.2,103,69.9z"/>
		<path fill="#0361A3" d="M112.8,61.2c0.1,0.6,0,1.1-0.2,1.5c-0.2,0.4-0.4,0.7-0.8,0.7c-0.3,0-0.5-0.1-0.7-0.3
			c-0.2-0.2-0.3-0.6-0.4-1c0-0.4,0-0.7,0.1-1c0.1-0.3,0.2-0.5,0.1-0.6c0-0.4-0.2-0.6-0.6-0.5c-0.4,0.1-0.7,0.6-0.9,1.5
			c-0.2,1.1-0.2,3.2,0,6.1c0.2,3.2,0.3,4.8,0.4,8c0,0.3,0.1,0.5,0.2,0.6c0.1,0,0.6-0.1,1.2-0.2c0.1,0,0.3,0.1,0.3,0.3
			c0,0.2-0.1,0.3-0.3,0.4c-0.3,0.1-0.7,0.2-1,0.3s-0.9,0.3-1.7,0.5c-0.4,0.1-0.7,0.2-0.9,0.3c-0.2,0.1-0.4,0.1-0.7,0.3
			c-0.2,0.1-0.4,0-0.4-0.1c0-0.2,0.1-0.3,0.3-0.3c0.1,0,0.2-0.1,0.3-0.1c0.5-0.2,0.8-0.4,0.9-0.6c0-0.1,0-0.6,0-1.6
			c-0.2-4.6-0.3-6.9-0.7-11.4c-0.1-1.5-0.3-2.3-0.6-2.5c-0.3-0.2-0.7-0.2-1.2-0.2c-0.2,0-0.3,0-0.3-0.2c0-0.2,0-0.3,0.2-0.3
			c0.1,0,0.1,0,0.2,0c0.2,0,0.5-0.1,0.7-0.1c0.2,0,0.3,0,0.3,0c0.6-0.1,1.1-0.5,1.8-1.1c0.1-0.1,0.2-0.2,0.3-0.3
			c0.1-0.1,0.1-0.1,0.2-0.1c0.1,0.6,0.2,1.2,0.3,1.9c0,0.3,0,0.5,0.1,0.8c0.3-1.9,0.9-2.8,1.7-2.9c0.5-0.1,0.9,0.1,1.3,0.6
			C112.5,59.8,112.7,60.4,112.8,61.2z"/>
		<path fill="#0361A3" d="M123.4,72.2c0,0.4-0.3,0.9-0.8,1.5c-0.5,0.5-1.1,0.9-1.6,1c-1,0.2-1.6-0.6-1.7-2.4c-0.5,2-1.4,3.1-2.6,3.4
			c-0.6,0.1-1.2,0-1.6-0.6c-0.4-0.6-0.7-1.4-0.7-2.4c-0.1-2.1,0.6-4,2-5.5c0.5-0.5,1.3-1,2.6-1.6c0-0.4,0-0.6-0.1-0.9
			c-0.2-2.2-0.4-3.6-0.6-4.3c-0.4-1.2-1-1.8-1.9-1.7c-0.5,0.1-0.9,0.3-1.2,0.8c-0.3,0.5-0.4,1.1-0.3,1.9c0,0.2,0.1,0.3,0.3,0.3
			c0.2,0,0.4,0.1,0.6,0.4c0.2,0.3,0.3,0.6,0.3,1c0.1,1.1-0.2,1.7-0.9,1.8c-0.3,0.1-0.7-0.1-0.9-0.5c-0.3-0.4-0.4-0.8-0.5-1.5
			c-0.1-1.2,0.1-2.3,0.5-3.2c0.5-1,1.3-1.5,2.4-1.6c1.7-0.2,2.8,0.5,3.3,1.9c0.2,0.5,0.4,1.6,0.6,3.3c0.3,2.7,0.4,4.1,0.5,6.9
			c0,1.1,0.1,1.8,0.1,2c0.1,0.9,0.3,1.3,0.7,1.2c0.4-0.1,0.8-0.4,1-0.9c0.1-0.3,0.3-0.5,0.3-0.5S123.4,72.1,123.4,72.2z M119.2,68.9
			c-0.1-1.1-0.1-1.7-0.2-2.7c-1.1,0.6-1.9,1.3-2.3,2.1c-0.4,0.8-0.6,1.8-0.6,3c0,0.8,0.2,1.5,0.5,1.9c0.3,0.5,0.6,0.7,1.1,0.6
			c0.6-0.1,1.2-0.8,1.5-2.1C119.3,71.3,119.3,70.4,119.2,68.9z"/>
		<path fill="#0361A3" d="M127.9,73c0,0.2-0.1,0.3-0.3,0.4c-0.1,0-0.2,0-0.3,0c0,0-0.4,0-1.2,0.1c-0.3,0-0.4,0.1-0.7,0.1
			c-0.1,0-0.7,0.1-1.8,0.4c-0.1,0-0.2,0-0.3,0.1c-0.2,0.1-0.3,0-0.3-0.2c0-0.2,0.1-0.3,0.3-0.3c0.2,0,0.4-0.1,0.6-0.1
			c0.4-0.1,0.6-0.3,0.6-0.5c0-0.2,0-1.1,0-2.9c-0.3-7.5-0.7-11.2-2.2-18.1c-0.2-0.7-0.3-1.2-0.3-1.2c-0.1-0.2-0.2-0.3-0.4-0.3
			c-0.1,0-0.1,0-0.2,0c-0.2,0-0.4,0-0.6,0c-0.2,0-0.3-0.1-0.4-0.3c0-0.2,0.1-0.3,0.5-0.3c0.7-0.1,1.3-0.4,1.8-0.8
			c0.2-0.1,0.2-0.2,0.4-0.3c0.1,0,0.1-0.1,0.2-0.1c0.3,0.6,0.6,1.6,0.8,2.9c0.2,1,0.3,1.4,0.5,2.4c1.3,6.7,1.7,10.2,1.8,17.4
			c0,0.7,0,1.2,0,1.3c0,0.1,0.1,0.2,0.2,0.3c0,0,0.3,0,0.9,0C127.7,72.7,127.9,72.8,127.9,73z"/>
		<path fill="#0361A3" d="M133.8,72.2c0,0.2-0.1,0.3-0.4,0.4c0,0-0.2,0-0.6,0c-0.5,0-0.9,0-1.2,0.1c-1,0.1-1.5,0.2-2.4,0.3
			c-0.1,0.1-0.2,0.2-0.3,0.2c-0.2,0-0.3-0.1-0.3-0.2c0-0.2,0.2-0.4,0.5-0.4c0.6-0.1,0.9-0.2,1-0.3c0.1-0.1,0.1-0.6,0.1-1.5
			c-0.1-4.3-0.3-6.5-0.9-10.7c-0.1-0.6-0.2-0.9-0.2-1c0-0.1-0.1-0.1-0.3-0.1c-0.3,0-0.4,0-0.7,0c-0.1,0-0.1,0-0.2,0
			c-0.2,0-0.3-0.1-0.3-0.2c0-0.1,0.1-0.2,0.3-0.3c1-0.1,1.8-0.6,2.4-1.2c0.1-0.1,0.1-0.1,0.2-0.2c0.2,0.3,0.3,0.9,0.5,1.8
			c0,0,0,0.1,0.1,0.3c0,0.3,0.1,0.7,0.2,1.3c0.5,3.7,0.7,5.7,0.8,9.5c0,0.9,0,1.5,0.1,1.7c0,0.2,0.1,0.3,0.2,0.3
			c0.2,0.1,0.6,0.1,1,0C133.7,72,133.8,72.1,133.8,72.2z M129.4,51c0.2,1,0,1.5-0.7,1.5c-0.3,0-0.6-0.1-0.8-0.4
			c-0.3-0.3-0.4-0.6-0.5-1c-0.2-1-0.1-1.6,0.6-1.6C128.7,49.6,129.1,50,129.4,51z"/>
		<path fill="#0361A3" d="M141.8,67.2c0.1,1.3-0.2,2.5-0.9,3.5c-0.7,1-1.5,1.6-2.4,1.7c-0.5,0.1-1.2-0.1-1.9-0.6
			c-0.2-0.1-0.4-0.2-0.5-0.2c-0.2,0-0.4,0.3-0.5,0.7c-0.1,0.3-0.2,0.4-0.3,0.4c-0.1,0-0.2-0.1-0.2-0.3c0-0.1,0-0.3,0-0.4
			c0-0.5,0-1.2,0-2.1c0-0.1,0-0.4,0-0.8c0-0.5,0-0.8,0-1c0-0.2,0-0.2,0-0.4c0-0.3,0-0.4,0.1-0.4c0.1,0,0.2,0.1,0.2,0.4
			c0.2,1.1,0.4,1.9,0.7,2.5c0.7,1.2,1.5,1.7,2.5,1.6c0.6-0.1,1-0.4,1.4-0.9c0.3-0.5,0.5-1.2,0.5-2c0-0.9-0.3-1.6-0.7-2.1
			c-0.2-0.3-0.5-0.5-0.6-0.6c-0.2-0.1-0.7-0.4-1.7-0.8c-1.8-0.8-2.8-2.2-3.1-4.1c-0.2-1.3,0-2.4,0.4-3.2c0.4-0.9,1.1-1.4,1.9-1.4
			c0.3,0,0.8,0.1,1.4,0.3c0.2,0.1,0.3,0.1,0.4,0.1c0.3,0,0.5-0.3,0.5-0.7c0-0.2,0-0.3,0.1-0.3c0.1,0,0.2,0.1,0.2,0.3
			c0,0,0,0.1,0,0.2c0.1,0.6,0.2,0.8,0.3,1.4c0.1,0.5,0.3,1.4,0.6,2.5c0,0,0,0,0,0.1c0,0.2,0,0.3-0.1,0.3c-0.1,0-0.3-0.3-0.5-1
			c-0.3-0.8-0.7-1.4-1.2-1.9s-1.1-0.7-1.6-0.6c-0.5,0-0.9,0.3-1.2,0.8c-0.3,0.5-0.3,1.1-0.2,1.8c0.2,1.1,0.8,2,1.9,2.5
			c1.7,0.8,2.8,1.5,3.3,2C141.3,65.1,141.7,66,141.8,67.2z"/>
	</g>
</g>
<g>
	<g>
		<path fill="#1E2558" d="M30.7,119.1c0,0,0.2,0.2,0.8,0.8c1.1,1.1,2.3,2.1,3.5,3.1c0.1,0.1,0.4,0.3,0.8,0.6
			c0.4,0.3,0.9,0.7,1.5,1.1c0.1,0.1,0.2,0.1,0.3,0.2c0.3,0.2,0.4,0.3,0.3,0.3c-0.1,0-0.3-0.1-0.7-0.3c-0.9-0.5-1.5-0.8-1.9-1
			c0.7,1.2,0.7,1.9-0.3,2.1c-1.4,0.3-3.9-0.2-7.3-2c-3.4-1.8-6.9-4.6-10.1-8.6c-3.3-4-5.1-7.4-5.6-10.3c-0.5-2.9,0.5-4.2,2.3-3.7
			c0.7,0.2,1.2,0.4,1.8,0.7c0.5,0.3,1.2,0.9,2.1,1.7c0.4,0.4,0.7,0.6,0.9,0.6c0.1,0,0.1-0.2,0-0.5c-0.2-0.7-0.2-1-0.1-1
			c0.1,0,0.2,0.1,0.3,0.3c0,0.1,0.1,0.3,0.2,0.5c0.5,1.2,1.5,3.5,3.6,6.5c0.3,0.4,0.5,0.7,0.5,0.8c0,0.1,0,0.1-0.1,0.1
			c-0.1,0-0.4-0.2-0.7-0.7c-1.4-1.9-2.5-3.4-3.4-4.5c-1.7-2.1-3.2-3.5-4.6-3.8c-1.1-0.2-1.6,0.3-1.4,1.7c0.3,2.6,2.1,6.7,5.9,11.3
			c3.4,4.1,6.8,6.7,9.7,8.4c2.5,1.5,4.3,2,5.3,1.8c0.5-0.1,0.6-0.4,0.5-1c-0.2-0.5-0.6-1.2-1.4-2c-0.8-1-1.8-2-2.9-3.2
			c-0.4-0.5-0.6-0.7-0.5-0.7C30.2,118.7,30.4,118.8,30.7,119.1z"/>
		<path fill="#1E2558" d="M38.8,119.2c1.7,1.5,2.9,2.7,3.7,3.7c0.7,1,0.7,1.5-0.1,1.7c-0.9,0.2-2.3-0.1-4.3-1.1
			c-2-0.9-4-2.3-5.9-4.1c-2-1.9-3.1-3.6-3.5-4.9c-0.4-1.3-0.1-1.9,1-1.7c1,0.1,2.4,0.9,4.1,2.2C35.4,116.2,37,117.6,38.8,119.2z
			 M37.3,119.2c-2-1.8-3.5-3.4-4.9-4.6c-1-0.9-1.8-1.4-2.5-1.5c-0.6-0.1-0.7,0.5-0.1,1.6c0.6,1.1,1.8,2.7,3.8,4.5
			c1.9,1.8,3.7,3.1,5.3,3.9c1.5,0.8,2.6,1.1,3.1,1c0.4-0.1,0.4-0.4-0.1-0.9C40.9,122.3,39.3,121,37.3,119.2z"/>
		<path fill="#1E2558" d="M55.2,122.5c0.1,0.1,0.1,0.1-0.1,0.1c0,0-0.1,0-0.3,0c-0.2,0-0.4,0-0.7,0.1c0,0-0.5,0.1-1.5,0.2
			c-0.1,0-0.2,0-0.4-0.1c-0.1-0.1-0.1-0.1,0-0.1c0,0,0.1,0,0.1,0c0.1,0,0.2,0,0.4,0c0.1,0,0.2-0.1,0.1-0.1c-0.1-0.1-0.4-0.3-1-0.6
			c-2.4-1.5-3.5-2.4-5.5-4.4c-0.8-0.8-1.4-1.4-1.9-1.8c-0.5-0.4-1-0.6-1.4-0.6c-0.3,0-0.5,0.1-0.6,0.3c-0.1,0.2,0,0.5,0.2,0.8
			c0.2,0.2,0.9,1.1,2.3,2.4c1.7,1.5,2.6,2.2,4.5,3.5c0.6,0.4,0.9,0.6,1,0.6c0.2,0.1,0.4,0.2,0.6,0.2c0.2,0,0.2,0,0.4,0
			c0.1,0,0.2,0,0.4,0.1c0.1,0.1,0.1,0.1,0,0.1c0,0-0.1,0-0.1,0c-0.1,0-0.4,0-1,0.1c-0.2,0-0.4,0.1-0.8,0.1c-0.3,0-0.5,0.1-0.6,0.1
			c-0.1,0-0.1,0-0.2,0c-0.1,0-0.2,0-0.4-0.1c-0.1-0.1-0.1-0.1-0.1-0.1c0,0,0.2,0,0.5-0.1c0.1,0,0.1-0.1,0-0.2
			c-0.1-0.1-0.2-0.1-0.4-0.2c-3-1.8-4.3-2.9-6.8-5.4c-0.8-0.9-1.5-1.5-1.9-1.9c-0.5-0.4-0.9-0.6-1.3-0.6c-0.4,0-0.6,0.1-0.6,0.5
			c0,0.4,0.3,0.8,0.9,1.4c2.6,2.7,4,3.9,7.2,6c0.6,0.4,0.9,0.6,1.1,0.6c0.1,0.1,0.3,0.1,0.6,0c0,0,0.1,0,0.1,0c0,0,0.1,0,0.1,0
			c0.1,0,0.2,0,0.4,0.1c0.1,0.1,0.1,0.1,0,0.1c-0.1,0-0.1,0-0.1,0c-0.2,0-0.6,0.1-1.1,0.1c-0.6,0.1-0.8,0.1-1.4,0.2
			c-0.1,0-0.3,0-0.4-0.1c-0.1-0.1-0.1-0.1,0-0.2c0.4,0,0.5-0.1,0.5-0.1c0,0-0.1-0.1-0.3-0.2c-3-1.9-4.4-3-6.9-5.5
			c-1.2-1.2-1.9-2-2.1-2.2c-0.2-0.2-0.5-0.4-0.8-0.4c-0.1,0-0.1,0-0.2,0c-0.1,0-0.2,0-0.3,0c-0.1,0-0.3-0.1-0.4-0.2
			c-0.1-0.1-0.1-0.2-0.1-0.2c0,0,0.2,0,0.5,0c0.2,0,0.5-0.1,0.7-0.2c0.2-0.1,0.3-0.3,0.3-0.4c0-0.2,0-0.3,0.1-0.3
			c0.1,0,0.1,0.1,0.3,0.2c0.1,0.1,0.5,0.6,1.2,1.4c-0.5-1-0.2-1.5,0.8-1.4c1.1,0.1,2.1,0.8,3.2,1.8c-0.4-1-0.1-1.4,0.9-1.3
			c0.9,0.1,1.8,0.6,2.8,1.3c0.5,0.4,1.2,1.1,2,1.9c1.9,1.9,3,2.8,5.3,4.2c0.5,0.3,0.8,0.5,0.9,0.5c0.1,0,0.3,0,0.6,0
			c0.1,0,0.2,0,0.3,0C54.9,122.4,55,122.4,55.2,122.5z"/>
		<path fill="#1E2558" d="M58.9,120.7c0.1,0.1,0.3,0.3,0.4,0.5c0.2,0.2,0.3,0.4,0.3,0.5c0.2,0.4-0.1,0.6-0.7,0.6
			c-0.8,0.1-2-0.1-3.6-0.6c-1.5-0.5-3-1.3-4.3-2.4c-1.3-1.1-2.1-2.2-2.1-3.1c-0.1-0.9,0.4-1.3,1.5-1.2c0.9,0,1.8,0.3,2.7,0.9
			c1,0.5,1.8,1.2,2.5,1.9c-0.3,0.1-0.8,0.1-1.4,0.1c-0.5,0-0.7,0-1.2,0c-0.1,0-0.7,0-2,0c0.3,0.4,0.7,0.8,1.1,1.1
			c1.3,1.1,2.6,1.9,3.7,2.4c1.1,0.5,2.1,0.6,2.7,0.6c0.4,0,0.6-0.1,0.6-0.3s-0.2-0.5-0.6-0.9c-0.1-0.1-0.1-0.1,0-0.1
			C58.8,120.6,58.9,120.6,58.9,120.7z M54,117.6c-1.4-1.4-2.4-2.2-3.4-2.3c-1,0-1,0.8,0.2,2.2C52.1,117.6,52.7,117.6,54,117.6z"/>
		<path fill="#1E2558" d="M67.9,121.3C67.9,121.3,67.9,121.4,67.9,121.3c-0.1,0.1-0.1,0.1-0.2,0.1c-0.1,0-0.2,0-0.2,0
			c0,0-0.1,0-0.1,0c-0.5,0-0.8,0.1-0.9,0.3c0,0.1-0.1,0.1-0.1,0.1c-0.1,0-0.2,0-0.3-0.1c-0.2-0.1-0.3-0.2-0.5-0.3
			c0,0.4-0.2,0.5-0.7,0.6c-0.8,0.1-1.8-0.1-3.1-0.6c-1.3-0.5-2.6-1.2-3.7-2.2c-1.1-1.1-1.7-2-1.6-2.8c0-0.8,0.7-1.2,1.7-1.2
			c0.8,0,1.6,0.3,2.4,0.8c-0.7-1.1-1.1-1.7-1.7-2.9c-0.5-1-0.8-1.7-1-1.9c-0.2-0.2-0.3-0.3-0.5-0.3c-0.4,0-0.6,0.1-0.6,0.1
			c-0.2,0-0.3-0.1-0.3-0.2c0-0.1,0-0.2,0.1-0.2c0.3,0,0.4,0,0.7,0c0.4,0,0.9-0.2,1.6-0.6c0,0,0.1,0,0.1,0c0.1,0,0.2,0.2,0.4,0.5
			c0,0.1,0.1,0.2,0.2,0.5c0.1,0.2,0.2,0.4,0.2,0.6c1.1,2.9,1.8,4.2,3.5,6.4c2,2.5,3.4,3.3,3.6,3.5c0.1,0.1,0.4,0.1,0.8,0
			C67.7,121.2,67.8,121.2,67.9,121.3z M62,118.1c-0.9-1-1.5-1.7-1.9-2c-0.6-0.4-1.1-0.6-1.6-0.6c-0.6,0-0.9,0.4-0.8,1
			c0.1,0.7,0.7,1.5,1.6,2.5c0.9,0.9,2,1.6,3,2.1c0.4,0.2,0.9,0.4,1.3,0.5c0.4,0.1,0.8,0.2,1,0.1c0.3,0,0.5-0.1,0.5-0.3
			c0-0.2,0-0.3-0.2-0.6C64.7,120.7,63.6,119.9,62,118.1z"/>
		<path fill="#1E2558" d="M71.5,121.2c0.1,0.1,0,0.1-0.1,0.1c0,0-0.1,0-0.4,0c-0.3,0-0.5,0-0.7,0c-0.6,0-0.9,0.1-1.5,0.1
			c0,0,0,0.1-0.1,0.1c-0.1,0-0.2,0-0.3-0.1c-0.1-0.1-0.1-0.1,0.1-0.1c0.4,0,0.5-0.1,0.5-0.1c0,0-0.2-0.2-0.5-0.5
			c-1.7-1.5-2.4-2.4-3.7-4.4c-0.2-0.3-0.3-0.5-0.3-0.5c0-0.1-0.1-0.1-0.3-0.1c-0.2,0-0.3,0-0.5,0c0,0-0.1,0-0.2,0
			c-0.1,0-0.2,0-0.3-0.1c0-0.1,0-0.1,0.2-0.1c0.8-0.1,1.3-0.3,1.7-0.7c0,0,0.1-0.1,0.1-0.1c0.2,0.2,0.4,0.5,0.6,1c0,0,0,0,0.1,0.2
			c0.1,0.1,0.2,0.4,0.4,0.7c1.1,1.8,1.7,2.6,3.1,4c0.3,0.3,0.6,0.5,0.6,0.6c0.1,0.1,0.2,0.1,0.3,0.1c0.2,0,0.4,0,0.7,0
			C71.3,121.1,71.4,121.1,71.5,121.2z M64,111.2c0.2,0.6,0,0.9-0.5,1c-0.2,0-0.5-0.1-0.7-0.2c-0.2-0.2-0.4-0.4-0.5-0.6
			c-0.2-0.6,0-1,0.5-1C63.5,110.3,63.8,110.6,64,111.2z"/>
		<path fill="#1E2558" d="M77.4,120.2c0.1,0.2,0,0.3-0.2,0.5c-0.2,0.2-0.5,0.3-0.8,0.3c-0.6,0.1-1.2-0.2-1.8-0.8
			c0.1,0.7-0.1,1-0.9,1c-0.4,0-0.8,0-1.3-0.2c-0.5-0.2-0.9-0.4-1.2-0.8c-0.6-0.7-0.6-1.4,0.1-1.9c0.3-0.2,0.8-0.4,1.6-0.7
			c-0.1-0.2-0.1-0.2-0.2-0.4c-0.5-0.9-0.8-1.6-1.1-2c-0.4-0.6-1-0.8-1.6-0.8c-0.4,0.1-0.7,0.2-0.9,0.5c-0.2,0.3-0.2,0.6,0,0.9
			c0,0.1,0.1,0.1,0.3,0.1c0.1,0,0.3,0,0.5,0.2c0.2,0.1,0.3,0.3,0.4,0.4c0.3,0.5,0.2,0.7-0.3,0.8c-0.3,0-0.5,0-0.8-0.2
			c-0.3-0.1-0.5-0.4-0.6-0.6c-0.3-0.5-0.3-1-0.1-1.5c0.3-0.5,0.9-0.8,1.7-0.9c1.3-0.2,2.2,0.1,2.8,0.8c0.2,0.3,0.5,0.8,0.8,1.6
			c0.6,1.3,0.9,1.8,1.6,2.9c0.3,0.4,0.5,0.7,0.5,0.7c0.3,0.3,0.5,0.4,0.8,0.4c0.3,0,0.4-0.1,0.5-0.3c0-0.1,0.1-0.2,0.1-0.2
			C77.4,120.1,77.4,120.1,77.4,120.2z M73.8,119c-0.3-0.4-0.4-0.6-0.7-1.1c-0.7,0.3-1.1,0.6-1.3,0.9c-0.2,0.3-0.1,0.7,0.3,1.1
			c0.2,0.3,0.5,0.5,0.9,0.7c0.3,0.2,0.6,0.2,0.9,0.2c0.4,0,0.6-0.3,0.5-0.7C74.4,119.9,74.2,119.6,73.8,119z"/>
		<path fill="#1E2558" d="M82.5,118.6c0,0.1,0,0.3,0,0.6c-0.1,0.3-0.1,0.5-0.2,0.7c-0.2,0.5-0.7,0.7-1.4,0.8
			c-0.9,0.1-1.7-0.1-2.7-0.7c-1-0.5-1.7-1.3-2.2-2.3c-0.5-1.1-0.6-2.1-0.2-3c0.4-0.9,1.1-1.5,2.1-1.7c0.8-0.2,1.6,0,2.2,0.4
			c0.7,0.4,1.1,1.1,1.3,1.9c-0.3,0.1-0.8,0.2-1.4,0.3c-0.5,0.1-0.7,0.1-1.2,0.2c-0.1,0-0.7,0.1-2,0.4c0.1,0.4,0.2,0.8,0.3,1.1
			c0.5,1.1,1,1.8,1.7,2.3c0.7,0.5,1.3,0.7,2,0.6c0.4,0,0.7-0.2,0.8-0.4c0.2-0.2,0.3-0.6,0.4-1.2c0-0.1,0.1-0.1,0.1-0.2
			C82.4,118.5,82.5,118.5,82.5,118.6z M80.1,115.3c-0.4-1.5-1.1-2.2-2-2c-0.9,0.2-1.4,1.1-1.1,2.6C78.2,115.6,78.8,115.5,80.1,115.3
			z"/>
		<path fill="#1E2558" d="M96.4,102.2c0,0.2-0.2,0.3-0.5,0.4c-0.2,0-0.2,0.1-0.4,0.1c-0.1,0-0.2,0.1-0.3,0.1
			c-0.2,0.1-0.3,0.1-0.4,0.3c0,0.1-0.1,0.4-0.1,0.9c-0.4,6-0.5,8.8-0.6,13.3c0,0.7,0,1.1,0,1.2c0,0.1,0,0.2-0.1,0.2
			c-0.1,0-0.1-0.1-0.2-0.2c-0.7-1.3-1.1-2-2-3.3c-1.2-2-2.9-4.5-4.9-7.8c0.1,5.4,0.4,7.8,1,11.6c0,0.1,0.1,0.2,0.3,0.2s0.5,0,1-0.1
			c0.1,0,0.2,0,0.2,0.1c0,0.1-0.1,0.2-0.3,0.2c-0.1,0-0.4,0.1-0.8,0.1c-0.2,0-0.3,0-0.4,0.1c0,0-0.1,0-0.2,0.1
			c-0.2,0.1-0.4,0.1-0.8,0.2c-0.1,0-0.1,0-0.1,0c-0.2,0-0.3,0-0.4-0.1c0-0.1,0.1-0.2,0.2-0.2c0.6-0.1,0.9-0.2,1-0.3
			c0.1-0.1,0.1-0.3,0-0.8c-0.6-3.4-0.9-5.5-1-10.1c0-1.3-0.3-2.1-0.7-2.3c-0.2-0.1-0.6-0.1-1.1,0.1c-0.3,0.1-0.5,0.1-0.5-0.1
			c0-0.2,0.1-0.3,0.3-0.3c0.3-0.1,0.6-0.2,1-0.2c0.4-0.1,0.6-0.1,0.6-0.1c0,0,0.2-0.1,0.5-0.2c0.4-0.1,0.8-0.3,1.2-0.5
			c2.5,4.4,3.9,6.4,5.9,10.3c0.1-3.8,0.1-5.9,0.4-10.5c0-0.5,0-0.9,0-1c0-0.1,0-0.2-0.1-0.2c-0.1,0-0.4,0-0.9,0.2
			c-0.4,0.1-0.7,0.1-0.7,0c0-0.2,0.2-0.3,0.5-0.4c0.3-0.1,0.4-0.1,0.7-0.2c0.2-0.1,0.3-0.1,0.5-0.2c0.2-0.1,0.3-0.1,0.4-0.1
			c0,0,0.1,0,0.3-0.1c0.2-0.1,0.4-0.1,0.6-0.2c0.2-0.1,0.3-0.1,0.6-0.2C96.3,102,96.4,102,96.4,102.2z"/>
		<path fill="#1E2558" d="M103,112.9c-0.3,1.6-0.9,3-1.6,4c-0.8,1.1-1.5,1.5-2.4,1.6c-0.9,0-1.5-0.4-2.1-1.3c-0.5-0.9-0.8-2-0.7-3.5
			c0.1-1.5,0.5-2.9,1.3-4.1c0.8-1.2,1.7-2,2.8-2.2c1.1-0.2,1.9,0.2,2.4,1.3C103.2,109.8,103.3,111.2,103,112.9z M101.6,113
			c0.3-1.8,0.3-3.3,0.1-4.3c-0.2-0.7-0.6-1.1-1.3-0.9c-0.7,0.1-1.2,0.7-1.7,1.8c-0.5,1-0.8,2.4-0.9,4c-0.2,1.6-0.1,2.7,0.2,3.5
			c0.2,0.8,0.6,1.2,1.2,1.1c0.4,0,0.8-0.3,1.1-0.8C100.8,116.3,101.3,114.9,101.6,113z"/>
		<path fill="#1E2558" d="M112,106.2c0,0.1-0.2,0.2-0.4,0.2c-0.1,0-0.2,0-0.3,0c0,0-0.1,0-0.1,0c-0.2,0-0.4,0.2-0.7,0.7
			c-0.2,0.4-0.3,0.7-0.5,1.1c-1.3,3-2,4.4-3.2,7.1c-0.2,0.3-0.4,0.9-0.7,1.6c-0.4,0.9-0.7,1.4-0.8,1.4c-0.1,0-0.1-0.1-0.1-0.5
			c0-0.2,0-0.4,0-0.7c0.2-3.5,0-5.5,0-5.5c0-2.6-0.1-4-0.2-4.3c-0.1-0.2-0.2-0.2-0.5-0.1c-0.2,0-0.2,0-0.4,0.1c-0.1,0-0.2,0-0.1-0.1
			c0-0.1,0.1-0.2,0.3-0.2c0.5-0.1,0.7-0.1,1.2-0.2c0.2,0,0.6-0.1,1.1-0.2c0.6-0.1,0.9-0.1,0.9-0.1c0,0,0.1,0,0.1,0
			c0.1,0,0.2,0,0.1,0.2c0,0.2-0.2,0.3-0.6,0.3c-0.4,0-0.6,0.2-0.6,0.3c0,0.2-0.1,0.5,0,0.9c0,0.7,0.1,2.3,0,4.5c0,1-0.1,1.8-0.1,2.3
			c0.7-1.5,1.3-2.9,1.9-4.1c1.1-2.4,1.7-3.8,1.8-4.1c0-0.2,0-0.3-0.2-0.2c-0.1,0-0.2,0-0.2,0c-0.1,0-0.1,0-0.2,0
			c-0.2,0-0.2,0-0.2-0.2c0-0.1,0.1-0.2,0.3-0.2c0.5-0.1,0.7-0.1,1.1-0.1c0.3,0,0.4,0,0.7-0.1C111.8,106,112,106.1,112,106.2z"/>
		<path fill="#1E2558" d="M115.1,115c-0.1,0.2-0.3,0.5-0.6,0.9c-0.4,0.4-0.7,0.8-0.9,1.1c-0.8,0.7-1.5,1.1-2.2,1.1
			c-0.9,0-1.3-0.5-1.6-1.6c-0.2-1.1-0.1-2.5,0.5-4.2c0.5-1.8,1.3-3.4,2.3-4.7c1-1.3,2.1-2,3.1-2c0.8,0,1.4,0.5,1.7,1.3
			c0.3,0.8,0.2,1.8-0.2,3c-0.4,0.1-0.9,0.1-1.5,0.1c-0.5,0-0.7,0-1.2,0c-0.1,0-0.8,0-2,0.1c-0.2,0.6-0.5,1.2-0.6,1.7
			c-0.6,1.8-0.9,3.2-0.8,4.1c0,0.9,0.4,1.4,1.1,1.4c0.4,0,0.8-0.2,1.1-0.5c0.4-0.3,0.9-0.9,1.6-1.8c0.1-0.1,0.2-0.2,0.3-0.2
			C115.1,114.8,115.2,114.9,115.1,115z M115.9,109.5c0.8-2.2,0.6-3.4-0.3-3.4c-1,0-1.9,1.2-2.8,3.4
			C114,109.4,114.6,109.4,115.9,109.5z"/>
		<path fill="#1E2558" d="M124.4,117.5c-0.1,0.1-0.2,0.2-0.4,0.2c0,0-0.1,0-0.3,0c-0.2,0-0.4,0-0.8,0c0,0-0.5,0-1.5,0
			c-0.1,0-0.2,0-0.1-0.1c0.1-0.1,0.2-0.2,0.3-0.2c0,0,0.1,0,0.1,0c0.1,0,0.2,0,0.4,0c0.2,0,0.3-0.1,0.4-0.2c0.1-0.1,0.3-0.4,0.7-0.9
			c1.6-2.2,2.4-3.3,3.8-5.6c0.6-0.9,0.9-1.6,0.9-2c0.1-0.4-0.1-0.7-0.6-0.8c-0.3-0.1-0.6,0-1,0.2c-0.4,0.2-0.7,0.5-1.1,0.9
			c-0.2,0.2-0.7,1.2-1.6,2.7c-1.1,1.8-1.6,2.7-2.7,4.5c-0.3,0.5-0.5,0.8-0.6,0.9c-0.1,0.2-0.1,0.3,0.1,0.3c0.2,0,0.2,0,0.4,0
			c0.1,0,0.1,0.1,0.1,0.2c-0.1,0.1-0.2,0.1-0.3,0.1c0,0-0.1,0-0.1,0c-0.1,0-0.4,0-1,0c-0.2,0-0.4,0-0.8,0s-0.5,0-0.6,0
			c-0.1,0-0.1,0-0.2,0c-0.1,0-0.1-0.1-0.1-0.2c0-0.1,0.1-0.1,0.2-0.1c0.1,0,0.3,0,0.6,0c0.2,0,0.3-0.1,0.4-0.2
			c0.1-0.1,0.1-0.2,0.2-0.3c1.6-2.6,2.4-4,3.8-6.8c0.5-1,0.8-1.7,0.8-2.1c0-0.4-0.2-0.6-0.6-0.7c-0.4-0.1-0.9,0.1-1.3,0.5
			c-0.5,0.4-0.8,0.9-1.1,1.5c-1.3,3-2.1,4.5-3.6,7.2c-0.3,0.5-0.4,0.8-0.4,0.9c0,0.1,0.1,0.1,0.3,0.1c0,0,0.1,0,0.1,0
			c0.1,0,0.1,0,0.2,0c0.1,0,0.1,0.1,0,0.2c-0.1,0.1-0.2,0.2-0.3,0.2c-0.1,0-0.1,0-0.1,0c-0.2,0-0.6,0-1.1,0c-0.6,0-0.8,0-1.4,0
			c-0.1,0-0.2-0.1-0.1-0.2c0.1-0.1,0.2-0.2,0.3-0.2c0.4,0,0.6,0,0.7-0.1c0.1-0.1,0.2-0.2,0.3-0.3c1.3-2.6,2-3.9,3.2-6.7
			c0.6-1.3,0.9-2.1,0.9-2.4c0.1-0.2-0.1-0.4-0.4-0.4c-0.1,0-0.1,0-0.2,0c-0.1,0-0.2,0-0.3,0c-0.1,0-0.2-0.1-0.2-0.2
			c0-0.1,0.1-0.2,0.2-0.2c0.1,0,0.3,0,0.6,0c0.3,0,0.7-0.1,1.1-0.2c0.5-0.2,0.8-0.3,0.9-0.4c0.2-0.2,0.3-0.3,0.4-0.3s0.1,0.1,0,0.2
			c0,0.1-0.2,0.7-0.6,1.5c1-1.1,1.9-1.6,2.9-1.4c1,0.2,1.4,0.9,1,2c1-1.1,2-1.5,3-1.3c0.9,0.2,1.2,0.7,1,1.6
			c-0.1,0.5-0.5,1.2-1.1,2.2c-1.5,2.2-2.3,3.3-3.9,5.4c-0.4,0.5-0.6,0.7-0.6,0.8c0,0,0.1,0.1,0.4,0.1c0.1,0,0.2,0,0.3,0
			C124.5,117.4,124.5,117.4,124.4,117.5z"/>
	</g>
</g>
</svg>
