<?xml version="1.0" encoding="utf-8"?>
<!-- Generator: Adobe Illustrator 18.0.0, SVG Export Plug-In . SVG Version: 6.00 Build 0)  -->
<!DOCTYPE svg PUBLIC "-//W3C//DTD SVG 1.1//EN" "http://www.w3.org/Graphics/SVG/1.1/DTD/svg11.dtd">
<svg version="1.1" id="Layer_1" xmlns="http://www.w3.org/2000/svg" xmlns:xlink="http://www.w3.org/1999/xlink" x="0px" y="0px"
	 viewBox="0 0 143.8 142.9" enable-background="new 0 0 143.8 142.9" xml:space="preserve">
<g>
	<g>
		<path fill="#48266F" d="M25.2,109c0.8,1.5,1.2,2.8,1.1,3.9c-0.1,1.1-0.7,1.7-1.7,1.9c-0.3,0.1-0.7,0.1-1.3,0
			c1.2,2.3,1.8,3.4,3.3,5.4c0.1,0.2,0.3,0.5,0.6,0.8c0.1,0.1,0.1,0.2,0.2,0.3c0,0,0,0,0,0.1c0.1,0.1,0.2,0.1,0.3,0.1
			c0.3-0.1,0.5-0.1,0.8-0.2c0.1,0,0.2,0.1,0.3,0.2c0.1,0.1,0.1,0.2,0,0.2c-0.2,0-0.2,0-0.4-0.1c-0.9,0.1-1.3,0.2-2.1,0.3
			c-0.2,0-0.3,0-0.3,0.1c0,0-0.1,0.1,0,0.1c-0.1,0-0.2,0-0.3-0.2c-0.1-0.1-0.2-0.2-0.1-0.2c0,0,0.1,0,0.1,0c0.2,0,0.3,0,0.6,0
			c0.1,0,0.1-0.1,0-0.3c-0.1-0.2-0.5-0.6-0.9-1.3c-3.1-4.3-4.4-6.8-6.2-12.1c-0.1-0.2-0.2-0.6-0.4-1.3c-0.1,0-0.1,0-0.2,0
			c-0.1,0-0.3,0.1-0.4,0.2c-0.1,0.1-0.2,0.1-0.3,0.1c-0.2,0.1-0.4,0-0.5-0.2c-0.1-0.2,0-0.3,0.1-0.3c0,0,0.1,0,0.1,0
			c0.1,0,0.2,0,0.2-0.1c0.1,0,0.1,0,0.2,0c0.2,0,0.4-0.1,0.8-0.2c1.3-0.3,2.3-0.4,3-0.3C23.1,106.1,24.2,107.2,25.2,109z
			 M23.7,108.8c-0.6-1-1.1-1.7-1.6-2.1c-0.5-0.4-1.1-0.5-1.8-0.4c-0.1,0-0.2,0.1-0.3,0.2c1,3.3,1.6,4.9,3.1,7.9
			c0.5,0.1,0.9,0.1,1.1,0c0.7-0.1,0.9-0.7,0.8-1.9C24.9,111.4,24.5,110.2,23.7,108.8z"/>
		<path fill="#48266F" d="M29,111.6c0,0,0.1,0.1,0.1,0.3c0,0.2,0.2,0.6,0.4,1.2c0.9,2.5,1.4,3.7,2.6,5.9c0.4,0.8,0.7,1.2,0.8,1.4
			c0.3,0.4,0.6,0.5,0.8,0.5c0.1,0,0.2-0.1,0.3-0.3c0-0.2,0-0.4-0.1-0.7c-0.1-0.2-0.1-0.3,0-0.3c0,0,0.1,0,0.2,0.1
			c0.1,0.2,0.2,0.4,0.3,0.8c0.1,0.5-0.1,0.8-0.4,0.8c-0.3,0-0.6-0.1-0.9-0.3c-0.4-0.2-0.7-0.5-1-0.9c-0.3-0.3-0.7-0.9-1.1-1.7
			c-1-2-1.5-3.1-2.3-5.3c-0.1-0.3-0.2-0.5-0.2-0.6c0-0.1,0-0.1-0.1-0.2c-0.1-0.1-0.3-0.2-0.7-0.2c-0.1,0-0.2-0.1-0.2-0.1
			c-0.1-0.1-0.1-0.2,0-0.2c0,0,0.1,0,0.2,0c0.1,0,0.3,0,0.6,0c0.4,0,0.6-0.1,0.7-0.2c0.1-0.1,0.1-0.1,0.1-0.1
			C28.9,111.4,28.9,111.4,29,111.6z M27.5,107c0.3,0.7,0.3,1,0,1.1c-0.2,0-0.4-0.1-0.6-0.3c-0.2-0.2-0.4-0.4-0.6-0.8
			c-0.3-0.7-0.3-1,0.1-1.1C26.8,105.9,27.2,106.3,27.5,107z"/>
		<path fill="#48266F" d="M35.4,112c0.3,0.5,0.3,0.7,0,0.8c-0.2,0-0.5-0.2-0.7-0.6c0,0,0-0.1-0.1-0.2c0-0.1-0.1-0.1-0.1-0.2
			c0-0.1-0.1-0.1-0.1-0.1c-0.1,0-0.1,0.2-0.1,0.5c0,0.3,0.1,0.6,0.2,0.8c0,0.1,0.1,0.2,0.2,0.3c0.3,0.4,0.6,0.9,0.9,1.4
			c0.6,1.1,0.9,1.9,1,2.7c0.1,0.7-0.2,1.1-0.8,1.1c-0.4,0-1-0.2-1.7-0.6c-0.3,0.4-0.3,0.9,0,1.3c0.2,0.3,0.5,0.5,0.7,0.5
			c0.5,0.1,0.8,0.1,0.8,0.1c0.4,0,0.6,0,0.9-0.1c0.4,0,0.8,0,1,0.1c0.7,0.2,1.5,0.9,2.4,2.1c0.8,1,1.3,1.9,1.5,2.7
			c0.3,0.8,0.1,1.2-0.6,1.2c-0.5,0-1.1-0.1-2-0.5c-1-0.5-1.9-1.1-2.5-1.8c-0.5-0.5-0.7-1-0.8-1.4c0-0.2,0.1-0.4,0.2-0.8
			c-0.7-0.3-1.3-0.7-1.8-1.4c-0.8-1-0.9-1.9-0.4-2.4c-0.7-0.6-1.2-1.2-1.6-1.8c-0.7-1.1-1.1-2.2-1.2-3.1c0-0.9,0.3-1.4,1-1.4
			c0.5,0,1.2,0.4,2,1.2c-0.2-0.9,0-1.4,0.3-1.4C34.8,111,35.1,111.3,35.4,112z M40.4,122.5c-0.3-0.3-0.5-0.6-0.8-0.9
			c-0.3-0.2-0.6-0.4-0.8-0.5c-0.3-0.1-0.7-0.1-1.2,0c-0.5,0-0.7,0.1-1.2,0.1c-0.1,0.5,0.2,1.1,1,2c0.6,0.7,1.3,1.2,1.9,1.6
			c0.6,0.4,1.2,0.6,1.6,0.5c0.5,0,0.7-0.3,0.6-0.9C41.3,123.9,41,123.3,40.4,122.5z M34,113.2c-0.6-1.1-1.1-1.6-1.6-1.6
			c-0.4,0-0.4,0.7,0,2c0.4,1.1,0.9,2.1,1.5,3c0.6,0.9,1.2,1.4,1.7,1.3c0.4,0,0.3-0.6-0.1-1.7C35,115.2,34.5,114.2,34,113.2z"/>
		<path fill="#48266F" d="M36.4,104.5c0,0,0,0.2,0.1,0.4c0,0.1,0,0.3,0.1,0.6c0.7,5.4,1.4,8,3.2,12.7c0.3,0.9,0.6,1.4,0.8,1.6
			c0.2,0.4,0.5,0.5,0.8,0.5c0.3,0,0.3-0.3,0.2-0.9c0-0.2,0-0.4,0-0.4c0.1,0,0.1,0,0.2,0.1c0.1,0.2,0.2,0.5,0.2,0.9
			c0,0.5-0.2,0.7-0.6,0.7c-0.6,0-1.2-0.4-1.7-1.2c-0.2-0.3-0.5-0.8-0.8-1.7c-1.9-4.7-2.5-7.3-3.3-12.8c0-0.1,0-0.2,0-0.2
			c-0.1-0.2-0.2-0.2-0.4-0.2c-0.4,0-0.6-0.1-0.7-0.2c0-0.1,0-0.1,0.1-0.1c0.1,0,0.2,0,0.4,0c0.2,0,0.3,0,0.4,0c0.4,0,0.7,0,0.9-0.1
			c0.1,0,0.2,0,0.2,0C36.3,104.3,36.4,104.3,36.4,104.5z"/>
		<path fill="#48266F" d="M40.8,111.2c0,0,0,0.1,0.1,0.3c0,0.2,0.1,0.6,0.2,1.1c0.5,2.4,0.8,3.5,1.5,5.7c0.2,0.7,0.4,1.2,0.5,1.4
			c0.2,0.4,0.4,0.5,0.6,0.5c0.1,0,0.2-0.1,0.3-0.3c0.1-0.2,0.1-0.4,0-0.7c0-0.2,0-0.2,0-0.2c0,0,0.1,0,0.1,0.1
			c0.1,0.2,0.1,0.4,0.1,0.7c0,0.5-0.2,0.7-0.6,0.7c-0.3,0-0.5-0.1-0.9-0.3c-0.3-0.2-0.6-0.5-0.8-0.9c-0.2-0.3-0.5-0.9-0.7-1.7
			c-0.6-2-0.9-3-1.3-5.1c-0.1-0.3-0.1-0.5-0.1-0.6c0-0.1,0-0.1,0-0.2c-0.1-0.1-0.3-0.2-0.7-0.3c-0.1,0-0.1-0.1-0.2-0.2
			c-0.1-0.1-0.1-0.2,0-0.2c0,0,0.1,0,0.2,0c0.1,0,0.3,0,0.6,0c0.4,0,0.6-0.1,0.7-0.2c0.1-0.1,0.1-0.1,0.1-0.1
			C40.7,111,40.8,111,40.8,111.2z M40.1,106.7c0.2,0.7,0.2,1-0.2,1c-0.2,0-0.4-0.1-0.6-0.3c-0.2-0.2-0.3-0.5-0.5-0.8
			c-0.2-0.7-0.1-1,0.3-1C39.5,105.7,39.8,106,40.1,106.7z"/>
		<path fill="#48266F" d="M47.1,111.2c0,0,0,0.2,0.1,0.5c0.2,2.7,0.4,4,0.9,6.4c0.1,0.6,0.3,1,0.4,1.3c0.2,0.3,0.3,0.5,0.5,0.5
			c0.3,0,0.4-0.3,0.4-1.1c0-0.1,0-0.2,0-0.2c0,0,0.1,0,0.1,0.1c0.1,0.1,0.1,0.4,0.1,0.7c0,0.6-0.3,0.9-0.7,0.9
			c-0.2,0-0.5-0.1-0.7-0.3c-0.2-0.2-0.4-0.4-0.6-0.8c-0.1-0.2-0.2-0.4-0.3-0.7c0.1,1.2-0.1,1.9-0.7,1.9c-0.4,0-0.8-0.2-1.3-0.6
			c-0.5-0.4-0.9-1-1.3-1.7c-0.4-0.8-0.7-1.7-0.9-2.7c-0.2-1-0.2-1.9,0-2.7c0.3-1.1,0.7-1.7,1.4-1.7c0.7,0,1.2,0.6,1.7,1.6
			c0-0.5-0.1-0.7-0.1-1.2c0-0.2,0-0.4,0.1-0.4c0,0,0.1,0,0.2,0.1c0.1,0,0.2,0,0.2,0c0.2,0,0.3,0,0.4-0.1c0,0,0-0.1,0.1-0.1
			C47,111.1,47.1,111.1,47.1,111.2z M46.2,113.1c-0.2-0.5-0.4-0.8-0.7-1.1c-0.3-0.3-0.5-0.4-0.8-0.4c-0.4,0-0.7,0.4-0.7,1.3
			c0,1,0.1,2,0.3,3.1c0.2,1.1,0.6,2,1,2.7c0.5,0.9,0.9,1.4,1.4,1.3c0.2,0,0.4-0.3,0.4-0.7c0-0.5,0-1.1-0.2-1.8
			c-0.3-1.4-0.4-2.1-0.6-3.6C46.3,113.5,46.2,113.2,46.2,113.1z"/>
		<path fill="#48266F" d="M55.9,114.7c0.1,0.5,0.1,0.7,0.2,1.2c-1,0-1.5,0-2.4,0c-0.1-0.5-0.2-0.7-0.3-1.2
			C54.3,114.7,54.8,114.7,55.9,114.7z"/>
		<path fill="#48266F" d="M67.2,107.6c0,0.1-0.1,0.2-0.4,0.1c-0.3-0.1-0.6,0-0.9,0.3c-0.2,0.2-0.8,0.8-1.5,1.8
			c-0.3,0.4-0.5,0.7-0.8,1.1c-0.2,0.2-0.4,0.5-0.5,0.7c-0.3,0.3-0.5,0.6-0.5,0.7c0,0.1,0,0.1,0.1,0.2c0,0.1,0.1,0.2,0.1,0.3
			c0.8,2.7,1.2,3.9,2,6.2c0.2,0.6,0.3,0.9,0.4,1c0.1,0.1,0.2,0.2,0.5,0.2c0,0,0.1,0,0.1,0c0.1,0,0.1,0,0.2-0.1c0,0,0.1,0,0.1,0
			c0.1,0,0.1,0,0.1,0.1c0,0.1-0.1,0.2-0.4,0.2c0,0-0.1,0-0.4,0c-0.3,0-0.5,0-0.7,0c-0.1,0-0.2,0-0.3,0c-0.3,0-0.5,0-0.9,0
			c-0.2,0-0.3-0.1-0.3-0.2c0-0.1,0-0.2,0.1-0.2c0.1,0,0.2,0,0.2,0.1c0.1,0,0.1,0,0.2,0c0.2,0,0.2-0.1,0.2-0.3c0-0.1-0.1-0.4-0.3-0.9
			c-0.6-1.9-1-2.9-1.7-5.1c-0.2-0.6-0.3-0.9-0.4-0.9c0,0-0.1,0.2-0.1,0.6c-0.2,1.9-0.2,2.8-0.3,4.6c0,0.8,0,1.3,0,1.4
			c0.1,0.2,0.2,0.4,0.4,0.4c0,0,0.1,0,0.1,0c0.1,0,0.1,0,0.2,0s0.1,0,0.1,0c0.2,0,0.3,0.1,0.3,0.2c0,0.1,0,0.2-0.2,0.1
			c-0.3-0.1-0.5-0.1-0.8-0.1c-0.8-0.1-1.3,0-2.2,0c-0.1,0-0.2-0.1-0.2-0.2c0-0.1,0-0.2,0.1-0.2c0,0,0.1,0,0.2,0c0.1,0,0.2,0,0.2,0
			c0.2,0,0.4-0.1,0.4-0.2c0,0,0-0.1,0.1-0.3c0-0.2,0-0.8,0-1.7c0.1-3.6,0.2-5.4,0.7-9.3c0.1-0.6,0.1-1.2,0.2-1.6
			c0-0.3-0.2-0.5-0.6-0.6c-0.4-0.1-0.6-0.3-0.6-0.4c0-0.1,0.2-0.1,0.5,0c0.5,0.2,0.8,0.2,1.4,0.3c0.5,0.1,0.8,0.1,1.3,0.2
			c0.3,0.1,0.5,0.2,0.5,0.3c0,0.1-0.1,0.1-0.4,0.1c-0.2,0-0.4,0-0.5,0c-0.2,0.1-0.3,0.2-0.3,0.4c-0.1,0.5-0.1,0.7-0.2,1.2
			c-0.2,1.5-0.3,2.3-0.4,3.7c0,0.1,0,0.3,0,0.5c0,0.1,0,0.1,0.1,0.1c0,0,0.1,0,0.1-0.1c0-0.1,0.1-0.2,0.2-0.3
			c0.3-0.4,0.5-0.6,0.8-0.9c0.1-0.2,0.2-0.3,0.4-0.5c0.4-0.5,0.6-0.8,1-1.3c0.5-0.7,0.9-1.1,1-1.3c0.1-0.1,0.1-0.3,0.1-0.5
			c0-0.2-0.2-0.4-0.4-0.5c-0.1,0-0.2-0.1-0.3-0.1c-0.1,0-0.1,0-0.2-0.1c-0.1,0-0.2-0.1-0.2-0.2c0-0.2,0.1-0.2,0.2-0.2
			c0.1,0,0.1,0,0.2,0.1c0,0,0.3,0.1,0.8,0.2c0.5,0.1,1,0.3,1.6,0.4C67,107.4,67.2,107.5,67.2,107.6z"/>
		<path fill="#48266F" d="M71.2,116.3c0,1.3-0.5,2.4-1.3,3.3c-0.6,0.7-1.2,1.1-1.9,1c-0.4,0-0.8-0.2-1.2-0.7
			c-0.3-0.5-0.6-1.1-0.6-1.9c-0.1-0.7,0-1.4,0.2-2.1c0.2-0.7,0.5-1.4,1-1.8c0.7-0.7,1.4-1,2.1-0.9c0.5,0.1,1,0.4,1.3,1
			C71.1,114.8,71.2,115.5,71.2,116.3z M70.3,115c0-0.9-0.3-1.4-0.9-1.5c-0.7-0.1-1.3,0.5-1.7,1.9c-0.4,1.3-0.5,2.6-0.4,3.7
			c0.1,0.8,0.3,1.2,0.8,1.2c0.6,0,1.1-0.5,1.5-1.6C70,117.4,70.3,116.2,70.3,115z"/>
		<path fill="#48266F" d="M76.8,120c0,0.1-0.1,0.2-0.3,0.3c-0.6,0.5-1.2,0.7-1.6,0.7c-0.2,0-0.4-0.1-0.5-0.3
			c-0.1-0.2-0.1-0.4-0.1-0.6c0-0.2,0.2-0.6,0.4-1.1c0.6-1.1,0.9-1.7,1.5-2.9c0.3-0.5,0.4-0.8,0.4-1c0-0.3-0.1-0.5-0.4-0.6
			c-0.4-0.1-0.8,0.2-1.4,0.7c-0.4,0.4-0.7,0.8-1,1.2c-0.2,0.4-0.5,0.9-0.8,1.6c-0.4,0.9-0.6,1.3-0.9,2.1c-0.1,0.2-0.1,0.3-0.1,0.3
			c0,0-0.1,0-0.1,0c0,0-0.1,0-0.3,0c-0.2,0-0.4,0-0.4,0c0,0-0.1,0-0.1,0c0,0,0,0,0,0c0,0,0-0.1,0.1-0.3c1.3-3.6,2.2-5.7,4-10.1
			c0.2-0.4,0.3-0.6,0.3-0.7c0-0.1,0-0.2-0.1-0.2c0,0-0.2-0.1-0.5-0.1c-0.2,0-0.3-0.1-0.3-0.2c0-0.1,0-0.1,0.1-0.1c0.1,0,0.1,0,0.2,0
			c0.4,0.1,0.6,0.1,1,0.2c0.2,0,0.4,0.1,0.6,0.1c0.1,0,0.2,0,0.2,0c0.1,0,0.1,0.1,0.1,0.2c0,0.1,0,0.2-0.1,0.2
			c-0.1,0.2-0.2,0.4-0.2,0.5c-1.1,2.5-1.7,3.7-2.7,6c0.6-0.7,1.1-1.2,1.5-1.5c0.4-0.3,0.8-0.3,1.2-0.3c0.3,0.1,0.6,0.2,0.7,0.4
			c0.2,0.2,0.2,0.5,0.2,0.8c0,0.3-0.2,0.8-0.5,1.3c-0.7,1.3-1,1.9-1.6,3c-0.2,0.4-0.3,0.6-0.3,0.6c0,0.1,0,0.2,0.1,0.2
			c0.2,0,0.6-0.2,1.1-0.6C76.6,120,76.7,119.9,76.8,120C76.8,119.9,76.8,119.9,76.8,120z"/>
		<path fill="#48266F" d="M84.4,115.6c0,0-0.1,0.1-0.2,0.3c-1.2,1.8-1.8,2.7-3,4.2c-0.3,0.4-0.4,0.7-0.5,0.9c-0.1,0.2,0,0.3,0.2,0.4
			c0.3,0,0.7-0.2,1.1-0.6c0.1-0.1,0.2-0.1,0.2-0.1c0,0,0,0,0,0.1c0,0.1-0.2,0.2-0.4,0.4c-0.5,0.4-0.9,0.5-1.4,0.5
			c-0.2,0-0.4-0.1-0.5-0.2c-0.1-0.1-0.1-0.3,0-0.5c0-0.1,0.1-0.3,0.2-0.5c-0.7,0.8-1.4,1.1-2,1c-0.4,0-0.6-0.2-0.8-0.5
			c-0.2-0.3-0.2-0.7-0.1-1.2c0.1-0.5,0.4-1.1,0.8-1.8c0.4-0.6,1-1.2,1.6-1.7c0.9-0.7,1.7-1,2.3-0.9c0.6,0.1,0.9,0.5,0.8,1.3
			c0.2-0.3,0.3-0.5,0.5-0.8c0.1-0.2,0.2-0.2,0.2-0.2c0,0,0.1,0,0.1,0.1c0.1,0,0.1,0,0.2,0.1c0.2,0,0.3,0,0.5,0c0,0,0.1,0,0.1,0
			C84.4,115.5,84.4,115.5,84.4,115.6z M82.5,116.7c0.1-0.3,0.1-0.6,0-0.8c-0.1-0.2-0.3-0.4-0.5-0.4c-0.4-0.1-0.9,0.2-1.4,0.8
			c-0.6,0.6-1.1,1.3-1.5,2c-0.4,0.7-0.7,1.3-0.8,1.8c-0.2,0.6,0,0.9,0.4,1c0.2,0,0.5-0.1,0.9-0.4c0.4-0.3,0.7-0.6,1.1-1.1
			c0.6-0.9,1-1.4,1.6-2.3C82.3,117,82.4,116.8,82.5,116.7z"/>
		<path fill="#48266F" d="M89.7,117.3c-0.1,0.2-0.4,0.7-0.9,1.2c-0.9,1-1.3,1.5-2.2,2.5c-0.3,0.3-0.4,0.5-0.5,0.5
			c-0.1,0.2-0.1,0.3,0.1,0.3c0.2,0,0.6-0.2,1.3-0.5c0.1,0,0.1,0,0.1,0c0,0,0.1,0,0,0.1c-0.1,0.1-0.3,0.2-0.6,0.4
			c-0.5,0.2-0.9,0.4-1.3,0.3c-0.2,0-0.4-0.1-0.5-0.3c-0.1-0.1-0.1-0.3,0-0.5c0.1-0.1,0.3-0.4,0.6-0.7c0.8-0.9,1.3-1.4,2.1-2.4
			c0.5-0.6,0.8-1.1,0.9-1.3c0.1-0.3,0.1-0.5-0.2-0.6c-0.4,0-1,0.3-1.7,0.8c-0.6,0.4-1.2,1.1-1.8,1.9c-0.8,1-1.2,1.5-2,2.4
			c-0.1,0.1-0.2,0.2-0.2,0.2c0,0-0.1,0-0.2,0c0,0-0.1,0-0.1,0c-0.1,0-0.2,0-0.3,0c0,0,0,0-0.1,0c-0.1,0-0.1,0,0-0.1c0,0,0,0,0.1-0.1
			c0.1-0.1,0.1-0.1,0.2-0.2c1.5-1.8,2.2-2.8,3.8-5c0,0,0.1-0.1,0.1-0.1c0-0.1-0.1-0.1-0.3-0.2c-0.2,0-0.4-0.1-0.3-0.2
			c0-0.1,0.1-0.1,0.2-0.1c0.1,0,0.2,0,0.3,0.1c0.1,0,0.2,0.1,0.3,0.1c0.5,0.1,0.8,0.1,1,0c0.1,0,0.1,0,0.1,0c0.1,0,0.1,0,0,0.1
			c0,0,0,0.1,0,0.1c-0.4,0.6-0.6,0.8-1,1.4c0.1-0.1,0.2-0.2,0.4-0.3c0.9-0.7,1.7-1.1,2.3-1c0.3,0,0.6,0.2,0.7,0.4
			C89.9,116.6,89.9,116.9,89.7,117.3z"/>
		<path fill="#48266F" d="M94.8,119c-0.2,0.3-0.4,0.5-0.6,0.8c-1,0-1.4,0-2.4-0.1c0.2-0.3,0.3-0.5,0.5-0.8
			C93.3,119,93.8,118.9,94.8,119z"/>
		<path fill="#48266F" d="M108.8,114.3c-0.7,1.1-1.8,2.1-3.1,2.9c-1.3,0.8-2.5,1.1-3.5,1.2c-0.3,0-0.7,0-1.1-0.1
			c-1.6,1.6-2.4,2.3-4,3.6c-0.1,0.1-0.4,0.3-0.7,0.5c-0.1,0.1-0.1,0.1-0.2,0.2c0,0,0,0-0.1,0c-0.1,0.1,0,0.1,0.1,0.1
			c0.4,0,0.5,0,0.9,0c0.1,0,0.1,0.1,0,0.1c-0.1,0.1-0.2,0.1-0.3,0.1c-0.1,0-0.1,0-0.2-0.1c-0.9-0.1-1.3-0.1-2.1-0.2
			c-0.2,0-0.3,0-0.4,0c-0.1,0-0.1,0-0.1,0c-0.1,0-0.1-0.1-0.1-0.1c0.1-0.1,0.2-0.1,0.3-0.1c0,0,0.1,0,0.1,0c0.2,0,0.3,0,0.6,0.1
			c0.1,0,0.3,0,0.5-0.2c0.2-0.1,0.5-0.4,1-0.8c3.3-2.8,5-4.5,8.1-8.3c0.1-0.1,0.4-0.4,0.8-1c-0.1,0-0.1,0-0.2,0
			c-0.1,0-0.3,0-0.5,0.1c-0.2,0-0.3,0.1-0.4,0.1c-0.2,0-0.3,0-0.3-0.2c0.1-0.1,0.2-0.2,0.4-0.2c0,0,0.1,0,0.1,0c0.1,0,0.2,0,0.2,0
			c0.1,0,0.1,0,0.2,0c0.2,0,0.4,0,0.8,0c1.3-0.1,2.3-0.1,2.8,0C109.5,112.2,109.6,113,108.8,114.3z M107.6,114.2
			c0.4-0.7,0.6-1.3,0.5-1.6c-0.1-0.3-0.5-0.4-1.2-0.4c-0.1,0-0.2,0-0.4,0.1c-2,2.4-3,3.5-5,5.6c0.4,0.1,0.6,0.1,0.9,0.1
			c0.7,0,1.6-0.4,2.7-1.2C106.1,116.1,106.9,115.2,107.6,114.2z"/>
		<path fill="#48266F" d="M112.1,114.8c0,0-0.2,0.2-0.4,0.4c-2.2,2.5-3.4,3.7-5.7,5.8c-0.6,0.5-1,0.8-1.2,1.1
			c-0.3,0.3-0.3,0.4-0.1,0.3c0.3-0.1,0.8-0.4,1.7-1c0.2-0.1,0.3-0.2,0.3-0.2c0,0,0,0,0,0.1c-0.1,0.1-0.4,0.3-0.8,0.6
			c-0.8,0.6-1.4,0.9-1.8,0.9c-0.2,0-0.3,0-0.3-0.1c0-0.1,0.2-0.3,0.4-0.5c0.2-0.1,0.4-0.3,0.6-0.5c-1.4,1-2.3,1.5-3,1.5
			c-0.4,0-0.5-0.1-0.5-0.4c0.1-0.3,0.4-0.7,0.8-1.2c0.5-0.5,1.2-1.2,2.1-1.9c0.9-0.7,1.9-1.4,2.9-2.1c1.4-0.9,2.3-1.7,2.8-1.9
			c0.6-0.3,0.6,0,0,0.9c0.4-0.4,0.6-0.7,1-1.1c0.2-0.2,0.3-0.4,0.4-0.4c0,0,0.1,0,0.1,0c0.1,0,0.1,0,0.1,0
			C111.7,114.9,111.9,114.8,112.1,114.8c0-0.1,0-0.1,0-0.1C112.2,114.7,112.2,114.7,112.1,114.8z M109.6,116.9
			c0.3-0.4,0.4-0.7,0.5-0.8c0-0.2-0.1-0.2-0.3-0.1c-0.4,0.2-1,0.7-1.9,1.4c-1,0.9-2,1.7-2.9,2.5c-0.9,0.8-1.7,1.4-2.2,2
			c-0.7,0.6-0.8,1-0.4,0.9c0.2,0,0.7-0.2,1.3-0.6c0.6-0.4,1.3-0.9,2-1.5c1.3-1.1,2-1.8,3.2-3.1C109.3,117.3,109.5,117,109.6,116.9z"
			/>
		<path fill="#48266F" d="M118.2,113.8c0,0-0.1,0.1-0.1,0.1c-0.1,0.1-0.2,0.2-0.3,0.4c-2.2,2.3-3.3,3.4-5.6,5.4
			c-1.2,1-1.9,1.6-2.1,1.8c-0.3,0.3-0.4,0.5-0.2,0.5c0.3,0,0.9-0.4,1.9-1.1c0.2-0.2,0.4-0.3,0.4-0.3c0,0,0,0,0,0.1
			c-0.3,0.3-0.9,0.7-1.7,1.1c-0.5,0.3-0.9,0.4-1.2,0.4c-0.2,0-0.3-0.1-0.3-0.2c0-0.2,0.2-0.4,0.4-0.6c0.1-0.1,0.4-0.4,0.7-0.7
			c0.3-0.2,0.4-0.4,0.7-0.6c-1.4,1-2.3,1.6-2.8,1.9c-0.5,0.3-1,0.4-1.3,0.5c-0.3,0-0.4,0-0.4-0.2c0-0.2,0.1-0.4,0.4-0.6
			c0.3-0.3,0.8-0.7,1.4-1.3c1.9-1.7,2.8-2.6,4.7-4.5c0.1-0.1,0.4-0.4,0.7-0.7c0.1-0.1,0.1-0.1,0.1-0.1c0.1-0.1,0-0.1-0.2-0.1
			c-0.3,0.1-0.4,0-0.3-0.1c0.1-0.1,0.1-0.1,0.2-0.2c0.1,0,0.2,0,0.3,0c0.1,0,0.2,0,0.3,0c0.4-0.1,0.8-0.2,1.1-0.4
			c0.1,0,0.1-0.1,0.1-0.1c0,0,0,0,0,0.1c-0.1,0.1-0.4,0.5-1,1.1c-0.6,0.6-1.2,1.2-1.8,1.8c-0.1,0.1-0.6,0.6-1.5,1.4
			c-0.8,0.7-1.1,1.1-1.9,1.7c-0.8,0.7-1.3,1.2-1.6,1.4c-0.3,0.3-0.3,0.5-0.1,0.4c0.3,0,1-0.4,2.2-1.2c1.3-0.9,2.8-2.1,4.3-3.5
			c1.3-1.2,1.9-1.9,3.1-3.2c0.2-0.2,0.3-0.3,0.3-0.3c0,0,0.1,0,0.3,0c0,0,0.1,0,0.1,0c0.2,0,0.4-0.1,0.5-0.1
			C118.2,113.7,118.2,113.7,118.2,113.8C118.3,113.7,118.3,113.7,118.2,113.8z"/>
		<path fill="#48266F" d="M127,106.5c0,0-0.1,0.2-0.3,0.4c-0.1,0.1-0.3,0.3-0.5,0.6c-4.3,5.5-6.7,8-11.8,12.3
			c-0.9,0.8-1.5,1.3-1.7,1.5c-0.3,0.3-0.4,0.5-0.1,0.5c0.3,0,0.8-0.3,1.6-0.8c0.3-0.2,0.5-0.4,0.6-0.4c0.1,0,0,0-0.1,0.1
			c-0.2,0.2-0.6,0.4-1.2,0.8c-0.7,0.4-1.3,0.7-1.7,0.7c-0.6,0-0.5-0.3,0.2-1.1c0.2-0.2,0.8-0.7,1.7-1.5c4.9-4.3,7.3-6.7,11.6-12.2
			c0.1-0.1,0.1-0.2,0.1-0.2c0.1-0.1,0-0.2-0.1-0.2c-0.4,0.1-0.6,0.1-0.5,0c0-0.1,0.1-0.1,0.2-0.1c0.1,0,0.2,0,0.4-0.1
			c0.2,0,0.3-0.1,0.4-0.1c0.4-0.1,0.7-0.2,0.9-0.3c0.1,0,0.2-0.1,0.2-0.1C127.1,106.3,127.1,106.4,127,106.5z"/>
		<path fill="#48266F" d="M124.9,113.9c-0.2,0.3-0.4,0.5-0.7,0.7c-0.2,0.2-0.4,0.3-0.5,0.3c-0.2,0.1-0.2-0.1,0.2-0.6
			c0.3-0.4,0.5-0.6,0.7-0.6c0,0,0,0,0.1,0c0,0,0,0,0.1,0c0,0,0.1-0.1,0.2-0.2c0.2-0.3,0.3-0.5,0.3-0.7c0-0.2-0.1-0.3-0.3-0.2
			c-0.3,0.1-0.6,0.3-1,0.6c-0.4,0.3-0.8,0.7-1.1,1.2c-0.3,0.4-0.9,1.4-2,2.9c-0.3,0.4-0.6,0.8-1.1,1.3c-0.9,0.9-1.8,1.7-2.8,2.4
			c-1,0.6-1.7,0.9-2.2,1c-0.4,0-0.6-0.2-0.4-0.5c0.1-0.4,0.5-0.9,1.1-1.5c0.3-0.4,0.7-0.7,1-0.9c0.3-0.2,0.6-0.4,0.8-0.4
			c0.1,0,0.2,0.1,0.1,0.2c-0.1,0.2-0.2,0.4-0.4,0.6c-0.4,0.4-0.7,0.6-0.9,0.6c-0.2,0-0.2-0.1,0-0.4c0.1-0.1,0.2-0.2,0.3-0.3
			c0.1-0.1,0.2-0.1,0.2-0.2c0.1-0.1,0.2-0.2,0.1-0.2c-0.1,0-0.2,0.1-0.4,0.3c-0.2,0.2-0.4,0.4-0.6,0.6c-0.5,0.5-0.8,0.9-0.9,1.3
			c-0.1,0.3,0,0.5,0.3,0.5c0.3,0,0.7-0.2,1.3-0.5c0.5-0.3,1.1-0.8,1.6-1.3c0.4-0.4,0.9-0.9,1.5-1.8c0.6-0.8,1.1-1.4,1.5-2
			c0.8-0.9,1.6-1.8,2.4-2.5c0.8-0.7,1.5-1.1,2-1.3c0.3-0.1,0.5,0,0.4,0.3C125.5,113,125.2,113.4,124.9,113.9z"/>
	</g>
</g>
<g>
	<g>
		<path fill="#592670" d="M17.9,93.7c0.1,0.2,0.2,1.6,0.5,4.1c0,0.3,0.1,0.5,0.1,0.8c0,0.2,0,0.3,0,0.3c0,0-0.2,0.1-0.6,0.1
			c-0.4,0.1-0.6,0.1-1,0.2c-0.5,0.1-0.9,0.2-1.4,0.2c-0.5,0.1-0.7,0.1-0.6,0.1c0,0-0.2,0-0.5,0.1c-0.3,0.1-0.6,0.1-0.8,0.2
			c-0.5,0.1-0.8,0.2-1.3,0.3c-0.2,0.1-0.4,0.1-0.7,0.2c-0.2,0.1-0.3,0.1-0.3,0.1c-0.1,0-0.4,0.1-0.6,0.2c-0.3,0.1-0.5,0.1-0.6,0.1
			c-0.2,0-0.3,0-0.3-0.2c-0.1-0.2,0-0.2,0.3-0.3c0,0,0.3,0,0.8-0.2c0.2-0.1,0.3-0.1,0.3-0.2c0-0.1,0-0.3-0.1-0.6
			c0-0.1-0.1-0.5-0.2-1.1c-0.9-6-0.9-9.1-0.4-15.3c0.1-0.8,0.1-1.3,0.1-1.5c0-0.3-0.4-0.4-0.9-0.3c0,0-0.1,0.1-0.5,0.2
			c-0.1,0-0.2,0-0.2-0.2c0-0.2,0.2-0.4,0.8-0.4c0,0,0.3,0,0.8-0.1c0.3,0,0.6,0,0.8,0c0.6,0,1.2-0.1,1.8-0.2c0.1,0,0.2,0,0.3,0
			c0-0.1,0.1-0.1,0.2-0.1c0.1,0,0.2,0.1,0.2,0.3c0,0.2,0,0.3-0.2,0.3c0,0-0.1,0-0.4,0c-0.1,0-0.1,0-0.2,0c-0.4,0-0.7,0.1-0.7,0.2
			c-0.1,0.1-0.2,0.9-0.3,2.3c-0.4,6.1-0.3,9.1,0.5,14.9c0,0.4,0.1,0.6,0.1,0.9c0,0.1,0,0.1,0,0.2c0.1,0.3,0.4,0.4,0.9,0.3
			c1.5-0.4,2.5-0.7,3-1c0.7-0.5,1-1.5,1-3.2c0-0.6,0-1.1-0.1-1.4c0-0.2,0-0.2,0.1-0.3C17.8,93.5,17.9,93.5,17.9,93.7z"/>
		<path fill="#592670" d="M24.3,88.9c0.2,1,0.1,1.8-0.4,2.4c-0.5,0.6-1.2,1-2.3,1.1c-0.4,0-0.8,0-1.3-0.1c0,1.4,0.2,2.6,0.6,3.7
			c0.5,1.5,1.3,2.2,2.2,2.1c0.7-0.1,1.1-0.6,1.4-1.7c0.1-0.2,0.1-0.4,0.2-0.4c0.1,0,0.1,0,0.1,0.1c0.1,0.4,0,0.9-0.3,1.5
			c-0.4,0.7-0.8,1-1.5,1.1c-0.7,0.1-1.4-0.2-2.1-0.8c-0.7-0.6-1.3-1.4-1.6-2.4c-0.7-1.9-0.6-3.9,0.3-5.8c0.8-1.7,1.8-2.6,2.7-2.6
			C23.3,87.1,24,87.7,24.3,88.9z M22.9,88.5c-0.1-0.6-0.4-0.8-0.7-0.8c-0.4,0-0.7,0.2-1,0.7c-0.5,0.8-0.8,2-0.9,3.6
			c0.1,0,0.3,0,0.5,0c0.6,0,1.2-0.4,1.6-1C23,90.2,23.1,89.4,22.9,88.5z"/>
		<path fill="#592670" d="M31.9,91.2c0.5,2,0.4,3.8-0.3,5.4c-0.5,1.2-1.3,1.9-2.3,1.9c-0.7,0-1.4-0.3-2.1-1
			c-0.7-0.7-1.3-1.6-1.6-2.8c-0.3-1-0.4-2-0.3-3.1c0.1-1.1,0.4-2,0.8-2.8c0.7-1.2,1.6-1.8,2.5-1.9c0.7,0,1.4,0.4,2,1.2
			C31.2,89,31.6,90,31.9,91.2z M30.2,89.5c-0.3-1.3-0.8-2-1.6-2c-1,0-1.6,1.1-1.8,3.2c-0.2,2,0.1,3.9,0.6,5.5c0.4,1.3,1,1.9,1.8,1.8
			c0.9,0,1.4-0.9,1.4-2.7C30.7,93.3,30.6,91.3,30.2,89.5z"/>
		<path fill="#592670" d="M40.3,90.3c0.4,2,0.2,3.9-0.4,5.6c-0.6,1.7-1.4,2.5-2.6,2.5c-0.8,0-1.4-0.5-2-1.6c0.1,2.1,0.1,3.1,0.4,5.1
			c0,0.3,0.1,0.5,0.1,0.7c0.1,0.4,0.1,0.7,0.1,1c0.8,0.1,1.2,0.1,1.3,0.3c0.1,0.1-0.1,0.2-0.3,0.2c-0.2,0-0.5,0-0.9-0.1
			c-0.2,0-0.3,0-0.5-0.1c0,0-0.1,0-0.3,0c-0.2,0-0.4,0-0.7,0c-0.2,0-0.4,0-0.6,0c-0.2,0-0.4,0-0.4-0.2c-0.1-0.2,0-0.2,0.3-0.3
			c0.4,0,0.6-0.1,0.6-0.2c0-0.1,0-0.5,0-1.1c-0.6-5.1-0.7-7.9-0.2-13.6c0.1-0.7,0.1-1.1,0.1-1.1c0-0.1-0.1-0.2-0.2-0.2
			c-0.1,0-0.1,0-0.2,0c-0.1,0-0.2,0-0.3,0c-0.2,0-0.3-0.1-0.4-0.2c0-0.1,0-0.2,0.2-0.2c0.1,0,0.2,0,0.3,0c0.9,0,1.5,0,1.8-0.1
			c0.1,0,0.1,0,0.2,0c0.1,0,0.1,0.1,0.1,0.2c0,0.1-0.1,0.7-0.2,1.8c0.4-0.7,0.7-1.2,1-1.4c0.3-0.2,0.6-0.4,1-0.3
			c0.6,0,1.2,0.4,1.7,1C39.8,88.6,40.1,89.4,40.3,90.3z M38.6,89.3c-0.2-1-0.6-1.6-1.2-1.6c-0.6,0-1.1,0.5-1.6,1.6
			c-0.3,0.8-0.5,2.2-0.6,3.9c0,0.8,0,1.3,0,2.1c0,0.5,0,0.8,0.1,1c0.1,0.4,0.4,0.8,0.7,1.1c0.3,0.3,0.6,0.5,0.9,0.5
			c0.9,0,1.4-1.1,1.6-3.4C38.9,92.6,38.9,90.8,38.6,89.3z"/>
		<path fill="#592670" d="M48.3,92.2c0.3,2,0,3.6-0.8,5.1c-0.7,1.1-1.5,1.7-2.5,1.6c-0.7,0-1.3-0.4-2-1.1c-0.6-0.7-1.1-1.7-1.4-2.8
			c-0.2-1-0.3-2-0.1-3c0.2-1,0.5-1.9,1-2.6c0.8-1.1,1.7-1.6,2.7-1.5c0.7,0.1,1.4,0.5,1.9,1.4C47.7,90,48.1,91,48.3,92.2z M46.7,90.4
			c-0.2-1.3-0.7-2-1.5-2.1c-1-0.1-1.7,0.9-2,2.9c-0.3,1.9-0.2,3.7,0.2,5.4c0.3,1.3,0.8,1.9,1.6,1.9c0.9,0,1.5-0.8,1.7-2.5
			C46.9,93.9,46.9,92.1,46.7,90.4z"/>
		<path fill="#592670" d="M53.6,82.3c0,0,0,0.1-0.1,0.3c0,0.1-0.1,0.3-0.1,0.6c-1.2,5.2-1.6,7.9-2.1,13c-0.1,0.9-0.1,1.6,0,1.8
			c0.1,0.4,0.3,0.6,0.8,0.7c0.4,0,0.7-0.3,1-0.9c0.1-0.3,0.2-0.4,0.2-0.4c0.1,0,0.1,0.1,0.2,0.2c0,0.2-0.1,0.5-0.3,0.9
			c-0.3,0.5-0.8,0.7-1.5,0.7c-0.9,0-1.5-0.6-1.7-1.6c-0.1-0.3-0.1-0.9,0-1.9c0.4-5,0.9-7.9,2.1-13.2c0-0.1,0-0.2,0-0.2
			c0-0.2-0.1-0.3-0.3-0.3c-0.5-0.1-0.8-0.2-0.8-0.3c0-0.1,0-0.1,0.2-0.1c0.1,0,0.3,0,0.5,0.1c0.2,0,0.4,0.1,0.5,0.1
			c0.5,0.1,0.9,0.1,1.1,0.2c0.1,0,0.2,0,0.3,0C53.5,82.1,53.6,82.2,53.6,82.3z"/>
		<path fill="#592670" d="M62.6,84.4c0,0,0,0.1,0,0.2c0,0.1-0.1,0.3-0.2,0.5c-1.4,5.2-1.9,7.6-2.6,12.4c-0.1,0.9-0.2,1.5-0.1,1.7
			c0.1,0.4,0.3,0.7,0.7,0.7c0.5,0.1,0.9-0.2,1.1-0.9c0.1-0.2,0.1-0.3,0.2-0.3c0.1,0,0.1,0.1,0.1,0.2c0,0.3-0.1,0.6-0.4,0.9
			c-0.4,0.5-0.9,0.6-1.5,0.5c-0.8-0.1-1.3-0.8-1.5-1.7c0-0.2-0.1-0.4-0.1-0.7c-0.2,0.7-0.5,1.1-0.8,1.3c-0.3,0.2-0.7,0.4-1.2,0.3
			c-0.6-0.1-1.2-0.4-1.7-0.9c-0.5-0.6-0.9-1.3-1-2.2c-0.4-1.8,0-3.6,1-5.1c0.9-1.3,1.9-1.8,3-1.5c0.7,0.2,1.3,0.8,1.6,1.8
			c0-0.1,0-0.2,0.1-0.3c0-0.1,0-0.2,0.1-0.3c0.5-2.5,0.8-3.7,1.5-6.3c0-0.1,0.1-0.1,0.1-0.2c0-0.1,0-0.2-0.1-0.2
			c-0.1,0-0.3-0.1-0.7-0.2c-0.2-0.1-0.3-0.1-0.4-0.2c0-0.1,0.1-0.1,0.2-0.1c0.1,0,0.1,0,0.2,0.1c0.2,0,0.4,0.1,0.7,0.2
			c0.3,0.1,0.5,0.1,0.6,0.1c0.5,0.1,0.8,0.1,0.9,0.1c0.1,0,0.1,0,0.1,0C62.6,84.2,62.6,84.3,62.6,84.4z M59,92.1
			c0-0.4-0.2-0.7-0.5-1.1c-0.3-0.3-0.6-0.5-0.9-0.6c-0.8-0.2-1.6,0.5-2.1,2.3c-0.5,1.7-0.7,3.2-0.4,4.5c0.2,1.1,0.7,1.7,1.4,1.8
			c0.6,0.1,1.1-0.3,1.5-1.4c0.3-0.7,0.5-1.6,0.6-2.8c0.1-0.5,0.1-0.8,0.2-1.3C59,92.7,59.1,92.3,59,92.1z"/>
		<path fill="#592670" d="M68.9,96c0.1,1.9-0.3,3.4-1.3,4.5c-0.8,0.9-1.7,1.3-2.7,1c-0.7-0.2-1.3-0.6-1.8-1.4
			c-0.5-0.7-0.9-1.6-1-2.7c-0.1-0.9-0.1-1.8,0.2-2.6c0.3-0.9,0.7-1.6,1.3-2.1c0.9-0.9,1.8-1.2,2.8-1.1c0.7,0.1,1.3,0.6,1.8,1.4
			C68.5,94,68.8,94.9,68.9,96z M67.5,94.3c-0.1-1.2-0.5-1.9-1.3-2c-1-0.2-1.8,0.6-2.3,2.4c-0.5,1.6-0.6,3.2-0.4,4.7
			c0.2,1.1,0.6,1.8,1.3,1.9c0.9,0.2,1.6-0.4,2-1.9C67.4,97.6,67.6,95.9,67.5,94.3z"/>
		<path fill="#592670" d="M88.7,87.8c0,0.3-0.1,0.4-0.2,0.4c0,0-0.1,0-0.2-0.1c0,0-0.1,0-0.2,0c-0.1,0-0.1,0-0.2,0
			c-0.2,0-0.2,0-0.4,0c0,0-0.1,0-0.2,0c-0.1,0-0.3,0.1-0.3,0.4c-0.2,0.7-0.5,1.4-0.7,2.2c-1.4,5-2.1,7.4-3.3,11.9
			c0,0.1-0.1,0.3-0.1,0.5c0,0,0,0.1,0,0.2c0,0.1-0.1,0.3-0.1,0.5c0,0.1-0.1,0.1-0.1,0.2c0,0.2,0.1,0.3,0.4,0.3c0.1,0,0.1,0,0.2,0
			c0.2,0,0.2,0,0.4,0.1c0.1,0,0.2,0,0.3,0c0,0,0,0.1,0,0.1c0,0.2-0.1,0.3-0.2,0.2c-0.2,0-0.3,0-0.5-0.1c-1.4-0.2-2.1-0.3-3.5-0.5
			c-0.1,0-0.2-0.1-0.2-0.2c0-0.2,0.1-0.2,0.4-0.2s0.5,0,0.7,0c0.1,0,0.2-0.2,0.3-0.5c0.3-1,0.5-1.9,0.8-2.9c1.3-4.6,2-7,3.4-12.1
			c0,0-0.6,1.3-1.8,3.6c-2.4,4.7-3.5,7-5.5,11.2c-0.2,0.4-0.3,0.6-0.4,0.5c-0.1,0-0.1-0.1-0.2-0.4c0-0.1,0-0.2,0-0.3
			c0-0.3,0-0.4,0-0.7c-0.1-4.8-0.1-7.3,0.1-12.4c0-0.6,0-1.1,0-1.3c0-0.4,0-0.6-0.1-0.6c0,0-0.1,0.1-0.1,0.2
			c-0.1,0.3-0.2,0.7-0.3,1.2c-1.3,5.4-1.9,8-2.9,12.9c0,0.1,0,0.2,0,0.2c0,0.2,0.1,0.3,0.2,0.4c0.1,0.1,0.4,0.1,0.8,0.2
			c0.1,0,0.2,0,0.3,0.1c0.1,0,0.1,0.1,0.1,0.1c0,0.1-0.1,0.2-0.2,0.2c-0.1,0-0.2,0-0.3-0.1c-0.4-0.1-0.6-0.1-1.1-0.2
			c-0.8-0.2-1.4-0.3-1.7-0.3c-0.1,0-0.1,0-0.2,0c-0.1,0-0.2-0.1-0.2-0.2c0-0.1,0.1-0.2,0.2-0.2c0.1,0,0.1,0,0.2,0
			c0.1,0,0.2,0,0.5,0.1c0.4,0.1,0.6,0,0.7-0.1c0.1-0.1,0.2-0.6,0.4-1.5c1-4.8,1.6-7.4,3-12.8c0-0.2,0.1-0.4,0.1-0.6
			c0-0.1,0.1-0.1,0.1-0.2c0-0.1-0.1-0.2-0.2-0.2c-0.1-0.1-0.3-0.1-0.4-0.2c-0.2,0-0.5-0.1-1-0.1c0,0,0,0-0.1,0
			c-0.1,0-0.1-0.1-0.1-0.3c0-0.2,0.1-0.2,0.2-0.2c0.1,0,0.2,0,0.2,0.1c0.2,0,0.8,0.1,1.8,0.2c0.9,0.1,1.4,0.1,1.5,0.1
			c0,0,0.1,0,0.1,0c0.1,0,0.1,0.1,0.1,0.2c0,0.3,0,0.7,0,1.4c-0.1,4.7-0.2,7-0.2,11.4c0-0.1,0.2-0.4,0.4-0.7
			c0.2-0.3,0.2-0.4,0.4-0.7c2-4.1,3-6.3,5.3-10.9c0.5,0,0.8,0.1,1.4,0.1c0.8,0,1.2,0,2.1,0C88.7,87.6,88.7,87.6,88.7,87.8z"/>
		<path fill="#592670" d="M94.6,94.8c0,0.1-0.1,0.2-0.2,0.5c-1.1,3.1-1.6,4.6-2.6,7.5c-0.2,0.7-0.4,1.2-0.4,1.6
			c0,0.4,0.1,0.6,0.4,0.7c0.4,0,0.9-0.4,1.4-1.2c0.1-0.2,0.2-0.3,0.2-0.3c0,0,0.1,0,0.1,0.1c0,0.2-0.2,0.5-0.4,0.8
			c-0.5,0.7-1.1,1.1-1.8,1c-0.3,0-0.6-0.2-0.8-0.4c-0.2-0.3-0.3-0.6-0.3-1c0-0.2,0.1-0.5,0.1-0.8c-0.8,1.5-1.6,2.1-2.5,2
			c-0.6-0.1-1-0.4-1.4-0.9c-0.4-0.6-0.5-1.3-0.5-2.1c0-0.9,0.2-1.9,0.7-3c0.4-1.1,1-2.1,1.8-3c1-1.2,2-1.9,2.8-1.8
			c0.9,0,1.3,0.7,1.4,1.9c0.2-0.5,0.3-0.8,0.5-1.4c0.1-0.3,0.2-0.4,0.3-0.4c0,0,0.1,0,0.2,0.1c0.1,0,0.2,0.1,0.2,0.1
			c0.3,0,0.5,0,0.6-0.1c0,0,0.1-0.1,0.1-0.1C94.6,94.6,94.6,94.7,94.6,94.8z M92.3,96.9c0-0.5-0.1-1-0.3-1.3s-0.5-0.5-0.8-0.5
			c-0.6,0-1.2,0.5-1.7,1.5c-0.6,1.1-1.2,2.3-1.6,3.5c-0.4,1.2-0.6,2.2-0.6,3.1c0,1.1,0.3,1.7,0.9,1.7c0.4,0,0.7-0.2,1.2-0.7
			c0.4-0.5,0.8-1.2,1.1-2.1c0.6-1.6,0.9-2.5,1.5-4.1C92.2,97.4,92.3,97.1,92.3,96.9z"/>
		<path fill="#592670" d="M101.4,96.1c0,0.3-0.1,0.6-0.3,0.9c-0.2,0.2-0.4,0.4-0.6,0.4c-0.2,0-0.3-0.1-0.3-0.3c0-0.1,0-0.2,0.1-0.3
			c0-0.1,0.1-0.2,0.1-0.3c0-0.4-0.1-0.6-0.4-0.6c-0.3,0-0.9,0.5-1.5,1.4c-0.7,0.9-1.3,2.3-2,3.9c-0.6,1.6-0.9,2.4-1.5,3.9
			c-0.1,0.4-0.2,0.6-0.3,0.6c-0.2-0.1-0.4-0.1-0.5-0.1c-0.2,0-0.3,0-0.5,0.1c0,0-0.1,0-0.1,0c-0.1,0-0.1,0-0.1-0.1c0,0,0,0,0.1-0.1
			c0-0.1,0.1-0.1,0.1-0.2c1.4-3.7,2.1-5.7,3.5-9.6c0-0.1-0.1-0.2-0.2-0.2c0,0,0,0-0.1,0c0,0-0.1,0-0.2,0c-0.1,0-0.1,0-0.2,0
			c-0.2,0-0.3-0.1-0.3-0.2c0-0.1,0.3-0.2,0.9-0.2c0.6,0,1-0.1,1.3-0.2c0.1,0,0.2,0,0.2,0c0.1,0,0.1,0.1,0.1,0.2c0,0.1-0.1,0.4-0.3,1
			c-0.3,0.9-0.5,1.4-0.8,2.3c1.2-2.2,2.3-3.3,3.1-3.2C101.2,94.9,101.5,95.3,101.4,96.1z"/>
		<path fill="#592670" d="M107.5,96.6c-0.1,0.9-0.5,1.7-1.3,2.3c-0.7,0.6-1.6,0.9-2.6,0.9c-0.4,0-0.8,0-1.2-0.1
			c-0.6,1.3-0.9,2.5-1,3.6c-0.2,1.5,0.2,2.2,1.1,2.2c0.7,0,1.4-0.5,2.2-1.6c0.2-0.2,0.3-0.3,0.3-0.3c0.1,0,0.1,0,0.1,0.1
			c-0.1,0.4-0.4,0.8-1,1.4c-0.7,0.6-1.4,1-2,1c-0.7,0-1.3-0.3-1.7-0.9c-0.4-0.6-0.6-1.4-0.5-2.4c0.2-1.9,1-3.7,2.6-5.5
			c1.4-1.6,2.6-2.4,3.6-2.4C107.1,94.9,107.6,95.4,107.5,96.6z M106.3,96.2c0.1-0.5-0.1-0.8-0.5-0.8c-0.4,0-0.8,0.2-1.2,0.6
			c-0.7,0.8-1.4,1.9-2.1,3.4c0.1,0,0.3,0,0.5,0c0.6,0,1.3-0.3,2-0.9C105.7,97.9,106.2,97.1,106.3,96.2z"/>
		<path fill="#592670" d="M113.9,96.5c-0.1,0.8-0.4,1.3-0.9,1.3c-0.2,0-0.3-0.1-0.4-0.2c-0.1-0.2-0.1-0.4-0.1-0.6
			c0.1-0.4,0.2-0.6,0.6-0.6c0.1,0,0.1,0,0.1,0c0.1,0,0.1,0.1,0.2,0.1c0.1,0,0.2-0.1,0.2-0.3c0-0.3,0-0.5-0.3-0.7
			c-0.2-0.2-0.4-0.3-0.7-0.3c-0.9,0-1.8,1-2.9,2.9c-1.1,1.9-1.7,3.7-2,5.3c-0.2,1.4,0.1,2,1,2c0.6,0,1.4-0.6,2.2-1.8
			c0.1-0.2,0.3-0.3,0.3-0.3c0.1,0,0.1,0,0.1,0.1c0,0.2-0.2,0.5-0.6,1c-0.8,1-1.6,1.5-2.4,1.5c-0.7,0-1.3-0.2-1.6-0.8
			c-0.3-0.6-0.5-1.4-0.3-2.4c0.2-1.7,1.1-3.6,2.6-5.5c1.3-1.6,2.5-2.4,3.6-2.5c0.4,0,0.8,0.1,1,0.5
			C113.9,95.5,113.9,95.9,113.9,96.5z"/>
		<path fill="#592670" d="M119.5,101.5c0,0.1-0.2,0.3-0.5,0.6c-1,1-1.9,1.6-2.4,1.9c-0.3,0.1-0.5,0.1-0.6-0.1
			c-0.1-0.2-0.1-0.4,0-0.8c0.1-0.3,0.3-0.9,0.8-1.9c1-2,1.5-3,2.5-4.9c0.4-0.8,0.6-1.3,0.7-1.5c0.1-0.5,0-0.7-0.4-0.6
			c-0.5,0.1-1.1,0.6-1.9,1.6c-0.6,0.8-1.1,1.5-1.4,2.2c-0.3,0.6-0.8,1.6-1.3,2.9c-0.7,1.5-1,2.3-1.7,3.8c-0.1,0.3-0.2,0.5-0.3,0.6
			c0,0.1-0.1,0.1-0.2,0.1c0,0-0.2,0-0.5,0.1c-0.3,0-0.5,0.1-0.6,0.1c0,0-0.1,0-0.1,0c0,0-0.1,0-0.1-0.1c0-0.1,0.1-0.2,0.2-0.5
			c3-6.2,4.3-9.7,7-16.1c0.2-0.6,0.4-0.9,0.4-1c0-0.1,0-0.2-0.1-0.2c-0.1,0-0.2,0-0.6,0c-0.3,0-0.4,0-0.4-0.2c0-0.1,0.1-0.1,0.1-0.1
			c0.1,0,0.1,0,0.2,0c0.5,0,0.8,0,1.3-0.1c0.3,0,0.5,0,0.8-0.1c0.1,0,0.2,0,0.3,0c0.1,0,0.2,0,0.1,0.2c0,0.1-0.1,0.2-0.1,0.3
			c-0.1,0.3-0.2,0.5-0.3,0.7c-1.6,3.6-2.5,5.4-4.1,9.1c0.9-1.3,1.6-2.2,2.1-2.8s1.1-0.8,1.6-0.9c0.4-0.1,0.8,0,1,0.3
			c0.2,0.2,0.3,0.6,0.2,1c-0.1,0.5-0.4,1.1-0.8,2c-1.1,2-1.6,3-2.7,5c-0.3,0.6-0.5,1-0.5,1.1c-0.1,0.2,0,0.3,0.1,0.3
			c0.3-0.1,0.9-0.6,1.8-1.4c0.2-0.2,0.4-0.3,0.4-0.4C119.5,101.3,119.5,101.4,119.5,101.5z"/>
		<path fill="#592670" d="M130.6,92.5c0,0-0.1,0.2-0.3,0.5c-1.6,2.8-2.5,4.1-4.2,6.8c-0.4,0.6-0.7,1.1-0.8,1.4
			c-0.1,0.4-0.1,0.5,0.2,0.5c0.4-0.1,1-0.5,1.7-1.3c0.1-0.2,0.2-0.3,0.3-0.3c0,0,0.1,0,0,0.1c-0.1,0.2-0.3,0.4-0.6,0.8
			c-0.7,0.7-1.4,1.2-2.1,1.3c-0.3,0.1-0.6,0-0.7-0.2c-0.1-0.2-0.2-0.4,0-0.8c0.1-0.2,0.2-0.5,0.4-0.8c-1.1,1.4-2.2,2.2-3.1,2.4
			c-0.6,0.1-1,0-1.2-0.4c-0.2-0.4-0.2-1,0-1.7c0.2-0.8,0.7-1.8,1.4-2.9c0.7-1.1,1.5-2.1,2.4-3c1.3-1.3,2.3-1.9,3.2-2
			c0.9-0.1,1.2,0.4,1.1,1.4c0.3-0.5,0.4-0.7,0.7-1.2c0.2-0.2,0.3-0.4,0.3-0.4c0,0,0.1,0,0.2,0c0.1,0,0.2,0,0.2,0
			c0.3,0,0.5-0.1,0.6-0.2c0.1,0,0.1-0.1,0.1-0.1C130.6,92.3,130.7,92.4,130.6,92.5z M127.9,94.6c0.1-0.5,0.1-0.8,0-1.1
			c-0.1-0.3-0.4-0.4-0.7-0.3c-0.6,0.1-1.3,0.6-2,1.5c-0.9,1.1-1.6,2.2-2.3,3.3c-0.7,1.1-1.1,2.1-1.4,2.9c-0.3,1-0.2,1.4,0.5,1.3
			c0.4-0.1,0.8-0.4,1.4-0.9c0.6-0.6,1.1-1.2,1.7-2c1-1.5,1.5-2.3,2.4-3.8C127.7,95,127.9,94.7,127.9,94.6z"/>
		<path fill="#592670" d="M138.2,85.5c0,0-0.1,0.1-0.2,0.3c-0.1,0.1-0.2,0.3-0.3,0.6c-2.7,5.1-4.2,7.6-7.4,12.5
			c-0.6,0.9-1,1.5-1.1,1.7c-0.1,0.4,0,0.5,0.4,0.4c0.4-0.1,0.9-0.4,1.5-1.1c0.3-0.3,0.4-0.4,0.5-0.4c0.1,0,0.1,0,0.1,0.1
			c-0.1,0.2-0.4,0.5-0.9,1c-0.6,0.6-1.2,0.9-1.9,1c-0.9,0.2-1.2-0.2-0.8-1c0.1-0.3,0.5-0.9,1.1-1.8c3.2-4.9,4.7-7.4,7.3-12.6
			c0.1-0.1,0.1-0.1,0.1-0.2c0-0.1-0.1-0.2-0.3-0.2c-0.5,0.1-0.8,0.1-0.8,0c0-0.1,0.1-0.1,0.2-0.1c0.1,0,0.3,0,0.5-0.1
			c0.2,0,0.4-0.1,0.5-0.1c0.5-0.1,0.9-0.1,1.2-0.2c0.1,0,0.2-0.1,0.3-0.1C138.2,85.3,138.3,85.3,138.2,85.5z"/>
	</g>
</g>
<g>
	<g>
		<path fill="#963C96" d="M25.8,43C25.8,43,25.8,43.1,25.8,43c-0.2,0.2-0.3,0.4-0.5,0.6c-0.5,0.8-1,1.7-1.4,2.3
			c-0.4,0.7-0.6,1-0.7,1c-0.1,0-0.1-0.1-0.1-0.2c0-0.1,0-0.1,0.1-0.2c0.4-0.5,0.7-1.1,0.9-1.9c0.3-0.8,0.2-1.3-0.2-1.5
			c-0.4-0.2-1.2-0.3-2.3-0.3c-0.6,0-0.9,0-1.5,0c-0.3,0-0.5,0.2-0.7,0.5c-0.6,0.9-0.9,1.3-1.5,2.1c-1.3,1.8-2,2.8-3.2,4.7
			c0.6,0,0.9,0,1.1,0c0.8,0,1.6-0.2,2.3-0.7c0.7-0.4,1.3-1,1.7-1.7c0.2-0.2,0.3-0.4,0.4-0.4c0.1,0,0.2,0.1,0.2,0.2
			c0,0-0.1,0.1-0.2,0.3c-1.5,2-2.8,4-3.9,6.2c-0.1,0.2-0.2,0.4-0.3,0.4c-0.1,0-0.2-0.1-0.1-0.2c0-0.1,0.1-0.2,0.1-0.3
			c0.4-0.9,0.7-1.5,0.8-1.9c0.1-0.5,0.1-0.9-0.2-1.1c-0.3-0.2-0.9-0.3-1.8-0.3c-0.3,0-0.5,0.2-0.7,0.5c-1.7,2.6-2.6,4-4.1,6.7
			c-0.3,0.5-0.4,0.8-0.4,0.9c0,0.2,0.1,0.2,0.4,0.2c0.5,0,0.7,0,1.2,0c0.4,0,0.8,0,1.3,0c2.3,0,4-0.5,5.1-1.6
			c0.5-0.5,1.1-1.4,1.8-2.6c0.2-0.3,0.4-0.5,0.5-0.5c0.1,0,0.2,0.1,0.1,0.2c0,0.1-0.1,0.3-0.4,0.8c-0.9,1.7-1.6,3-2,3.9
			c-0.1,0.2-0.2,0.3-0.3,0.4c-0.1,0-0.3,0.1-0.6,0.1c-3.3-0.1-4.9,0-8.2,0.1c-2,0.1-3.2,0.1-3.5,0.1c-0.3,0-0.5-0.1-0.5-0.2
			c0-0.1,0.1-0.2,0.2-0.2c0.1,0,0.6,0,1.4-0.1c0.3,0,0.5-0.1,0.7-0.2c0.1-0.1,0.4-0.5,0.7-1.1c2.9-5,4.5-7.5,8.1-12.2
			c0.2-0.3,0.6-0.8,1.1-1.5c0.5-0.7,0.8-1.1,0.9-1.3c0-0.1,0-0.2-0.1-0.2c-0.1,0-0.6,0-1.5,0c-0.2,0-0.3,0-0.2-0.1
			c0.1-0.2,0.2-0.2,0.5-0.3c0,0,0.3,0,0.7,0c0.4,0,0.9,0,1.5,0c2.7-0.1,4.1-0.1,6.8,0c0.3,0,0.4,0,0.5,0c0,0,0.1,0,0.1,0.1
			C25.8,42.7,25.9,42.8,25.8,43z"/>
		<path fill="#963C96" d="M30.5,51.7c-0.1,0.3-0.2,0.6-0.5,0.8c-0.2,0.2-0.5,0.2-0.7,0.2c-0.2-0.1-0.3-0.2-0.3-0.4
			c0-0.1,0.1-0.1,0.1-0.2c0-0.1,0.1-0.2,0.1-0.3c0.1-0.4,0-0.6-0.4-0.7c-0.4-0.1-1.1,0.2-2.1,1c-1,0.7-2,1.9-3.1,3.5
			c-1,1.5-1.4,2.3-2.4,3.9c-0.2,0.4-0.4,0.6-0.5,0.6c-0.3-0.1-0.6-0.1-0.7-0.2c-0.3,0-0.5,0-0.7,0c-0.1,0-0.1,0-0.1,0
			c-0.1,0-0.2-0.1-0.2-0.1c0,0,0-0.1,0.1-0.1c0.1-0.1,0.1-0.2,0.2-0.3c2.2-3.9,3.4-5.7,5.9-9.4c0-0.1-0.1-0.2-0.3-0.2c0,0,0,0-0.1,0
			c-0.1,0-0.2,0-0.3,0c-0.1,0-0.1,0-0.2,0c-0.2,0-0.3-0.1-0.3-0.2c0-0.1,0.4-0.2,1.3-0.1c0.8,0.1,1.4,0.1,1.6,0.1c0.1,0,0.2,0,0.2,0
			c0.1,0,0.1,0.1,0.1,0.2c0,0.1-0.2,0.4-0.5,0.8c-0.5,0.8-0.8,1.2-1.3,2.1c1.9-1.9,3.3-2.6,4.4-2.4C30.4,50.4,30.7,51,30.5,51.7z"/>
		<path fill="#963C96" d="M39.1,54.8c-0.1,0.5-0.5,1.3-1.1,2.4c-1.2,2.1-1.7,3.1-2.8,5.1c-0.3,0.6-0.5,1-0.5,1.2
			c-0.1,0.4,0.1,0.7,0.4,0.8c0.4,0.1,1.1-0.2,2.1-1c0.1-0.1,0.2-0.1,0.2-0.1c0.1,0,0.1,0.1,0.1,0.2c0,0.2-0.4,0.6-1,1
			c-0.8,0.5-1.6,0.7-2.3,0.4c-0.5-0.2-0.8-0.5-1-0.8c-0.2-0.4-0.3-0.8-0.3-1.2c0-0.3,0.3-0.9,0.7-1.6c1-1.8,1.5-2.8,2.7-4.8
			c0.7-1.2,1.1-2,1.2-2.4c0.1-0.7-0.1-1.1-0.6-1.2c-0.7-0.1-1.6,0.4-2.8,1.4c-0.9,0.8-1.7,1.7-2.5,3.2c-1,1.8-1.6,2.7-2.5,4.5
			C29,62,28.9,62.1,28.8,62c0,0-0.2-0.1-0.5-0.2c0,0-0.1-0.1-0.3-0.1c-0.1-0.1-0.3-0.1-0.6-0.2c0,0-0.1,0-0.2-0.1
			c-0.1,0-0.1-0.1-0.1-0.2c0,0,0-0.1,0.1-0.1c0.1-0.1,0.1-0.2,0.2-0.3c1.8-3.4,2.7-4.9,5-8.6c0.1-0.1,0.1-0.2,0.2-0.2
			c0-0.1-0.2-0.2-0.5-0.3c-0.4-0.1-0.6-0.3-0.6-0.5c0-0.1,0.1-0.2,0.3-0.1c0.1,0,0.3,0.1,0.5,0.2c0.2,0.1,0.4,0.1,0.5,0.2
			c0.8,0.2,1.3,0.4,1.6,0.3c0.1,0,0.2,0,0.2,0c0.1,0,0.1,0.1,0.1,0.2c0,0.1,0,0.1-0.1,0.1c-0.5,1-0.8,1.5-1.3,2.4
			c0.1-0.1,0.4-0.3,0.6-0.5c1.4-1.2,2.6-1.8,3.6-1.6c0.6,0.1,1.1,0.4,1.4,0.9C39.2,53.5,39.3,54.1,39.1,54.8z"/>
		<path fill="#963C96" d="M49.5,54.5c-0.2,1.1-0.8,2-1.8,2.8c-1,0.7-2.2,1.2-3.6,1.2c-0.5,0-1.1-0.1-1.7-0.2
			c-0.8,1.5-1.4,2.9-1.6,4.3c-0.3,1.8,0.3,2.8,1.5,2.8c1,0,2-0.6,3.1-2c0.2-0.3,0.4-0.4,0.5-0.4c0.1,0,0.1,0.1,0.1,0.2
			c-0.1,0.5-0.5,1.1-1.3,1.8c-1,0.8-1.9,1.2-2.8,1.1c-1,0-1.9-0.5-2.4-1.3c-0.6-0.8-0.8-1.8-0.6-3c0.3-2.2,1.7-4.3,4-6.4
			c2-1.8,3.6-3,4.9-3C49.2,52.4,49.7,53.1,49.5,54.5z M47.9,54c0.1-0.6-0.1-0.9-0.6-1c-0.5,0-1,0.2-1.6,0.8c-1,1.1-2,2.4-3.1,4.1
			c0.2,0,0.4,0,0.6,0c0.9,0,1.8-0.5,2.7-1.2C47.1,56,47.8,55,47.9,54z"/>
		<path fill="#963C96" d="M57.5,53.4c0,0.4-0.2,0.7-0.4,0.9c-0.2,0.3-0.4,0.4-0.7,0.5c-0.5,0.1-0.7-0.2-0.6-0.8
			c0.1-0.5,0.2-0.8,0.6-0.8c0,0,0.1,0,0.2,0.1c0.1,0,0.2,0.1,0.2,0.1c0.1,0,0.1-0.1,0.2-0.2c0-0.4-0.1-0.7-0.4-1
			c-0.3-0.3-0.7-0.4-1-0.3c-0.5,0.1-0.9,0.4-1.3,0.9c-0.4,0.5-0.6,1-0.7,1.6c-0.1,0.5,0.1,1.9,0.6,4.1c0.1,0.5,0.1,1.2,0.1,1.9
			c-0.1,1.4-0.6,2.7-1.4,3.8c-0.8,1.1-1.8,1.7-2.9,1.8c-1,0.1-1.7-0.2-2.3-0.9c-0.6-0.7-0.8-1.5-0.7-2.6c0.1-0.6,0.3-1.1,0.6-1.4
			c0.3-0.4,0.7-0.6,1.1-0.6c0.3,0,0.5,0.1,0.7,0.4c0.2,0.3,0.3,0.6,0.2,0.9c-0.1,0.6-0.3,1-0.8,1c-0.5,0-0.7-0.2-0.7-0.6
			c0-0.1,0.1-0.3,0.1-0.4c0.1-0.1,0.1-0.2,0.1-0.2c0-0.2,0-0.3-0.2-0.3c-0.1,0-0.3,0.1-0.4,0.4c-0.2,0.3-0.3,0.6-0.3,0.9
			c-0.1,0.8,0.1,1.5,0.5,2.1c0.5,0.6,1,0.8,1.8,0.8c0.7-0.1,1.2-0.4,1.7-1c0.5-0.6,0.8-1.3,0.9-2.1c0.1-0.6,0-1.5-0.2-2.7
			c-0.2-1.2-0.2-2.1-0.1-2.9c0.2-1.3,0.6-2.5,1.4-3.6c0.7-1,1.5-1.7,2.4-1.8c0.6-0.1,1.1,0,1.4,0.5C57.4,52.2,57.6,52.7,57.5,53.4z"
			/>
		<path fill="#963C96" d="M64.8,50.4c0,0.3-0.4,0.5-1,0.6c-0.4,0-0.5,0-0.9,0.1c-0.2,0-0.3,0-0.4,0c-1.7,4.1-2.4,6.3-4.1,10.3
			c-0.5,1.1-0.7,1.8-0.7,2.1c0,0.5,0.2,0.7,0.7,0.7c0.7,0,1.4-0.6,2-1.7c0.1-0.2,0.3-0.3,0.3-0.3c0.1,0,0.2,0.1,0.2,0.2
			c0,0.3-0.3,0.8-0.9,1.4c-0.7,0.8-1.4,1.1-2.3,1.2c-0.6,0-1-0.1-1.4-0.5c-0.3-0.4-0.5-0.8-0.4-1.4c0-0.4,0.3-1.1,0.7-2.2
			c1.6-3.7,2.5-5.5,4-9.4c-0.4,0.1-0.5,0.2-0.9,0.3c-0.2,0.1-0.4,0-0.4-0.2c0-0.3,0.2-0.4,0.4-0.4c0.1,0,0.1,0,0.2,0
			c0.1,0,0.2-0.1,0.4-0.1c0.2-0.1,0.4-0.2,0.6-0.2c0.2-0.6,0.3-0.9,0.5-1.5c0.2-0.5,0.3-0.7,0.4-0.8c0.1,0,0.2,0,0.4,0
			c0.2,0,0.3,0,0.4,0c0.2,0,0.4-0.1,0.8-0.4c0.1,0,0.1-0.1,0.2-0.1c0.1,0,0.1,0,0.1,0.1c-0.1,0.3-0.2,0.5-0.3,0.8
			c-0.3,0.6-0.4,1-0.7,1.6c0.2,0,0.3,0,0.6-0.1c0.4,0,0.5,0,0.9-0.1c0.1,0,0.2,0,0.3-0.1c0.1,0,0.2-0.1,0.2-0.1
			C64.7,50.1,64.8,50.2,64.8,50.4z"/>
		<path fill="#963C96" d="M72.7,56.2c-0.1,2.5-1,4.5-2.8,6.6c-1.4,1.6-2.9,2.5-4.4,2.4c-1,0-1.8-0.5-2.4-1.5c-0.6-1-0.8-2.3-0.7-3.8
			c0.1-1.3,0.5-2.7,1.1-4c0.6-1.4,1.4-2.6,2.4-3.5c1.5-1.5,2.8-2.2,4-1.9c0.9,0.2,1.6,0.8,2.1,1.9C72.6,53.3,72.8,54.6,72.7,56.2z
			 M71.1,53.7c0.1-1.7-0.4-2.6-1.4-2.8c-1.2-0.2-2.4,1.1-3.6,3.7c-1.1,2.6-1.8,5-1.9,7.3c-0.1,1.7,0.4,2.6,1.5,2.6
			c1.4,0,2.6-1.2,3.6-3.6C70.4,58.2,71,55.9,71.1,53.7z"/>
		<path fill="#963C96" d="M89,49.2c0,0.2-0.1,0.5-0.3,1.1c-0.2,0.6-0.4,1.5-0.5,2.8c0,0.3-0.1,0.4-0.3,0.4c-0.1,0-0.2-0.1-0.2-0.2
			c0-0.1,0-0.1,0-0.2c0-0.4,0-0.7,0-1c-0.1-0.9-0.3-1.7-0.8-2.4c-0.5-0.7-1.1-1.1-1.9-1.4c-0.8-0.3-1.5-0.3-2.1,0.2
			c-0.5,0.4-0.8,1.2-0.8,2.2c0,1.1,0.5,2.5,1.6,4.3c0.5,0.9,0.8,1.3,1.4,2.2c1.2,1.9,1.9,3.7,2,5.3c0.1,1.8-0.4,3.3-1.5,4.3
			c-1.1,1-2.4,1.4-4,0.8c-0.9-0.3-1.6-0.8-2.2-1.5c-0.1-0.1-0.4-0.5-1-1.3c-0.2-0.2-0.3-0.3-0.5-0.4c-0.4-0.1-0.7,0.4-0.9,1.3
			c-0.1,0.3-0.2,0.4-0.3,0.4c-0.1,0-0.2-0.1-0.2-0.4c0,0,0.1-0.2,0.2-0.7c0.6-1.6,1-3.1,1.5-4.6c0.1-0.5,0.3-0.7,0.5-0.6
			c0.1,0,0.2,0.1,0.2,0.3c0,0,0,0.2-0.1,0.3c-0.1,0.2-0.2,0.7-0.2,1.5c0,2.6,1.1,4.2,3.2,5c1.1,0.4,2,0.2,2.6-0.4
			c0.7-0.6,1-1.6,0.9-2.9c-0.1-1.5-0.6-3.1-1.7-4.7c-0.5-0.8-0.8-1.2-1.3-2c-1.3-2-1.9-3.9-1.9-5.4c0-1.6,0.4-2.7,1.3-3.5
			c0.9-0.7,1.9-0.8,3.1-0.3c0.7,0.3,1.4,0.7,2.1,1.3c0.5,0.4,0.7,0.6,0.9,0.6c0.3,0.1,0.5-0.1,0.7-0.5c0.1-0.1,0.1-0.2,0.2-0.2
			C89,49,89,49.1,89,49.2z"/>
		<path fill="#963C96" d="M99.1,56.3c0,0,0,0.2-0.1,0.5c-0.9,3.1-1.4,4.8-2.3,8.3c-0.2,0.8-0.3,1.5-0.3,1.9c0,0.5,0.3,0.7,0.7,0.6
			c0.6-0.2,1.2-0.8,1.7-1.9c0.1-0.2,0.2-0.3,0.3-0.4c0.1,0,0.1,0,0.1,0.1c0,0.2-0.1,0.5-0.4,1.1c-0.6,1-1.4,1.7-2.3,1.9
			c-0.5,0.1-0.9,0.1-1.2-0.1c-0.3-0.2-0.5-0.6-0.5-1c0-0.3,0-0.6,0.1-1c-0.9,1.9-2,3-3.3,3.2c-0.8,0.1-1.5-0.2-2.1-0.9
			c-0.6-0.7-0.9-1.6-0.9-2.6c-0.1-1.1,0.2-2.3,0.7-3.6c0.5-1.3,1.2-2.4,2.1-3.4c1.2-1.4,2.4-2.2,3.5-2.3c1.2-0.1,1.9,0.5,2.1,1.7
			c0.2-0.6,0.3-0.9,0.4-1.4c0.1-0.3,0.2-0.4,0.3-0.4c0,0,0.1,0,0.3,0c0.2,0,0.3,0,0.3,0c0.3,0,0.6-0.1,0.8-0.2
			c0.1,0,0.1-0.1,0.2-0.1C99.1,56.1,99.1,56.2,99.1,56.3z M96.4,58.8c-0.1-0.5-0.2-1-0.6-1.3c-0.3-0.3-0.7-0.4-1.2-0.4
			c-0.8,0.1-1.5,0.7-2.1,1.8c-0.7,1.3-1.3,2.6-1.7,4.1c-0.4,1.4-0.6,2.7-0.5,3.8c0.1,1.3,0.6,2,1.5,1.9c0.5-0.1,1.1-0.5,1.6-1.2
			c0.6-0.8,1-1.7,1.3-2.7c0.6-2,0.9-3,1.4-4.8C96.4,59.3,96.4,59,96.4,58.8z M99,50.2c0,0.1-0.1,0.2-0.4,0.5c-1.2,1-1.8,1.6-3,2.7
			c-0.8,0.7-1.2,1.1-1.3,1.2c0,0-0.1,0-0.1,0s0-0.1,0-0.1c0-0.1,0.1-0.1,0.1-0.2c1-1.7,1.5-2.6,2.4-4.1c0.7,0,1,0,1.7,0
			C98.9,50.1,99,50.1,99,50.2z"/>
		<path fill="#963C96" d="M109.7,57.5c0.2,1.6-0.5,3.2-2,5.1s-3.1,3.3-4.8,3.8c-0.8,0.3-1.5,0.2-2.1-0.1c-0.6-0.3-0.9-0.8-1-1.5
			c0-0.4,0.1-1.2,0.5-2.5c1.5-5.3,2.2-7.7,3.5-11.9c0-0.2,0.1-0.3,0.1-0.4c0.1-0.1,0.1-0.2,0.1-0.2c0-0.2-0.5-0.2-1.3-0.2
			c-0.1,0-0.2,0-0.2-0.1c0-0.1,0.2-0.2,0.5-0.2c1.3,0,2,0,2.1,0c0.2,0,0.3,0,0.5-0.1c0.1,0,0.1,0,0.2,0c0.1,0,0.2,0,0.2,0.1
			c0,0,0,0.1,0,0.2c-0.1,0.2-0.2,0.5-0.3,0.9c-0.5,2-0.8,3-1.5,5.3c-0.1,0.4-0.3,0.8-0.5,1.4c0.1-0.1,0.1-0.2,0.2-0.2
			c0.2-0.3,0.3-0.4,0.5-0.6c0.5-0.6,1.2-0.9,2-1c0.8-0.1,1.5,0.1,2.1,0.5C109.3,56.2,109.6,56.8,109.7,57.5z M107.8,57
			c-0.1-1-0.6-1.4-1.4-1.3c-1.5,0.2-2.7,1.8-3.7,5.3c-0.2,0.6-0.3,0.9-0.4,1.5c-0.4,1.5-0.6,2.5-0.6,3c0,0.7,0.5,0.9,1.3,0.6
			c1.5-0.5,2.7-2.1,3.8-4.7C107.5,59.4,107.9,58,107.8,57z"/>
		<path fill="#963C96" d="M121.3,53.9c0,0,0,0.2-0.1,0.4c-0.8,2.6-1.3,3.9-2.3,6.4c-0.2,0.6-0.4,1.1-0.3,1.4c0,0.4,0.3,0.5,0.7,0.5
			c0.6,0,1.2-0.4,1.8-1.2c0.1-0.2,0.2-0.2,0.3-0.2c0.1,0,0.1,0,0.1,0.1c0,0.2-0.1,0.4-0.5,0.8c-0.7,0.7-1.5,1.1-2.5,1.1
			c-0.5,0-0.9,0-1.3-0.2c-0.3-0.2-0.5-0.4-0.5-0.8c0-0.2,0-0.4,0.1-0.7c-0.9,1.3-2.1,2.1-3.4,2.3c-0.8,0.1-1.5,0-2.1-0.3
			c-0.5-0.4-0.8-0.9-0.9-1.7c-0.1-0.8,0.1-1.8,0.6-2.8c0.5-1,1.2-2,2.1-2.9c1.2-1.1,2.4-1.7,3.5-1.8c1.2-0.1,1.9,0.3,2.2,1.2
			c0.2-0.5,0.3-0.7,0.4-1.1c0.1-0.2,0.2-0.4,0.3-0.4c0,0,0.1,0,0.3,0c0.2,0,0.3,0,0.3,0c0.3,0,0.6-0.1,0.8-0.2
			c0.1,0,0.1-0.1,0.2-0.1C121.2,53.7,121.3,53.8,121.3,53.9z M118.6,55.9c-0.1-0.4-0.3-0.7-0.6-0.9c-0.3-0.2-0.7-0.3-1.2-0.3
			c-0.8,0.1-1.5,0.5-2.1,1.3c-0.7,0.9-1.3,2-1.7,3.1c-0.4,1.1-0.6,2-0.5,2.8c0.1,1,0.5,1.3,1.4,1.2c0.5-0.1,1.1-0.4,1.6-0.9
			c0.6-0.5,1-1.2,1.4-1.9c0.6-1.4,0.9-2.1,1.4-3.5C118.6,56.3,118.6,56,118.6,55.9z"/>
		<path fill="#963C96" d="M128.9,53.7c0,0.2-0.3,0.3-0.9,0.3c-0.4,0-0.5,0-0.9,0c-0.2,0-0.3,0-0.4,0c-0.7,2.6-1.2,3.9-2.2,6.5
			c-0.3,0.7-0.4,1.2-0.4,1.3c0,0.3,0.3,0.4,0.8,0.4c0.7,0,1.3-0.4,1.8-1.1c0.1-0.1,0.2-0.2,0.3-0.2c0.1,0,0.2,0.1,0.2,0.2
			c0,0.2-0.2,0.5-0.7,0.9c-0.6,0.5-1.3,0.7-2.1,0.7c-0.6,0-1.1-0.1-1.5-0.4c-0.4-0.2-0.6-0.6-0.6-1c0-0.3,0.1-0.7,0.4-1.4
			c1-2.4,1.4-3.6,2.2-6c-0.4,0-0.6,0-1,0c-0.3,0-0.4,0-0.4-0.1c0-0.2,0.1-0.3,0.3-0.3c0.1,0,0.1,0,0.2,0c0.1,0,0.2,0,0.4,0
			c0.2,0,0.4,0,0.6,0c0.1-0.4,0.1-0.5,0.2-0.9c0.1-0.3,0.1-0.5,0.2-0.5c0.1,0,0.2,0,0.4,0c0.2,0,0.3,0,0.4,0c0.2,0,0.4-0.1,0.7-0.2
			c0.1,0,0.1,0,0.2,0c0.1,0,0.1,0,0.1,0.1c-0.1,0.2-0.1,0.3-0.1,0.5c-0.1,0.4-0.2,0.6-0.3,1c0.2,0,0.3,0,0.6,0c0.4,0,0.5,0,0.9,0
			c0.1,0,0.2,0,0.3,0c0.1,0,0.2,0,0.2,0C128.8,53.5,128.9,53.6,128.9,53.7z"/>
		<path fill="#963C96" d="M138.1,56.9c0.4,1.7-0.2,3.2-1.8,4.6c-1.2,1.1-2.6,1.6-4.1,1.6c-1,0-1.9-0.3-2.6-1
			c-0.7-0.6-1.1-1.4-1.3-2.4c-0.1-0.8,0-1.7,0.4-2.6c0.4-0.9,0.9-1.6,1.7-2.2c1.2-0.9,2.3-1.4,3.6-1.4c0.9,0,1.8,0.3,2.6,0.9
			C137.4,55.1,137.9,55.9,138.1,56.9z M136,55.5c-0.2-1.1-0.9-1.6-2-1.6c-1.3,0-2.2,0.8-2.8,2.5c-0.6,1.6-0.8,3.2-0.7,4.6
			c0.1,1.1,0.7,1.7,1.8,1.7c1.4,0,2.4-0.8,3.1-2.3C136.1,58.6,136.3,57,136,55.5z"/>
	</g>
</g>
<g>
	<g>
		<path fill="#C966A7" d="M40.7,12.9c-0.3,0.7-0.7,1.4-1.4,2c-0.7,0.7-1.5,1.2-2.4,1.6c-0.7,0.3-1.7,0.6-2.9,1c0.2,0,0.3,0,0.5,0
			c0.7,0,1,0.2,1.1,0.5c0.1,0.3-0.1,0.9-0.4,1.7c-0.1,0.2-0.2,0.4-0.3,0.5c-0.3,0.6-0.5,1-0.9,1.6c-0.2,0.5-0.4,0.8-0.5,1
			c-0.2,0.5-0.1,0.7,0.2,0.8c0.1,0,0.2,0,0.4-0.1c0,0,0.1-0.1,0.1-0.2c0.1-0.1,0.2-0.3,0.3-0.4c0.2-0.1,0.3-0.1,0.5-0.1
			c0.2,0,0.3,0.1,0.2,0.3c-0.1,0.3-0.3,0.5-0.7,0.6c-0.4,0.1-0.8,0.2-1.2,0.1c-1.4-0.2-1.8-0.8-1.2-1.9c0.1-0.3,0.3-0.6,0.6-1
			c0.3-0.5,0.5-0.8,0.8-1.3c0.2-0.4,0.4-0.7,0.6-0.9c0.3-0.6,0.2-0.9-0.2-0.9c-0.1,0-0.6,0-1.3,0.2c-2.2,2.1-3.3,3.1-5.6,4.9
			C27,22.9,26.9,23,26.9,23c-0.1,0.1,0.1,0.2,0.5,0.2c0.2,0,0.3,0,0.4,0c0.2,0,0.3,0,0.5,0c0.1,0,0.1,0,0.1,0.1
			c-0.1,0.1-0.2,0.1-0.5,0.1c-0.5,0-1.3,0-2.4,0.1c-0.6,0-0.9,0-0.9,0.1c-0.2,0-0.4,0-0.8,0.1c-0.3,0-0.6,0.1-0.8,0.1
			c-0.2,0-0.2,0-0.2-0.1c0,0,0.3-0.1,0.7-0.1c0.5-0.1,0.9-0.1,1.2-0.2c0.2-0.1,0.6-0.3,1.3-0.8c4.2-3.1,6.2-4.9,10-8.8
			c0.1-0.1,0.2-0.2,0.2-0.2c0.1-0.2-0.1-0.1-0.7,0.3c-0.1,0-0.1,0-0.1,0c0.1-0.1,0.1-0.1,0.2-0.2c0.1-0.1,0.4-0.3,0.9-0.5
			c0.3-0.1,0.5-0.3,0.7-0.4c0.3-0.2,0.5-0.2,0.8-0.4c1-0.5,1.7-0.8,1.9-0.9c0.3-0.1,0.5-0.2,0.8-0.2C41,11.3,41.1,11.9,40.7,12.9z
			 M39.1,13.4c0.5-1,0.5-1.6,0.1-1.6c-0.1,0-0.5,0.1-1.1,0.4c-0.2,0.1-0.3,0.2-0.5,0.4c-0.2,0.2-0.4,0.4-0.6,0.6
			c-1.6,1.8-2.4,2.7-4.1,4.4c0.1,0,0.3-0.1,0.5-0.1c1.2-0.3,2.4-0.8,3.4-1.5C38,15.3,38.7,14.4,39.1,13.4z"/>
		<path fill="#C966A7" d="M46.3,18.6c-0.4,2.1-1.4,3.9-3.1,5.3c-1.4,1.1-2.7,1.4-3.9,1.1c-0.8-0.2-1.5-0.6-1.8-1.3
			c-0.4-0.7-0.4-1.5-0.1-2.4c0.3-0.8,0.8-1.6,1.5-2.4c0.7-0.8,1.5-1.6,2.3-2.3c1.3-1.1,2.5-1.7,3.4-1.8c0.7-0.1,1.2,0.2,1.6,0.9
			C46.5,16.3,46.5,17.3,46.3,18.6z M45.2,16.9c0.3-1.3,0-1.9-0.8-1.8c-1,0.1-2.1,1.1-3.4,2.9c-1.2,1.7-2.1,3.2-2.5,4.6
			c-0.3,1.1,0,1.7,0.9,1.9c1.1,0.2,2.3-0.4,3.4-2.1C44,20.6,44.8,18.6,45.2,16.9z"/>
		<path fill="#C966A7" d="M55.6,17.8c-0.2,2.4-1.1,4.8-2.7,6.8c-1.6,2-3.2,2.7-4.7,2.3c-0.7-0.2-1.3-0.6-1.7-1.2s-0.5-1.3-0.4-2.1
			c0.1-0.4,0.4-1.2,1-2.5c2.5-5.2,3.7-8,5.9-14C53,7,53.1,6.8,53.2,6.7c0.1-0.2,0.1-0.3,0.1-0.3c0-0.2-0.3-0.2-0.9,0
			c-0.1,0-0.1,0-0.1-0.1c0-0.1,0.2-0.2,0.5-0.3c1-0.3,1.5-0.4,1.6-0.5c0.1-0.1,0.2-0.1,0.4-0.2c0,0,0.1,0,0.1,0c0.1,0,0.1,0,0.1,0.1
			c0,0.1,0,0.1-0.1,0.3C54.7,6,54.6,6.5,54.4,7c-1,3-1.5,4.4-2.6,7.2c-0.2,0.5-0.4,1-0.7,1.7c0.1-0.1,0.2-0.2,0.2-0.3
			c0.2-0.3,0.3-0.4,0.6-0.7c0.5-0.7,1.1-1,1.8-1.1c0.7,0,1.2,0.3,1.5,1.1C55.5,15.6,55.7,16.6,55.6,17.8z M54.1,16.5
			c0.2-1.5-0.1-2.2-0.7-2.1c-1.2,0.1-2.6,2.1-4.2,5.9c-0.3,0.7-0.4,1-0.7,1.6c-0.7,1.6-1.1,2.6-1.1,3.2c-0.1,0.8,0.2,1.2,0.9,1.4
			c1.3,0.3,2.7-1,4-4C53.4,20.1,54,18,54.1,16.5z"/>
		<path fill="#C966A7" d="M63.9,15.8c0,1.3-0.5,2.3-1.3,3.2c-0.8,0.8-1.8,1.3-3,1.3c-0.4,0-0.9-0.1-1.4-0.2c-0.6,1.7-1,3.3-1.1,4.8
			c-0.1,2,0.4,3.1,1.4,3.3c0.8,0.1,1.7-0.6,2.6-2.1c0.2-0.3,0.3-0.5,0.4-0.5c0.1,0,0.1,0.1,0.1,0.2c0,0.5-0.4,1.2-1.1,2
			c-0.8,0.9-1.6,1.3-2.4,1.2c-0.9-0.1-1.6-0.7-2.1-1.6c-0.5-0.9-0.7-2.1-0.6-3.3c0.2-2.5,1.2-4.8,3-7.2c1.5-2.1,2.8-3.2,3.9-3.3
			C63.4,13.4,64,14.2,63.9,15.8z M62.5,15.2c0-0.7-0.2-1.1-0.6-1.1c-0.4,0-0.8,0.3-1.3,0.9c-0.8,1-1.5,2.6-2.3,4.5
			c0.2,0,0.3,0,0.5,0c0.7,0,1.5-0.4,2.2-1.2C62,17.5,62.5,16.4,62.5,15.2z"/>
		<path fill="#C966A7" d="M71.1,14.6c0,0.5-0.1,0.9-0.3,1.2c-0.2,0.4-0.4,0.5-0.6,0.6c-0.2,0-0.3-0.1-0.3-0.4c0-0.1,0-0.2,0-0.4
			c0-0.1,0-0.3,0-0.4c0-0.6-0.1-0.8-0.5-0.8c-0.4,0-0.9,0.7-1.6,2.1c-0.7,1.4-1.4,3.3-2.1,5.8c-0.6,2.3-1,3.5-1.6,5.8
			c-0.2,0.6-0.3,0.8-0.4,0.8c-0.3-0.1-0.5-0.1-0.6-0.2c-0.2,0-0.4,0-0.6,0.1c-0.1,0-0.1,0-0.1,0c-0.1,0-0.2-0.1-0.2-0.2
			c0,0,0-0.1,0.1-0.1c0-0.1,0.1-0.2,0.1-0.4c1.6-5.4,2.4-8.3,3.8-13.8c0-0.2-0.1-0.3-0.2-0.3c0,0,0,0-0.1,0c-0.1,0-0.1,0-0.3,0
			c-0.1,0-0.1,0-0.2,0c-0.2,0-0.3-0.1-0.3-0.2c0-0.1,0.3-0.2,1-0.3c0.7-0.1,1.1-0.2,1.4-0.4c0.1-0.1,0.2-0.1,0.2-0.1
			c0.1,0,0.1,0.1,0.1,0.2c0,0.1-0.1,0.6-0.3,1.3c-0.3,1.3-0.5,2-0.8,3.3c1.3-3.1,2.3-4.7,3.2-4.8C70.8,13.1,71.1,13.6,71.1,14.6z"/>
		<path fill="#C966A7" d="M76.4,13.1c0,0.3-0.3,0.5-0.8,0.6c-0.3,0-0.4,0-0.7,0c-0.1,0-0.2,0-0.3,0c-1,4.2-1.6,6.5-2.7,11
			c-0.3,1.2-0.5,2-0.5,2.3c0,0.5,0.2,0.7,0.6,0.7c0.6-0.1,1.1-0.8,1.6-2c0.1-0.3,0.2-0.4,0.2-0.4c0.1,0,0.2,0.1,0.2,0.2
			c0,0.3-0.2,0.8-0.7,1.6c-0.5,0.9-1.1,1.4-1.8,1.5c-0.5,0.1-0.9-0.1-1.2-0.5c-0.3-0.4-0.4-0.9-0.4-1.6c0-0.4,0.2-1.3,0.5-2.5
			c1.1-4.2,1.6-6.3,2.7-10.2c-0.3,0-0.5,0-0.8,0.1c-0.2,0-0.3-0.1-0.3-0.2c0-0.3,0.1-0.4,0.3-0.5c0.1,0,0.1,0,0.2,0
			c0.1,0,0.2,0,0.3-0.1c0.2,0,0.4,0,0.5-0.1c0.1-0.6,0.2-0.9,0.3-1.5c0.1-0.5,0.2-0.8,0.3-0.8c0.1,0,0.2,0,0.3,0c0.1,0,0.2,0,0.3,0
			c0.1,0,0.3-0.1,0.6-0.3c0.1,0,0.1-0.1,0.1-0.1c0.1,0,0.1,0,0.1,0.1c-0.1,0.3-0.1,0.5-0.2,0.8c-0.2,0.7-0.3,1-0.4,1.6
			c0.2,0,0.3,0,0.5,0c0.3,0,0.4,0,0.7,0c0.1,0,0.1,0,0.2-0.1c0.1,0,0.1-0.1,0.2-0.1C76.3,12.8,76.4,12.9,76.4,13.1z"/>
		<path fill="#C966A7" d="M83.5,17.6c0.1,2.4-0.5,4.6-1.9,6.9c-1.1,1.8-2.3,2.9-3.5,3.1c-0.9,0.2-1.6-0.1-2.1-1
			c-0.5-0.9-0.8-2.1-0.8-3.7c0-1.4,0.2-2.8,0.6-4.2c0.4-1.4,1-2.7,1.7-3.7c1.1-1.6,2.1-2.3,3.2-2.3c0.8,0,1.4,0.5,1.9,1.4
			C83.1,14.9,83.4,16.1,83.5,17.6z M81.9,15.6c-0.1-1.6-0.5-2.4-1.4-2.4c-1.1,0-2,1.3-2.7,4c-0.7,2.6-1.1,5.1-1.1,7.4
			c0,1.7,0.5,2.5,1.4,2.3c1.2-0.3,2.1-1.7,2.8-4.1C81.7,20.1,82,17.7,81.9,15.6z"/>
		<path fill="#C966A7" d="M100.5,24.4c0,0.2-0.2,0.3-0.6,0.3c0.5,0,0.2-0.1-0.8,0c-0.6,0-0.9,0-1.6,0.1c-1.1,0-1.6,0.1-2.7,0.1
			C94.6,25,94.5,25,94.4,25c-0.2,0-0.4-0.1-0.4-0.3c0-0.2,0-0.3,0.2-0.3c0.2,0,0.3,0,0.5,0c0.1,0,0.1,0,0.2,0c0.4,0,0.7-0.1,1-0.3
			c0.2-0.1,0.2-0.6,0.2-1.5c-0.1-1.4-0.1-2.1-0.2-3.5c0-0.1,0-0.1,0-0.2c0-0.1-0.3-0.2-0.7-0.2c-0.5,0-1.1-0.1-1.7-0.1
			c-0.6,0-0.9,0-1,0c-0.1,0-0.2,0-0.3,0c-0.1,0.1-0.2,0.4-0.4,0.8c-0.6,1.4-0.9,2.2-1.5,3.7c-0.2,0.5-0.3,0.9-0.3,1.1
			c0,0.4,0.4,0.6,1.2,0.5c0.1,0,0.2,0,0.4-0.1c0.2-0.1,0.3-0.1,0.4-0.1c0.2,0,0.3,0.1,0.3,0.3c0,0.2-0.2,0.3-0.5,0.4
			c-0.5,0-0.7,0-1.2,0c-0.8,0.1-1.1,0.2-1.9,0.3c-0.9,0.1-1.5,0.2-1.7,0.1c-0.2,0-0.4-0.1-0.4-0.3c0-0.2,0.1-0.3,0.2-0.3
			c0.1,0,0.2,0,0.4,0c0.2,0,0.3,0,0.4,0c0.5-0.1,0.9-0.2,1.2-0.5c0.2-0.2,0.6-1,1.2-2.3c2-4.5,2.8-6.5,4.2-10
			c0.2-0.5,0.5-1.3,0.9-2.2c0.4-0.9,0.6-1.4,0.9-2.2C95.9,7.8,96,7.8,96,7.8c0.1,0,0.2,0.2,0.2,0.4c0.1,0.3,0.2,0.7,0.2,1.2
			c0.1,0.9,0.3,2.2,0.5,4.1c0.5,3.3,0.6,5,0.9,8.6c0.1,0.8,0.1,1.3,0.1,1.4c0.1,0.5,0.4,0.8,0.9,0.8c0.5,0,0.7,0,1.2,0
			C100.4,24.3,100.5,24.3,100.5,24.4z M95.3,11.4c0-0.1-0.1-0.2-0.1-0.2c-0.1,0-0.1,0.1-0.1,0.3c0,0.2,0,0.3-0.1,0.3
			c0,0.1-0.2,0.4-0.4,0.9c-0.5,1.3-0.8,2-1.4,3.4c-0.2,0.4-0.4,0.9-0.7,1.6c-0.1,0.1-0.1,0.1-0.1,0.2c0,0.1,0.1,0.2,0.3,0.2
			c0.2,0,0.2,0,0.4,0c0.4,0,0.6,0,1,0.1c1,0.1,1.5,0.1,1.7-0.1c-0.1-2.1-0.2-3.1-0.4-5c0-0.3-0.1-0.8-0.1-1.3
			C95.3,11.5,95.3,11.4,95.3,11.4z"/>
		<path fill="#C966A7" d="M106.5,17.2c0.1,0.2,0.1,0.4,0.1,0.6c-0.1,0.1-0.2,0.2-0.4,0.2c-0.2,0-0.3-0.1-0.4-0.3c0-0.1,0-0.1,0-0.2
			c0-0.1,0-0.1-0.1-0.2c-0.1-0.3-0.3-0.5-0.6-0.6c-0.3-0.1-0.7,0.2-1,0.8c-0.4,0.7-0.6,1.7-0.8,3.1c-0.2,1.4-0.3,2.1-0.5,3.6
			c-0.1,0.4-0.1,0.5-0.2,0.5c-0.3,0-0.5-0.1-0.7-0.1c-0.2,0-0.4,0-0.5,0.1c-0.1,0-0.1,0-0.1,0c-0.1,0-0.2,0-0.2-0.1c0,0,0,0,0-0.1
			c0-0.1,0-0.1,0.1-0.2c0.6-3.8,0.8-5.5,1-8.5c0-0.1-0.1-0.2-0.3-0.2c0,0,0,0-0.1,0c0,0-0.1,0-0.2,0c-0.1,0-0.1,0-0.2,0
			c-0.2,0-0.3-0.1-0.3-0.2c0-0.1,0.3-0.1,0.9,0c0.6,0.1,1,0.2,1.2,0.1c0.1,0,0.1,0,0.1,0c0.1,0,0.1,0.1,0.2,0.1c0,0.1,0,0.3,0,0.7
			c0,0.7,0,1,0,1.8c0.6-1.6,1.2-2.2,2-2C105.8,16.3,106.2,16.6,106.5,17.2z"/>
		<path fill="#C966A7" d="M108.1,14c0,0,0,0.1,0.1,0.1c0,0.1,0.1,0.1,0.1,0.2c1.1,2.3,1.4,3.9,1.4,7.9c0,0.7,0,1.3,0.1,1.5
			c0.1,0.3,0.5,0.5,1,0.5c0.5,0,0.9-0.3,1.1-0.8c0.1-0.2,0.2-0.3,0.2-0.3c0.1,0,0.2,0,0.2,0.1c0.1,0.2,0,0.4-0.3,0.7
			c-0.3,0.4-0.9,0.7-1.7,0.7c-1.1,0-1.8-0.4-2.2-1.2c-0.1-0.3-0.1-0.8-0.1-1.6c0.1-4.2-0.1-5.9-1.1-8.5c0,0,0-0.1,0-0.1
			c-0.1-0.1-0.2-0.2-0.4-0.3c-0.4-0.3-0.7-0.4-0.7-0.5c0,0,0,0,0.1,0c0.1,0.1,0.2,0.1,0.4,0.2c0.2,0.1,0.3,0.2,0.4,0.2
			c0.4,0.3,0.7,0.4,0.9,0.5c0.1,0.1,0.2,0.1,0.2,0.1C108,13.8,108.1,13.9,108.1,14z"/>
		<path fill="#C966A7" d="M115,19c0.1,0.1-0.1,0.1-0.5,0c-0.3-0.1-0.4-0.1-0.6-0.2c-0.1,0-0.2,0-0.3-0.1c0.5,1.3,0.7,2.1,0.8,4
			c0,0.5,0.1,0.9,0.2,1c0.1,0.2,0.4,0.3,0.8,0.3c0.6,0,1-0.3,1.1-0.8c0-0.1,0.1-0.2,0.1-0.2c0.1,0,0.2,0,0.2,0.1
			c0.1,0.1,0,0.3-0.2,0.7c-0.3,0.4-0.8,0.6-1.6,0.7c-0.5,0-1,0-1.4-0.2c-0.4-0.2-0.7-0.5-0.9-0.8c-0.1-0.2-0.2-0.6-0.2-1.1
			c0-1.8-0.1-2.6-0.5-3.9c-0.3-0.1-0.4-0.1-0.7-0.2c-0.2-0.1-0.3-0.1-0.4-0.2c-0.1-0.1-0.1-0.2,0.1-0.1c0.1,0,0.1,0,0.2,0
			c0.1,0,0.1,0,0.3,0.1c0.2,0,0.3,0.1,0.5,0.1c-0.1-0.2-0.1-0.3-0.2-0.5c-0.1-0.2-0.1-0.2,0-0.2c0.1,0,0.1,0.1,0.3,0.1
			c0.1,0.1,0.2,0.1,0.3,0.1c0.1,0,0.3,0.1,0.4,0.1c0,0,0.1,0,0.1,0c0.1,0,0.1,0,0.1,0.1c0,0.1,0.1,0.1,0.1,0.2
			c0.1,0.2,0.1,0.3,0.2,0.5c0.2,0,0.2,0.1,0.4,0.1c0.3,0.1,0.4,0.1,0.6,0.2c0.1,0,0.1,0,0.2,0c0.1,0,0.1,0,0.1,0
			C114.9,18.9,115,18.9,115,19z"/>
	</g>
</g>
<g>
	<g>
		<path fill="#9E3D96" d="M33.4,24.4c-0.1,0.1-0.3,0.2-0.6,0.1c-0.3,0-0.5,0-0.6,0c-0.3,0-0.6,0.1-0.8,0.1c-0.2,0.1-1.3,0.9-3.3,2.8
			c-2.1,2-3.1,3.1-5.2,5.3c-1.9,2.1-3.4,3.8-4.5,4.9c-1.1,1.1-2.1,2.1-3.2,2.9c-1.6,1.3-3,2-4.1,2.1c-0.5,0-0.8-0.1-1-0.4
			c-0.2-0.3-0.1-0.7,0.1-1.2c0.4-0.8,1-1.2,1.7-1.3c0.6-0.1,0.7,0.2,0.4,0.9c-0.1,0.3-0.3,0.5-0.4,0.6c-0.1,0.1-0.4,0.3-0.7,0.4
			c-0.1,0.1-0.2,0.1-0.3,0.3c-0.1,0.3,0,0.4,0.5,0.4c0.8-0.1,1.7-0.7,2.7-1.8c0.5-0.5,1.5-1.7,3-3.5c3.9-4.5,5.9-6.6,10-10.3
			c0.5-0.5,0.7-0.7,1.2-1.1c0.1-0.1,0.3-0.3,0.6-0.5c0.1-0.1,0.2-0.1,0.2-0.2c0.2-0.3,0.1-0.4-0.3-0.4c-0.4,0-0.5,0-0.9,0
			c-0.1,0-0.1,0-0.1-0.1c0.1-0.1,0.2-0.2,0.4-0.2c0.2,0,0.4,0,0.6,0c0.1,0,0.2,0,0.3,0c0.2,0,0.4,0,0.6,0c0.6,0,1,0,1.6,0.1
			c0.1,0,0.3,0,0.6,0c0.5,0,0.9,0,1.1,0.1C33.5,24.2,33.5,24.3,33.4,24.4z"/>
		<path fill="#9E3D96" d="M36.2,31.1c0,0-0.1,0.1-0.1,0.1c-0.1,0.1-0.2,0.2-0.3,0.3c-2,2.3-3.1,3.5-5,5.8c-1,1.2-1.5,1.9-1.7,2.3
			c-0.2,0.5-0.1,0.7,0.3,0.8c0.5,0.1,1.3,0,2.3-0.9c0.2-0.2,0.4-0.3,0.5-0.3c0.1,0,0.1,0.1,0.1,0.2c-0.1,0.4-0.8,1-1.8,1.3
			c-0.6,0.2-1.2,0.2-1.8,0.1c-0.4-0.1-0.8-0.3-1-0.5c-0.2-0.3-0.3-0.6-0.2-0.9c0.1-0.2,0.3-0.5,0.6-0.9c0.2-0.3,0.4-0.5,0.6-0.8
			c-1.5,1.2-2.5,1.8-3.2,2.2c-0.7,0.4-1.4,0.6-2.2,0.6c-0.6,0-1-0.1-1.3-0.4c-0.3-0.3-0.3-0.6-0.1-1c0.2-0.5,0.6-1.1,1.4-1.9
			c2-2.3,3-3.4,5-5.4c0.1-0.1,0.4-0.4,0.8-0.8c0.1-0.1,0.1-0.1,0.2-0.2c0.1-0.1-0.1-0.2-0.4-0.2c-0.4,0-0.6-0.1-0.5-0.3
			c0.1-0.1,0.1-0.2,0.2-0.1c0.1,0,0.3,0,0.4,0.1c0.2,0,0.3,0.1,0.4,0.1c0.7,0,1.3,0,1.7-0.1c0.1,0,0.1,0,0.2,0c0.1,0,0.1,0.1,0,0.2
			c-0.1,0.1-0.4,0.4-1,1c-0.6,0.6-1.2,1.3-1.8,1.9c-0.1,0.2-0.6,0.7-1.5,1.7c-0.8,0.9-1.2,1.3-1.9,2.2c-0.8,0.9-1.3,1.6-1.4,2
			c-0.2,0.5,0,0.7,0.6,0.7c0.6,0,1.7-0.7,2.9-1.5c1.4-0.9,2.9-2.3,4.3-3.9c1.2-1.3,1.8-1.9,3-3.2c0.2-0.2,0.3-0.2,0.4-0.2
			c0,0,0.1,0,0.4,0.1c0.1,0,0.1,0,0.2,0c0.4,0,0.6,0,0.7,0C36.1,31,36.1,31,36.2,31.1C36.2,31,36.2,31.1,36.2,31.1z"/>
		<path fill="#9E3D96" d="M45.6,26.6c0,0-0.1,0.1-0.2,0.2c-0.1,0.1-0.2,0.2-0.4,0.4c-3.6,3.9-5.4,6.2-9.3,11.4
			c-0.7,1-1.1,1.6-1.2,1.9c-0.1,0.5,0,0.7,0.6,0.8c0.6,0,1.2,0,1.9-0.7c0.3-0.3,0.5-0.4,0.6-0.4c0.1,0,0.1,0.1,0.1,0.2
			c-0.1,0.2-0.4,0.6-1.1,1c-0.7,0.5-1.6,0.5-2.5,0.4c-1.2-0.2-1.7-0.9-1.3-1.9c0.1-0.3,0.5-1,1.3-1.9c3.9-4.8,5.9-7.3,9.6-11.3
			c0.1-0.1,0.1-0.1,0.1-0.1c0.1-0.1,0-0.2-0.2-0.3c-0.5-0.1-0.7-0.2-0.7-0.3c0-0.1,0.1-0.1,0.2-0.1c0.1,0,0.3,0.1,0.5,0.1
			c0.2,0.1,0.4,0.1,0.5,0.1c0.5,0.1,0.9,0.2,1.1,0.2c0.1,0,0.2,0,0.3,0C45.6,26.4,45.6,26.5,45.6,26.6z"/>
		<path fill="#9E3D96" d="M46,32.7c0,0-0.1,0.1-0.2,0.2c-0.1,0.2-0.4,0.5-0.8,1c-1.7,2.2-2.5,3.4-4.3,5.7c-0.6,0.8-0.9,1.3-1,1.5
			c-0.1,0.4,0,0.7,0.5,0.8c0.3,0.1,0.7,0,1.1-0.2c0.4-0.2,0.8-0.4,1.1-0.7c0.2-0.2,0.3-0.3,0.4-0.3c0.1,0,0.1,0.1,0.1,0.2
			c0,0.2-0.3,0.5-0.8,0.8c-0.8,0.5-1.6,0.7-2.4,0.6c-0.6-0.1-1-0.2-1.2-0.6c-0.3-0.3-0.3-0.7-0.2-1.2c0.1-0.4,0.5-1.1,1.1-2
			c1.6-2.2,2.4-3.2,4-5.1c0.2-0.2,0.3-0.4,0.4-0.5c0.1-0.1,0.1-0.1,0.1-0.1c0-0.1-0.2-0.3-0.8-0.4c-0.1,0-0.1-0.1-0.1-0.2
			c0-0.1,0.1-0.2,0.2-0.2c0,0,0.1,0,0.3,0.1c0.2,0.1,0.5,0.1,0.9,0.2c0.6,0.1,1,0.1,1.2,0c0.2,0,0.3-0.1,0.3,0
			C46,32.6,46,32.6,46,32.7z M48.6,29.1c-0.2,0.5-0.5,0.8-1,0.7c-0.2,0-0.4-0.2-0.5-0.4c-0.1-0.2-0.1-0.4,0-0.7
			c0.2-0.5,0.6-0.7,1.1-0.6C48.6,28.3,48.8,28.6,48.6,29.1z"/>
		<path fill="#9E3D96" d="M53.9,36.5c-0.3,1.6-1.3,3.2-3.1,4.4c-1.4,1-2.8,1.9-4.2,2c-1,0-1.7-0.3-2.1-1c-0.5-0.7-0.6-1.6-0.3-2.7
			c0.2-0.9,0.7-1.8,1.4-2.7c0.7-0.9,1.5-1.6,2.4-2.1c1.4-0.9,2.6-1.3,3.6-1.2c0.8,0.1,1.4,0.5,1.8,1.1C54,34.8,54.1,35.5,53.9,36.5z
			 M52.6,35.1c0.2-1-0.1-1.5-1.1-1.6c-1.1-0.1-2.2,0.7-3.5,2.4c-1.2,1.6-2,3.2-2.4,4.8c-0.3,1.2,0.1,1.8,1.2,1.8
			c1.3,0,2.4-1.2,3.5-2.7C51.6,38,52.3,36.5,52.6,35.1z"/>
		<path fill="#9E3D96" d="M71.7,29.7c0,0.1,0,0.3-0.1,0.6c-0.4,0.9-0.7,1.4-0.7,1.8c0,0.2-0.1,0.2-0.2,0.2c-0.1,0-0.2-0.1-0.2-0.1
			c0,0,0-0.1,0.1-0.3c0-0.2,0.1-0.4,0-0.7c-0.1-0.6-0.4-1-0.8-1.2c-0.4-0.3-1-0.3-1.6-0.3c-1.5,0.1-2.8,0.6-4,1.8
			c-1.3,1.3-2.1,3.1-2.3,5c-0.1,2,0.7,2.8,2.8,2.5c0.7-0.1,1.4-0.3,2.1-0.6c1.1-0.5,1.9-1,2.4-1.6c0.2-0.2,0.3-0.3,0.4-0.3
			c0.1,0,0.1,0.1,0.1,0.1c0,0.2-0.3,0.6-1.1,1.2c-1.4,1-3.1,1.8-5.2,2.1c-1.4,0.2-2.3,0.5-3-0.1c-0.7-0.6-1-1.5-0.9-2.7
			c0.2-2.2,1.4-4.2,3.2-5.7c1.8-1.5,3.5-1.8,5.4-2c0.5,0,1,0,1.3,0c0.3,0.1,0.7,0.2,1.2,0.5c0.1,0.1,0.3,0.1,0.4,0.1
			c0.1,0,0.3-0.1,0.4-0.3c0,0,0.1-0.1,0.1-0.1C71.6,29.6,71.7,29.6,71.7,29.7z"/>
		<path fill="#9E3D96" d="M79.1,36.8c0.3,1.8-0.3,3.3-1.6,4.2c-1,0.7-2.2,0.7-3.5,0.2c-0.9-0.3-1.6-0.9-2.2-1.6
			c-0.6-0.7-0.9-1.4-1-2.2c0-0.7,0.1-1.3,0.5-1.8c0.4-0.6,0.9-1.1,1.5-1.5c1-0.6,2-1,3-0.9c0.8,0,1.5,0.4,2.1,1
			C78.6,34.9,79,35.7,79.1,36.8z M77.4,35.2c-0.2-1.1-0.7-1.6-1.6-1.6c-1.1-0.1-1.9,0.6-2.5,1.8c-0.6,1.2-0.9,2.3-0.8,3.6
			c0.1,0.9,0.6,1.6,1.5,1.9c1.2,0.4,2.1,0.1,2.7-1.2C77.4,38.1,77.6,36.6,77.4,35.2z"/>
		<path fill="#9E3D96" d="M87.1,34.8c0.1,0.4,0.1,0.7-0.1,1c-0.1,0.3-0.3,0.4-0.5,0.4c-0.2,0-0.3-0.1-0.4-0.3c0-0.1,0-0.2,0-0.3
			c0-0.1,0-0.2,0-0.3c-0.1-0.4-0.3-0.7-0.6-0.7c-0.4,0-0.8,0.5-1.3,1.4c-0.5,0.9-0.9,2.2-1.3,3.8c-0.4,1.5-0.6,2.3-1,3.7
			c-0.1,0.4-0.2,0.5-0.3,0.5c-0.3-0.2-0.5-0.3-0.6-0.3c-0.2-0.1-0.4-0.1-0.5-0.2c0,0-0.1,0-0.1-0.1c-0.1-0.1-0.2-0.1-0.2-0.2
			c0,0,0,0,0.1-0.1c0-0.1,0.1-0.1,0.1-0.2c1.1-3.3,1.5-5.1,2.1-8.8c0-0.1-0.1-0.2-0.3-0.2c0,0,0,0-0.1,0c0,0-0.1,0-0.2,0
			c-0.1,0-0.1,0-0.2,0c-0.2,0-0.3-0.1-0.3-0.2c0-0.1,0.3-0.1,1-0.1c0.7,0,1.1-0.1,1.3-0.2c0.1,0,0.1,0,0.2,0c0.1,0,0.1,0.1,0.1,0.2
			c0,0.1,0,0.4-0.1,0.9c-0.1,0.9-0.2,1.4-0.3,2.3c0.8-2.1,1.6-3.2,2.6-3.1C86.5,33.6,86.9,34,87.1,34.8z"/>
		<path fill="#9E3D96" d="M92.4,33.6c0.1,0.3-0.2,0.4-0.8,0.5c-0.3,0-0.5,0-0.8,0c-0.1,0-0.2,0-0.4,0c-0.3,3.5-0.5,5.4-1.2,9
			C89,44.1,89,44.8,89,45c0,0.4,0.3,0.7,0.8,0.8c0.7,0.1,1.2-0.4,1.6-1.4c0.1-0.2,0.2-0.3,0.2-0.3c0.1,0,0.2,0.1,0.2,0.2
			c0,0.3-0.2,0.7-0.6,1.3c-0.5,0.7-1.1,0.9-1.9,0.8c-0.5-0.1-1-0.4-1.3-0.8c-0.4-0.4-0.6-0.9-0.6-1.5c0-0.4,0-1,0.2-1.9
			c0.7-3.2,1-4.8,1.3-8c-0.3,0-0.5,0-0.8,0c-0.2,0-0.4-0.1-0.4-0.2c-0.1-0.2,0-0.3,0.2-0.3c0.1,0,0.1,0,0.2,0c0.1,0,0.2,0,0.3,0
			c0.2,0,0.4,0,0.5,0c0-0.5,0-0.7,0-1.2c0-0.4,0.1-0.6,0.1-0.6c0.1,0,0.2,0,0.3,0c0.1,0,0.3,0,0.3,0c0.1,0,0.3-0.1,0.6-0.3
			c0,0,0.1-0.1,0.1-0.1c0.1,0,0.1,0,0.1,0.1c0,0.3,0,0.4,0,0.7c0,0.5-0.1,0.8-0.1,1.4c0.2,0,0.3,0,0.5,0c0.3,0,0.5,0,0.8,0
			c0.1,0,0.1,0,0.2-0.1c0.1,0,0.1-0.1,0.1-0.1C92.2,33.4,92.3,33.5,92.4,33.6z"/>
		<path fill="#9E3D96" d="M100.9,33.1c0,0.1,0,0.3,0.1,0.6c0.2,3.6,0.2,5.5-0.2,9.4c-0.1,0.9-0.1,1.6,0,2.2c0.1,0.6,0.4,0.9,0.8,0.9
			c0.6,0,1.1-0.6,1.4-1.8c0.1-0.2,0.1-0.4,0.2-0.4c0.1,0,0.1,0,0.1,0.1c0.1,0.2,0,0.6-0.3,1.2c-0.5,1-1.2,1.6-2.1,1.6
			c-0.5,0-0.9-0.2-1.3-0.5C99.3,46,99,45.6,98.9,45c-0.1-0.3-0.1-0.7-0.1-1.1c-0.6,2-1.6,3-2.9,3c-0.8,0-1.5-0.4-2.1-1.1
			c-0.6-0.7-1-1.6-1.2-2.7c-0.2-1.2-0.1-2.5,0.2-3.9c0.3-1.4,0.7-2.7,1.3-3.8c0.8-1.5,1.6-2.3,2.6-2.3c1,0,1.8,0.6,2.4,2.1
			c0-0.6,0-1,0-1.6c0-0.3,0-0.5,0.1-0.5c0,0,0.1,0,0.3,0c0.1,0,0.3,0.1,0.3,0c0.3,0,0.5-0.1,0.6-0.2c0,0,0.1-0.1,0.1-0.1
			C100.7,32.9,100.8,33,100.9,33.1z M99.1,35.7c-0.2-0.6-0.5-1.1-0.9-1.5c-0.4-0.4-0.8-0.5-1.2-0.5c-0.7,0-1.2,0.6-1.5,1.8
			c-0.4,1.3-0.6,2.8-0.8,4.3c-0.1,1.5-0.1,2.9,0.1,4.1c0.2,1.4,0.8,2.2,1.6,2.2c0.5,0,1-0.4,1.4-1.1c0.4-0.8,0.7-1.7,0.9-2.8
			c0.2-2.1,0.3-3.2,0.4-5.3C99.2,36.3,99.2,35.9,99.1,35.7z"/>
		<path fill="#9E3D96" d="M109,32.9c0.2,0.4,0.2,0.8,0,1.4c-0.1,0.4-0.2,0.7-0.4,1.1c-1.2,3.2-2.4,6.2-3.3,8.7
			c0.5-0.2,1-0.4,1.3-0.4c0.6,0,1.7,0.3,3.3,1.1c0.6,0.3,1,0.4,1.3,0.4c0.2,0,0.4-0.1,0.5-0.4c0.1-0.3,0.1-0.6,0-1
			c-0.1-0.4-0.4-0.7-1-0.9c-0.2-0.1-0.4-0.3-0.4-0.6c-0.2-0.7-0.1-1,0.4-1c0.5,0,0.9,0.4,1.1,1.2c0.4,1.3,0.4,2.4-0.1,3.3
			c-0.4,0.8-0.8,1.2-1.2,1.2c-0.2,0-0.7-0.1-1.6-0.4c-2.4-0.8-3.8-1.3-4-1.3c-0.2,0-0.3,0.2-0.2,0.6c0,0.4-0.1,0.7-0.3,0.7
			c-0.2,0-0.3-0.1-0.3-0.3c-0.1-0.4,0-0.8,0.2-1.3c0.2-0.4,0.4-1.1,0.7-1.9c1.1-2.9,1.9-5.2,2.6-7c0.1-0.3,0.3-0.7,0.5-1.2
			c-0.6,0.4-1.3,0.6-1.9,0.6c-0.8,0-1.7-0.2-2.6-0.8c-0.1-0.1-0.3-0.1-0.3-0.1c-0.1,0-0.1,0.1-0.1,0.2c0,0.1,0,0.6,0.1,1.3
			c0,0.3,0,0.4-0.1,0.4c-0.1,0-0.2-0.1-0.2-0.2c0-0.1,0-0.2,0-0.3c0-0.4-0.1-1.4-0.4-2.9c-0.1-0.3-0.1-0.4,0-0.4
			c0.1,0,0.3,0.1,0.8,0.3c1.6,0.7,3,1,4.2,1c0.8,0,1.1-0.3,0.9-0.7c0,0-0.1-0.1-0.1-0.2c0,0-0.1-0.1-0.1-0.1
			c-0.1-0.2-0.1-0.3,0.1-0.3C108.6,32.4,108.8,32.6,109,32.9z"/>
		<path fill="#9E3D96" d="M119,32.2c0,0.1,0.1,0.3,0.2,0.6c1,3.4,1.4,5.2,1.7,9c0.1,0.9,0.2,1.6,0.4,2.1c0.2,0.6,0.5,0.8,0.9,0.8
			c0.6,0,1-0.6,1.1-1.8c0-0.2,0.1-0.4,0.1-0.4c0.1,0,0.1,0,0.1,0.1c0.1,0.2,0.1,0.6-0.1,1.1c-0.3,1-0.9,1.6-1.9,1.6
			c-0.5,0-0.9-0.1-1.3-0.4c-0.4-0.3-0.7-0.7-0.9-1.2c-0.1-0.3-0.2-0.7-0.2-1.1c-0.2,2-1.1,3.2-2.4,3.5c-0.8,0.2-1.6-0.1-2.3-0.8
			c-0.7-0.7-1.2-1.6-1.6-2.8c-0.4-1.2-0.6-2.6-0.6-4c0-1.4,0.2-2.8,0.5-4c0.5-1.6,1.1-2.4,2.1-2.5c1-0.1,2,0.6,2.9,2
			c-0.1-0.6-0.2-0.9-0.4-1.5c-0.1-0.3-0.1-0.5,0-0.5c0,0,0.1,0,0.3,0c0.2,0,0.3,0,0.3,0c0.3,0,0.5-0.1,0.6-0.2c0,0,0.1-0.1,0.1-0.1
			C118.8,32,118.9,32,119,32.2z M117.8,34.6c-0.3-0.6-0.7-1.1-1.2-1.4c-0.5-0.3-0.9-0.5-1.3-0.5c-0.7,0-1,0.6-1.1,1.8
			c-0.1,1.4,0,2.9,0.1,4.5c0.2,1.6,0.4,3,0.8,4.3c0.5,1.5,1.1,2.1,2,2c0.5-0.1,0.9-0.6,1.2-1.4c0.3-0.8,0.5-1.8,0.4-2.9
			c-0.1-2.2-0.3-3.2-0.6-5.2C118,35.2,117.9,34.8,117.8,34.6z"/>
		<path fill="#9E3D96" d="M127.7,32.8c0.3,0.4,0.4,0.7,0.4,1.1c0,0.3-0.1,0.5-0.3,0.5c-0.2,0-0.4-0.1-0.5-0.3
			c-0.1-0.1-0.1-0.2-0.2-0.3c-0.1-0.1-0.1-0.2-0.2-0.3c-0.3-0.5-0.6-0.7-1-0.7c-0.4,0-0.6,0.6-0.6,1.8c0,1.1,0.2,2.7,0.6,4.8
			c0.3,2,0.5,2.9,0.6,5c0,0.5,0,0.7-0.1,0.7c-0.3-0.1-0.6-0.1-0.7-0.1c-0.3,0-0.5,0-0.6,0.1c-0.1,0-0.1,0-0.1,0
			c-0.1,0-0.2,0-0.3-0.1c0,0,0-0.1,0-0.1c0-0.1,0-0.2,0-0.3c-0.3-5-0.8-7.3-2.3-11.8c-0.1-0.2-0.2-0.2-0.4-0.2c0,0,0,0-0.1,0
			c0,0-0.1,0-0.2,0c-0.1,0-0.1,0-0.2,0c-0.2,0-0.4-0.1-0.4-0.2c-0.1-0.1,0.2-0.2,0.9-0.3c0.7-0.1,1.1-0.2,1.2-0.3
			c0.1,0,0.1-0.1,0.1-0.1c0.1,0,0.2,0,0.2,0.2c0.1,0.1,0.2,0.5,0.5,1.1c0.4,1.1,0.6,1.6,0.9,2.7c-0.2-2.6,0-3.9,0.9-4
			C126.5,31.6,127.1,32,127.7,32.8z"/>
	</g>
</g>
<g>
	<g>
		<path fill="#7C2A90" d="M17.6,60.5c0,0.2-0.2,0.5-0.6,1.1c-0.4,0.6-0.7,1.5-1.1,2.8c-0.1,0.3-0.2,0.4-0.3,0.4
			c-0.1,0-0.2-0.1-0.1-0.2c0-0.1,0-0.1,0-0.2c0.1-0.4,0.1-0.7,0.2-1c0.1-0.9-0.1-1.5-0.5-2c-0.4-0.5-1.1-0.8-1.9-0.8
			c-0.9,0-1.8,0.3-2.5,1c-0.7,0.7-1.1,1.5-1.2,2.4c-0.1,1,0.3,2.1,1.4,3.4c0.5,0.6,0.8,0.9,1.3,1.6c1.2,1.4,1.8,2.8,1.8,4.3
			c0,1.7-0.4,3.1-1.4,4.3c-1,1.2-2.2,2-3.7,2.2C8,80,7.3,79.9,6.6,79.6c-0.1,0-0.5-0.3-1.1-0.7c-0.2-0.1-0.4-0.2-0.5-0.1
			c-0.3,0.1-0.6,0.5-0.7,1.4c0,0.3-0.1,0.4-0.2,0.4c-0.1,0-0.2-0.1-0.2-0.2c0,0,0-0.2,0.1-0.7c0.3-1.6,0.6-3.1,1-4.6
			c0.1-0.5,0.2-0.7,0.4-0.7c0.1,0,0.2,0,0.2,0.2c0,0,0,0.2-0.1,0.3c-0.1,0.2-0.1,0.7-0.1,1.4c0.2,2.3,1.4,3.3,3.5,3
			c1.1-0.2,1.9-0.6,2.5-1.4c0.6-0.8,0.9-1.8,0.8-2.9c-0.1-1.4-0.6-2.6-1.7-3.7c-0.5-0.5-0.8-0.8-1.3-1.3c-1.3-1.4-1.9-2.7-1.8-4.2
			c0.1-1.5,0.8-2.8,1.9-3.9c1.2-1.1,2.4-1.6,3.8-1.6c0.8,0,1.5,0.2,2.2,0.5c0.4,0.2,0.7,0.3,0.9,0.4c0.3,0,0.6-0.2,0.9-0.6
			c0.1-0.2,0.2-0.2,0.3-0.2C17.6,60.4,17.6,60.4,17.6,60.5z"/>
		<path fill="#7C2A90" d="M24,69.8c0,0.8-0.4,1.2-1,1.2c-0.2,0-0.4-0.1-0.6-0.3c-0.2-0.2-0.2-0.4-0.2-0.6c0-0.4,0.2-0.6,0.6-0.6
			c0.1,0,0.1,0,0.2,0c0.1,0.1,0.2,0.1,0.3,0.1c0.1,0,0.2-0.1,0.2-0.3c0-0.3-0.1-0.5-0.4-0.8c-0.3-0.2-0.6-0.4-1-0.4
			c-1.1-0.1-2.3,0.8-3.4,2.7c-1.1,2-1.6,3.9-1.5,5.6c0.1,1.5,0.7,2.2,1.9,2.1c0.9,0,1.7-0.6,2.5-1.8c0.1-0.2,0.3-0.3,0.3-0.3
			c0.1,0,0.1,0.1,0.1,0.1c0,0.2-0.2,0.5-0.5,1c-0.8,1-1.7,1.5-2.8,1.5c-1,0-1.8-0.3-2.4-0.9s-1-1.5-1.1-2.6
			c-0.1-1.9,0.7-3.8,2.5-5.7c1.5-1.6,3-2.3,4.5-2.2c0.6,0.1,1,0.3,1.3,0.7C23.8,68.8,24,69.3,24,69.8z"/>
		<path fill="#7C2A90" d="M33.8,70.6c0,0-0.1,0.2-0.2,0.4c-1.2,2.1-1.7,3.2-2.7,5.6c-0.2,0.6-0.3,1-0.3,1.3c0,0.4,0.2,0.5,0.6,0.6
			c0.6,0,1.1-0.3,1.6-1c0.1-0.1,0.2-0.2,0.2-0.2c0.1,0,0.1,0,0.1,0.1c0,0.1-0.1,0.4-0.4,0.6c-0.6,0.6-1.3,0.9-2.3,0.9
			c-0.5,0-0.8-0.1-1.2-0.3c-0.3-0.2-0.5-0.5-0.5-0.9c0-0.2,0-0.5,0.1-0.8c-0.9,1.3-1.9,2-3.1,2c-0.8,0-1.4-0.2-2-0.8
			c-0.5-0.5-0.8-1.2-0.8-2.1c0-0.9,0.2-2,0.8-3.1c0.6-1.1,1.4-2.1,2.3-2.8c1.3-1,2.5-1.2,3.5-0.9c1,0.3,1.6,1,1.7,2.1
			c0.2-0.4,0.3-0.6,0.6-1c0.1-0.2,0.2-0.3,0.3-0.2c0,0,0.1,0,0.3,0.1c0.1,0.1,0.2,0.1,0.3,0.1c0.3,0.1,0.6,0.1,0.7,0.1
			c0.1,0,0.1,0,0.2,0C33.8,70.5,33.8,70.5,33.8,70.6z M31.1,71.6c0-0.4-0.1-0.8-0.4-1.2c-0.3-0.3-0.6-0.6-1-0.7
			c-0.7-0.2-1.4,0-2.1,0.8c-0.8,0.9-1.4,1.9-1.9,3.1c-0.5,1.2-0.7,2.2-0.6,3.1c0,1.1,0.5,1.6,1.3,1.6c0.5,0,1-0.3,1.5-0.8
			c0.5-0.5,0.9-1.1,1.3-1.9c0.6-1.4,1-2.1,1.6-3.4C31,72,31.1,71.8,31.1,71.6z"/>
		<path fill="#7C2A90" d="M41.9,66.4c0,0,0,0.1-0.1,0.2c-0.1,0.1-0.1,0.2-0.3,0.4c-2.3,3.9-3.4,5.9-5.1,9.8C36.1,77.6,36,78,36,78.3
			c0,0.3,0.3,0.5,0.9,0.5c0.5,0,1.1-0.2,1.5-0.6c0.2-0.2,0.3-0.3,0.4-0.3c0.1,0,0.2,0.1,0.2,0.1c0,0.2-0.2,0.4-0.7,0.7
			c-0.5,0.4-1.2,0.5-2.1,0.5c-1.2-0.1-1.9-0.5-2-1.2c0-0.3,0.1-0.8,0.4-1.5c1.7-4,2.7-6,5.1-9.8c0.1-0.1,0.1-0.1,0.1-0.1
			c0-0.1-0.1-0.2-0.4-0.2c-0.7-0.1-1-0.1-1-0.2c0-0.1,0.1-0.1,0.2-0.1c0.1,0,0.4,0,0.6,0.1c0.3,0,0.5,0,0.6,0c0.7,0,1.2,0.1,1.5,0
			c0.2,0,0.3,0,0.3,0C41.8,66.2,41.9,66.3,41.9,66.4z"/>
		<path fill="#7C2A90" d="M50.5,72c0,0-0.1,0.2-0.2,0.5c-1.3,2.6-1.9,4.1-2.9,6c-0.2,0.5-0.3,0.8-0.3,1.1c0,0.3,0.2,0.6,0.6,0.8
			c0.5,0.3,1.1-0.1,1.6-0.8c0.1-0.1,0.2-0.2,0.3-0.2c0.1,0,0.1,0,0.1,0.1c0,0.2-0.2,0.4-0.5,0.7c-0.6,0.6-1.3,0.6-2.1,0.3
			c-0.4-0.2-0.8-0.3-1.2-0.5c-0.3-0.2-0.5-0.5-0.5-0.8c0-0.2,0-0.4,0.1-0.6c-0.9,1-1.9,1.4-3.2,1.2c-0.8-0.1-1.5-0.4-2-0.8
			c-0.5-0.5-0.8-1-0.9-1.6c-0.1-0.7,0.2-1.4,0.7-2.2c0.5-0.8,1.3-1.5,2.3-2.1c1.3-0.9,2.6-1.3,3.7-1.2c1.2,0.1,1.7,0.7,1.9,1.7
			c0.2-0.4,0.3-0.7,0.6-1.1c0.1-0.2,0.2-0.3,0.3-0.3c0,0,0.1,0,0.3,0c0.2,0,0.3,0,0.3,0c0.3,0,0.6,0,0.8-0.1c0.1,0,0.1-0.1,0.2-0.1
			C50.5,71.8,50.5,71.9,50.5,72z M47.6,73.7c0-0.4-0.1-0.8-0.4-1.1s-0.6-0.5-1.1-0.5c-0.8,0-1.5,0.3-2.2,1c-0.8,0.8-1.4,1.6-1.9,2.5
			c-0.4,0.9-0.6,1.7-0.6,2.3c0.1,0.8,0.5,1.3,1.4,1.4c0.5,0.1,1-0.1,1.5-0.4c0.5-0.4,1-0.8,1.3-1.5c0.7-1.2,1-1.8,1.6-3
			C47.5,74.1,47.6,73.9,47.6,73.7z"/>
		<path fill="#7C2A90" d="M60.7,75.5c-0.1,1.9-0.9,3.7-2.5,5c-1.6,1.3-3.1,1.7-4.8,1.3c-0.8-0.2-1.4-0.5-2-1c-0.6-0.5-0.8-1-0.9-1.5
			c0-0.3,0.2-0.9,0.6-1.9c1.8-4,2.9-6.3,5-10.9c0.1-0.2,0.1-0.3,0.2-0.4c0.1-0.1,0.1-0.2,0.1-0.2c0-0.2-0.4-0.2-1.2-0.1
			c-0.1,0-0.2,0-0.2-0.1c0-0.1,0.2-0.2,0.6-0.2c1.3-0.1,2-0.1,2.1-0.2c0.2,0,0.3,0,0.5-0.1c0.1,0,0.1,0,0.2,0c0.1,0,0.2,0,0.2,0.1
			c0,0,0,0.1-0.1,0.2c-0.2,0.2-0.3,0.6-0.5,1c-1,2.3-1.5,3.4-2.4,5.6c-0.2,0.4-0.4,0.8-0.6,1.3c0.1-0.1,0.2-0.2,0.2-0.2
			c0.2-0.2,0.4-0.3,0.6-0.5c0.6-0.5,1.3-0.7,2.1-0.7c0.8,0.1,1.5,0.4,2,1.1C60.4,73.7,60.7,74.5,60.7,75.5z M58.8,74.2
			c0-1.2-0.4-1.8-1.1-1.8c-1.5-0.1-3,1.5-4.2,4.4c-0.2,0.5-0.3,0.8-0.5,1.2c-0.5,1.2-0.7,2-0.7,2.4c0,0.6,0.4,0.9,1.2,1.1
			c1.4,0.3,2.7-0.5,3.9-2.7C58.3,77,58.8,75.4,58.8,74.2z"/>
		<path fill="#7C2A90" d="M70.2,74.2c0,0.4-0.1,0.7-0.3,0.9c-0.2,0.3-0.4,0.4-0.7,0.4c-0.2,0-0.4-0.1-0.4-0.3c0-0.1,0-0.2,0.1-0.3
			c0-0.1,0.1-0.2,0.1-0.3c0-0.4-0.2-0.7-0.5-0.7c-0.4,0-1.1,0.4-1.9,1.4c-0.8,0.9-1.6,2.3-2.4,4c-0.7,1.6-1.1,2.3-1.7,3.8
			c-0.2,0.4-0.3,0.5-0.4,0.5c-0.3-0.1-0.5-0.2-0.7-0.2c-0.3-0.1-0.5-0.1-0.6-0.1c-0.1,0-0.1,0-0.1,0c-0.1,0-0.2-0.1-0.2-0.1
			c0,0,0,0,0.1-0.1c0-0.1,0.1-0.1,0.1-0.2c1.6-3.5,2.4-5.5,4.1-9.5c0-0.1-0.1-0.2-0.3-0.2c0,0,0,0-0.1,0c-0.1,0-0.2,0-0.3,0
			c-0.1,0-0.1,0-0.2,0c-0.2,0-0.3-0.1-0.3-0.2c0-0.1,0.4-0.1,1.2-0.1c0.8,0,1.3,0,1.6-0.1c0.1,0,0.2,0,0.2,0c0.1,0,0.1,0.1,0.1,0.2
			c0,0.1-0.1,0.4-0.3,1c-0.4,1-0.6,1.4-0.9,2.4c1.5-2.2,2.8-3.3,3.9-3.2C69.9,72.9,70.2,73.4,70.2,74.2z"/>
		<path fill="#7C2A90" d="M74.5,73.7c0,0.1,0,0.2-0.1,0.3c-0.1,0.2-0.3,0.6-0.6,1.3c-1.2,2.8-1.8,4.2-2.9,6.9
			c-0.4,0.9-0.6,1.5-0.6,1.7c0,0.5,0.2,0.7,0.6,0.8c0.3,0,0.6,0,1-0.2c0.4-0.2,0.7-0.4,0.9-0.8c0.1-0.2,0.3-0.3,0.3-0.3
			c0.1,0,0.1,0.1,0.1,0.2c0,0.2-0.2,0.5-0.7,0.9c-0.7,0.6-1.4,0.8-2.2,0.7c-0.5-0.1-0.9-0.3-1.3-0.6c-0.3-0.4-0.5-0.8-0.4-1.3
			c0-0.4,0.2-1.1,0.7-2.1c1-2.4,1.6-3.7,2.6-6.1c0.1-0.3,0.2-0.5,0.3-0.7c0-0.1,0.1-0.1,0.1-0.2c0-0.2-0.3-0.3-1-0.5
			c-0.1-0.1-0.2-0.1-0.2-0.2c0-0.2,0.1-0.2,0.2-0.2c0,0,0.1,0,0.3,0.1c0.2,0.1,0.5,0.1,1,0.2c0.6,0.1,1.1,0.1,1.3,0
			c0.2,0,0.3-0.1,0.3-0.1C74.4,73.4,74.5,73.5,74.5,73.7z M76.3,68.9c0,0.8-0.3,1.1-0.9,1c-0.3-0.1-0.6-0.2-0.7-0.5
			c-0.2-0.3-0.3-0.6-0.3-0.9c0-0.7,0.4-1,1.1-0.9C76,67.6,76.3,68.1,76.3,68.9z"/>
		<path fill="#7C2A90" d="M84.6,77.6c0,0.4-0.2,1.1-0.7,2c-0.8,1.7-1.3,2.6-2.1,4.3c-0.3,0.5-0.4,0.9-0.4,1c0,0.4,0.1,0.5,0.5,0.6
			c0.4,0.1,1.1-0.2,2-0.9c0.1,0,0.1-0.1,0.2-0.1c0.1,0,0.1,0.1,0.1,0.1c0,0.2-0.3,0.4-0.8,0.8c-0.7,0.4-1.5,0.6-2.3,0.5
			c-0.5-0.1-0.8-0.2-1.1-0.5c-0.3-0.3-0.4-0.6-0.4-0.9c0-0.3,0.2-0.8,0.5-1.5c0.9-1.7,1.3-2.6,2.1-4.3c0.5-1,0.7-1.8,0.8-2.2
			c0-0.6-0.2-0.9-0.8-1.1c-0.7-0.2-1.5,0.2-2.5,1.2c-0.7,0.7-1.5,1.9-2.1,3.4c-0.9,1.9-1.3,2.9-2.2,4.8c-0.1,0.3-0.2,0.4-0.3,0.4
			c0,0-0.2,0-0.5-0.1c0,0-0.1,0-0.3,0c-0.1,0-0.3,0-0.6-0.1c0,0-0.1,0-0.2,0c-0.1,0-0.2-0.1-0.1-0.2c0,0,0-0.1,0.1-0.2
			c0.1-0.2,0.1-0.2,0.2-0.4c1.6-3.7,2.4-5.7,4-9.4c0.1-0.1,0.1-0.2,0.1-0.2c0-0.1-0.2-0.2-0.6-0.3c-0.5-0.1-0.7-0.2-0.7-0.4
			c0-0.1,0.1-0.2,0.3-0.1c0.1,0,0.3,0.1,0.5,0.1c0.2,0.1,0.4,0.1,0.5,0.1c0.8,0.1,1.4,0.2,1.6,0.1c0.1,0,0.2,0,0.2,0
			c0.1,0,0.1,0.1,0.1,0.2c0,0.1,0,0.1,0,0.1c-0.4,0.9-0.6,1.4-0.9,2.3c0.1-0.1,0.3-0.3,0.6-0.6c1.2-1.2,2.2-1.6,3.3-1.3
			c0.6,0.1,1.1,0.4,1.5,0.9C84.5,76.5,84.6,77,84.6,77.6z"/>
		<path fill="#7C2A90" d="M91.2,76.4c0,0,0,0.1-0.1,0.3c-0.1,0.2-0.3,0.6-0.6,1.2c-1.2,2.6-1.8,3.8-3,6.3c-0.4,0.8-0.6,1.3-0.7,1.5
			c0,0.4,0.2,0.6,0.6,0.7c0.3,0,0.6-0.1,1-0.3c0.4-0.2,0.7-0.4,0.9-0.7c0.2-0.2,0.3-0.3,0.3-0.3c0.1,0,0.1,0,0.1,0.1
			c0,0.2-0.3,0.5-0.7,0.8c-0.7,0.5-1.4,0.8-2.2,0.8c-0.5,0-0.9-0.2-1.3-0.5c-0.3-0.3-0.4-0.7-0.4-1.1c0-0.4,0.3-1,0.7-1.9
			c1.1-2.2,1.7-3.2,2.7-5.4c0.1-0.3,0.2-0.5,0.3-0.6c0-0.1,0.1-0.1,0.1-0.2c0-0.1-0.3-0.2-1-0.4c-0.1,0-0.2-0.1-0.2-0.2
			c0-0.1,0.1-0.2,0.2-0.2c0,0,0.1,0,0.3,0.1c0.2,0.1,0.6,0.1,1,0.1c0.6,0,1.1-0.1,1.4-0.2c0.2-0.1,0.3-0.1,0.3-0.1
			C91.1,76.2,91.2,76.3,91.2,76.4z M92.8,71.7c0,0.7-0.3,1.1-0.9,1.1c-0.3,0-0.6,0-0.8-0.2c-0.2-0.2-0.3-0.4-0.3-0.7
			c0-0.7,0.3-1,1-1.1C92.5,70.7,92.8,71,92.8,71.7z"/>
		<path fill="#7C2A90" d="M111.6,71.8c0.1,2.2-0.4,4.5-1.2,6.7c-0.9,2.2-2,4-3.5,5.5c-2.2,2.2-4.3,3.1-6.3,3c-1.5,0-2.7-0.6-3.4-1.5
			c-0.7-0.9-1-2.2-0.9-3.9c0.1-1.7,0.6-3.5,1.5-5.5c0.8-2,1.9-3.8,3.1-5.5c1.9-2.6,3.7-4.4,5.7-5c1.5-0.4,2.7,0,3.6,1.3
			C111.1,68.2,111.6,69.8,111.6,71.8z M109.4,70.2c0-1.2-0.3-2.2-0.6-3c-0.5-1.1-1.3-1.4-2.3-1.1c-1.8,0.5-3.3,2.8-5,6.5
			c-0.8,1.8-1.5,3.7-2.1,5.5c-0.6,1.9-0.9,3.5-1.1,4.9c-0.2,2.4,0.6,3.6,2.5,3.7c1.1,0,2.3-0.5,3.5-1.8c1.6-1.6,2.9-4,3.9-7.2
			C109.1,74.7,109.5,72.2,109.4,70.2z"/>
		<path fill="#7C2A90" d="M120.3,73.8c0,0.4-0.1,0.8-0.3,1.2c-0.2,0.3-0.4,0.5-0.7,0.5c-0.2,0-0.4-0.1-0.4-0.3c0-0.1,0-0.2,0.1-0.3
			c0-0.1,0-0.3,0-0.4c0-0.5-0.2-0.8-0.6-0.8c-0.4,0-1.1,0.7-1.9,2c-0.8,1.3-1.6,3.1-2.4,5.3c-0.8,2.1-1.2,3.1-2,5.1
			c-0.2,0.5-0.3,0.7-0.5,0.7c-0.3-0.1-0.5-0.1-0.7-0.1c-0.3,0-0.5,0-0.6,0.1c-0.1,0-0.1,0-0.1,0c-0.1,0-0.2,0-0.2-0.1
			c0,0,0-0.1,0.1-0.1c0.1-0.1,0.1-0.2,0.1-0.3c2-4.8,2.9-7.3,4.4-12.5c0-0.2-0.1-0.3-0.3-0.2c0,0,0,0-0.1,0c-0.1,0-0.2,0-0.3,0.1
			c-0.1,0-0.1,0-0.2,0c-0.2,0-0.3,0-0.3-0.2c0-0.1,0.4-0.3,1.2-0.4c0.8-0.1,1.3-0.3,1.6-0.5c0.1-0.1,0.2-0.1,0.2-0.1
			c0.1,0,0.1,0.1,0.1,0.2c0,0.1-0.1,0.5-0.3,1.2c-0.3,1.2-0.5,1.8-0.9,3c1.5-2.9,2.7-4.4,3.8-4.5C119.9,72.4,120.3,72.9,120.3,73.8z
			"/>
		<path fill="#7C2A90" d="M126.6,72.4c0,0.3-0.3,0.5-1,0.5c-0.4,0-0.5,0-0.9,0c-0.2,0-0.2,0-0.4,0c-1.3,4.1-2,6.1-3.6,10.1
			c-0.4,1.1-0.7,1.7-0.7,2c0,0.4,0.2,0.7,0.6,0.6c0.7,0,1.3-0.6,2-1.6c0.1-0.2,0.2-0.3,0.3-0.3c0.1,0,0.2,0.1,0.2,0.2
			c0,0.3-0.3,0.7-0.9,1.4c-0.7,0.7-1.4,1.1-2.2,1.2c-0.5,0-1-0.1-1.3-0.5c-0.3-0.4-0.4-0.8-0.4-1.4c0-0.4,0.3-1.1,0.7-2.2
			c1.5-3.7,2.2-5.6,3.4-9.3c-0.4,0-0.6,0-0.9,0c-0.3,0-0.4-0.1-0.4-0.2c0-0.3,0.1-0.4,0.3-0.4c0.1,0,0.1,0,0.2,0c0.1,0,0.2,0,0.4,0
			c0.2,0,0.4,0,0.6-0.1c0.2-0.6,0.2-0.9,0.4-1.4c0.1-0.5,0.2-0.7,0.3-0.7c0.1,0,0.2,0,0.4,0c0.2,0,0.3,0,0.4,0
			c0.2,0,0.4-0.1,0.7-0.3c0.1,0,0.1-0.1,0.2-0.1c0.1,0,0.1,0,0.1,0.1c-0.1,0.3-0.1,0.5-0.2,0.8c-0.2,0.6-0.3,0.9-0.5,1.6
			c0.2,0,0.3,0,0.6,0c0.4,0,0.5,0,0.9,0c0.1,0,0.2,0,0.3-0.1c0.1,0,0.2-0.1,0.2-0.1C126.5,72.2,126.6,72.3,126.6,72.4z"/>
		<path fill="#7C2A90" d="M130.6,72.1c0,0.1,0,0.2-0.1,0.4c-0.1,0.3-0.3,0.8-0.6,1.6c-1.1,3.4-1.8,5.1-3.2,8.5
			c-0.5,1.1-0.7,1.8-0.8,2.1c-0.1,0.6,0.1,0.8,0.5,0.8c0.3,0,0.6-0.2,1-0.5c0.4-0.3,0.7-0.7,1-1.1c0.2-0.3,0.3-0.4,0.4-0.4
			c0.1,0,0.1,0.1,0.1,0.2c0,0.2-0.3,0.6-0.8,1.2c-0.7,0.8-1.5,1.2-2.3,1.3c-0.5,0-0.9-0.1-1.2-0.5c-0.3-0.3-0.4-0.8-0.3-1.4
			c0.1-0.5,0.4-1.4,0.8-2.6c1.2-3,1.8-4.6,2.8-7.6c0.1-0.4,0.2-0.7,0.3-0.9c0-0.1,0.1-0.2,0.1-0.2c0-0.2-0.3-0.3-1-0.4
			c-0.1,0-0.2-0.1-0.2-0.2c0-0.2,0.1-0.3,0.2-0.3c0,0,0.1,0,0.3,0.1c0.2,0,0.6,0,1,0c0.6,0,1.1-0.1,1.4-0.3c0.2-0.1,0.3-0.1,0.3-0.1
			C130.5,71.9,130.6,72,130.6,72.1z M131.9,66.2c0.1,0.9-0.2,1.3-0.8,1.3c-0.3,0-0.6-0.1-0.8-0.4c-0.2-0.3-0.3-0.6-0.4-1
			c-0.1-0.9,0.3-1.3,1-1.3C131.5,64.8,131.9,65.3,131.9,66.2z"/>
		<path fill="#7C2A90" d="M139.7,71.9c0,0.4-0.2,0.9-0.7,1.4c-0.3,0.4-0.6,0.8-1,1.2c-2.9,3.4-5.3,6.4-7.1,8.8
			c0.6-0.3,1.1-0.4,1.4-0.4c0.6-0.1,1.6,0.2,2.8,0.8c0.5,0.2,0.8,0.3,1.1,0.3c0.2,0,0.5-0.2,0.7-0.4c0.2-0.3,0.4-0.6,0.4-0.9
			c0.1-0.4-0.1-0.6-0.6-0.8c-0.2-0.1-0.2-0.3-0.2-0.6c0.1-0.6,0.4-1,0.9-1c0.5-0.1,0.7,0.3,0.6,1.1c-0.2,1.2-0.7,2.2-1.5,3.1
			c-0.7,0.8-1.3,1.2-1.7,1.2c-0.2,0-0.6-0.1-1.3-0.3c-2-0.6-3.1-0.9-3.4-0.9c-0.2,0-0.3,0.2-0.4,0.6c-0.1,0.4-0.3,0.6-0.5,0.7
			c-0.2,0-0.3-0.1-0.2-0.3c0.1-0.3,0.3-0.8,0.7-1.3c0.3-0.4,0.8-1,1.4-1.9c2.1-2.9,4-5.2,5.6-7c0.3-0.3,0.6-0.7,1.1-1.3
			c-0.9,0.4-1.7,0.7-2.4,0.7c-0.9,0.1-1.7-0.2-2.4-0.9c-0.1-0.1-0.2-0.2-0.3-0.1c-0.1,0-0.2,0.1-0.3,0.2c-0.1,0.2-0.2,0.6-0.4,1.4
			c-0.1,0.3-0.2,0.5-0.3,0.5c-0.1,0-0.2-0.1-0.2-0.2c0-0.1,0-0.2,0.1-0.4c0.2-0.4,0.5-1.5,0.8-3.1c0-0.3,0.1-0.5,0.3-0.5
			c0.1,0,0.3,0.1,0.8,0.4c1.4,0.8,2.8,1.1,4.2,1c0.9-0.1,1.4-0.3,1.4-0.8c0,0,0-0.1,0-0.2c0,0,0-0.1,0-0.2c0-0.2,0.1-0.3,0.3-0.4
			C139.6,71.3,139.7,71.5,139.7,71.9z"/>
	</g>
</g>
<g>
	<g>
		<path fill="#401C5B" d="M46,126c0,0.1-0.1,0.3-0.2,0.5c-0.5,0.7-0.8,1.1-0.9,1.3c0,0.1-0.1,0.2-0.2,0.2c-0.1,0-0.2,0-0.2-0.1
			c0,0,0-0.1,0.1-0.3c0.1-0.1,0-0.3,0-0.5c-0.1-0.4-0.5-0.8-1-1c-0.6-0.2-1.3-0.3-2.1-0.2c-2,0.1-3.5,0.8-4.5,1.5
			c-1,0.8-1.1,1.1-0.5,1.7c0.6,0.6,1.8,1.2,3.6,1.7c0.6,0.2,1.2,0.3,1.7,0.3c0.9,0,1.5-0.1,1.9-0.4c0.1-0.1,0.3-0.2,0.4-0.1
			c0.1,0,0.1,0,0.2,0.1c0.1,0.1-0.2,0.3-0.9,0.5c-1.1,0.3-2.4,0.1-4.1-0.4c-1.1-0.4-2.1-0.8-3-1.2c-0.9-0.4-1.5-0.7-1.9-0.9
			c-0.7-0.5-0.5-0.7,1-1.3c1.5-0.6,3.6-1.5,6.1-1.7c0.7-0.1,1.3,0,1.7,0c0.3,0.1,0.9,0.2,1.5,0.4c0.2,0.1,0.3,0.1,0.5,0.1
			c0.2,0,0.3-0.1,0.5-0.2c0.1,0,0.1,0,0.2-0.1C45.9,125.9,46,125.9,46,126z"/>
		<path fill="#401C5B" d="M55.1,128.9c0,0,0,0.1-0.1,0.3c-1,1.5-1.5,2.3-2.4,3.6c-0.2,0.3-0.3,0.6-0.3,0.8c0,0.2,0.2,0.4,0.6,0.4
			c0.5,0.1,1.1,0,1.5-0.4c0.1-0.1,0.2-0.1,0.2-0.1c0.1,0,0.1,0,0.1,0.1c0,0.1-0.1,0.2-0.4,0.4c-0.6,0.3-1.3,0.4-2.1,0.2
			c-0.4-0.1-0.8-0.2-1.1-0.4c-0.3-0.2-0.5-0.4-0.5-0.5c0-0.1,0-0.3,0.1-0.4c-0.7,0.6-1.7,0.7-2.8,0.5c-0.7-0.2-1.3-0.4-1.8-0.8
			c-0.5-0.3-0.8-0.7-0.9-1c-0.1-0.4,0-0.7,0.4-1.1c0.4-0.4,1-0.7,1.8-1.1c1.1-0.5,2.2-0.8,3.3-0.8c1.1,0,1.8,0.4,2,1
			c0.2-0.3,0.3-0.4,0.5-0.7c0.1-0.1,0.2-0.2,0.3-0.2c0,0,0.1,0,0.3,0c0.2,0,0.3,0,0.3,0.1c0.3,0,0.6,0,0.8,0c0.1,0,0.1,0,0.2,0
			C55.1,128.8,55.1,128.8,55.1,128.9z M52.5,129.7c0-0.3-0.2-0.5-0.5-0.7s-0.7-0.3-1.1-0.3c-0.7,0-1.4,0.2-2,0.6
			c-0.7,0.5-1.1,0.9-1.5,1.4c-0.3,0.5-0.4,0.9-0.3,1.3c0.1,0.5,0.6,0.8,1.3,1c0.4,0.1,0.9,0.1,1.3-0.1c0.5-0.2,0.8-0.5,1.1-0.8
			c0.5-0.7,0.8-1.1,1.3-1.9C52.4,130,52.5,129.8,52.5,129.7z"/>
		<path fill="#401C5B" d="M65.7,130.8c0,1.2-0.7,2.4-2,3.3c-1.4,1-2.8,1.3-4.3,1.2c-1-0.1-1.6-0.5-2-1.1c-0.6,1.1-0.9,1.6-1.5,2.5
			c-0.1,0.1-0.1,0.3-0.2,0.4c-0.1,0.2-0.2,0.4-0.3,0.5c1,0.3,1.5,0.4,1.5,0.5c0,0.1-0.2,0.1-0.5,0c-0.3-0.1-0.7-0.2-1.1-0.3
			c-0.2-0.1-0.4-0.1-0.6-0.2c0,0-0.1,0-0.4-0.1c-0.3-0.1-0.6-0.1-0.9-0.2c-0.3-0.1-0.5-0.1-0.8-0.2c-0.3-0.1-0.4-0.1-0.4-0.2
			c0-0.1,0.2-0.1,0.5,0c0.5,0.1,0.8,0.2,0.9,0.1c0.1,0,0.3-0.2,0.4-0.5c1.4-2.3,2.2-3.7,4-6.7c0.2-0.4,0.3-0.6,0.3-0.6
			c0-0.1-0.1-0.1-0.3-0.1c-0.1,0-0.1,0-0.2,0c-0.1,0-0.2,0-0.4,0c-0.3,0-0.4,0-0.4-0.1c0-0.1,0.1-0.1,0.3-0.1c0.1,0,0.2,0,0.4,0
			c1.2,0,2,0,2.3-0.1c0.1,0,0.2,0,0.2,0c0.1,0,0.1,0,0.1,0.1c0,0.1-0.2,0.4-0.6,1c0.7-0.4,1.2-0.6,1.6-0.8c0.4-0.1,0.9-0.2,1.4-0.2
			c0.8,0,1.5,0.2,2,0.5C65.4,129.8,65.7,130.2,65.7,130.8z M63.8,130.2c0-0.6-0.4-0.9-1.2-0.9c-0.8,0-1.6,0.3-2.3,0.9
			c-0.6,0.5-1.2,1.2-1.7,2.1c-0.3,0.5-0.4,0.7-0.6,1.1c-0.1,0.2-0.2,0.4-0.2,0.5c0,0.2,0.2,0.5,0.5,0.7c0.3,0.2,0.7,0.3,1.1,0.4
			c1.2,0.1,2.2-0.4,3.2-1.7C63.3,132.1,63.8,131,63.8,130.2z"/>
		<path fill="#401C5B" d="M77.1,128.8c0,0-0.1,0.1-0.2,0.3c-1.3,1.9-1.9,2.9-3.1,4.8c-0.3,0.5-0.4,0.8-0.4,1.1
			c0,0.3,0.2,0.4,0.6,0.4c0.6,0,1.2-0.3,1.7-0.9c0.1-0.1,0.2-0.2,0.3-0.2c0.1,0,0.1,0,0.1,0.1c0,0.1-0.2,0.3-0.5,0.6
			c-0.7,0.5-1.4,0.8-2.3,0.8c-0.5,0-0.8-0.1-1.1-0.2c-0.3-0.2-0.4-0.4-0.4-0.6c0-0.2,0.1-0.4,0.2-0.6c-0.9,1-2,1.5-3.2,1.5
			c-0.8,0-1.4-0.2-1.9-0.5c-0.5-0.3-0.7-0.8-0.7-1.3c0-0.6,0.3-1.2,0.8-2c0.6-0.8,1.3-1.5,2.2-2.1c1.3-0.8,2.5-1.3,3.6-1.3
			c1.1,0,1.8,0.4,1.9,1.2c0.2-0.3,0.3-0.5,0.6-0.9c0.1-0.2,0.2-0.3,0.3-0.3c0,0,0.1,0,0.3,0c0.2,0,0.3,0,0.3,0c0.3,0,0.6,0,0.8,0
			c0.1,0,0.1,0,0.2,0C77.1,128.7,77.1,128.8,77.1,128.8z M74.2,130.1c0-0.3-0.1-0.6-0.4-0.8c-0.3-0.2-0.6-0.3-1.1-0.3
			c-0.8,0-1.5,0.3-2.2,1c-0.8,0.7-1.4,1.5-1.9,2.3c-0.5,0.8-0.7,1.5-0.7,2.1c0,0.7,0.4,1.1,1.2,1.1c0.5,0,1-0.2,1.5-0.6
			c0.6-0.4,1-0.9,1.4-1.4c0.7-1.1,1.1-1.6,1.8-2.7C74.1,130.4,74.2,130.2,74.2,130.1z"/>
		<path fill="#401C5B" d="M85.9,129.6c0,0.2-0.1,0.3-0.3,0.5c-0.2,0.1-0.4,0.2-0.7,0.3c-0.2,0-0.4,0-0.3-0.1c0-0.1,0-0.1,0.1-0.1
			c0-0.1,0.1-0.1,0.1-0.2c0-0.2-0.2-0.3-0.5-0.3c-0.4,0-1.1,0.2-1.8,0.7c-0.8,0.5-1.6,1.4-2.3,2.4c-0.7,1-1,1.5-1.7,2.5
			c-0.2,0.2-0.3,0.4-0.4,0.4c-0.3,0-0.5,0-0.7,0c-0.2,0-0.4,0-0.6,0.1c-0.1,0-0.1,0-0.1,0c-0.1,0-0.2,0-0.2-0.1c0,0,0,0,0.1-0.1
			c0-0.1,0.1-0.1,0.1-0.2c1.6-2.5,2.3-3.7,4-6c0-0.1-0.1-0.1-0.3-0.1c0,0,0,0-0.1,0c-0.1,0-0.2,0-0.3,0c-0.1,0-0.1,0-0.2,0
			c-0.2,0-0.3,0-0.3-0.1c0-0.1,0.4-0.1,1.2-0.1c0.8,0,1.3-0.1,1.6-0.2c0.1,0,0.2,0,0.2,0c0.1,0,0.1,0,0.1,0.1c0,0.1-0.1,0.2-0.3,0.5
			c-0.4,0.5-0.5,0.8-0.9,1.4c1.4-1.4,2.7-1.8,3.7-1.8C85.6,128.9,85.9,129.1,85.9,129.6z"/>
		<path fill="#401C5B" d="M93.2,129.7c0,0.1-0.2,0.3-0.4,0.4s-0.4,0.2-0.7,0.2c-0.2,0-0.3,0-0.3-0.1c0,0,0-0.1,0.1-0.1
			c0,0,0.1-0.1,0.1-0.1c0-0.2-0.1-0.3-0.5-0.3c-0.4,0-1.1,0.2-1.9,0.6c-0.8,0.5-1.6,1.2-2.4,2.2c-0.7,0.9-1.1,1.3-1.8,2.2
			c-0.2,0.2-0.3,0.3-0.4,0.4c-0.3,0-0.5,0-0.7,0c-0.2,0-0.4,0.1-0.6,0.1c-0.1,0-0.1,0-0.1,0c-0.1,0-0.2,0-0.2,0c0,0,0,0,0.1-0.1
			c0-0.1,0.1-0.1,0.1-0.2c1.6-2.4,2.5-3.3,4.2-5.5c0-0.1-0.1-0.1-0.3-0.1c0,0,0,0-0.1,0c-0.1,0-0.2,0-0.3,0c-0.1,0-0.1,0-0.2,0
			c-0.2,0-0.3-0.1-0.3-0.1c0-0.1,0.4,0,1.2-0.1c0.8-0.1,1.3-0.1,1.6-0.2c0.1,0,0.2,0,0.2,0c0.1,0,0.1,0,0.1,0.1c0,0-0.1,0.2-0.3,0.5
			c-0.4,0.5-0.6,0.7-1,1.2c1.5-1.2,2.7-1.5,3.8-1.5C93,129.2,93.3,129.3,93.2,129.7z"/>
		<path fill="#401C5B" d="M101,129.8c-0.3,0.6-1.3,1.3-3,2.2c-1.3,0.7-2.6,1.3-3.8,1.6c-0.8,0.2-1.5,0.2-2,0
			c-0.5-0.2-0.7-0.6-0.6-1.1c0.1-0.4,0.4-0.9,1-1.4c0.6-0.5,1.3-0.9,2.2-1.3c1.4-0.6,2.7-0.9,3.8-1c0.9-0.1,1.6,0,2,0.2
			C101.1,129.2,101.2,129.5,101,129.8z M99.6,129.5c0.2-0.4-0.2-0.6-1.2-0.5c-1.2,0.1-2.4,0.6-3.5,1.5c-1,0.9-1.6,1.7-1.8,2.4
			c-0.1,0.5,0.3,0.7,1.2,0.5c1.1-0.3,2.2-0.9,3.2-1.7C98.7,130.8,99.4,130.1,99.6,129.5z"/>
		<path fill="#401C5B" d="M109.9,127.8c-0.1,0-0.2,0.1-0.4,0.2c-0.2,0.1-0.4,0.1-0.6,0.2c-0.4,0.1-0.6,0.1-0.5,0
			c0.1-0.1,0.3-0.1,0.6-0.2c0,0,0.1,0,0.2,0c0.1,0,0.2,0,0.2,0c0.1,0,0.1,0,0.2-0.1c0.1,0,0-0.1-0.3-0.1c-0.3,0-0.6,0-0.9,0.1
			c-0.5,0.1-0.9,0.2-1.3,0.3c-0.4,0.1-0.6,0.2-0.7,0.4c-0.1,0.1,0,0.3,0.3,0.6c0.1,0.1,0,0.1-0.1,0.3c-0.2,0.2-0.8,0.5-1.5,0.9
			c-0.8,0.4-1.6,0.7-2.5,1.1c-0.8,0.3-1.4,0.4-1.8,0.4c-0.4,0-0.6-0.2-0.5-0.4c0.1-0.1,0.2-0.3,0.5-0.4c0.3-0.1,0.6-0.3,0.9-0.3
			c0.3-0.1,0.5-0.1,0.6-0.1c0.1,0,0.2,0.1,0.1,0.1c-0.1,0.1-0.3,0.3-0.7,0.4c-0.4,0.1-0.6,0.1-0.5,0c0,0,0.1-0.1,0.1-0.1
			c0.1,0,0.1-0.1,0.1-0.1c0,0,0-0.1-0.1,0c-0.1,0-0.3,0.1-0.4,0.2c-0.1,0.1-0.2,0.2-0.3,0.3c-0.1,0.2,0,0.3,0.4,0.3
			c0.4,0,0.8-0.1,1.4-0.3c0.5-0.2,1-0.4,1.5-0.6c0.4-0.2,0.7-0.4,0.9-0.5c0.1-0.1,0.1-0.2,0-0.4c-0.1-0.2-0.1-0.3,0-0.5
			c0.2-0.3,0.6-0.6,1.4-0.8c0.7-0.3,1.5-0.4,2.3-0.5c0.6-0.1,1-0.1,1.3-0.1C109.9,127.7,110,127.7,109.9,127.8z"/>
	</g>
</g>
</svg>
