<?xml version="1.0" encoding="utf-8"?>
<!-- Generator: Adobe Illustrator 18.0.0, SVG Export Plug-In . SVG Version: 6.00 Build 0)  -->
<!DOCTYPE svg PUBLIC "-//W3C//DTD SVG 1.1//EN" "http://www.w3.org/Graphics/SVG/1.1/DTD/svg11.dtd">
<svg version="1.1" id="Layer_1" xmlns="http://www.w3.org/2000/svg" xmlns:xlink="http://www.w3.org/1999/xlink" x="0px" y="0px"
	 viewBox="0 0 143.8 142.9" enable-background="new 0 0 143.8 142.9" xml:space="preserve">
<g>
	<g>
		<path fill="#5D0C0C" d="M34,126c0.4,0.8,0.3,1.4-0.1,1.9c-0.4,0.4-1.1,0.6-2.1,0.4c-0.3,0-0.6-0.1-1.1-0.2c0.3,0.9,0.5,1.3,0.8,2
			c0,0.1,0.1,0.2,0.2,0.3c0,0,0,0.1,0.1,0.1c0,0,0,0,0,0c0,0,0.1,0.1,0.2,0.1c0.3,0.1,0.5,0.2,0.8,0.3c0.1,0,0.1,0.1,0.2,0.1
			c0.1,0.1,0,0.1-0.1,0c-0.1-0.1-0.2-0.1-0.3-0.1c-0.8-0.3-1.2-0.5-2-0.8c-0.2-0.1-0.3-0.1-0.3-0.1c-0.1,0-0.1,0,0,0
			c-0.1,0-0.2-0.1-0.2-0.1c-0.1,0,0,0,0,0c0,0,0.1,0,0.1,0c0.2,0.1,0.3,0.1,0.5,0.2c0.1,0,0.2,0,0.1,0c0-0.1-0.1-0.2-0.2-0.4
			c-0.9-1.4-1.2-2.3-1.6-4.4c0-0.1-0.1-0.3-0.1-0.5c-0.1,0-0.1,0-0.2,0c-0.1,0-0.2,0-0.4,0.1c-0.1,0-0.2,0-0.3,0
			c-0.2,0-0.3,0-0.4-0.1c0-0.1,0-0.1,0.2-0.1c0,0,0.1,0,0.1,0c0.1,0,0.1,0,0.2,0c0.1,0,0.1,0,0.2,0c0.1,0,0.4,0,0.7-0.1
			c1.2-0.1,2.1-0.1,2.7-0.1C32.8,124.6,33.6,125.1,34,126z M32.7,125.9c-0.2-0.5-0.6-0.8-0.9-1c-0.4-0.2-0.9-0.3-1.5-0.2
			c-0.1,0-0.2,0-0.3,0.1c0.2,1.5,0.3,2.1,0.6,3.3c0.4,0.1,0.8,0.2,1,0.2c0.6,0.1,1.1-0.1,1.3-0.5C33.1,127.2,33.1,126.6,32.7,125.9z
			"/>
		<path fill="#5D0C0C" d="M36.7,127.7c0,0,0,0.1,0,0.2c0,0.1,0,0.3,0,0.6c0,1.3,0.1,2,0.2,3.1c0,0.4,0.1,0.6,0.2,0.7
			c0.1,0.2,0.3,0.4,0.5,0.4c0.1,0,0.3,0,0.4,0s0.2-0.1,0.2-0.3c0-0.1,0-0.1,0.1-0.1c0,0,0.1,0,0.1,0.1c0,0.1,0,0.2-0.1,0.4
			c-0.2,0.2-0.4,0.2-0.8,0.1c-0.2-0.1-0.5-0.2-0.7-0.4c-0.2-0.2-0.4-0.4-0.5-0.6c-0.1-0.2-0.2-0.5-0.2-0.9c-0.1-1-0.2-1.5-0.2-2.6
			c0-0.1,0-0.2,0-0.3c0,0,0-0.1,0-0.1c0-0.1-0.2-0.1-0.6-0.2c-0.1,0-0.1,0-0.1-0.1c0-0.1,0-0.1,0-0.1c0,0,0.1,0,0.2,0
			c0.1,0,0.3,0,0.5,0.1c0.3,0,0.6,0,0.7-0.1c0.1,0,0.1,0,0.1,0C36.6,127.6,36.6,127.6,36.7,127.7z M36.5,125.1
			c0.1,0.4,0,0.6-0.3,0.6c-0.2,0-0.3-0.1-0.5-0.2c-0.2-0.1-0.3-0.3-0.3-0.4c-0.1-0.4,0-0.6,0.4-0.6
			C36.2,124.5,36.4,124.7,36.5,125.1z"/>
		<path fill="#5D0C0C" d="M41.4,128c0.1,0.2,0,0.4-0.1,0.7c-0.1,0.2-0.2,0.3-0.3,0.5c-1,1.5-1.5,2.5-1.8,3.3c0.2,0,0.4,0,0.6,0
			c0.3,0.1,0.9,0.4,1.6,0.9c0.3,0.2,0.5,0.3,0.6,0.3c0.1,0,0.2,0,0.2-0.1c0-0.1,0-0.2,0-0.4c-0.1-0.2-0.2-0.4-0.5-0.5
			c-0.1-0.1-0.2-0.2-0.2-0.3c-0.1-0.3,0-0.4,0.2-0.4c0.2,0,0.4,0.3,0.6,0.6c0.2,0.6,0.2,1.1,0,1.4c-0.2,0.3-0.3,0.4-0.5,0.3
			c-0.1,0-0.3-0.2-0.7-0.4c-1.2-0.7-1.8-1-1.9-1.1c-0.1,0-0.1,0-0.1,0.2c0.1,0.2,0,0.2-0.1,0.2c-0.1,0-0.1-0.1-0.2-0.2
			c-0.1-0.1-0.1-0.3,0-0.4c0.1-0.1,0.1-0.3,0.2-0.6c0.4-1,0.9-1.9,1.4-2.6c0.1-0.1,0.2-0.3,0.4-0.5c-0.4,0.2-0.8,0.2-1.1,0.2
			c-0.5,0-0.9-0.2-1.4-0.6c-0.1-0.1-0.1-0.1-0.2-0.1c-0.1,0-0.1,0-0.1,0.1c0,0.1,0,0.3,0,0.6c0,0.1,0,0.2-0.1,0.2
			c-0.1,0-0.1,0-0.1-0.1c0,0,0-0.1,0-0.1c0-0.2,0-0.6-0.1-1.3c0-0.1,0-0.2,0.1-0.2c0,0,0.2,0.1,0.5,0.2c0.9,0.4,1.6,0.6,2.4,0.7
			c0.5,0,0.7-0.1,0.6-0.3c0,0,0-0.1,0-0.1c0,0,0,0,0-0.1c0-0.1,0-0.2,0.1-0.2C41.3,127.7,41.4,127.8,41.4,128z"/>
		<path fill="#5D0C0C" d="M47.4,128.2c0,0,0,0.2,0,0.4c-0.3,2.1-0.4,3.2-0.5,5.1c0,0.5,0,0.8,0,1.1c0.1,0.3,0.2,0.5,0.4,0.5
			c0.3,0.1,0.5-0.2,0.7-0.7c0-0.1,0.1-0.2,0.1-0.2c0,0,0.1,0,0.1,0.1c0,0.1,0,0.3-0.1,0.6c-0.2,0.5-0.6,0.7-1,0.5
			c-0.2-0.1-0.4-0.2-0.6-0.4c-0.2-0.2-0.3-0.4-0.4-0.7c0-0.2-0.1-0.4-0.1-0.6c-0.2,0.9-0.6,1.3-1.2,1.1c-0.4-0.1-0.7-0.4-1.1-0.8
			c-0.3-0.4-0.6-0.9-0.8-1.4c-0.2-0.6-0.2-1.2-0.1-1.9c0.1-0.7,0.3-1.3,0.7-1.9c0.5-0.8,1-1.2,1.6-1.2c0.6,0,1,0.5,1.3,1.3
			c0-0.4,0.1-0.5,0.1-0.9c0-0.2,0.1-0.3,0.1-0.3c0,0,0.1,0,0.2,0c0.1,0,0.1,0,0.2,0c0.2,0,0.3,0,0.4-0.1c0,0,0.1,0,0.1,0
			C47.4,128.1,47.4,128.1,47.4,128.2z M46.2,129.6c-0.1-0.4-0.2-0.7-0.4-0.9c-0.2-0.2-0.4-0.3-0.6-0.4c-0.4,0-0.7,0.3-0.9,0.9
			c-0.3,0.7-0.4,1.4-0.4,2.2c0,0.8,0,1.4,0.2,2c0.2,0.7,0.5,1.1,0.9,1.2c0.2,0.1,0.4-0.1,0.6-0.4c0.2-0.3,0.3-0.8,0.4-1.3
			c0.1-1.1,0.2-1.6,0.3-2.7C46.2,129.9,46.2,129.7,46.2,129.6z"/>
		<path fill="#5D0C0C" d="M52.3,129.2c0,0.3,0,0.5-0.1,0.7c-0.1,0.2-0.2,0.3-0.3,0.3c-0.1,0-0.2-0.1-0.2-0.2c0-0.1,0-0.1,0-0.2
			c0-0.1,0-0.1,0-0.2c0-0.3-0.2-0.5-0.4-0.5c-0.2,0-0.5,0.3-0.8,1c-0.3,0.7-0.6,1.6-0.7,2.8c-0.1,1.1-0.2,1.7-0.3,2.7
			c0,0.3-0.1,0.4-0.1,0.4c-0.2-0.1-0.3-0.1-0.4-0.1c-0.1,0-0.2,0-0.3,0c0,0,0,0-0.1,0c-0.1,0-0.1,0-0.1-0.1c0,0,0,0,0-0.1
			c0-0.1,0-0.1,0-0.2c0.2-2.5,0.4-3.9,0.8-6.7c0-0.1-0.1-0.2-0.2-0.2c0,0,0,0,0,0c0,0-0.1,0-0.2,0c0,0-0.1,0-0.1,0
			c-0.1,0-0.2-0.1-0.2-0.1c0-0.1,0.2-0.1,0.6-0.1s0.7,0,0.8-0.1c0.1,0,0.1,0,0.1,0c0,0,0.1,0,0.1,0.1c0,0.1,0,0.3-0.1,0.7
			c-0.1,0.7-0.1,1-0.2,1.7c0.5-1.5,1.1-2.3,1.6-2.3C52,128.4,52.2,128.7,52.3,129.2z"/>
		<path fill="#5D0C0C" d="M57.2,130.2c0,0.3,0,0.9-0.2,1.7c-0.3,1.5-0.4,2.2-0.6,3.6c-0.1,0.4-0.1,0.7-0.1,0.8
			c0,0.3,0.1,0.4,0.3,0.5c0.2,0,0.5-0.2,0.9-0.8c0,0,0.1-0.1,0.1,0c0,0,0.1,0,0.1,0.1c0,0.2-0.1,0.4-0.3,0.7
			c-0.3,0.4-0.7,0.5-1.1,0.5c-0.2,0-0.4-0.2-0.6-0.4c-0.2-0.2-0.3-0.4-0.3-0.7c0-0.2,0-0.6,0.1-1.2c0.2-1.4,0.3-2.1,0.6-3.5
			c0.2-0.9,0.2-1.5,0.2-1.8c0-0.5-0.2-0.7-0.5-0.7c-0.4,0-0.8,0.4-1.2,1.3c-0.3,0.6-0.6,1.5-0.7,2.7c-0.2,1.5-0.3,2.2-0.5,3.6
			c0,0.2,0,0.3-0.1,0.3c0,0-0.1,0-0.3,0c0,0-0.1,0-0.1,0c-0.1,0-0.2,0-0.3-0.1c0,0,0,0-0.1,0c-0.1,0-0.1,0-0.1-0.1c0,0,0-0.1,0-0.1
			c0-0.1,0-0.2,0-0.3c0.3-2.7,0.5-4,0.9-6.9c0-0.1,0-0.1,0-0.2c0-0.1-0.1-0.2-0.3-0.2c-0.2,0-0.4-0.1-0.4-0.2c0-0.1,0-0.1,0.1-0.1
			c0.1,0,0.1,0,0.3,0.1c0.1,0,0.2,0.1,0.3,0.1c0.4,0,0.7,0,0.9-0.1c0.1,0,0.1-0.1,0.1-0.1c0,0,0.1,0,0.1,0.1c0,0,0,0.1,0,0.1
			c-0.1,0.7-0.2,1.1-0.3,1.9c0.1-0.1,0.1-0.3,0.2-0.5c0.5-1,1-1.5,1.6-1.5c0.3,0,0.6,0.2,0.8,0.5C57,129.3,57.1,129.7,57.2,130.2z"
			/>
		<path fill="#5D0C0C" d="M60.5,128.9c0,0,0,0.1,0,0.3c0,0.2-0.1,0.5-0.2,1c-0.4,2.2-0.6,3.2-1,5.3c-0.1,0.7-0.2,1.1-0.2,1.3
			c0,0.4,0.2,0.6,0.4,0.6c0.1,0,0.3-0.1,0.5-0.2c0.2-0.2,0.3-0.4,0.4-0.6c0.1-0.2,0.1-0.2,0.1-0.2c0,0,0.1,0,0.1,0.1
			c0,0.2-0.1,0.4-0.3,0.7c-0.3,0.5-0.6,0.6-1.1,0.6c-0.3,0-0.5-0.2-0.7-0.5c-0.2-0.3-0.3-0.6-0.3-1c0-0.3,0-0.9,0.2-1.6
			c0.3-1.9,0.5-2.8,0.9-4.7c0-0.2,0.1-0.4,0.1-0.5c0-0.1,0-0.1,0-0.1c0-0.1-0.2-0.2-0.6-0.3c-0.1,0-0.1-0.1-0.1-0.1
			c0-0.1,0-0.2,0.1-0.2c0,0,0.1,0,0.2,0.1c0.1,0,0.3,0.1,0.6,0.1c0.3,0,0.6,0,0.7-0.1c0.1,0,0.1-0.1,0.2-0.1
			C60.5,128.7,60.5,128.8,60.5,128.9z M61.2,125c0,0.6-0.1,0.9-0.4,0.9c-0.2,0-0.3-0.1-0.4-0.3c-0.1-0.2-0.2-0.4-0.2-0.7
			c0-0.6,0.1-0.9,0.5-0.8C61,124.1,61.2,124.4,61.2,125z"/>
		<path fill="#5D0C0C" d="M66.7,130.2c0,0.3,0,0.5-0.1,0.7c-0.1,0.2-0.2,0.3-0.3,0.2c-0.2,0-0.4-0.2-0.4-0.6c0-0.2,0-0.3,0-0.5
			c0-0.4-0.1-0.5-0.2-0.5c-0.2,0-0.6,0.7-1.3,2.1c-0.2,0.5-0.4,0.8-0.5,0.9c-0.1,0.1-0.2,0.2-0.3,0.3c0.1,0,0.1,0.1,0.2,0.1
			c0.6,0.2,0.9,0.7,1,1.5c0,0.5,0,1.3,0,2.2c0,0.4,0,0.7,0,0.9c0,0.3,0.1,0.4,0.2,0.4c0.2,0,0.4-0.2,0.6-0.7c0.2-0.5,0.4-1,0.4-1.6
			c0-0.2,0.1-0.4,0.2-0.4c0.1,0,0.1,0.1,0.1,0.2c0,0.2-0.1,0.7-0.3,1.5c-0.3,1-0.7,1.5-1.3,1.4c-0.6,0-0.9-0.6-0.9-1.6
			c0-0.5,0-1.2,0.1-2.2c0-0.3,0-0.6,0-0.9c0-0.3-0.1-0.5-0.3-0.7c-0.1-0.1-0.3-0.1-0.4-0.1c-0.1,0-0.2,0-0.4,0
			c-0.4,1.9-0.5,2.9-0.9,4.7c0,0-0.1,0.1-0.1,0.1c-0.1,0-0.1,0-0.2,0c-0.1,0-0.2,0-0.3,0c-0.1,0-0.2,0-0.3,0c0,0-0.1,0-0.1,0
			c0,0-0.1,0-0.1-0.1c0-0.1,0-0.1,0-0.3c0,0,0-0.2,0.1-0.6c0.8-4.7,1.3-7.2,2.3-12.1c0-0.1,0.1-0.3,0.1-0.5c0-0.2,0-0.2,0.1-0.4
			c0-0.1,0-0.1,0-0.2c0-0.2-0.1-0.3-0.3-0.3c-0.1,0-0.2,0-0.3,0c-0.1,0-0.2,0-0.3,0c-0.1,0-0.1-0.1-0.1-0.1c0-0.1,0-0.2,0.1-0.2
			c0.1,0,0.2,0,0.6,0c0.7,0.1,1.2,0,1.4,0c0.1-0.1,0.1-0.1,0.1-0.1c0,0,0.1,0,0.1,0.1c0,0.1-0.1,0.4-0.2,1.1
			c-0.6,2.8-0.9,4.3-1.5,7.1c0,0.2-0.1,0.6-0.2,1.1c0.2,0,0.2,0,0.4,0c0.2,0,0.3,0,0.4-0.2c0.1-0.1,0.3-0.5,0.6-1.1
			c0.4-0.9,0.7-1.5,1-1.8c0.2-0.3,0.5-0.4,0.8-0.4C66.4,129.1,66.7,129.5,66.7,130.2z"/>
		<path fill="#5D0C0C" d="M71.9,133.2c0,0.4-0.1,0.7-0.1,1.1c-1-0.1-1.5-0.1-2.5-0.2c0-0.5,0-0.7,0.1-1.1
			C70.4,133.1,70.9,133.1,71.9,133.2z"/>
		<path fill="#5D0C0C" d="M83.6,129.7c-0.1,1.3-0.3,2.5-0.8,3.7c-0.5,1.2-1.1,2.3-1.8,3.2c-1.1,1.3-2.2,2.1-3.2,2.1
			c-0.8,0-1.4-0.3-1.9-1c-0.4-0.7-0.7-1.7-0.7-3.1c0-1.3,0.2-2.7,0.7-4.1c0.4-1.4,1-2.5,1.8-3.5c1.1-1.4,2.3-2,3.5-1.9
			c0.9,0.1,1.5,0.6,1.9,1.5C83.5,127.5,83.7,128.5,83.6,129.7z M82.5,128.5c0-0.7,0-1.3-0.2-1.9c-0.2-0.7-0.6-1.1-1.2-1.2
			c-1.1-0.1-2.1,1-3.1,3.3c-0.5,1.1-0.9,2.3-1.1,3.6c-0.3,1.3-0.4,2.5-0.4,3.5c0,1.8,0.5,2.7,1.5,2.6c0.6,0,1.2-0.5,1.8-1.3
			c0.8-1.1,1.5-2.5,2-4.4C82.2,131.1,82.4,129.7,82.5,128.5z"/>
		<path fill="#5D0C0C" d="M88,131.7c-0.1,0.5-0.2,0.8-0.6,0.8c-0.1,0-0.2-0.1-0.3-0.2c-0.1-0.1-0.1-0.2-0.1-0.4
			c0-0.3,0.1-0.4,0.4-0.4c0,0,0.1,0,0.1,0c0.1,0,0.1,0.1,0.1,0.1c0.1,0,0.1-0.1,0.1-0.2c0-0.2,0-0.3-0.2-0.5
			c-0.1-0.1-0.3-0.2-0.5-0.2c-0.6,0-1.2,0.6-1.9,1.9c-0.7,1.3-1,2.6-1.1,3.7c-0.1,1,0.2,1.4,0.8,1.4c0.4-0.1,0.9-0.5,1.4-1.3
			c0.1-0.1,0.2-0.2,0.2-0.2c0,0,0.1,0,0,0.1c0,0.1-0.1,0.4-0.4,0.7c-0.5,0.7-1,1.1-1.6,1.1c-0.5,0.1-0.9-0.1-1.2-0.5
			c-0.3-0.4-0.4-1-0.4-1.7c0.1-1.2,0.6-2.6,1.6-3.9c0.8-1.1,1.6-1.6,2.4-1.6c0.3,0,0.5,0.1,0.7,0.3C88,131,88.1,131.3,88,131.7z"/>
		<path fill="#5D0C0C" d="M93.7,130.4c0,0-0.1,0.1-0.1,0.3c-0.9,1.8-1.4,2.7-2.3,4.7c-0.2,0.5-0.3,0.8-0.4,1c0,0.3,0,0.4,0.2,0.3
			c0.3-0.1,0.6-0.4,1-1c0.1-0.1,0.1-0.2,0.2-0.2c0,0,0,0,0,0.1c0,0.1-0.1,0.3-0.3,0.6c-0.4,0.5-0.8,0.8-1.3,0.9
			c-0.2,0-0.4,0-0.5-0.1c-0.1-0.1-0.2-0.3-0.1-0.6c0-0.2,0.1-0.3,0.2-0.6c-0.6,1-1.2,1.6-1.9,1.7c-0.4,0.1-0.7-0.1-0.9-0.4
			c-0.2-0.3-0.3-0.8-0.2-1.4c0.1-0.6,0.3-1.3,0.7-2.1c0.4-0.8,0.9-1.5,1.4-2.1c0.8-0.9,1.5-1.3,2.1-1.3c0.6,0,0.9,0.4,0.9,1.1
			c0.2-0.3,0.3-0.5,0.4-0.8c0.1-0.2,0.2-0.2,0.2-0.2c0,0,0.1,0,0.1,0c0.1,0,0.1,0,0.2,0c0.2,0,0.3,0,0.4-0.1c0,0,0.1,0,0.1,0
			C93.7,130.3,93.8,130.4,93.7,130.4z M92,131.7c0-0.3,0-0.6-0.1-0.8c-0.1-0.2-0.3-0.3-0.5-0.3c-0.4,0-0.8,0.3-1.3,1
			c-0.5,0.7-0.9,1.5-1.3,2.4c-0.3,0.8-0.5,1.6-0.6,2.2c-0.1,0.7,0.1,1.1,0.5,1c0.2,0,0.5-0.3,0.9-0.7c0.3-0.4,0.6-0.9,0.9-1.5
			c0.5-1.1,0.8-1.6,1.3-2.7C91.9,132.1,92,131.9,92,131.7z"/>
		<path fill="#5D0C0C" d="M101.3,130.9c-0.1,0.2-0.3,0.5-0.6,1c-0.6,0.8-0.9,1.2-1.5,2.1c-0.2,0.4-0.4,0.6-0.4,0.7
			c-0.1,0.2,0,0.2,0.2,0.2c0.3-0.1,0.6-0.3,0.9-0.6c0.1-0.1,0.2-0.2,0.3-0.2c0,0,0.1,0,0,0c0,0.1-0.2,0.3-0.5,0.5
			c-0.5,0.4-0.9,0.6-1.2,0.7c-0.2,0.1-0.4,0-0.4,0c-0.1-0.1-0.1-0.2-0.1-0.4c0.1-0.2,0.2-0.5,0.5-1c0.6-0.9,0.9-1.3,1.5-2.2
			c0.4-0.5,0.6-0.8,0.6-1c0.1-0.3,0-0.4-0.2-0.4c-0.4,0-0.9,0.3-1.5,0.9c-0.4,0.4-0.9,1.1-1.6,2.3c-0.5,0.8-0.7,1.2-1.2,2
			c-0.2,0.3-0.3,0.5-0.3,0.5c0,0-0.1,0-0.1,0c-0.1,0-0.2,0-0.3,0.1c0,0-0.1,0-0.2,0c-0.1,0-0.1,0-0.2,0c-0.1,0-0.1,0-0.1,0
			c0,0,0-0.1,0.1-0.2c0-0.1,0.1-0.2,0.2-0.3c0.8-1.4,1.2-2.1,2-3.5c0.4-0.7,0.7-1.2,0.7-1.4c0.1-0.2,0-0.4-0.3-0.3
			c-0.3,0-0.8,0.3-1.4,0.9c-0.2,0.2-0.5,0.5-0.8,1c-0.1,0.2-0.4,0.5-0.7,1.1c-0.6,1-0.8,1.6-1.4,2.6c-0.1,0.3-0.2,0.4-0.3,0.4
			c0,0-0.1,0-0.1,0c-0.1,0-0.2,0-0.2,0c-0.2,0-0.4,0.1-0.4,0.1c0,0,0,0-0.1,0c0,0-0.1,0,0-0.1c0.1-0.1,0.1-0.2,0.2-0.4
			c1.1-2.3,1.7-3.4,2.8-5.5c0,0,0.1-0.1,0.1-0.1c0-0.1,0-0.1-0.2-0.1c-0.2,0-0.3,0-0.3-0.1c0-0.1,0.1-0.1,0.1-0.1c0.1,0,0.2,0,0.3,0
			c0.1,0,0.3,0,0.3,0c0.4,0,0.6-0.1,0.7-0.1c0,0,0.1,0,0.1,0c0,0,0.1,0,0.1,0.1c0,0-0.1,0.1-0.2,0.3c-0.1,0.1-0.2,0.4-0.4,0.7
			c0,0.1-0.1,0.1-0.1,0.2c0.1-0.1,0.3-0.3,0.6-0.6c0.5-0.5,1-0.7,1.5-0.7c0.3,0,0.5,0.1,0.6,0.2c0.1,0.2,0.1,0.5,0,0.9
			c0.7-0.8,1.4-1.2,2-1.3c0.3,0,0.5,0.1,0.6,0.2C101.4,130.4,101.4,130.6,101.3,130.9z"/>
		<path fill="#5D0C0C" d="M107.1,130.6c-0.4,0.7-1.2,1.3-2.3,2.1c-1.1,0.8-2,1.4-2.7,1.6c-0.5,0.2-0.7,0-0.7-0.3
			c-0.7,1-1.1,1.5-1.8,2.5c-0.1,0.2-0.2,0.3-0.3,0.4c-0.1,0.2-0.3,0.4-0.4,0.6c0.5-0.2,0.7-0.3,0.7-0.2c0,0.1-0.1,0.1-0.3,0.2
			c-0.1,0.1-0.3,0.1-0.5,0.2c-0.1,0-0.2,0.1-0.3,0.1c0,0-0.1,0-0.2,0.1c-0.2,0.1-0.3,0.1-0.4,0.2c-0.2,0.1-0.2,0.1-0.4,0.2
			c-0.1,0.1-0.2,0.1-0.2,0c0-0.1,0.1-0.2,0.3-0.2c0.3-0.1,0.4-0.2,0.5-0.3c0.1-0.1,0.2-0.3,0.5-0.6c1.8-2.8,2.8-4.1,4.9-6.5
			c0.3-0.3,0.4-0.5,0.4-0.5c0-0.1,0-0.1-0.1-0.1c0,0-0.1,0-0.1,0c0,0-0.1,0-0.2,0c-0.1,0-0.2,0-0.2-0.1c0,0,0.1-0.1,0.2-0.1
			c0.1,0,0.1,0,0.2,0c0.6,0,1.1-0.1,1.3-0.1c0.1,0,0.1,0,0.1,0c0,0,0.1,0,0,0.1c0,0-0.2,0.3-0.7,0.7c0.5-0.3,0.9-0.5,1.1-0.6
			c0.3-0.1,0.5-0.2,0.8-0.2c0.4,0,0.7,0,0.9,0.2C107.3,130.1,107.3,130.3,107.1,130.6z M106.3,130.4c0.2-0.4,0.1-0.5-0.3-0.5
			c-0.4,0-0.9,0.3-1.6,0.7c-0.5,0.4-1.1,0.9-1.7,1.7c-0.3,0.4-0.5,0.6-0.8,0.9c-0.2,0.2-0.3,0.4-0.3,0.4c-0.1,0.2-0.1,0.3,0,0.4
			c0.1,0.1,0.2,0.1,0.4,0c0.6-0.2,1.4-0.8,2.4-1.8C105.4,131.5,106,130.9,106.3,130.4z"/>
		<path fill="#5D0C0C" d="M111.9,129.9c-0.6,0.4-1.5,0.9-2.7,1.5c-0.9,0.5-1.7,0.9-2.3,1.2c-0.4,0.2-0.7,0.2-0.8,0.1
			c-0.1-0.1,0-0.4,0.2-0.7c0.2-0.3,0.6-0.7,1.1-1c0.5-0.4,1-0.7,1.6-1c0.9-0.4,1.7-0.6,2.4-0.7c0.5-0.1,0.8,0,0.9,0.1
			C112.4,129.5,112.2,129.7,111.9,129.9z M111.5,129.7c0.4-0.3,0.3-0.4-0.3-0.4c-0.7,0.1-1.5,0.4-2.4,1.1c-0.9,0.6-1.6,1.3-2,1.8
			c-0.3,0.4-0.2,0.5,0.2,0.3c0.6-0.2,1.3-0.7,2.2-1.2C110.2,130.6,111,130.2,111.5,129.7z"/>
	</g>
</g>
<g>
	<g>
		<path fill="#E55025" d="M21.3,40.9c-0.1,0.2-0.3,0.2-0.6,0.2c-0.3,0-0.5,0-0.7,0c-0.4,0-0.6,0.1-0.7,0.2c-0.2,0.1-1.2,1.2-2.7,3.5
			c-1.6,2.5-2.4,3.8-3.9,6.5c-1.4,2.5-2.3,4.4-3,5.7c-0.7,1.3-1.4,2.4-2.2,3.3c-1.1,1.4-2.2,2.2-3.1,2.2c-0.4,0-0.8-0.2-1-0.6
			c-0.2-0.4-0.3-0.9-0.2-1.5c0.1-0.9,0.5-1.4,1.1-1.4c0.5,0,0.7,0.4,0.6,1.1c0,0.3-0.1,0.5-0.2,0.7c-0.1,0.1-0.3,0.3-0.5,0.4
			c-0.1,0.1-0.2,0.2-0.2,0.3c0,0.3,0.1,0.5,0.6,0.5c0.7,0,1.3-0.7,1.9-2c0.3-0.6,0.9-1.9,1.9-4c2.5-5.2,3.9-7.7,7.1-12.4
			c0.4-0.6,0.6-0.9,1-1.4c0.1-0.2,0.2-0.4,0.4-0.7c0.1-0.1,0.2-0.2,0.2-0.3c0.1-0.3,0-0.5-0.4-0.5c-0.4,0-0.6,0-1,0
			c-0.1,0-0.1-0.1-0.1-0.2c0.1-0.2,0.2-0.2,0.4-0.2c0.3,0,0.4,0,0.6,0c0.1,0,0.2,0,0.4,0c0.2,0,0.4,0,0.6,0c0.7,0,1,0.1,1.7,0.1
			c0.1,0,0.3,0,0.6,0c0.5,0,0.9,0,1.2,0C21.3,40.7,21.4,40.8,21.3,40.9z"/>
		<path fill="#E55025" d="M23,52.9c-0.5,2.2-1.6,4.1-3.3,5.8c-1.4,1.3-2.6,2-3.9,1.9c-0.8,0-1.5-0.5-1.9-1.4c-0.4-0.9-0.5-2-0.3-3.3
			c0.2-1.1,0.7-2.3,1.4-3.4c0.7-1.1,1.6-2.1,2.5-2.8c1.5-1.2,2.8-1.7,3.9-1.5c0.8,0.1,1.3,0.6,1.6,1.5C23.3,50.5,23.3,51.5,23,52.9z
			 M21.9,50.9c0.4-1.4,0.1-2.2-0.8-2.3c-1.1-0.1-2.4,0.9-3.8,3.1c-1.3,2.1-2.1,4.1-2.5,6.1c-0.2,1.5,0.1,2.2,1,2.3
			c1.1,0.1,2.2-0.9,3.4-2.9C20.5,54.8,21.4,52.8,21.9,50.9z"/>
		<path fill="#E55025" d="M32.1,50.6c-0.1,0.4-0.2,0.7-0.5,0.9c-0.2,0.2-0.5,0.4-0.7,0.3c-0.2,0-0.3-0.2-0.2-0.4
			c0-0.1,0.1-0.2,0.1-0.3c0.1-0.1,0.1-0.2,0.1-0.3c0.1-0.5,0-0.7-0.3-0.8c-0.4-0.1-1,0.4-2,1.3c-0.9,0.9-1.9,2.4-2.9,4.2
			c-0.9,1.8-1.4,2.7-2.2,4.5c-0.2,0.4-0.3,0.7-0.4,0.6c-0.3-0.1-0.5-0.1-0.6-0.2c-0.2,0-0.4,0-0.6,0c0,0-0.1,0-0.1,0
			c-0.1,0-0.2-0.1-0.2-0.1c0,0,0-0.1,0.1-0.1c0.1-0.1,0.1-0.2,0.1-0.3c2-4.4,3.1-6.6,5.6-10.8c0-0.1,0-0.2-0.2-0.2c0,0,0,0-0.1,0
			c-0.1,0-0.1,0-0.3,0c-0.1,0-0.1,0-0.2,0c-0.2,0-0.3-0.1-0.2-0.2c0-0.1,0.4-0.2,1.1-0.2c0.7,0,1.2,0,1.4-0.1c0.1,0,0.2,0,0.2,0
			c0.1,0,0.1,0.1,0.1,0.2c0,0.1-0.2,0.4-0.5,1c-0.5,1-0.8,1.4-1.3,2.4c1.7-2.3,3.1-3.3,4-3.1C32,49.3,32.2,49.8,32.1,50.6z"/>
		<path fill="#E55025" d="M39.8,53c-0.1,0.6-0.3,0.8-0.7,0.6c-0.3-0.2-0.5-0.5-0.4-1c0-0.1,0-0.1,0.1-0.2c0-0.1,0.1-0.1,0.1-0.2
			c0-0.1,0-0.2-0.1-0.2c-0.1-0.1-0.3,0.1-0.6,0.3c-0.3,0.3-0.5,0.6-0.5,0.8c0,0.1,0,0.2,0,0.4c0,0.6,0,1.2-0.1,1.9
			c-0.2,1.4-0.7,2.4-1.4,3.2c-0.7,0.8-1.6,1-2.6,0.8c-0.8-0.2-1.4-0.7-1.9-1.5c-1.1,0.3-1.7,0.8-1.8,1.5c-0.1,0.4,0.1,0.7,0.5,0.9
			c0.7,0.4,1.1,0.5,1.2,0.5c0.7,0.2,1,0.2,1.7,0.4c0.8,0.2,1.3,0.4,1.6,0.6c0.9,0.6,1.3,1.9,1.2,3.7c-0.1,1.6-0.6,3-1.4,4
			c-0.9,1.1-2.1,1.5-3.5,1.1c-1.1-0.3-2-0.9-2.8-1.9c-0.9-1.2-1.4-2.3-1.3-3.5c0.1-0.8,0.4-1.5,0.9-1.9c0.3-0.2,0.8-0.4,1.6-0.7
			c-0.7-0.7-1-1.5-0.9-2.4c0.2-1.5,1.1-2.4,2.8-2.8c-0.3-0.9-0.4-1.8-0.2-2.7c0.3-1.5,0.9-2.7,1.9-3.7c1-0.9,1.9-1.3,2.9-1
			c0.7,0.2,1.2,1,1.5,2.3c0.6-0.9,1.2-1.1,1.7-0.9C39.7,51.8,39.9,52.3,39.8,53z M35.3,66.5c0-0.5,0-1-0.2-1.5
			c-0.2-0.5-0.4-0.8-0.7-1c-0.4-0.3-1.1-0.5-2.1-0.7c-0.9-0.2-1.4-0.3-2.3-0.6c-0.9,0.4-1.4,1.3-1.5,2.7c-0.1,1.1,0.1,2.1,0.6,3
			c0.5,0.9,1.2,1.4,2.1,1.6c1.1,0.3,2,0,2.8-0.7C34.8,68.6,35.2,67.7,35.3,66.5z M36.6,53.1c0.3-1.4,0.1-2.2-0.7-2.4
			c-0.6-0.2-1.3,0.5-2.1,2c-0.7,1.3-1.2,2.6-1.4,3.9c-0.2,1.3,0.1,2,1,2.3c0.6,0.2,1.2-0.5,1.9-1.9C36,55.6,36.4,54.3,36.6,53.1z"/>
		<path fill="#E55025" d="M46.4,56c-0.1,0.9-0.6,1.7-1.4,2.1c-0.8,0.5-1.8,0.6-2.9,0.2c-0.4-0.1-0.9-0.3-1.3-0.6
			c-0.6,1.3-1,2.6-1.2,3.8c-0.2,1.7,0.3,2.7,1.3,2.9c0.8,0.2,1.6-0.3,2.5-1.3c0.2-0.2,0.3-0.3,0.4-0.3c0.1,0,0.1,0.1,0.1,0.2
			c0,0.4-0.4,0.9-1,1.4c-0.8,0.6-1.5,0.8-2.3,0.6c-0.9-0.2-1.5-0.7-2-1.6c-0.5-0.9-0.7-1.9-0.5-3.1c0.2-2.2,1.3-3.9,3.1-5.3
			c1.6-1.2,2.9-1.6,3.9-1.3C46.1,54.1,46.6,54.8,46.4,56z M45.1,55.3c0.1-0.5-0.1-0.9-0.5-1c-0.4-0.1-0.8,0-1.3,0.3
			c-0.8,0.6-1.6,1.5-2.4,2.9c0.1,0.1,0.3,0.1,0.5,0.2c0.7,0.2,1.4,0.1,2.2-0.3C44.5,56.9,45,56.2,45.1,55.3z"/>
		<path fill="#E55025" d="M60,62.1c0,0.2-0.4,1.5-1.3,3.9c-0.1,0.3-0.2,0.5-0.3,0.8c-0.1,0.2-0.1,0.3-0.2,0.3c-0.1,0-0.3,0-0.7,0
			c-0.5,0-0.7-0.1-1.2-0.1c-0.6,0-1.1-0.1-1.7-0.2c-0.6-0.1-0.8-0.1-0.8-0.1c-0.1,0-0.3,0-0.6-0.1c-0.4,0-0.7-0.1-1-0.1
			c-0.6-0.1-1-0.1-1.6-0.2c-0.3,0-0.5-0.1-0.8-0.1c-0.3,0-0.4,0-0.4,0c-0.2,0-0.4,0-0.8,0c-0.4,0-0.6,0-0.8,0
			c-0.2,0-0.3-0.1-0.3-0.3c0-0.2,0.2-0.2,0.5-0.2c0,0,0.4,0.1,1,0.1c0.2,0,0.4,0,0.5-0.1c0.1-0.1,0.2-0.3,0.3-0.6
			c0-0.1,0.2-0.4,0.4-1c2-5.5,3.1-8.1,5.4-12.8c0.3-0.6,0.5-1,0.5-1.2c0-0.2-0.3-0.4-0.9-0.5c0,0-0.1,0-0.6,0
			c-0.1,0-0.2-0.1-0.1-0.2c0-0.2,0.3-0.2,0.9-0.1c0,0,0.3,0,0.8,0.2c0.3,0.1,0.6,0.2,0.9,0.2c0.6,0.2,1.3,0.3,2,0.4
			c0.1,0,0.2,0,0.4,0.1c0.1,0,0.2-0.1,0.2,0c0.1,0,0.2,0.1,0.2,0.3c0,0.1-0.1,0.2-0.3,0.2c0,0-0.1,0-0.4-0.1c-0.1,0-0.1,0-0.2,0
			c-0.5-0.1-0.7-0.1-0.9,0C58,50.4,57.6,51,57.1,52c-2.2,4.6-3.2,7.2-5.1,12.6c-0.1,0.3-0.2,0.6-0.3,0.8c0,0.1-0.1,0.1-0.1,0.2
			c0,0.2,0.3,0.5,0.8,0.5c1.9,0.2,3.2,0.1,3.9,0c1-0.3,1.9-1.2,2.6-2.7c0.3-0.6,0.4-1,0.6-1.3c0-0.1,0.1-0.2,0.2-0.2
			C59.9,61.9,60,62,60,62.1z"/>
		<path fill="#E55025" d="M70.6,57.6c0,0,0,0.1,0,0.1c-0.1,0.1-0.1,0.2-0.1,0.4c-0.9,2.4-1.4,3.6-2.3,6.1c-0.5,1.3-0.7,2.1-0.7,2.4
			c0,0.4,0.2,0.7,0.5,0.7c0.5,0,1.1-0.4,1.7-1.3c0.1-0.2,0.3-0.3,0.3-0.3c0.1,0,0.1,0.1,0.1,0.1c0,0.4-0.4,0.9-1.2,1.5
			c-0.5,0.3-1,0.5-1.5,0.5c-0.4,0-0.7-0.1-1-0.4c-0.3-0.3-0.4-0.6-0.4-0.9c0-0.2,0.1-0.5,0.2-0.9c0.1-0.3,0.2-0.5,0.3-0.8
			c-0.9,1.2-1.6,2.1-2.1,2.4c-0.5,0.4-1,0.6-1.7,0.5c-0.5,0-1-0.2-1.3-0.5c-0.3-0.3-0.5-0.6-0.5-1.1c0-0.5,0.2-1.1,0.5-1.9
			c0.9-2.3,1.4-3.4,2.3-5.5c0.1-0.1,0.2-0.4,0.4-0.8c0-0.1,0.1-0.1,0.1-0.2c0-0.1-0.1-0.2-0.5-0.2c-0.4,0-0.6-0.1-0.6-0.3
			c0-0.1,0.1-0.2,0.1-0.2c0.1,0,0.3,0,0.5,0.1c0.2,0.1,0.3,0.1,0.5,0.1c0.7,0.1,1.2,0,1.5-0.1c0.1,0,0.1,0,0.2,0
			c0.1,0,0.1,0.1,0.1,0.1c0,0.1-0.2,0.5-0.4,1.2c-0.3,0.6-0.6,1.3-0.8,2c-0.1,0.2-0.3,0.7-0.7,1.7c-0.4,0.9-0.5,1.3-0.9,2.2
			c-0.4,0.9-0.5,1.6-0.5,2c0,0.5,0.2,0.7,0.7,0.8c0.5,0,1.2-0.5,2.1-1.5c1-1.2,1.8-2.6,2.4-4.3c0.5-1.4,0.8-2.1,1.4-3.5
			c0.1-0.2,0.1-0.3,0.2-0.3c0,0,0.1,0,0.4,0c0.1,0,0.1,0,0.2,0c0.4,0,0.6,0,0.7,0C70.4,57.5,70.5,57.5,70.6,57.6
			C70.6,57.5,70.6,57.5,70.6,57.6z"/>
		<path fill="#E55025" d="M75.4,57.6c0,0,0,0.1-0.1,0.3c-0.1,0.2-0.2,0.5-0.4,1.1c-0.9,2.4-1.4,3.6-2.3,6.1
			c-0.3,0.8-0.5,1.4-0.5,1.6c0,0.4,0.2,0.7,0.6,0.7c0.3,0,0.6-0.1,0.9-0.3c0.3-0.2,0.6-0.5,0.8-0.8c0.1-0.2,0.2-0.3,0.3-0.3
			c0.1,0,0.1,0,0.1,0.1c0,0.2-0.2,0.5-0.6,0.9c-0.6,0.6-1.2,0.9-1.9,0.9c-0.5,0-0.9-0.1-1.2-0.4c-0.3-0.3-0.5-0.7-0.5-1.1
			c0-0.4,0.2-1.1,0.5-1.9c0.8-2.2,1.3-3.3,2.1-5.4c0.1-0.3,0.1-0.4,0.2-0.6c0-0.1,0.1-0.1,0.1-0.2c0-0.1-0.3-0.2-0.9-0.3
			c-0.1,0-0.2-0.1-0.2-0.2c0-0.1,0.1-0.2,0.2-0.2c0,0,0.1,0,0.3,0.1c0.2,0,0.5,0.1,0.9,0.1c0.5,0,0.9,0,1.2-0.1
			c0.1-0.1,0.2-0.1,0.3-0.1C75.4,57.4,75.4,57.5,75.4,57.6z M76.7,53.5c0,0.6-0.2,0.9-0.7,0.9c-0.3,0-0.5-0.1-0.6-0.3
			c-0.2-0.2-0.2-0.4-0.2-0.7c0-0.6,0.3-0.9,0.9-0.9C76.5,52.6,76.7,52.9,76.7,53.5z"/>
		<path fill="#E55025" d="M82.6,59.1c0,0.3-0.1,0.5-0.2,0.7c-0.1,0.2-0.3,0.3-0.5,0.3c-0.4,0-0.6-0.2-0.6-0.6c0-0.4,0.1-0.5,0.4-0.6
			c0,0,0.1,0,0.2,0.1c0.1,0,0.2,0.1,0.2,0.1c0.1,0,0.1-0.1,0.1-0.2c0-0.3-0.2-0.5-0.5-0.7c-0.3-0.2-0.6-0.3-0.9-0.3
			c-0.4,0-0.8,0.2-1,0.5c-0.3,0.3-0.4,0.7-0.4,1.1c0,0.4,0.3,1.4,1,3.2c0.2,0.4,0.2,0.9,0.3,1.4c0,1.1-0.3,2-0.9,2.7
			c-0.6,0.7-1.4,1.1-2.3,1.1c-0.8,0-1.5-0.3-2.1-0.8c-0.6-0.5-0.8-1.2-0.8-2c0-0.4,0.1-0.8,0.3-1.1c0.2-0.3,0.5-0.4,0.8-0.4
			c0.3,0,0.5,0.1,0.7,0.3c0.2,0.2,0.3,0.4,0.3,0.7c0,0.5-0.2,0.7-0.6,0.7c-0.4,0-0.6-0.2-0.6-0.5c0-0.1,0-0.2,0-0.3
			c0-0.1,0-0.2,0-0.2c0-0.2-0.1-0.2-0.2-0.2c-0.1,0-0.2,0.1-0.3,0.3c-0.1,0.2-0.1,0.4-0.1,0.7c0,0.6,0.2,1.2,0.7,1.6
			c0.4,0.5,1,0.7,1.6,0.7c0.6,0,1-0.2,1.4-0.6c0.4-0.4,0.5-0.9,0.5-1.5c0-0.4-0.2-1.1-0.5-2.1c-0.3-0.9-0.4-1.6-0.5-2.2
			c0-1,0.2-1.8,0.7-2.5c0.5-0.7,1.1-1,1.9-1c0.5,0,0.9,0.1,1.3,0.5C82.4,58.2,82.6,58.6,82.6,59.1z"/>
		<path fill="#E55025" d="M97.8,52.8c0.2,1.6-0.4,2.9-1.8,4.1c-0.7,0.6-1.4,1-2.1,1.2c0.8,0.1,1.5,0.4,1.9,0.7c0.6,0.5,0.9,1.1,1,2
			c0.1,0.9-0.1,1.8-0.5,2.6c-0.4,0.9-0.9,1.6-1.7,2.2c-0.9,0.7-2.6,1.2-5,1.4c0,0-0.2,0-0.5,0c-0.3,0-0.6,0-0.8,0.1
			c-0.7,0-1.1,0.1-1.9,0.1c-0.8,0-1.3,0-1.4,0c0,0-0.1,0-0.1,0c-0.1,0-0.2-0.1-0.2-0.2c0-0.2,0.1-0.3,0.3-0.2c0.4,0,0.5,0.1,0.9,0.1
			c0.5-0.1,0.8-0.1,0.9-0.2c0.1,0,0.2-0.1,0.2-0.3c0-0.1,0.1-0.2,0.1-0.4c0.1-0.2,0.3-0.8,0.6-1.9c1.2-4.3,1.8-6.4,2.8-10.4
			c0.3-1.2,0.4-1.9,0.4-2.1c0-0.2-0.5-0.3-1.5-0.2c-0.2,0-0.3,0-0.3-0.1c0-0.1,0.1-0.2,0.3-0.2c0.4-0.1,0.6-0.1,0.9-0.2
			c1.4-0.2,2.1-0.3,3.5-0.5c1.2-0.2,2.1-0.1,2.7,0.3C97.2,51.1,97.6,51.8,97.8,52.8z M94.6,60.9c-0.1-1.8-1-2.6-2.6-2.4
			c-0.3,0-0.7,0.1-1,0.2c-0.7,2.7-1,4.1-1.8,6.9c-0.1,0.5-0.2,0.8-0.2,0.9c0,0.2,0.1,0.3,0.3,0.3c1.4-0.1,2.6-0.5,3.3-1.1
			C94.1,64.5,94.8,62.9,94.6,60.9z M95.9,52.6c-0.2-1.3-1-1.8-2.3-1.7c-0.2,0-0.5,0.1-0.7,0.1c-0.1,0.3-0.2,0.6-0.3,1.1
			c-0.5,2.3-0.8,3.5-1.3,5.9c0.2,0,0.4,0,0.7,0c1.6-0.2,2.8-0.9,3.4-2.1C95.8,55,96,53.8,95.9,52.6z"/>
		<path fill="#E55025" d="M106.5,58.2c0.2,1.8-0.3,3.7-1.6,5.5c-1,1.4-2.2,2.1-3.5,2.3c-0.9,0.1-1.6-0.1-2.2-0.8
			c-0.6-0.6-0.9-1.5-1-2.6c-0.1-0.9,0.1-1.9,0.4-2.9c0.4-1,0.9-1.9,1.5-2.7c1-1.2,2-1.9,3.1-2c0.8-0.1,1.5,0.1,2.1,0.7
			C105.9,56.3,106.3,57.1,106.5,58.2z M104.7,57c-0.2-1.2-0.7-1.7-1.6-1.5c-1.1,0.2-1.9,1.2-2.5,3.2c-0.6,1.9-0.8,3.6-0.7,5.3
			c0.1,1.2,0.6,1.8,1.5,1.6c1.2-0.2,2.1-1.2,2.7-3C104.8,60.5,105,58.6,104.7,57z"/>
		<path fill="#E55025" d="M114.5,54.4c0.1,0.3,0,0.6-0.1,0.8c-0.1,0.3-0.3,0.4-0.5,0.4c-0.2,0-0.3,0-0.4-0.2c0-0.1,0-0.1,0-0.2
			c0-0.1,0-0.2,0-0.3c-0.1-0.4-0.3-0.5-0.6-0.5c-0.4,0.1-0.8,0.6-1.4,1.6c-0.5,1-1,2.3-1.4,4c-0.4,1.6-0.6,2.4-1.1,3.9
			c-0.1,0.4-0.2,0.6-0.3,0.6c-0.3,0-0.5,0-0.6,0c-0.2,0-0.4,0.1-0.5,0.2c0,0-0.1,0-0.1,0c-0.1,0-0.2,0-0.2-0.1c0,0,0-0.1,0.1-0.1
			c0-0.1,0-0.2,0.1-0.3c1.1-4,1.6-5.8,2.3-9.5c0-0.1-0.1-0.2-0.3-0.1c0,0,0,0-0.1,0c-0.1,0-0.1,0-0.3,0.1c-0.1,0-0.1,0-0.2,0
			c-0.2,0-0.3,0-0.3-0.1c0-0.1,0.3-0.2,1-0.3c0.7-0.1,1.1-0.3,1.3-0.4c0.1,0,0.2-0.1,0.2-0.1c0.1,0,0.1,0,0.1,0.1
			c0,0.1,0,0.4-0.1,0.9c-0.1,0.9-0.2,1.3-0.4,2.2c0.9-2.2,1.8-3.3,2.7-3.5C113.9,53.4,114.3,53.7,114.5,54.4z"/>
		<path fill="#E55025" d="M122.6,53.1c0.1,0.5,0,0.8-0.4,0.8c-0.4,0-0.6-0.1-0.7-0.6c0,0,0-0.1,0-0.2c0-0.1,0-0.1,0-0.2
			c0-0.1-0.1-0.1-0.1-0.1c-0.1,0-0.3,0.2-0.4,0.6c-0.2,0.4-0.2,0.6-0.2,0.8c0,0.1,0.1,0.2,0.1,0.3c0.2,0.4,0.4,0.9,0.5,1.4
			c0.2,1.1,0.1,2.1-0.5,3c-0.5,0.9-1.3,1.4-2.4,1.5c-0.8,0.1-1.5-0.1-2.2-0.5c-1,0.6-1.5,1.1-1.4,1.7c0,0.3,0.3,0.5,0.7,0.5
			c0.8,0,1.2,0,1.3,0c0.7-0.1,1-0.1,1.7-0.2c0.8-0.1,1.3-0.1,1.7,0c1,0.2,1.6,1.1,1.8,2.6c0.1,1.3-0.2,2.5-1,3.6
			c-0.8,1.1-1.9,1.7-3.4,1.9c-1.1,0.1-2-0.1-2.9-0.5c-1-0.6-1.6-1.3-1.6-2.3c0-0.7,0.2-1.3,0.7-1.8c0.2-0.2,0.7-0.6,1.5-1.1
			c-0.8-0.3-1.3-0.8-1.3-1.5c-0.1-1.2,0.6-2.2,2.1-3c-0.5-0.6-0.8-1.3-0.9-1.9c-0.2-1.2,0-2.3,0.6-3.3c0.6-1,1.4-1.5,2.4-1.7
			c0.8-0.1,1.5,0.2,2.3,1c0.3-1,0.7-1.5,1.2-1.5C122.1,52.1,122.5,52.4,122.6,53.1z M121.5,65.4c0-0.4-0.2-0.8-0.4-1.1
			c-0.2-0.3-0.5-0.5-0.9-0.5c-0.5-0.1-1.2-0.1-2.2,0.1c-0.9,0.1-1.4,0.2-2.3,0.3c-0.8,0.6-1.2,1.5-1.1,2.6c0,0.9,0.4,1.6,0.9,2.1
			c0.6,0.5,1.3,0.7,2.2,0.6c1.1-0.1,2-0.5,2.7-1.3C121.2,67.3,121.6,66.4,121.5,65.4z M119.7,54.6c-0.2-1.1-0.7-1.6-1.5-1.5
			c-0.6,0.1-1,0.8-1.3,2.2c-0.2,1.2-0.3,2.3-0.1,3.3c0.1,1,0.6,1.5,1.5,1.4c0.6-0.1,1.1-0.8,1.4-2C119.9,56.8,119.9,55.7,119.7,54.6
			z"/>
		<path fill="#E55025" d="M130,52.8c0.2,0.9,0,1.7-0.6,2.4c-0.6,0.7-1.6,1.1-2.8,1.2c-0.4,0-0.9,0.1-1.5,0c-0.3,1.3-0.3,2.5-0.2,3.6
			c0.2,1.5,0.8,2.2,1.9,2.1c0.8-0.1,1.6-0.7,2.2-1.8c0.1-0.3,0.2-0.4,0.3-0.4c0.1,0,0.1,0,0.1,0.1c0.1,0.4-0.2,0.9-0.8,1.5
			c-0.7,0.7-1.4,1.1-2.2,1.2c-0.9,0.1-1.7-0.2-2.3-0.7c-0.6-0.6-1-1.4-1.2-2.3c-0.3-1.8,0.3-3.7,1.5-5.6c1.1-1.7,2.1-2.6,3.2-2.7
			C129,51.3,129.7,51.7,130,52.8z M128.5,52.6c-0.1-0.5-0.4-0.7-0.8-0.7c-0.4,0.1-0.8,0.3-1.1,0.7c-0.6,0.8-1,1.9-1.4,3.4
			c0.2,0,0.3,0,0.5,0c0.8-0.1,1.4-0.4,2-1.1C128.5,54.3,128.7,53.5,128.5,52.6z"/>
		<path fill="#E55025" d="M136.9,52.1c0.1,0.3,0.1,0.5,0,0.8c-0.1,0.2-0.2,0.3-0.4,0.4c-0.4,0.1-0.7-0.2-0.8-0.6
			c-0.1-0.4,0-0.6,0.2-0.7c0,0,0.1,0,0.2,0c0.1,0,0.2,0.1,0.2,0c0.1,0,0.1-0.1,0.1-0.2c-0.1-0.3-0.3-0.5-0.7-0.8
			c-0.4-0.2-0.7-0.3-1-0.3c-0.4,0.1-0.7,0.3-0.9,0.7c-0.2,0.4-0.2,0.8-0.1,1.3c0.1,0.4,0.7,1.5,1.8,3.4c0.2,0.4,0.4,1,0.5,1.5
			c0.2,1.2,0.1,2.2-0.4,3.1c-0.5,0.9-1.2,1.4-2.2,1.5c-0.8,0.1-1.5-0.1-2.2-0.7c-0.6-0.5-1-1.2-1.1-2c-0.1-0.5,0-0.9,0.1-1.2
			c0.2-0.3,0.4-0.5,0.8-0.5c0.3,0,0.5,0.1,0.7,0.3c0.2,0.2,0.4,0.5,0.4,0.8c0.1,0.5-0.1,0.8-0.5,0.8c-0.4,0-0.7-0.1-0.7-0.5
			c0-0.1,0-0.2,0-0.4c0-0.1,0-0.2,0-0.2c0-0.2-0.1-0.2-0.2-0.2c-0.1,0-0.2,0.1-0.3,0.4c-0.1,0.2-0.1,0.5,0,0.8
			c0.1,0.7,0.4,1.2,0.9,1.7c0.5,0.5,1.1,0.7,1.7,0.6c0.6-0.1,1-0.3,1.3-0.8c0.3-0.5,0.4-1,0.3-1.7c-0.1-0.5-0.3-1.2-0.8-2.2
			c-0.5-1-0.8-1.7-0.9-2.4c-0.3-1.1-0.2-2,0.1-2.8c0.3-0.8,0.8-1.3,1.6-1.4c0.5-0.1,1,0.1,1.5,0.4C136.4,51.2,136.7,51.6,136.9,52.1
			z"/>
	</g>
</g>
<g>
	<g>
		<path fill="#BE2025" d="M21.9,72.7c0,2-0.9,3.5-2.9,4.5c-1,0.5-2,0.9-2.9,1c1.1,0.3,2,0.7,2.6,1.2c0.8,0.7,1.2,1.5,1.3,2.6
			c0.1,1,0,2-0.4,2.9c-0.4,0.9-1.1,1.6-1.9,2.2c-1,0.7-3.1,1-6.3,1.2c0,0-0.2,0-0.6,0c-0.4,0-0.7,0-1.1,0c-1,0-1.4,0.1-2.4,0.1
			c-1,0.1-1.6,0.1-1.8,0.1c-0.1,0-0.1,0-0.2,0c-0.2,0-0.3-0.1-0.4-0.2c-0.1-0.2,0-0.3,0.3-0.3c0.5,0,0.7,0,1.2,0.1
			C7,88.1,7.4,88,7.5,88c0.1,0,0.2-0.2,0.2-0.4c0-0.1,0-0.3,0.1-0.5c0-0.2,0.1-1,0.4-2.2c0.9-5,1.6-7.6,3.4-12.8
			c0.6-1.6,0.9-2.5,0.9-2.8c0-0.3-0.7-0.5-2-0.5c-0.3,0-0.4-0.1-0.4-0.2c0-0.1,0.2-0.2,0.4-0.2c0.5,0,0.8,0,1.4-0.1c2,0,3,0,4.9,0.2
			c1.7,0.1,2.9,0.5,3.7,1.1C21.4,70.3,21.8,71.4,21.9,72.7z M17.1,81.7c-0.3-2.1-1.4-3.3-3.5-3.3c-0.5,0-0.9,0-1.4,0.1
			c-0.9,3.3-1.2,4.9-1.7,8.1c-0.1,0.6-0.1,0.9-0.1,1c0.1,0.3,0.2,0.4,0.5,0.4c1.9-0.1,3.2-0.4,4.1-1C16.8,85.7,17.4,84,17.1,81.7z
			 M19.3,71.7c0-1.7-1-2.7-2.9-2.8c-0.3,0-0.7,0-1,0c-0.2,0.3-0.4,0.8-0.6,1.4c-1.1,2.9-1.5,4.5-2.3,7.4c0.3,0,0.6,0.1,0.9,0.1
			c2.2,0,3.8-0.6,4.7-1.9C18.9,74.8,19.3,73.4,19.3,71.7z"/>
		<path fill="#BE2025" d="M27.6,77.3c0,0.1,0,0.2-0.1,0.3c-0.1,0.2-0.3,0.6-0.5,1.2c-1,2.7-1.5,4-2.3,6.7c-0.3,0.9-0.4,1.5-0.3,1.7
			c0.1,0.5,0.4,0.7,0.9,0.7c0.3,0,0.7-0.1,1.1-0.3c0.4-0.2,0.7-0.5,0.9-0.8c0.1-0.2,0.2-0.3,0.3-0.3c0.1,0,0.2,0.1,0.2,0.2
			c0,0.2-0.2,0.5-0.6,0.9c-0.6,0.6-1.4,0.8-2.3,0.8c-0.6,0-1.1-0.2-1.6-0.5c-0.5-0.3-0.7-0.7-0.8-1.2c-0.1-0.4,0-1.2,0.3-2.2
			c0.7-2.5,1.2-3.7,2.1-6.1c0.1-0.3,0.2-0.5,0.3-0.7c0-0.1,0.1-0.1,0.1-0.2c0-0.2-0.4-0.3-1.2-0.5c-0.1-0.1-0.2-0.1-0.2-0.2
			c0-0.2,0.1-0.2,0.2-0.2c0,0,0.2,0,0.4,0.1c0.3,0.1,0.7,0.1,1.2,0.2c0.8,0.1,1.3,0.1,1.6,0.1c0.2,0,0.3-0.1,0.4,0
			C27.5,77.1,27.6,77.2,27.6,77.3z M29.3,72.6c0,0.8-0.3,1.1-1,0.9c-0.4-0.1-0.7-0.3-0.9-0.5c-0.2-0.3-0.4-0.6-0.4-1
			c0-0.8,0.4-1,1.2-0.8C28.9,71.3,29.3,71.8,29.3,72.6z"/>
		<path fill="#BE2025" d="M39.5,83.3c0.1,1.9-0.6,3.5-2.3,4.8c-1.3,1-2.7,1.4-4.4,1.2c-1.1-0.1-2.1-0.6-2.9-1.4
			c-0.8-0.8-1.3-1.8-1.5-3c-0.1-1,0-2,0.5-3c0.5-1,1.2-1.7,2.1-2.3c1.5-0.9,3-1.2,4.4-0.9c1.1,0.2,2,0.7,2.8,1.5
			C39,81.2,39.4,82.2,39.5,83.3z M37.3,81.4c-0.1-1.3-0.7-2-2-2.2c-1.5-0.3-2.8,0.5-3.7,2.4c-0.9,1.8-1.2,3.6-0.9,5.2
			c0.2,1.3,0.9,1.9,2.1,2.1c1.5,0.2,2.6-0.5,3.3-2.2C37,84.9,37.4,83.1,37.3,81.4z"/>
		<path fill="#BE2025" d="M54.5,81.8c0,0.6-0.3,0.9-0.9,0.8c-0.3,0-0.5-0.2-0.6-0.6c0-0.1-0.1-0.1-0.1-0.1c-0.2,0-0.6,0.4-1.1,1.2
			c-1,1.6-1.6,2.4-2.6,3.9c-0.1,0.2-1.4,2.1-3.4,4.6c-1.1,1.3-2,2.3-3.1,3.1c-0.7,0.5-1.4,0.7-2.1,0.7c-0.8,0-1.2-0.3-1.3-0.8
			c0-0.2,0-0.4,0.2-0.6c0.2-0.1,0.4-0.2,0.7-0.2c0.2,0,0.4,0.1,0.4,0.1c0.1,0.1,0.1,0.2,0.2,0.5c0,0.2,0.2,0.3,0.4,0.3
			c0.3,0,0.7-0.2,1.3-0.6c0.6-0.4,1.1-1,1.5-1.6c0.7-0.8,1-1.5,0.9-2.2c0-0.2,0-0.4-0.1-0.6c0-0.2,0-0.3,0-0.6
			c-0.2-2.7-0.3-4-0.5-6.9c-0.1-1.1-0.4-1.8-0.9-1.8c-0.6-0.1-1.2,0.5-1.8,1.7c-0.2,0.4-0.4,0.6-0.5,0.6c-0.1,0-0.2-0.1-0.2-0.2
			c0-0.3,0.2-0.8,0.7-1.5c0.8-1,1.7-1.5,2.8-1.3c0.8,0.1,1.3,0.5,1.6,1c0.2,0.4,0.3,1.1,0.3,2c0,0.3,0,0.4,0,0.7
			c0.1,1.8,0.1,2.6,0.2,4.3c0,0.6,0.1,1.2,0.2,1.7c0.2-0.2,0.2-0.3,0.4-0.5c0.2-0.3,0.4-0.7,0.8-1.2c0.3-0.4,0.5-0.7,0.8-1.1
			c0.8-1.3,1.3-2,2.1-3.3c0.8-1.3,1.4-2,1.6-2.3c0.3-0.3,0.6-0.4,1-0.3C54.2,80.9,54.5,81.2,54.5,81.8z"/>
		<path fill="#BE2025" d="M76.5,75.6c0,0.3-0.1,0.7-0.4,1.4c-0.8,1.9-1.4,3.3-1.6,4c-0.1,0.3-0.2,0.5-0.3,0.5
			c-0.1,0-0.2-0.1-0.2-0.3c0-0.1,0.1-0.3,0.2-0.8c0.1-0.4,0.2-0.9,0.2-1.6c0-1.3-0.3-2.4-0.9-3.2c-0.6-0.8-1.4-1.1-2.4-1.1
			c-2.4,0-4.3,1.5-5.9,4.1c-1.8,2.9-2.6,5.8-2.7,8.9c-0.1,3.3,1,5.1,3.3,5.6c0.8,0.2,1.6,0.1,2.3-0.2c1.3-0.5,2.4-1.3,3-2.4
			c0.3-0.4,0.5-0.6,0.6-0.6c0.1,0,0.2,0.1,0.1,0.3c0,0.5-0.6,1.2-1.6,2.1c-1.8,1.6-3.8,2.1-5.9,1.6c-1.5-0.4-2.6-1.1-3.5-2.2
			c-0.8-1.1-1.3-2.5-1.3-4.2c0-3.2,1.2-6.1,3.6-9s5-4.5,7.9-4.6c0.8,0,1.5,0.1,2,0.4c0.4,0.2,1,0.7,1.7,1.4c0.2,0.2,0.4,0.3,0.5,0.3
			c0.2,0,0.4-0.2,0.6-0.6c0.1-0.1,0.1-0.1,0.2-0.1C76.4,75.4,76.5,75.4,76.5,75.6z"/>
		<path fill="#BE2025" d="M86.7,83.6c0,0.1-0.1,0.3-0.3,0.7c-1.7,4.1-2.6,6-4.5,9.7c-0.4,0.9-0.7,1.5-0.8,2
			c-0.1,0.5,0.1,0.9,0.5,0.9c0.7,0.1,1.4-0.3,2.3-1.4c0.2-0.2,0.3-0.3,0.4-0.3c0.1,0,0.1,0.1,0.1,0.1c0,0.2-0.3,0.6-0.7,1
			c-0.9,0.9-1.9,1.2-2.9,1c-0.5-0.1-0.9-0.3-1.2-0.7c-0.3-0.4-0.4-0.8-0.3-1.3c0-0.3,0.1-0.7,0.3-1.1c-1.3,1.7-2.7,2.4-4.1,2.1
			c-0.9-0.2-1.5-0.7-2-1.4c-0.5-0.8-0.7-1.6-0.6-2.7c0.1-1.1,0.5-2.3,1.3-3.6c0.8-1.3,1.7-2.5,2.9-3.6c1.6-1.5,3.1-2.3,4.4-2.2
			c1.3,0.1,2.1,1,2.1,2.6c0.3-0.7,0.5-1,0.8-1.8c0.2-0.4,0.3-0.5,0.4-0.5c0,0,0.1,0,0.3,0.1c0.2,0.1,0.3,0.1,0.4,0.1
			c0.4,0,0.7,0,0.9-0.1c0.1-0.1,0.1-0.1,0.2-0.1C86.7,83.4,86.7,83.5,86.7,83.6z M83.1,86.3c0.1-0.7-0.1-1.3-0.4-1.7
			c-0.3-0.5-0.7-0.7-1.2-0.7c-0.9-0.1-1.8,0.5-2.7,1.8c-1,1.4-1.9,2.8-2.6,4.2c-0.7,1.5-1.1,2.7-1.2,3.8c-0.1,1.4,0.3,2.1,1.2,2.3
			c0.5,0.1,1.2-0.1,1.9-0.7c0.7-0.6,1.4-1.4,1.9-2.5c1-2,1.6-3.1,2.6-5.2C83,86.9,83.1,86.5,83.1,86.3z"/>
		<path fill="#BE2025" d="M96.4,86c0,0.4-0.2,0.8-0.4,1.1c-0.2,0.3-0.5,0.5-0.7,0.5c-0.5,0-0.8-0.3-0.7-1c0.1-0.6,0.3-0.9,0.6-0.9
			c0.1,0,0.1,0,0.2,0.1c0.1,0.1,0.2,0.1,0.3,0.1c0.1,0,0.2-0.1,0.2-0.3c0-0.4-0.1-0.8-0.5-1.2c-0.4-0.4-0.8-0.5-1.2-0.5
			c-0.6,0-1.1,0.3-1.5,0.8c-0.4,0.5-0.7,1.1-0.7,1.8c-0.1,0.6,0.2,2.3,0.7,4.9c0.1,0.6,0.1,1.4,0,2.1c-0.2,1.6-0.9,2.9-1.9,3.9
			c-1,1-2.1,1.4-3.2,1.3c-1-0.1-1.8-0.6-2.4-1.4c-0.6-0.8-0.8-1.8-0.7-2.8c0.1-0.6,0.3-1.1,0.6-1.5c0.3-0.4,0.7-0.5,1.2-0.5
			c0.3,0,0.6,0.2,0.8,0.5c0.2,0.3,0.3,0.7,0.2,1.1c-0.1,0.7-0.4,1-0.9,0.9c-0.5-0.1-0.8-0.3-0.7-0.8c0-0.2,0.1-0.3,0.1-0.5
			c0.1-0.1,0.1-0.2,0.1-0.3c0-0.2,0-0.3-0.2-0.4c-0.2,0-0.3,0.1-0.5,0.4c-0.2,0.3-0.3,0.6-0.3,0.9c-0.1,0.9,0.1,1.6,0.5,2.3
			c0.5,0.7,1.1,1.1,1.8,1.2c0.7,0.1,1.3-0.1,1.9-0.6c0.6-0.5,0.9-1.2,1.1-2.1c0.1-0.6,0.1-1.6-0.1-3c-0.2-1.4-0.2-2.5-0.1-3.4
			c0.2-1.5,0.6-2.8,1.4-3.9c0.8-1.1,1.7-1.7,2.7-1.7c0.7,0,1.3,0.2,1.7,0.7C96.3,84.6,96.5,85.3,96.4,86z"/>
		<path fill="#BE2025" d="M109.3,82.3c0,0.1-0.1,0.4-0.3,0.8c-1.9,4.8-2.9,7.3-5.1,11.8c-0.5,1.1-0.9,1.9-1,2.4
			c-0.1,0.6,0,0.9,0.5,0.9c0.7,0,1.5-0.7,2.4-2.1c0.2-0.3,0.3-0.4,0.4-0.4c0.1,0,0.1,0,0.1,0.1c-0.1,0.3-0.3,0.7-0.8,1.3
			c-1,1.2-2,1.8-3.1,1.8c-0.5,0-0.9-0.2-1.2-0.5s-0.3-0.8-0.2-1.4c0.1-0.4,0.2-0.8,0.4-1.3c-1.5,2.2-3.1,3.3-4.5,3.3
			c-0.9,0-1.6-0.4-2-1.2c-0.4-0.8-0.5-1.8-0.3-3c0.2-1.3,0.8-2.8,1.7-4.5c0.9-1.7,2-3.2,3.3-4.7c1.8-2,3.3-3.1,4.6-3.2
			c1.4-0.1,2,0.7,2,2.5c0.3-0.9,0.5-1.3,0.8-2.2c0.2-0.4,0.3-0.7,0.4-0.7c0,0,0.1,0,0.3,0c0.2,0,0.3,0,0.4,0c0.4,0,0.7-0.1,0.9-0.2
			c0.1-0.1,0.1-0.1,0.2-0.1C109.3,82,109.3,82.1,109.3,82.3z M105.6,85.8c0.1-0.8,0-1.4-0.3-1.9c-0.3-0.4-0.7-0.6-1.2-0.6
			c-0.9,0.1-1.8,0.9-2.8,2.4c-1.1,1.7-2.1,3.5-2.9,5.4c-0.8,1.8-1.4,3.4-1.6,4.7c-0.3,1.6,0,2.4,1,2.4c0.6,0,1.3-0.4,2.1-1.2
			c0.8-0.8,1.6-1.9,2.3-3.2c1.3-2.5,1.9-3.8,3-6.4C105.4,86.6,105.6,86.1,105.6,85.8z"/>
		<path fill="#BE2025" d="M119.8,82.8c-0.1,0.5-0.2,1-0.5,1.4c-0.3,0.4-0.6,0.6-0.9,0.7c-0.3,0-0.4-0.1-0.4-0.4
			c0-0.2,0.1-0.2,0.1-0.4c0.1-0.2,0.1-0.3,0.1-0.5c0.1-0.6-0.1-1-0.6-0.9c-0.5,0.1-1.3,0.9-2.5,2.5c-1.1,1.6-2.3,3.8-3.6,6.5
			c-1.2,2.5-1.8,3.8-3.1,6.1c-0.3,0.6-0.5,0.9-0.6,0.9c-0.3-0.1-0.6-0.1-0.8-0.1c-0.3,0-0.5,0-0.7,0.1c-0.1,0-0.1,0-0.2,0
			c-0.2,0-0.2-0.1-0.2-0.2c0,0,0-0.1,0.1-0.1c0.1-0.1,0.1-0.2,0.2-0.4c3.1-5.7,4.5-8.7,6.9-15.2c0-0.2-0.1-0.3-0.3-0.3
			c0,0,0,0-0.1,0c-0.1,0-0.2,0.1-0.4,0.1c-0.1,0-0.2,0-0.3,0c-0.3,0-0.4,0-0.4-0.2c0-0.2,0.5-0.3,1.4-0.5c1-0.2,1.6-0.4,2-0.6
			c0.2-0.1,0.2-0.1,0.3-0.1c0.1,0,0.2,0.1,0.1,0.2c0,0.1-0.2,0.7-0.5,1.5c-0.6,1.5-0.8,2.3-1.4,3.7c2.1-3.6,3.7-5.5,5-5.6
			C119.5,81.1,119.9,81.7,119.8,82.8z"/>
		<path fill="#BE2025" d="M129.2,82.7c-0.2,1.4-0.9,2.6-2.1,3.7c-1.2,1-2.6,1.7-4.2,1.9c-0.6,0.1-1.2,0.1-1.9,0.1
			c-1,2.1-1.7,4-2.1,5.7c-0.5,2.3-0.1,3.3,1.3,3c1.1-0.2,2.3-1.1,3.8-2.9c0.3-0.4,0.5-0.6,0.6-0.6c0.1,0,0.1,0,0.1,0.2
			c-0.1,0.6-0.8,1.3-1.8,2.3c-1.2,1.1-2.3,1.8-3.4,1.9c-1.1,0.2-2-0.1-2.5-1c-0.5-0.9-0.6-2-0.3-3.5c0.6-2.9,2.2-5.9,4.8-8.9
			c2.3-2.7,4.1-4.1,5.6-4.2C128.7,80.1,129.5,80.9,129.2,82.7z M127.4,82.2c0.1-0.8-0.1-1.2-0.7-1.1c-0.6,0.1-1.2,0.5-1.8,1.2
			c-1.2,1.3-2.3,3.1-3.5,5.5c0.2,0,0.5,0,0.7-0.1c1-0.1,2.1-0.7,3.2-1.7C126.4,84.9,127.2,83.6,127.4,82.2z"/>
		<path fill="#BE2025" d="M138.5,81.8c-0.1,0.4-0.2,0.8-0.5,1.1c-0.3,0.3-0.5,0.5-0.8,0.6c-0.5,0.1-0.7-0.2-0.6-1
			c0.1-0.6,0.3-0.9,0.7-1c0.1,0,0.1,0,0.2,0.1c0.1,0.1,0.2,0.1,0.3,0.1c0.1,0,0.2-0.1,0.2-0.3c0.1-0.4-0.1-0.8-0.4-1.2
			c-0.4-0.4-0.8-0.5-1.2-0.4c-0.6,0.1-1.1,0.4-1.6,1c-0.5,0.6-0.8,1.2-0.9,2c-0.1,0.6,0.1,2.4,0.2,5.1c0,0.6-0.1,1.4-0.3,2.2
			c-0.5,1.7-1.3,3.1-2.4,4.3c-1.2,1.2-2.3,2-3.5,2.2c-1,0.2-1.8-0.1-2.2-0.8c-0.5-0.7-0.5-1.7-0.2-2.9c0.2-0.7,0.5-1.3,0.9-1.8
			c0.4-0.5,0.8-0.8,1.3-0.8c0.3,0,0.6,0.1,0.7,0.4c0.2,0.3,0.2,0.7,0.1,1.1c-0.2,0.7-0.6,1.1-1.1,1.2c-0.5,0.1-0.7-0.1-0.6-0.7
			c0-0.2,0.1-0.4,0.2-0.5c0.1-0.2,0.1-0.3,0.1-0.3c0.1-0.2,0-0.4-0.1-0.3c-0.2,0-0.3,0.2-0.6,0.6c-0.2,0.4-0.4,0.7-0.5,1.1
			c-0.3,1-0.2,1.8,0.2,2.4c0.4,0.6,0.9,0.8,1.7,0.7c0.7-0.1,1.4-0.5,2.1-1.2c0.7-0.7,1.2-1.5,1.4-2.4c0.2-0.7,0.3-1.7,0.3-3.1
			c0-1.4,0-2.6,0.2-3.5c0.3-1.6,0.9-3.1,1.7-4.3c0.9-1.2,1.8-1.9,2.8-2c0.7-0.1,1.2,0.1,1.7,0.6C138.4,80.4,138.6,81,138.5,81.8z"/>
	</g>
</g>
<g>
	<g>
		<path fill="#F99B1C" d="M26.6,33.7c-0.1,0.2-0.4,0.3-0.8,0.2c0.5,0,0.2,0-0.7-0.2c-0.6-0.1-0.9-0.1-1.4-0.2
			c-1-0.1-1.5-0.1-2.5-0.2c-0.1,0-0.2,0.1-0.3,0.1c-0.2,0-0.3-0.1-0.1-0.3c0.1-0.2,0.2-0.2,0.3-0.2c0.1,0,0.3,0,0.4,0
			c0.1,0,0.1,0,0.2,0c0.3,0,0.7,0,1-0.1c0.2-0.1,0.6-0.5,1.2-1.3c1-1.3,1.5-1.9,2.5-3.2c0,0,0.1-0.1,0.1-0.2
			c0.1-0.1-0.1-0.2-0.5-0.2c-0.5-0.1-1-0.1-1.5-0.2c-0.5-0.1-0.8-0.1-0.9-0.1c-0.1,0-0.2,0-0.3,0c-0.1,0.1-0.5,0.3-1,0.7
			c-1.6,1.2-2.4,1.8-3.9,3.1c-0.5,0.4-0.9,0.7-1,0.9c-0.2,0.4,0,0.6,0.7,0.6c0.1,0,0.2,0,0.4,0c0.2,0,0.3,0,0.4,0
			c0.2,0,0.2,0.1,0.1,0.3c-0.1,0.2-0.3,0.3-0.7,0.3c-0.4-0.1-0.6-0.1-1-0.1c-0.7,0-1.1,0-1.8,0c-0.8,0-1.3-0.1-1.5-0.1
			c-0.2-0.1-0.2-0.2-0.1-0.3c0.1-0.1,0.2-0.2,0.3-0.2c0.1,0,0.2,0,0.3,0.1c0.1,0,0.3,0.1,0.3,0.1c0.4,0,0.9-0.1,1.3-0.3
			c0.3-0.1,1.1-0.8,2.5-1.8c4.7-3.6,7.2-5.3,11.9-8.2c0.7-0.4,1.7-1.1,3.1-1.9c1.4-0.8,2.1-1.2,3.5-2c0.3-0.1,0.4-0.2,0.5-0.2
			c0.1,0,0,0.1-0.1,0.3c-0.3,0.3-0.7,0.6-1.1,1c-0.9,0.7-2.1,1.9-3.7,3.5c-2.8,2.9-4.1,4.5-6.6,7.9c-0.6,0.8-0.9,1.2-0.9,1.3
			c-0.3,0.5-0.2,0.8,0.2,0.8c0.4,0.1,0.7,0.1,1.1,0.1C26.6,33.5,26.6,33.6,26.6,33.7z M32.8,21.5c0.1-0.1,0.1-0.2,0.1-0.2
			c-0.1,0-0.2,0.1-0.4,0.2c-0.2,0.2-0.3,0.3-0.4,0.3c-0.1,0.1-0.6,0.3-1.3,0.8c-1.7,1.1-2.6,1.7-4.4,2.9c-0.5,0.3-1.1,0.8-1.9,1.3
			c-0.1,0.1-0.2,0.1-0.2,0.1c-0.1,0.1-0.1,0.2,0.1,0.2c0.1,0,0.2,0,0.3,0c0.3,0,0.5,0.1,0.9,0.1c0.8,0.1,1.4,0.1,1.7,0
			c1.6-1.8,2.4-2.7,4.1-4.4c0.3-0.3,0.7-0.6,1.2-1.1C32.6,21.7,32.7,21.6,32.8,21.5z"/>
		<path fill="#F99B1C" d="M43.3,19.7c0,0-0.1,0.1-0.3,0.2c-0.1,0.1-0.3,0.2-0.5,0.4c-4.7,3.8-7.2,6.1-11.7,11.2
			c-0.8,0.9-1.3,1.6-1.5,1.9c-0.2,0.4-0.1,0.7,0.3,0.8c0.4,0,1.1-0.3,1.9-1c0.3-0.3,0.5-0.4,0.6-0.4c0.1,0,0.1,0.1,0,0.2
			c-0.1,0.2-0.5,0.5-1.1,1c-0.8,0.5-1.5,0.8-2.3,0.7c-1-0.1-1.3-0.8-0.8-1.8c0.2-0.3,0.7-1,1.6-1.9c4.7-5,7.1-7.4,12-11.2
			c0.1-0.1,0.1-0.1,0.2-0.1c0.1-0.1,0.1-0.2-0.1-0.2c-0.4-0.1-0.6-0.1-0.5-0.2c0.1-0.1,0.1-0.1,0.2-0.1c0.1,0,0.2,0,0.4,0.1
			s0.3,0.1,0.4,0.1c0.4,0.1,0.7,0.1,1,0.1c0.1,0,0.2,0,0.2,0C43.4,19.6,43.4,19.6,43.3,19.7z"/>
		<path fill="#F99B1C" d="M48.1,21.7c-0.3,0.5-0.7,0.7-1,0.6c-0.1,0-0.2-0.1-0.2-0.2c0-0.1,0-0.3,0.1-0.4c0.1-0.1,0.2-0.2,0.5-0.4
			c0.1-0.1,0.2-0.2,0.2-0.2c0.2-0.3,0.1-0.5-0.3-0.6c-0.4-0.1-0.9,0.1-1.5,0.5c-0.6,0.4-1.6,1.3-3.1,2.8c-0.6,0.6-0.9,0.9-1.4,1.5
			c0.7,0.1,1,0.1,1.6,0.3c0.1,0,0.1,0,0.2,0c0.1,0,0.1,0.1,0,0.2C43.2,26,43.1,26,42.9,26c-0.7-0.1-1.1-0.2-1.9-0.3
			c-1.8,1.9-2.7,2.9-4.5,5c-3.2,3.8-5.6,6.8-7.5,8.6c-0.8,0.7-1.4,1.3-1.9,1.5c-0.5,0.3-1.1,0.4-1.6,0.3c-1.1-0.2-1.5-0.8-1.1-1.8
			c0.3-0.7,0.8-1,1.3-1c0.4,0.1,0.5,0.3,0.3,0.8c-0.1,0.1-0.2,0.3-0.4,0.5c-0.1,0.1-0.2,0.2-0.3,0.3c-0.2,0.4,0,0.6,0.4,0.7
			c0.7,0.1,1.4-0.3,2.3-1.2c0.7-0.7,1.8-2.3,3.4-4.5c3.1-4.3,4.8-6.2,8.1-9.6c-0.1,0-0.2,0-0.4-0.1c-0.3-0.1-0.5-0.1-0.8-0.1
			c-0.1,0-0.2,0.1-0.4,0c-0.1,0-0.2-0.1-0.1-0.2c0.1-0.2,0.4-0.3,0.7-0.3c0,0,0.2,0,0.6,0.1c0.2,0,0.4,0.1,0.6,0.1
			c0.1,0,0.1,0,0.2,0c2-1.9,3.4-3,4.2-3.6c1.4-1,2.6-1.3,3.4-1.2c0.4,0.1,0.6,0.2,0.7,0.5C48.4,21.1,48.3,21.4,48.1,21.7z"/>
		<path fill="#F99B1C" d="M46.8,31c-0.8,1.9-2,3.5-3.8,4.4c-1.4,0.7-2.5,0.9-3.6,0.6c-0.7-0.2-1.2-0.7-1.4-1.4
			c-0.2-0.8,0-1.7,0.5-2.8c0.4-0.9,1.1-1.8,1.9-2.6c0.9-0.9,1.8-1.5,2.7-2c1.4-0.8,2.5-1,3.3-0.7c0.6,0.2,0.9,0.8,1,1.6
			C47.5,28.9,47.3,29.9,46.8,31z M46.3,28.9c0.5-1.2,0.5-1.9-0.2-2.2c-0.8-0.3-2,0.3-3.6,1.9c-1.5,1.5-2.6,3.1-3.3,4.7
			c-0.5,1.2-0.4,1.9,0.4,2.1c1,0.3,2.1-0.3,3.4-1.8C44.5,32.2,45.6,30.5,46.3,28.9z"/>
		<path fill="#F99B1C" d="M55.4,30.9c-0.1,0.4-0.5,1.1-1.1,2.1c-1.1,1.8-1.7,2.8-2.8,4.7c-0.3,0.6-0.5,0.9-0.6,1.2
			c-0.1,0.4,0,0.6,0.3,0.7c0.3,0.1,1-0.2,1.8-1c0.1,0,0.1-0.1,0.2-0.1c0.1,0,0.1,0.1,0.1,0.2c-0.1,0.2-0.3,0.5-0.8,0.9
			c-0.7,0.5-1.4,0.6-2,0.5c-0.4-0.1-0.7-0.3-0.8-0.6c-0.2-0.3-0.2-0.7-0.1-1.1c0.1-0.3,0.4-0.9,0.8-1.6c1.1-1.8,1.7-2.7,2.8-4.5
			c0.7-1.1,1.1-1.8,1.2-2.2c0.2-0.6,0.1-0.9-0.3-1c-0.5-0.1-1.3,0.3-2.3,1.2c-0.8,0.7-1.7,1.9-2.6,3.3c-1.2,1.9-1.8,2.8-3,4.7
			c-0.1,0.2-0.3,0.4-0.3,0.3c0,0-0.1-0.1-0.4-0.2c0,0-0.1,0-0.2-0.1c-0.1,0-0.2-0.1-0.5-0.2c0,0-0.1,0-0.1-0.1
			c-0.1,0-0.1-0.1-0.1-0.2c0,0,0-0.1,0.1-0.1c0.1-0.1,0.1-0.2,0.2-0.3c2.3-3.4,3.5-5.1,5.9-8.5c0.1-0.1,0.1-0.1,0.2-0.2
			c0-0.1-0.1-0.2-0.3-0.2c-0.3-0.1-0.4-0.2-0.4-0.3c0-0.1,0.1-0.2,0.2-0.1c0.1,0,0.2,0,0.3,0.1c0.1,0,0.3,0.1,0.3,0.1
			c0.6,0.1,0.9,0,1.2-0.1c0.1,0,0.1-0.1,0.2,0c0.1,0,0.1,0.1,0,0.2c0,0,0,0.1-0.1,0.1c-0.6,0.9-0.9,1.3-1.4,2.2
			c0.1-0.1,0.3-0.3,0.6-0.6c1.3-1.2,2.2-1.6,3-1.5c0.4,0.1,0.7,0.3,0.9,0.8S55.6,30.3,55.4,30.9z"/>
		<path fill="#F99B1C" d="M62.1,31.9c-0.1,0.3-0.2,0.5-0.3,0.7c-0.2,0.2-0.3,0.3-0.5,0.3c-0.3-0.1-0.5-0.3-0.4-0.8
			c0.1-0.4,0.2-0.6,0.5-0.6c0,0,0.1,0,0.1,0.1c0.1,0.1,0.1,0.1,0.2,0.1c0.1,0,0.1,0,0.1-0.2c0.1-0.3,0-0.6-0.2-0.9
			c-0.2-0.3-0.4-0.5-0.7-0.5c-0.3-0.1-0.7,0.1-1,0.4c-0.3,0.3-0.5,0.7-0.7,1.2c-0.1,0.4-0.1,1.7,0,3.9c0,0.5,0,1.1-0.1,1.7
			c-0.2,1.3-0.7,2.3-1.5,3.1c-0.7,0.8-1.5,1.1-2.4,1c-0.7-0.1-1.3-0.6-1.6-1.3c-0.3-0.7-0.4-1.6-0.2-2.5c0.1-0.5,0.3-0.9,0.6-1.2
			c0.3-0.3,0.6-0.4,0.9-0.4c0.2,0,0.4,0.2,0.5,0.5c0.1,0.3,0.1,0.6,0,0.9c-0.1,0.6-0.4,0.8-0.7,0.7c-0.4-0.1-0.5-0.3-0.4-0.7
			c0-0.1,0.1-0.3,0.1-0.4c0.1-0.1,0.1-0.2,0.1-0.2c0-0.2,0-0.3-0.1-0.3c-0.1,0-0.2,0.1-0.4,0.3c-0.2,0.2-0.3,0.5-0.3,0.8
			c-0.2,0.7-0.1,1.4,0.1,2c0.3,0.6,0.7,1,1.2,1.1c0.5,0.1,1-0.1,1.4-0.5c0.4-0.4,0.7-1,0.9-1.7c0.1-0.5,0.1-1.4,0.1-2.5
			c0-1.1,0.1-2,0.3-2.7c0.3-1.2,0.7-2.1,1.4-2.8c0.6-0.7,1.2-1,1.8-0.9c0.4,0.1,0.7,0.3,0.9,0.7C62.2,30.9,62.3,31.4,62.1,31.9z"/>
		<path fill="#F99B1C" d="M66.1,30.5c0,0.1,0,0.2-0.1,0.3c-0.1,0.2-0.3,0.6-0.6,1.3c-1.2,2.7-1.8,4.1-3.1,7.1
			c-0.4,1-0.7,1.6-0.7,1.9c-0.1,0.5,0.1,0.8,0.4,0.9c0.2,0,0.5-0.1,0.9-0.3c0.3-0.2,0.6-0.5,0.8-0.9c0.1-0.2,0.2-0.3,0.3-0.3
			c0.1,0,0.1,0.1,0.1,0.2c0,0.2-0.2,0.6-0.7,1c-0.6,0.6-1.3,0.9-1.9,0.8c-0.4-0.1-0.8-0.3-1-0.7c-0.2-0.4-0.3-0.9-0.2-1.4
			c0.1-0.5,0.4-1.2,0.8-2.3c1.2-2.5,1.8-3.8,2.9-6.1c0.1-0.3,0.2-0.5,0.3-0.7c0-0.1,0.1-0.1,0.1-0.2c0-0.2-0.2-0.3-0.7-0.4
			c-0.1,0-0.1-0.1-0.1-0.2c0-0.1,0.1-0.2,0.2-0.2c0,0,0.1,0,0.2,0.1c0.1,0.1,0.4,0.1,0.7,0.1c0.5,0,0.8,0,1-0.1
			c0.1-0.1,0.2-0.1,0.2-0.1C66.1,30.3,66.1,30.4,66.1,30.5z M67.8,25.9c-0.1,0.7-0.3,1-0.7,1c-0.2,0-0.4-0.1-0.5-0.3
			c-0.1-0.2-0.1-0.5-0.1-0.8c0.1-0.7,0.4-1,0.8-0.9C67.8,24.8,67.9,25.2,67.8,25.9z"/>
		<path fill="#F99B1C" d="M73.3,32.9c0,0.4-0.2,1.2-0.5,2.3c-0.6,2.1-0.9,3.1-1.6,5.3c-0.2,0.6-0.3,1.1-0.3,1.3
			c0,0.4,0.1,0.6,0.4,0.7c0.4,0,0.9-0.4,1.6-1.3C72.9,41.1,73,41,73,41c0.1,0,0.1,0.1,0.1,0.2c0,0.2-0.2,0.6-0.6,1
			c-0.6,0.6-1.2,0.9-1.8,0.8c-0.4,0-0.7-0.2-0.9-0.5c-0.2-0.3-0.3-0.7-0.3-1.1c0-0.3,0.2-0.9,0.5-1.8c0.7-2.1,1-3.1,1.7-5.1
			c0.4-1.2,0.6-2,0.6-2.4c0-0.6-0.2-0.9-0.5-0.9c-0.5,0-1.1,0.5-1.9,1.7c-0.6,0.9-1.2,2.1-1.8,3.8c-0.8,2.1-1.2,3.2-2,5.4
			c-0.1,0.3-0.2,0.4-0.3,0.4c0,0-0.2,0-0.4,0c0,0-0.1,0-0.2,0c-0.1,0-0.3,0-0.5-0.1c0,0-0.1,0-0.1,0c-0.1,0-0.1-0.1-0.1-0.2
			c0,0,0-0.1,0.1-0.2c0.1-0.2,0.1-0.3,0.2-0.4c1.6-4.2,2.4-6.3,3.8-10.1c0-0.1,0.1-0.2,0.1-0.2c0-0.1-0.1-0.2-0.4-0.2
			c-0.3,0-0.5-0.2-0.5-0.3c0-0.1,0.1-0.2,0.2-0.2c0.1,0,0.2,0,0.4,0.1c0.2,0,0.3,0.1,0.4,0.1c0.6,0,1,0,1.2-0.1
			c0.1,0,0.1-0.1,0.2-0.1c0.1,0,0.1,0.1,0.1,0.2c0,0.1,0,0.1,0,0.1c-0.3,1-0.5,1.5-0.8,2.5c0.1-0.2,0.3-0.4,0.4-0.7
			c0.9-1.4,1.7-2.1,2.5-2c0.4,0,0.8,0.2,1,0.6C73.2,31.7,73.3,32.2,73.3,32.9z"/>
		<path fill="#F99B1C" d="M81.8,30.8c0,0.1,0,0.2-0.1,0.6c-0.5,3.3-0.8,5.1-1.6,8.7c-0.2,0.9-0.3,1.5-0.3,2c0,0.5,0.2,0.8,0.5,0.8
			c0.5,0,0.9-0.6,1.4-1.7c0.1-0.2,0.1-0.3,0.2-0.3c0,0,0.1,0,0.1,0.1c0,0.2-0.1,0.6-0.3,1.1c-0.5,1-1.1,1.5-1.9,1.5
			c-0.4,0-0.7-0.1-1-0.4s-0.4-0.7-0.4-1.2c0-0.3,0-0.7,0.1-1.1c-0.7,1.9-1.6,2.8-2.7,2.8c-0.7,0-1.2-0.4-1.6-1.1
			C74,41.9,73.8,41,73.8,40c0-1.1,0.3-2.3,0.7-3.6c0.4-1.3,1-2.4,1.7-3.5c0.9-1.4,1.7-2.1,2.5-2.1c0.8,0,1.3,0.6,1.5,1.9
			c0.1-0.6,0.2-0.9,0.3-1.5c0.1-0.3,0.1-0.4,0.2-0.4c0,0,0.1,0,0.2,0c0.1,0,0.2,0,0.2,0c0.2,0,0.4-0.1,0.5-0.2c0,0,0.1-0.1,0.1-0.1
			C81.8,30.6,81.8,30.7,81.8,30.8z M80,33.2c0-0.6-0.2-1-0.4-1.4c-0.2-0.3-0.5-0.5-0.8-0.5c-0.5,0-1,0.6-1.5,1.7
			c-0.5,1.2-1,2.6-1.3,4c-0.4,1.4-0.6,2.7-0.6,3.8c0,1.4,0.3,2.1,1,2.1c0.4,0,0.8-0.4,1.3-1.1c0.4-0.7,0.8-1.6,1.1-2.7
			c0.5-2,0.7-3,1.1-4.9C80,33.7,80,33.4,80,33.2z"/>
		<path fill="#F99B1C" d="M91.2,23.1c0.1,0.1,0.1,0.5,0.2,1c0,0.6,0.2,1.4,0.5,2.6c0.1,0.3,0,0.4-0.1,0.4c-0.1,0-0.1,0-0.2-0.2
			c0-0.1,0-0.1-0.1-0.1c-0.1-0.3-0.2-0.7-0.3-0.9c-0.3-0.8-0.7-1.4-1.2-1.8c-0.5-0.4-1-0.6-1.5-0.6c-0.6,0-1,0.4-1.2,1
			c-0.2,0.6-0.2,1.4,0,2.2c0.2,0.9,0.9,2,1.9,3.2c0.5,0.6,0.8,0.9,1.4,1.5c1.2,1.3,2.1,2.7,2.4,4.3c0.4,1.7,0.3,3.3-0.3,4.7
			c-0.7,1.4-1.7,2.2-3,2.4c-0.8,0.1-1.4-0.1-2-0.4c-0.1-0.1-0.4-0.3-0.9-0.9c-0.2-0.1-0.3-0.2-0.4-0.2c-0.3,0-0.5,0.5-0.6,1.5
			c0,0.3-0.1,0.4-0.2,0.4c-0.1,0-0.2-0.1-0.2-0.3c0,0,0-0.3,0.1-0.7c0.3-1.7,0.4-3.3,0.5-4.8c0-0.5,0.1-0.7,0.3-0.7
			c0.1,0,0.1,0.1,0.2,0.2c0,0,0,0.2,0,0.4c-0.1,0.2,0,0.7,0.1,1.5c0.3,2.5,1.3,3.7,3.1,3.5c0.9-0.1,1.6-0.6,2-1.5
			c0.4-0.9,0.5-2,0.2-3.2c-0.3-1.5-1-2.7-2-3.8c-0.5-0.5-0.8-0.8-1.3-1.3c-1.3-1.3-2-2.7-2.3-4c-0.3-1.4-0.3-2.6,0.1-3.6
			c0.4-1,0.9-1.5,1.8-1.6c0.5,0,1,0.1,1.6,0.4c0.4,0.2,0.6,0.3,0.7,0.2c0.2,0,0.3-0.2,0.3-0.6c0-0.1,0-0.2,0.1-0.2
			C91.1,22.9,91.1,23,91.2,23.1z"/>
		<path fill="#F99B1C" d="M97.7,29.4c0.1,0.2-0.1,0.4-0.5,0.5c-0.2,0-0.4,0-0.6,0.1c-0.1,0-0.2,0-0.3,0c0.3,3.2,0.3,5,0.2,8.6
			c0,1,0,1.6,0,1.9c0.1,0.4,0.3,0.6,0.7,0.5c0.6-0.1,1-0.6,1.2-1.6c0.1-0.2,0.1-0.3,0.1-0.3c0.1,0,0.2,0,0.2,0.2
			c0.1,0.3,0,0.7-0.3,1.3c-0.3,0.7-0.8,1.1-1.5,1.2c-0.5,0.1-0.9-0.1-1.2-0.4c-0.4-0.3-0.6-0.8-0.7-1.3c-0.1-0.4-0.1-1,0-2
			c0.2-3.4,0.2-5,0.1-8c-0.3,0-0.4,0-0.7,0.1c-0.2,0-0.3,0-0.3-0.1c-0.1-0.2,0-0.3,0.1-0.3c0.1,0,0.1,0,0.1,0c0,0,0.1,0,0.3-0.1
			c0.1,0,0.3,0,0.4-0.1c0-0.5-0.1-0.7-0.1-1.1c0-0.4,0-0.6,0-0.6c0.1,0,0.1,0,0.3,0c0.1,0,0.2,0,0.3,0c0.1,0,0.3-0.1,0.4-0.3
			c0,0,0.1-0.1,0.1-0.1c0.1,0,0.1,0,0.1,0.1c0,0.2,0,0.4,0.1,0.6c0.1,0.5,0.1,0.7,0.1,1.2c0.2,0,0.2,0,0.4,0c0.2,0,0.4,0,0.6-0.1
			c0.1,0,0.1,0,0.2-0.1c0.1,0,0.1-0.1,0.1-0.1C97.6,29.2,97.6,29.3,97.7,29.4z"/>
		<path fill="#F99B1C" d="M105.4,32.6c0.9,2,1.1,4,0.3,6c-0.6,1.5-1.5,2.4-2.6,2.6c-0.8,0.1-1.5-0.2-2.3-1c-0.7-0.8-1.2-1.8-1.6-3.1
			c-0.3-1.1-0.5-2.2-0.4-3.4c0-1.1,0.2-2.1,0.5-2.9c0.5-1.3,1.1-1.9,2-2c0.7-0.1,1.4,0.2,2.1,0.9C104.1,30.4,104.8,31.3,105.4,32.6z
			 M103.3,31c-0.6-1.3-1.3-1.9-2-1.8c-0.9,0.1-1.2,1.2-1.1,3.4c0.1,2.1,0.4,4.1,0.9,6c0.4,1.4,1,2.1,1.9,2c1.1-0.1,1.6-1.3,1.6-3.4
			C104.6,34.8,104.1,32.8,103.3,31z"/>
		<path fill="#F99B1C" d="M110.9,28.7c0.2,0.3,0.3,0.6,0.3,0.9c0,0.3-0.1,0.4-0.3,0.4c-0.2,0-0.3,0-0.4-0.2c0-0.1-0.1-0.2-0.1-0.3
			c0-0.1-0.1-0.2-0.1-0.3c-0.2-0.4-0.5-0.6-0.7-0.5c-0.3,0.1-0.5,0.6-0.5,1.6c-0.1,1,0.1,2.4,0.4,4.3c0.3,1.8,0.3,2.7,0.5,4.5
			c0,0.4,0,0.7-0.1,0.7c-0.3,0-0.5,0-0.6,0c-0.2,0-0.4,0.1-0.5,0.2c0,0-0.1,0-0.1,0c-0.1,0-0.2,0-0.2-0.1c0,0,0-0.1,0-0.1
			c0-0.1,0-0.2,0-0.3c-0.3-4.6-0.6-6.7-1.6-10.6c-0.1-0.1-0.2-0.2-0.3-0.2c0,0,0,0-0.1,0c0,0-0.1,0-0.2,0c-0.1,0-0.1,0-0.2,0
			c-0.2,0-0.3,0-0.3-0.1c-0.1-0.1,0.2-0.2,0.7-0.3c0.5-0.1,0.9-0.2,1-0.4c0.1,0,0.1-0.1,0.1-0.1c0.1,0,0.1,0,0.2,0.1
			c0,0.1,0.2,0.4,0.3,0.9c0.3,0.9,0.4,1.4,0.6,2.3c-0.1-2.3,0.1-3.4,0.8-3.6C110,27.7,110.5,28,110.9,28.7z"/>
		<path fill="#F99B1C" d="M117.9,28.1c0.3,0.4,0.6,1.1,1,2.2c0.7,2,1,3,1.5,5.1c0.1,0.6,0.3,1,0.4,1.2c0.2,0.4,0.4,0.6,0.7,0.5
			c0.3-0.1,0.7-0.6,0.9-1.5c0-0.1,0.1-0.1,0.1-0.1c0.1,0,0.1,0,0.2,0.1c0.1,0.2,0.1,0.6-0.1,1.1c-0.3,0.7-0.7,1.1-1.4,1.2
			c-0.4,0.1-0.8,0-1.1-0.2c-0.4-0.2-0.6-0.5-0.8-0.9c-0.2-0.3-0.3-0.9-0.5-1.7c-0.5-2-0.7-3-1.4-4.9c-0.4-1.2-0.8-1.9-1-2.3
			c-0.4-0.6-0.8-0.8-1.2-0.7c-0.5,0.1-0.7,0.7-0.6,2c0,0.9,0.3,2.2,0.7,3.8c0.5,2.1,0.7,3.1,1.1,5.4c0.1,0.3,0,0.4-0.1,0.5
			c0,0-0.2,0-0.4,0.1c0,0-0.1,0-0.2,0c-0.1,0-0.3,0-0.5,0.1c0,0-0.1,0-0.1,0c-0.1,0-0.1,0-0.2-0.1c0,0,0-0.1,0-0.2
			c0-0.2,0-0.3,0-0.4c-0.6-4.2-1.1-6.2-2.5-10c0-0.1,0-0.2-0.1-0.2c-0.1-0.1-0.3-0.1-0.5-0.1c-0.3,0-0.5,0-0.7-0.2
			c-0.1-0.1-0.1-0.2,0.1-0.2c0.1,0,0.2,0,0.4,0c0.2,0,0.3,0,0.4,0c0.6-0.1,0.9-0.3,1-0.4c0-0.1,0.1-0.1,0.1-0.1c0.1,0,0.1,0,0.2,0.1
			c0,0,0.1,0.1,0.1,0.1c0.4,0.9,0.6,1.4,1,2.4c0-0.2,0-0.4,0-0.7c-0.1-1.5,0.2-2.2,0.9-2.4c0.4-0.1,0.9,0,1.4,0.3
			C117,27.1,117.4,27.6,117.9,28.1z"/>
		<path fill="#F99B1C" d="M121.1,25.4c0,0,0.1,0.1,0.2,0.3c0.1,0.2,0.3,0.6,0.6,1.3c1.3,2.7,1.9,4.2,2.7,7.1c0.3,1,0.5,1.6,0.6,1.9
			c0.3,0.5,0.6,0.7,0.9,0.6c0.2,0,0.4-0.2,0.6-0.5c0.2-0.3,0.2-0.6,0.2-1c0-0.2,0-0.4,0.1-0.4c0.1,0,0.1,0,0.2,0.1
			c0.1,0.2,0.2,0.6,0.1,1.1c-0.1,0.8-0.6,1.2-1.2,1.3c-0.4,0.1-0.9,0-1.3-0.3c-0.5-0.3-0.8-0.7-1.1-1.2c-0.3-0.5-0.5-1.2-0.8-2.3
			c-0.8-2.6-1.2-3.9-2.3-6.3c-0.2-0.3-0.3-0.5-0.3-0.7c0-0.1,0-0.1-0.1-0.2c-0.1-0.1-0.4-0.2-0.9-0.1c-0.1,0-0.2-0.1-0.3-0.1
			c-0.1-0.1-0.1-0.2,0-0.2c0,0,0.1,0,0.3,0c0.2,0,0.4,0,0.8-0.1c0.4-0.1,0.7-0.2,0.8-0.4c0.1-0.1,0.1-0.1,0.1-0.1
			C120.9,25.2,121,25.3,121.1,25.4z M118,20.9c0.6,0.6,0.8,1,0.4,1.1c-0.2,0-0.5,0-0.8-0.2c-0.3-0.2-0.6-0.4-0.9-0.6
			c-0.6-0.6-0.7-0.9-0.3-1.1C116.8,20,117.4,20.2,118,20.9z"/>
	</g>
</g>
<g>
	<g>
		<path fill="#FFCD5D" d="M54,5.6c0,0-0.1,0.2-0.4,0.6c-0.1,0.2-0.3,0.5-0.5,0.9c-0.2,0.4-0.3,0.5-0.5,0.9c-0.5,0.7-0.7,1.2-0.8,1.3
			c-0.1,0.1-0.2,0.2-0.3,0.2c-0.1,0-0.2,0-0.2-0.1c0,0,0.1-0.2,0.2-0.4c0.3-0.6,0.4-1,0.5-1.3c0.1-0.5-0.1-0.8-0.5-1
			c-0.4-0.2-1-0.1-1.7,0.1c-1,0.4-2.1,1-3.3,1.8c-1.2,0.8-2.4,1.7-3.6,2.5c-1.2,0.9-2.4,1.6-3.5,2.3c-0.8,0.5-1.3,0.9-1.6,1.3
			c-0.4,0.4-0.3,0.8,0.2,1.1c0.5,0.3,1.3,0.7,2.4,0.8c1.8,0.3,3.2,0.1,4.2-0.6c0.7-0.5,1.1-1,1.2-1.4c0.1-0.2-0.2-0.3-0.7-0.3
			c-0.1,0-0.2,0-0.3,0c-0.2,0-0.4,0-0.6,0.1c-0.3,0-0.4,0-0.4-0.1c0-0.1,0.2-0.1,0.4-0.1c0.1,0,0.3,0,0.4,0c1.1,0,1.7,0,2.8,0
			c1.3,0,2,0.1,3.3,0.1c0.3,0,0.4,0.1,0.4,0.2c0,0.1-0.3,0.2-0.8,0.2c-0.3,0-0.5,0-0.8,0c-0.4,0-0.7,0-0.8,0.1
			c-0.1,0.1-0.3,0.2-0.5,0.5c-0.3,0.4-0.4,0.5-0.6,0.9c-0.2,0.3-0.8,0.6-1.9,0.8c-1.7,0.4-3.5,0.3-5.5,0c-1.9-0.3-3.3-0.8-4.1-1.2
			c-0.9-0.4-1-0.8-0.5-1.2c0.5-0.4,1.4-0.7,2.7-1.3c1.3-0.6,2.7-1.3,4.3-2.3c2.8-1.7,5.2-3.5,7.5-4.4c1-0.4,1.7-0.5,2.3-0.2
			c0.3,0.1,0.6,0.2,0.8,0.1c0.3-0.1,0.5-0.3,0.8-0.6C53.8,5.6,53.8,5.6,54,5.6C54,5.5,54,5.5,54,5.6z"/>
		<path fill="#FFCD5D" d="M57.7,10.1c0,0-0.1,0.1-0.1,0.3c-0.1,0.2-0.3,0.6-0.7,1.1c-1.3,2.3-2,3.3-3.5,5.3
			c-0.5,0.7-0.7,1.1-0.8,1.2c0,0.4,0.2,0.6,0.7,0.7c0.3,0.1,0.7,0.1,1.2,0c0.4-0.1,0.8-0.2,1-0.4c0.2-0.1,0.3-0.2,0.4-0.2
			c0.1,0,0.1,0.1,0.1,0.2c0,0.2-0.3,0.4-0.8,0.6c-0.8,0.3-1.6,0.3-2.5,0.2c-0.6-0.1-1.1-0.3-1.5-0.6c-0.4-0.3-0.5-0.6-0.5-1
			c0.1-0.3,0.4-0.8,0.9-1.5c1.3-1.7,2-2.6,3.2-4.6c0.1-0.2,0.2-0.4,0.4-0.5c0.1-0.1,0.1-0.1,0.1-0.1c0-0.1-0.3-0.2-1-0.2
			c-0.1,0-0.2-0.1-0.2-0.1c0-0.1,0.1-0.2,0.2-0.2c0,0,0.1,0,0.4,0c0.2,0,0.6,0,1.1,0c0.7,0,1.1,0,1.4-0.2c0.2-0.1,0.3-0.1,0.3-0.1
			C57.7,9.9,57.7,9.9,57.7,10.1z M59.7,5.5c-0.1,0.6-0.4,1-1,1.1c-0.3,0.1-0.6,0-0.8-0.1c-0.2-0.2-0.3-0.4-0.2-0.7
			c0.1-0.6,0.4-1,1.2-1.1C59.5,4.6,59.8,4.9,59.7,5.5z"/>
		<path fill="#FFCD5D" d="M67.3,10.8c0,0.4-0.1,0.7-0.3,0.9c-0.2,0.3-0.5,0.4-0.8,0.4c-0.3,0-0.4-0.1-0.4-0.3c0-0.1,0-0.2,0.1-0.3
			c0-0.1,0.1-0.2,0.1-0.3c0-0.4-0.2-0.6-0.6-0.6c-0.5,0-1.2,0.5-2.1,1.4c-0.9,0.9-1.8,2.2-2.7,3.8c-0.9,1.5-1.3,2.1-2.1,3.6
			c-0.2,0.4-0.4,0.6-0.5,0.6c-0.3,0-0.6,0-0.8,0c-0.3,0-0.5,0-0.7,0c-0.1,0-0.1,0-0.1,0c-0.1-0.1-0.2-0.1-0.2-0.2c0,0,0,0,0.1-0.1
			c0.1-0.1,0.1-0.1,0.1-0.2c2-3,3.1-5.3,5-9c0-0.1-0.1-0.2-0.3-0.2c0,0,0,0-0.1,0c-0.1,0-0.2,0-0.3,0c-0.1,0-0.1,0-0.2,0
			c-0.2,0-0.4-0.1-0.4-0.2c0-0.1,0.4-0.2,1.3-0.2c0.9,0,1.5-0.1,1.8-0.3c0.1,0,0.2-0.1,0.2-0.1c0.1,0,0.1,0,0.1,0.1
			c0,0.1-0.1,0.4-0.4,0.9c-0.4,0.9-0.6,1.4-1.1,2.2c1.7-2.1,3.1-3.2,4.2-3.2C67,9.6,67.4,10,67.3,10.8z"/>
		<path fill="#FFCD5D" d="M77,14c0,2.2-0.8,4.2-2.7,5.9c-1.5,1.4-3,2-4.7,1.9c-1.1-0.1-2-0.6-2.7-1.4c-0.7-0.9-1-1.9-1-3.1
			c0-1,0.3-2.1,0.9-3.1c0.6-1.1,1.4-2,2.3-2.8c1.5-1.2,2.9-1.8,4.2-1.8c1,0,1.9,0.4,2.5,1.3C76.6,11.7,77,12.7,77,14z M75,12.2
			c0-1.4-0.6-2.1-1.8-2.1c-1.4,0-2.6,1.1-3.7,3.3c-1,2.1-1.6,4-1.6,5.8c0,1.4,0.6,2.1,1.8,2.2c1.5,0.1,2.7-0.9,3.7-2.9
			C74.5,16.2,75,14.1,75,12.2z"/>
		<path fill="#FFCD5D" d="M89.1,12.2c0,0.4-0.1,1.1-0.4,2.1C88,16.1,87.7,17,87,19c-0.2,0.6-0.3,1-0.3,1.2c0,0.4,0.2,0.5,0.7,0.5
			c0.5,0,1.2-0.5,2.1-1.3c0.1-0.1,0.2-0.1,0.2-0.1c0.1,0,0.2,0,0.2,0.1c0,0.2-0.2,0.5-0.8,0.9c-0.8,0.6-1.6,0.9-2.5,1
			c-0.6,0-1-0.1-1.4-0.3c-0.4-0.2-0.6-0.5-0.6-0.9c0-0.3,0.1-0.9,0.4-1.6c0.7-2,1.1-2.9,1.7-4.7c0.4-1.1,0.6-1.8,0.5-2.2
			c-0.1-0.6-0.4-0.9-0.9-0.9c-0.8-0.1-1.6,0.5-2.6,1.6c-0.7,0.9-1.4,2.1-2,3.8c-0.8,2.1-1.1,3.1-2,5.3c-0.1,0.3-0.2,0.4-0.3,0.4
			c0,0-0.2,0-0.6,0c-0.1,0-0.2,0-0.3,0c-0.1,0-0.4,0-0.7,0c-0.1,0-0.1,0-0.2,0c-0.1,0-0.2,0-0.2-0.1c0,0,0-0.1,0.1-0.2
			c0.1-0.2,0.1-0.3,0.2-0.4c1.5-4.2,2.3-6.2,3.6-10.1c0-0.1,0.1-0.2,0.1-0.2c0-0.1-0.2-0.2-0.6-0.2c-0.5,0-0.8-0.1-0.8-0.3
			c0-0.1,0.1-0.2,0.3-0.2c0.1,0,0.3,0,0.6,0.1c0.3,0,0.4,0.1,0.6,0.1c0.9,0,1.5,0,1.8-0.1c0.1,0,0.2-0.1,0.2-0.1
			c0.1,0,0.2,0.1,0.2,0.2c0,0.1,0,0.1,0,0.1c-0.3,1-0.5,1.5-0.8,2.5c0.1-0.2,0.3-0.4,0.5-0.7c1.2-1.4,2.3-2,3.4-1.9
			c0.7,0.1,1.2,0.3,1.7,0.7C88.8,11.1,89.1,11.6,89.1,12.2z"/>
		<path fill="#FFCD5D" d="M102.7,8.7C102.7,8.7,102.7,8.7,102.7,8.7c0,0.1-0.1,0.2-0.1,0.3c-0.4,2.4-0.8,4.3-2.1,8.7
			c-0.2,0.8-0.4,1.4-0.3,1.6c0.1,0.4,0.4,0.6,1,0.5c0.8-0.1,1.5-0.4,1.9-1.1c0.1-0.2,0.2-0.3,0.3-0.3c0.1,0,0.2,0,0.2,0.1
			c0.1,0.2-0.1,0.5-0.6,1c-0.6,0.5-1.5,0.9-2.5,0.9c-1.3,0.1-2.1-0.3-2.2-1.2c0-0.2-0.1-0.4-0.1-0.6c-0.5,0.8-1,1.4-1.6,1.7
			c-0.5,0.4-1.2,0.6-2,0.7c-1,0.1-1.8-0.1-2.5-0.7c-0.7-0.5-1.1-1.3-1.2-2.2c-0.2-1.9,0.6-3.8,2.2-5.3c1.5-1.3,2.9-1.7,4.3-1.5
			c1,0.2,1.8,0.7,2.3,1.5c0-0.1,0-0.1,0.1-0.2c0-0.1,0.1-0.2,0.1-0.3c0.5-1.9,0.7-2.8,1-4.2c0,0,0-0.1,0-0.1c0-0.1-0.1-0.1-0.2-0.2
			c-0.1-0.1-0.4-0.2-0.8-0.4c-0.3-0.1-0.4-0.2-0.4-0.3c0-0.1,0-0.1,0.2,0c0.1,0,0.2,0.1,0.3,0.1c0.2,0.1,0.4,0.2,0.8,0.4
			c0.3,0.2,0.6,0.3,0.7,0.3c0.5,0.2,0.9,0.4,1,0.5c0.1,0,0.1,0,0.2,0.1C102.6,8.6,102.6,8.6,102.7,8.7z M99.4,13.2
			c-0.1-0.3-0.3-0.6-0.7-0.9s-0.8-0.5-1.2-0.5c-1.2-0.2-2.2,0.5-3.2,2.3c-0.9,1.7-1.4,3.3-1.2,4.6c0.1,1.2,0.8,1.7,2,1.6
			c1-0.1,1.9-0.8,2.7-2c0.5-0.8,0.9-1.8,1.2-2.8c0.1-0.5,0.2-0.7,0.3-1.1C99.3,13.7,99.4,13.4,99.4,13.2z"/>
		<path fill="#FFCD5D" d="M113.3,15.3c0.7,0.6,0.5,1.1-0.8,2.1c-1,0.8-2.4,1.6-4,1.9c-1.1,0.2-2.1,0.2-2.9-0.2
			c-0.9-0.4-1.4-1-1.7-1.8c-0.2-0.7-0.2-1.4,0.1-2.1c0.3-0.7,0.8-1.2,1.4-1.5c1-0.5,2.1-0.5,3.3-0.3c0.9,0.2,1.8,0.5,2.6,0.8
			C112.1,14.7,112.8,15,113.3,15.3z M110.9,14.7c-0.4-0.5-1.2-0.8-2.2-1c-1.2-0.2-2,0.1-2.4,1.2c-0.4,1.1-0.4,2.3,0,3.4
			c0.3,0.8,1,1.1,2.2,0.9c1.4-0.3,2.4-1.1,2.8-2.1C111.6,15.9,111.4,15.3,110.9,14.7z"/>
	</g>
</g>
<g>
	<g>
		<path fill="#721011" d="M30.8,95.4c0,0.2-0.1,0.3-0.3,0.3c-0.2,0-0.4,0-0.5,0c-0.2,0-0.2,0-0.4,0c-0.9,0-1.4,0.1-1.6,0.4
			c-0.2,0.3-0.3,1.3-0.4,2.9c-0.1,7.4,0.4,10.9,2.7,17.1c0.3,0.7,0.5,1.3,0.7,1.7c0.2,0.3,0.4,0.4,0.7,0.5c0.3,0,1,0,1.8,0
			c0.2,0,0.3,0.1,0.4,0.2c0.1,0.2,0,0.3-0.2,0.3c-0.1,0-0.2,0-0.4,0c-1.3,0.1-2,0.2-3.3,0.3c-0.9,0.1-1.3,0.1-2.2,0.2
			c-0.1,0-0.2,0-0.3,0c-0.2,0-0.4-0.1-0.5-0.2c-0.2-0.2-0.1-0.3,0.1-0.3c0.2,0,0.3,0,0.6-0.1c0.1,0,0.1,0,0.2,0c0.2,0,0.4,0,0.6-0.1
			c0.2,0,0.3-0.1,0.3-0.2c0-0.1,0-0.3-0.2-0.5c-0.1-0.1-0.2-0.4-0.4-0.9c-1.3-2.9-1.7-4.5-2.4-7.7c0-0.2-0.1-0.6-0.2-1
			c-0.2-0.2-0.5-0.3-1-0.3c-1.8,0.1-2.7,0.1-4.5,0.2c-0.2,0-0.5,0-0.7,0s-0.5,0-0.7,0c-0.1,0-0.1,0-0.2,0c-0.3,0-0.3,0.2-0.1,0.7
			c0,0.1,0.1,0.4,0.3,1c0.9,3,1.5,4.4,2.9,7.2c0.5,0.9,0.8,1.4,0.9,1.5c0.2,0.2,0.7,0.4,1.4,0.5c0.5-0.1,0.7-0.1,1.2-0.2
			c0.1,0,0.2,0.1,0.3,0.3c0.2,0.2,0.1,0.3-0.1,0.3c-0.1,0-0.2,0-0.5,0c-0.3,0-0.5,0-0.6,0c-1.2,0.1-1.9,0.1-3.1,0.2
			c-0.3,0-0.6,0.1-1.1,0.2c-0.4,0.1-0.8,0.1-1,0.2c-0.3,0-0.6,0-0.7-0.2c-0.2-0.2-0.2-0.3,0-0.3c0.1,0,0.2,0,0.3,0
			c0.1,0,0.1,0,0.2,0c0.6-0.1,1-0.2,1.1-0.3c0.1-0.1,0.1-0.2,0-0.4c-0.1-0.3-0.6-1.1-1.2-2.3c-3.5-6.6-4.5-10.3-5-18.3
			c-0.1-1.1-0.1-1.8-0.2-1.9c-0.1-0.4-0.5-0.6-1.2-0.7c-0.1,0-0.5,0-1.3,0c-0.5,0-0.7-0.1-0.8-0.3c-0.1-0.2,0-0.3,0.2-0.3
			c0.9,0,1.3-0.1,2.2-0.1c1.4-0.1,2.6-0.1,3.6-0.1c0.6,0,0.9,0,1.5,0c0.2,0,0.4,0,0.6,0c0.2,0,0.3,0,0.3,0c0.4,0,0.6,0.1,0.7,0.3
			c0.1,0.3,0,0.4-0.4,0.5c-0.1,0-0.4,0-0.9,0c-0.1,0-0.4,0-0.7,0c-0.4,0-0.6,0.1-0.7,0.4c-0.1,0.2-0.1,1.1,0,2.5
			c0.2,3.5,0.5,5.2,1.2,8.4c0,0.1,0,0.1,0,0.2c0.1,0.2,0.6,0.3,1.3,0.3c1.5-0.1,2.2-0.1,3.7-0.2c0.1,0,0.3,0,0.4,0
			c0.7,0,1,0,1.7-0.1c0.1,0,0.2-0.1,0.2-0.3c0-0.2,0-0.6-0.1-1.4c-0.3-2.8-0.4-4.2-0.3-7.1c0-1.1,0-1.8-0.1-2.2
			c-0.1-0.3-0.5-0.5-1.1-0.6c-0.4,0-0.8,0-1.2,0c-0.5,0-0.8-0.2-0.8-0.5c-0.1-0.2,0.2-0.3,0.6-0.3c2.4,0.1,3.6,0.1,6,0.2
			c0.1,0,0.4,0,0.7,0c0.3-0.1,0.7-0.1,0.9-0.1c0.2,0,0.2,0,0.4,0C30.5,95.1,30.7,95.2,30.8,95.4z"/>
		<path fill="#721011" d="M41,107.2c0.4,1.2,0.1,2.1-0.6,2.9c-0.7,0.7-1.9,1.1-3.4,1.1c-0.6,0-1.2,0-1.9-0.1
			c0.1,1.7,0.6,3.1,1.3,4.5c1,1.8,2.2,2.6,3.4,2.5c0.9-0.1,1.5-0.7,1.8-1.9c0.1-0.3,0.1-0.4,0.2-0.4c0.1,0,0.1,0,0.2,0.1
			c0.2,0.4,0.1,1-0.3,1.6c-0.4,0.8-1.1,1.2-1.9,1.2c-1,0.1-2-0.2-3.1-0.9c-1.1-0.7-2.1-1.6-2.7-2.8c-1.3-2.3-1.5-4.7-0.2-7
			c1.1-2.1,2.6-3,4.2-3C39.5,104.9,40.5,105.7,41,107.2z M38.8,106.6c-0.2-0.7-0.6-1-1.2-1.1c-0.6,0-1.1,0.2-1.5,0.8
			c-0.7,1-1.1,2.4-1.1,4.3c0.2,0,0.5,0,0.7,0c1,0,1.8-0.4,2.4-1.1C39,108.7,39.2,107.7,38.8,106.6z"/>
		<path fill="#721011" d="M50.9,107c0.1,0.4,0,0.8-0.1,1c-0.2,0.3-0.4,0.4-0.7,0.4c-0.3,0-0.5-0.1-0.5-0.4c0-0.1,0-0.2,0-0.3
			c0-0.1,0-0.2,0-0.3c-0.1-0.5-0.4-0.8-0.8-0.8c-0.5,0-1.2,0.6-1.8,1.7c-0.7,1.1-1.1,2.6-1.1,4.5c0,1.8,0,2.7,0.1,4.5
			c0,0.4,0,0.6-0.1,0.6c-0.3,0-0.6-0.1-0.7-0.1c-0.3,0-0.4,0-0.6,0.1c-0.1,0-0.1,0-0.1,0c-0.1,0-0.2,0-0.3-0.1c0,0,0-0.1,0-0.1
			c0-0.1,0-0.2,0-0.3c-0.6-4.3-0.6-6.9,0-11.5c0-0.2-0.2-0.3-0.4-0.3c0,0,0,0-0.1,0c-0.1,0-0.2,0-0.3,0c-0.1,0-0.2,0-0.3,0
			c-0.3,0-0.4-0.1-0.5-0.3c0-0.1,0.4-0.2,1.3-0.1c0.9,0.2,1.6,0.1,1.9,0c0.1,0,0.2-0.1,0.2-0.1c0.1,0,0.2,0.1,0.2,0.2
			c0,0.1,0,0.5-0.1,1.2c-0.1,1.1-0.2,1.7-0.3,2.7c0.9-2.4,2.2-3.9,3.5-3.8C50.2,105.6,50.7,106.1,50.9,107z"/>
		<path fill="#721011" d="M61.6,110.1c0,0.4-0.2,1.1-0.5,2c-0.6,1.7-0.9,2.6-1.4,4.2c-0.1,0.5-0.2,0.8-0.1,1
			c0.1,0.3,0.3,0.5,0.6,0.5c0.4,0,1-0.2,1.7-0.8c0.1,0,0.1,0,0.2,0c0.1,0,0.1,0.1,0.2,0.1c0,0.2-0.2,0.4-0.7,0.7
			c-0.6,0.4-1.3,0.5-2.1,0.5c-0.5,0-0.9-0.2-1.2-0.4c-0.4-0.2-0.6-0.5-0.7-0.9c-0.1-0.3,0-0.7,0.1-1.4c0.4-1.7,0.6-2.6,1.2-4.3
			c0.4-1.1,0.5-1.8,0.5-2.2c-0.1-0.6-0.4-1-1-1.2c-0.8-0.2-1.8,0.2-2.7,1.2c-0.7,0.8-1.2,2-1.5,3.6c-0.4,2-0.5,3-0.6,4.9
			c0,0.3-0.1,0.4-0.2,0.4c0,0-0.2,0-0.5,0c0,0-0.1,0-0.3,0c-0.1,0-0.3,0-0.6,0c0,0-0.1,0-0.2,0c-0.1,0-0.2,0-0.2-0.1
			c0,0,0-0.1,0-0.2c0-0.2,0-0.2,0-0.4c0.1-3.8,0.3-5.9,1.3-10c0-0.1,0.1-0.2,0.1-0.2c0-0.1-0.3-0.3-0.7-0.4
			c-0.5-0.1-0.8-0.3-0.9-0.5c0-0.1,0.1-0.2,0.3-0.2c0.1,0,0.3,0.1,0.6,0.2c0.3,0.1,0.5,0.2,0.6,0.2c1,0.2,1.6,0.3,1.9,0.2
			c0.1,0,0.2,0,0.2,0c0.1,0,0.2,0.1,0.2,0.2c0,0.1,0,0.1,0,0.1c-0.3,1-0.4,1.5-0.6,2.5c0.1-0.1,0.3-0.4,0.5-0.6
			c1.1-1.3,2.3-1.7,3.6-1.4c0.7,0.2,1.3,0.5,1.8,1.1C61.3,108.9,61.6,109.5,61.6,110.1z"/>
		<path fill="#721011" d="M75.8,111.7c0,0-0.1,0.2-0.3,0.4c-1.8,2.4-2.6,3.5-4.1,5.6c-0.3,0.5-0.5,0.9-0.5,1.2
			c0,0.3,0.2,0.5,0.6,0.6c0.6,0.1,1.2-0.2,1.9-0.7c0.1-0.1,0.2-0.2,0.3-0.2c0.1,0,0.1,0,0.1,0.1c0,0.1-0.2,0.3-0.6,0.6
			c-0.8,0.5-1.6,0.6-2.5,0.5c-0.5-0.1-0.8-0.2-1.1-0.4c-0.3-0.2-0.4-0.5-0.4-0.8c0-0.2,0.1-0.4,0.2-0.7c-1,1.1-2.1,1.5-3.3,1.3
			c-0.8-0.1-1.4-0.4-2-0.9c-0.6-0.5-0.9-1.2-1-2c-0.1-0.9,0.1-1.8,0.7-2.7c0.6-1,1.4-1.8,2.5-2.4c1.5-0.9,3-1.2,4.3-0.8
			c1.4,0.3,2.1,1.1,2.1,2.2c0.3-0.4,0.5-0.6,0.8-1.1c0.2-0.2,0.3-0.3,0.4-0.3c0,0,0.1,0,0.3,0.1c0.2,0.1,0.3,0.1,0.4,0.1
			c0.4,0.1,0.7,0.1,0.9,0.1c0.1,0,0.1,0,0.2,0C75.8,111.5,75.9,111.6,75.8,111.7z M72.2,112.8c0-0.5-0.1-0.9-0.4-1.3
			c-0.3-0.4-0.7-0.6-1.2-0.8c-0.9-0.2-1.8,0.1-2.6,0.8c-1,0.9-1.7,1.8-2.2,2.8c-0.5,1-0.7,1.9-0.6,2.7c0.1,1,0.5,1.5,1.4,1.6
			c0.5,0.1,1-0.1,1.6-0.5c0.6-0.4,1.1-0.9,1.5-1.5c0.8-1.2,1.2-1.9,2.2-3.2C72.1,113.3,72.2,113,72.2,112.8z M77.5,105.9
			c0,0.1-0.2,0.2-0.7,0.4c-1.8,0.6-2.7,1-4.4,1.6c-1.1,0.4-1.7,0.6-1.8,0.6c-0.1,0-0.1,0-0.1-0.1c0,0,0-0.1,0.1-0.1
			c0.1,0,0.1-0.1,0.2-0.1c1.5-1.2,2.3-1.8,4-3.1c0.9,0.2,1.3,0.4,2.2,0.6C77.4,105.7,77.6,105.8,77.5,105.9z"/>
		<path fill="#721011" d="M87.8,115c-0.1,0.3-0.6,0.8-1.3,1.5c-1.4,1.3-2.1,1.9-3.4,3c-0.4,0.3-0.6,0.5-0.6,0.7
			c-0.1,0.2,0,0.3,0.4,0.4c0.4,0,1.2-0.1,2.3-0.5c0.1,0,0.2,0,0.2,0c0.1,0,0.1,0,0.1,0.1c-0.1,0.1-0.4,0.3-1.1,0.5
			c-0.9,0.3-1.7,0.3-2.5,0.3c-0.5,0-0.8-0.1-1.1-0.3c-0.3-0.2-0.3-0.4-0.3-0.6c0.1-0.2,0.3-0.5,0.8-0.9c1.2-1.1,1.9-1.7,3.2-3
			c0.8-0.8,1.3-1.3,1.4-1.6c0.2-0.5-0.1-0.7-0.7-0.8c-0.8-0.1-2,0.2-3.3,1c-1,0.6-2,1.4-2.9,2.4c-1.2,1.3-1.7,1.9-2.8,3.1
			c-0.1,0.2-0.2,0.2-0.4,0.2c0,0-0.2,0-0.5-0.1c0,0-0.1,0-0.3,0c-0.1,0-0.3,0-0.6-0.1c0,0-0.1,0-0.2,0c-0.1,0-0.2,0-0.1-0.1
			c0,0,0-0.1,0.1-0.1c0.1-0.1,0.1-0.1,0.2-0.2c1.8-2.3,2.9-3.6,5.2-6.5c0.1-0.1,0.1-0.1,0.2-0.2c0-0.1-0.2-0.2-0.6-0.3
			c-0.5-0.1-0.8-0.2-0.8-0.4c0-0.1,0.1-0.1,0.3-0.1c0.1,0,0.3,0.1,0.6,0.2c0.3,0.1,0.5,0.1,0.6,0.2c1,0.2,1.7,0.2,2,0.1
			c0.1,0,0.2,0,0.3,0c0.1,0,0.2,0.1,0.1,0.2c0,0,0,0.1-0.1,0.1c-0.6,0.7-0.9,1.1-1.5,1.8c0.2-0.1,0.4-0.2,0.7-0.4
			c1.6-0.9,3.1-1.3,4.4-1.1c0.7,0.1,1.3,0.3,1.7,0.6C87.9,114.1,88,114.5,87.8,115z"/>
		<path fill="#721011" d="M110.6,107.7c0,0.1-0.1,0.1-0.2,0.2c-0.1,0.1-0.4,0.3-0.6,0.6c-5.6,5.6-8.4,7.8-13.8,11.4
			c-1,0.7-1.6,1.1-1.7,1.2c-0.3,0.3-0.2,0.4,0.3,0.5c0.7,0.1,1.6-0.2,2.7-0.7c0.3-0.2,0.6-0.3,0.6-0.3c0.1,0,0.1,0.1,0,0.1
			c-0.2,0.2-0.7,0.4-1.6,0.7c-1,0.4-2,0.5-2.9,0.4c-1.1-0.1-1.4-0.4-0.9-1.1c0.1-0.1,0.2-0.3,0.4-0.5c-1,0.5-1.9,0.9-2.6,1
			c-0.7,0.2-1.4,0.2-2.1,0.2c-0.8-0.1-1.4-0.3-1.7-0.7c-0.3-0.4-0.3-0.9,0-1.5c0.7-1.3,2.3-2.6,5-3.8c2.4-1.1,4.6-1.7,6.3-1.6
			c1.2,0.1,1.8,0.5,1.6,1.3c0.1-0.1,0.2-0.1,0.3-0.2c0.2-0.1,0.2-0.2,0.4-0.3c2.7-2.2,4-3.4,6.7-6.1c0.1-0.1,0.2-0.2,0.2-0.2
			c0.1-0.1,0-0.2-0.1-0.2c-0.1,0-0.5,0-1.1,0c-0.4,0-0.6,0-0.5-0.1c0-0.1,0.2-0.1,0.4-0.1c0.1,0,0.2,0,0.4,0c0.3,0,0.7,0,1.2,0
			c0.5,0,0.9-0.1,1.1-0.1c0.8-0.1,1.3-0.1,1.6-0.2c0.1,0,0.2-0.1,0.3-0.1C110.6,107.6,110.7,107.6,110.6,107.7z M99.1,115.7
			c0.2-0.3,0.2-0.6-0.1-0.8c-0.2-0.3-0.6-0.4-1.1-0.4c-1.4-0.1-3.2,0.7-5.5,2.2c-2.1,1.4-3.3,2.4-3.9,3.3c-0.5,0.8-0.3,1.2,0.8,1.2
			c0.9,0.1,2.1-0.2,3.7-1.1c1.1-0.6,2.3-1.3,3.4-2.2c0.5-0.4,0.8-0.6,1.4-1.1C98.6,116.2,99,115.8,99.1,115.7z"/>
		<path fill="#721011" d="M113.9,114.8c-0.7,0.9-1.8,1.6-3.2,2.2c-1.5,0.6-3,0.9-4.5,1c-0.6,0-1.2,0-1.8,0c-1.5,1-2.6,1.8-3.3,2.6
			c-1,1-0.9,1.5,0.3,1.6c0.9,0.1,2.3-0.2,4-1c0.4-0.2,0.6-0.3,0.7-0.3c0.1,0,0.1,0,0,0.1c-0.3,0.3-1.1,0.6-2.3,1
			c-1.4,0.4-2.4,0.6-3.3,0.5c-1-0.1-1.6-0.3-1.8-0.8c-0.2-0.4,0-1,0.6-1.6c1.2-1.3,3.3-2.5,6.6-4.1c2.9-1.3,5.3-2.3,6.8-2.5
			C114.3,113.2,114.8,113.7,113.9,114.8z M112.3,114.6c0.4-0.5,0.3-0.7-0.3-0.6c-0.6,0.1-1.3,0.3-2.2,0.8c-1.5,0.8-3.2,1.8-5,2.9
			c0.2,0,0.4,0,0.7,0c1,0,2.1-0.3,3.5-0.9C110.5,116.2,111.6,115.4,112.3,114.6z"/>
		<path fill="#721011" d="M125.3,111.9c-0.3,0.4-0.9,0.8-1.8,1.4c-0.6,0.4-1.3,0.8-1.9,1.1c-5.5,3.2-9.8,5.2-13,6.7
			c0.8-0.1,1.3-0.2,1.7-0.2c0.7,0,1.4,0.3,2.2,0.9c0.3,0.2,0.6,0.3,0.8,0.3c0.2,0,0.6-0.1,1-0.3c0.4-0.2,0.7-0.4,1-0.7
			c0.3-0.3,0.3-0.5,0-0.7c-0.1-0.1,0-0.2,0.2-0.5c0.5-0.5,1.1-0.8,1.6-0.8c0.5,0,0.5,0.3-0.1,0.9c-1,1-2.2,1.7-3.6,2.4
			c-1.2,0.5-2,0.7-2.4,0.7c-0.2,0-0.5-0.1-1-0.4c-1.5-0.7-2.4-1-2.7-1c-0.2,0-0.4,0.1-0.7,0.3c-0.3,0.3-0.6,0.4-0.9,0.4
			c-0.2,0-0.2-0.1-0.1-0.2c0.2-0.2,0.7-0.4,1.4-0.7c0.6-0.2,1.4-0.6,2.5-1.1c3.8-1.8,7.3-3.7,10.3-5.4c0.5-0.3,1.2-0.7,2.1-1.2
			c-1.3,0.5-2.3,0.7-3.2,0.8c-1.1,0.1-1.8,0-2.3-0.5c-0.1-0.1-0.2-0.1-0.2-0.1c-0.1,0-0.3,0.1-0.4,0.2c-0.2,0.1-0.6,0.5-1.3,1.1
			c-0.3,0.2-0.5,0.4-0.7,0.4c-0.1,0-0.1,0,0-0.1c0,0,0.1-0.1,0.3-0.3c0.4-0.3,1.4-1.1,2.8-2.5c0.2-0.3,0.4-0.4,0.6-0.4
			c0.1,0,0.3,0,0.7,0.2c1.2,0.4,2.6,0.6,4.2,0.3c1.1-0.1,1.8-0.4,2.1-0.9c0,0,0.1-0.1,0.1-0.2c0,0,0-0.1,0.1-0.1
			c0.2-0.2,0.4-0.3,0.6-0.4C125.6,111.4,125.6,111.6,125.3,111.9z"/>
	</g>
</g>
</svg>
