<?xml version="1.0" encoding="utf-8"?>
<!-- Generator: Adobe Illustrator 18.0.0, SVG Export Plug-In . SVG Version: 6.00 Build 0)  -->
<!DOCTYPE svg PUBLIC "-//W3C//DTD SVG 1.1//EN" "http://www.w3.org/Graphics/SVG/1.1/DTD/svg11.dtd">
<svg version="1.1" id="Layer_1" xmlns="http://www.w3.org/2000/svg" xmlns:xlink="http://www.w3.org/1999/xlink" x="0px" y="0px"
	 viewBox="0 0 143.8 142.9" enable-background="new 0 0 143.8 142.9" xml:space="preserve">
<g>
	<g>
		<path fill="#058EBA" d="M57.6,7.4c-0.2,1.9-1.8,3.7-4.8,5.1c-1.5,0.7-2.8,0.9-4.1,1.3c1.4-0.1,2.3,0.5,3,0.9
			c0.9,0.5,1.2,1.3,1.1,2.3c-0.1,1-0.7,1.9-1.7,2.8c-1,0.9-2,0.9-3.5,1.4c-1.8,0.7-5.2,0.1-10-0.6c-0.1,0-0.4-0.1-1-0.1
			c-0.6-0.1-1.1-0.1-1.6-0.2c-1.5-0.1-2.2-0.2-3.6-0.2c-1.6-0.1-2.5,0-2.7,0c-0.1,0-0.1,0-0.2,0c-0.3,0-0.4,0-0.4-0.1
			c0.1-0.1,0.3-0.1,0.6-0.1c0.7,0,1,0,1.7,0c1,0,1.6,0,1.9,0c0.2,0,0.4-0.1,0.6-0.2c0.1-0.1,0.2-0.1,0.5-0.2c0.2-0.1,0.9-0.4,1.9-1
			c4.2-2.5,6.1-4,9.6-8c1.1-1.2,1.6-2,1.7-2.1c0.1-0.2-0.7,0-2.2,0.7c-0.3,0.1-0.4,0.2-0.4,0.1c0-0.1,0.2-0.2,0.6-0.4
			C45.1,8.4,45.4,8.3,46,8c2.3-1,3.4-1.5,5.8-2.3c2.1-0.7,3.5-0.9,4.4-0.6C57.3,5.4,57.8,6.2,57.6,7.4z M49.2,16.4
			c0.3-1.8-0.9-2.1-3.6-2c-0.6,0-1.2,0.1-1.9,0.2c-2.3,2.3-3.5,3.3-6,5c-0.5,0.3-0.7,0.5-0.7,0.5c-0.1,0.2,0.1,0.2,0.5,0.3
			c2.8,0.4,5,0.7,6.7,0.5C47.2,20.6,48.8,18.4,49.2,16.4z M54.4,7.5c0.2-1.5-0.8-2-3.1-1.2c-0.4,0.1-0.8,0.3-1.2,0.5
			c-0.3,0.3-0.6,0.8-1,1.3c-1.9,2.7-2.8,3.9-4.8,6c0.3,0,0.7,0,1.2,0c2.9-0.2,5.1-1.1,6.6-2.4C53.4,10.3,54.1,8.9,54.4,7.5z"/>
		<path fill="#058EBA" d="M74,10.7c0,0.1-0.1,0.3-0.3,0.7c-2,4-3.1,6-5.3,9.8c-0.5,0.9-0.8,1.6-0.8,2.1c0,0.6,0.3,0.9,1,0.9
			c1,0.1,2.1-0.5,3.2-1.6c0.2-0.2,0.4-0.4,0.5-0.4c0.1,0,0.2,0.1,0.2,0.1c0,0.2-0.3,0.6-0.9,1.2c-1.2,1-2.6,1.4-4.3,1.3
			c-0.8-0.1-1.5-0.3-2-0.7c-0.5-0.4-0.8-0.8-0.7-1.3c0-0.3,0.1-0.7,0.3-1.1c-1.7,1.9-3.7,2.6-6,2.3c-1.4-0.2-2.5-0.7-3.3-1.4
			c-0.8-0.7-1.2-1.6-1.1-2.5c0.1-1.1,0.8-2.2,1.9-3.5c1.1-1.3,2.5-2.5,4.1-3.7c2.3-1.6,4.2-2.5,6-2.5c1.9,0,2.9,0.7,3.1,2.3
			c0.4-0.7,0.6-1,1-1.7c0.2-0.4,0.4-0.5,0.5-0.5c0.1,0,0.2,0,0.5,0.1c0.3,0,0.4,0.1,0.5,0.1c0.6,0,1,0,1.3-0.1
			c0.1-0.1,0.2-0.1,0.3-0.1C74,10.5,74,10.6,74,10.7z M69.2,13.4c0-0.7-0.2-1.2-0.7-1.6c-0.5-0.4-1-0.6-1.8-0.6
			c-1.3,0-2.5,0.7-3.7,1.9c-1.4,1.4-2.6,2.8-3.5,4.3c-0.9,1.5-1.5,2.7-1.6,3.8c-0.1,1.3,0.6,2.1,2.1,2.3c0.9,0.1,1.8-0.2,2.8-0.8
			c1-0.6,1.9-1.5,2.6-2.6c1.3-2.1,1.9-3.2,3.2-5.4C69,14.1,69.2,13.7,69.2,13.4z"/>
		<path fill="#058EBA" d="M88.8,13c0,0.4-0.1,0.8-0.4,1.1c-0.3,0.3-0.7,0.4-1.1,0.4c-0.4,0-0.6-0.2-0.6-0.4c0-0.1,0-0.2,0.1-0.3
			c0-0.1,0.1-0.2,0-0.3c0-0.5-0.4-0.8-1-0.9c-0.7-0.1-1.7,0.4-3,1.6c-1.3,1.1-2.5,2.8-3.6,5.1c-1.1,2.1-1.6,3.1-2.8,5.3
			c-0.3,0.5-0.5,0.8-0.7,0.8c-0.5-0.1-1-0.1-1.2-0.1c-0.5,0-0.8,0-1.1,0.1c-0.1,0-0.1,0-0.2,0c-0.2,0-0.4-0.1-0.4-0.1
			c0,0,0-0.1,0.1-0.1c0.1-0.1,0.1-0.2,0.2-0.3c2.7-5.1,4-7.7,6.4-12.7c0-0.2-0.2-0.3-0.5-0.3c0,0,0,0-0.2,0c-0.1,0-0.3,0-0.5,0
			c-0.2,0-0.2,0-0.4,0c-0.4,0-0.6-0.1-0.6-0.3c0-0.1,0.7-0.2,2-0.2c1.3,0,2.2,0,2.6-0.1c0.2,0,0.3,0,0.3,0c0.1,0,0.2,0.1,0.2,0.2
			c0,0.1-0.1,0.5-0.4,1.2c-0.5,1.1-0.8,1.7-1.3,2.9c2.3-2.7,4.2-3.9,5.9-3.7C88.1,11.6,88.7,12.1,88.8,13z"/>
		<path fill="#058EBA" d="M101.1,15c0.2,0.8-0.2,1.2-1.2,1.2c-0.3,0-0.7-0.1-1-0.3c-0.3-0.2-0.5-0.4-0.5-0.7
			c-0.1-0.4,0.2-0.6,0.8-0.6c0.1,0,0.2,0,0.3,0c0.2,0.1,0.3,0.1,0.4,0.1c0.2,0,0.3-0.1,0.2-0.3c-0.1-0.3-0.3-0.5-0.9-0.8
			c-0.5-0.3-1-0.4-1.6-0.5c-1.8-0.2-3.3,0.5-4.8,2.6c-1.5,2.2-2.2,4.4-2.1,6.5c0.2,1.8,1.3,2.7,3.3,2.6c1.5-0.1,3-0.9,4.3-2.3
			c0.2-0.2,0.4-0.4,0.6-0.4c0.1,0,0.2,0,0.2,0.2c0,0.2-0.2,0.6-0.9,1.1c-1.4,1.2-3,1.9-5,2c-1.8,0.1-3.2-0.3-4.3-1.1
			c-1.1-0.8-1.7-1.9-1.8-3.3c-0.2-2.3,1.2-4.6,3.7-6.6c2.1-1.7,4.3-2.2,6.6-1.9c0.9,0.1,1.6,0.4,2.2,0.8C100.6,14,101,14.5,101.1,15
			z"/>
		<path fill="#058EBA" d="M115.6,16.3c0.8,0.6,0.3,1.3-1.8,3.1c-1.6,1.4-3.7,2.8-6,3.6c-1.6,0.6-3,0.7-4.2,0.2
			c-1.2-0.5-1.9-1.4-2.1-2.6c-0.2-1,0-2.1,0.5-3.2c0.6-1.1,1.4-1.9,2.4-2.4c1.7-0.9,3.4-1,5.1-0.7c1.3,0.2,2.5,0.6,3.7,0.9
			C114.3,15.7,115.1,16,115.6,16.3z M112.4,15.7c-0.5-0.6-1.5-1-3-1.2c-1.8-0.2-3.1,0.2-4,2c-0.8,1.6-1.1,3.5-0.7,5.1
			c0.3,1.2,1.3,1.5,3,1c2.2-0.7,3.7-2.1,4.4-3.6C113,17.4,113,16.5,112.4,15.7z"/>
	</g>
</g>
<g>
	<g>
		<path fill="#07868C" d="M30,45.2c-0.1,0.2-0.5,0.3-1.2,0.3c0.7,0,0.4,0-1.1-0.2c-0.9-0.1-1.3-0.1-2.2-0.1
			c-1.5-0.1-2.3-0.1-3.8-0.2c-0.2,0.1-0.3,0.1-0.5,0.1c-0.3,0-0.4-0.2-0.3-0.4c0.1-0.2,0.3-0.3,0.5-0.3s0.4,0,0.6,0
			c0.1,0,0.2,0,0.3,0c0.5,0,1-0.1,1.5-0.2c0.3-0.1,0.9-0.7,1.6-1.8c1.2-1.8,1.4-2.7,2.5-4.5c0-0.1,0.1-0.1,0.1-0.3
			c0.1-0.2-0.2-0.3-0.9-0.3c-0.8-0.1-1.6-0.1-2.4-0.2C24,37.1,23.6,37,23.5,37c-0.2,0-0.3,0-0.4,0c-0.2,0.1-0.6,0.5-1.2,1
			c-1.9,1.7-2.8,2.6-4.8,4.4c-0.7,0.6-1.1,1-1.2,1.3c-0.2,0.5,0.2,0.7,1.2,0.8c0.1,0,0.3,0,0.5-0.1c0.3,0,0.4-0.1,0.5-0.1
			c0.3,0,0.3,0.1,0.2,0.4c-0.1,0.3-0.4,0.4-1,0.4c-0.6,0-0.9-0.1-1.5-0.1c-1.1,0-1.6,0.1-2.6,0.1c-1.2,0.1-2,0.1-2.3,0
			c-0.3,0-0.4-0.2-0.3-0.4c0.1-0.2,0.2-0.3,0.4-0.3c0.1,0,0.3,0,0.5,0c0.2,0,0.4,0.1,0.5,0.1c0.6,0,1.3-0.2,1.8-0.5
			c0.4-0.2,1.5-1.1,3.1-2.6c4.6-4.2,9.4-8.1,14.5-11.8c0.9-0.6,2.1-1.5,3.8-2.6c1.7-1.1,2.5-1.6,4.2-2.6c0.3-0.2,0.5-0.3,0.6-0.2
			c0.1,0,0.1,0.2,0,0.4c-0.3,0.4-0.7,0.8-1.2,1.4c-0.9,1-2.2,2.6-3.8,4.9c-2.8,4.1-4.1,6.3-6.4,11.1c-0.5,1.1-1,1.7-1.1,1.8
			c-0.4,0.6-0.2,1,0.5,1.1c0.7,0,1,0.1,1.7,0.1C30,44.9,30.1,45,30,45.2z M34.6,28.4c0.1-0.2,0.1-0.3,0.1-0.3
			c-0.1,0-0.3,0.1-0.5,0.3c-0.2,0.2-0.4,0.4-0.5,0.4c-0.2,0.1-0.7,0.5-1.6,1.1C30,31.5,29,32.3,26.8,34c-0.6,0.5-1.4,1.1-2.3,1.9
			c-0.1,0.1-0.2,0.2-0.3,0.2c-0.1,0.2,0,0.3,0.3,0.2c0.2,0,0.3,0,0.5,0c0.5,0,0.8,0.1,1.4,0.1c1.3,0.1,2.2,0.1,2.6,0
			c1.6-2.6,2.4-3.8,4.2-6.2c0.3-0.4,0.7-0.9,1.2-1.5C34.5,28.6,34.6,28.4,34.6,28.4z"/>
		<path fill="#07868C" d="M47.1,35.1c-0.5,1.5-1.1,3-2.1,4.6c-1,1.6-1.6,3.1-3.4,4.3c-2.7,1.7-4.7,2.5-6.2,2.3
			c-0.8-0.1-1.3-0.4-1.6-0.9c-0.2-0.5-0.1-1.2,0.4-2c0.6-1,1.3-2.5,2.7-4.4c1.3-1.7,1.9-2.5,3.2-4.2c0.4-0.6,0.7-0.9,0.8-1.1
			c0.2-0.4,0.1-0.6-0.3-0.6c-0.3,0-0.9,0.3-1.8,0.8c-0.8,0.6-1.5,1.1-2.1,1.7c-0.3,0.3-0.5,0.4-0.6,0.4c-0.2,0-0.2-0.1-0.1-0.2
			c0.2-0.4,1-1.1,2.4-2.1c1.3-0.9,2.4-1.4,3.2-1.4c0.5,0,0.9,0.2,1,0.5c0.2,0.3,0.1,0.9-0.1,1.4c-0.2,0.6-0.6,1.2-1.3,2.1
			c-1.2,1.6-1.7,2.4-2.9,4c-1,1.4-1.6,2.6-2.1,3.5c-0.7,1.1-0.6,1.7,0.2,1.8c1.2,0.1,3.7-0.8,5.7-3.1c2-2.3,3.3-4.5,3.9-6.5
			c0.2-0.7,0.2-1-0.1-1c0,0-0.1,0-0.3,0c-0.2,0-0.3,0-0.4,0c-0.5-0.1-0.6-0.3-0.4-0.8c0.1-0.3,0.3-0.6,0.6-0.8
			c0.3-0.2,0.6-0.3,0.9-0.2C47.2,33.4,47.4,34,47.1,35.1z"/>
		<path fill="#07868C" d="M54.2,34.6c0,0.1-0.1,0.2-0.2,0.3c-0.2,0.2-0.5,0.7-0.9,1.4c-1.9,3.1-2.9,4.7-4.8,8
			c-0.7,1.1-1.6,1.7-1.8,2c-0.4,0.6-0.3,0.9,0.2,1c0.4,0.1,0.9,0,1.5-0.2c0.6-0.2,1.2-0.5,1.7-0.8c0.3-0.2,0.6-0.3,0.6-0.3
			c0.1,0,0.1,0.1,0,0.2c-0.2,0.2-0.7,0.6-1.5,1c-1.3,0.6-2.4,0.8-3.4,0.7c-0.7-0.1-1.1-0.4-1.2-0.8c-0.2-0.4-0.1-0.9,0.3-1.5
			c0.3-0.5,1-1.3,1.7-2.5c1.8-2.9,2.7-4.3,4.5-7c0.2-0.3,0.3-0.6,0.5-0.7c0.1-0.1,0.1-0.1,0.1-0.2c0-0.2-0.3-0.4-1-0.5
			c-0.1-0.1-0.2-0.1-0.1-0.2c0-0.2,0.1-0.2,0.3-0.2c0,0,0.1,0,0.4,0.1c0.2,0.1,0.6,0.1,1.1,0.2c0.7,0.1,1.2,0.1,1.5,0
			c0.2-0.1,0.3-0.1,0.4-0.1C54.2,34.3,54.2,34.4,54.2,34.6z M57.1,29.4c-0.2,0.8-0.6,1.1-1.2,1c-0.3,0-0.5-0.2-0.7-0.4
			c-0.1-0.3-0.2-0.6-0.1-0.9c0.2-0.7,0.7-1.1,1.4-1C57.1,28.2,57.3,28.6,57.1,29.4z"/>
		<path fill="#07868C" d="M64.7,40.5c-0.1,2.5-0.5,5-4,6.8c-2.7,1.4-4.9,2-6.7,1.8c-1.2-0.1-1.8-0.7-1.9-1.7c-0.1-1,0.2-2.2,0.4-3.7
			c0.2-1.3,0.7-2.6,1.5-3.8c0.8-1.2,1.8-2.2,2.9-3c1.7-1.2,3.2-1.7,4.6-1.6c1,0.1,1.8,0.6,2.4,1.5C64.5,37.8,64.8,39,64.7,40.5z
			 M62.8,38.3c0.1-1.6-0.4-2.4-1.5-2.5c-1.4-0.1-2.8,0.9-4.3,3.3c-1.4,2.3-1.3,4.9-2.7,6.9c-1.1,1.5-1,2.4,0.3,2.5
			c1.6,0.2,4.7-0.6,6-3C61.8,42.8,62.6,40.4,62.8,38.3z M67.2,28.8c0,0.1-0.2,0.3-0.5,0.5c-1.4,1-2.1,1.6-3.6,2.6
			c-1,0.7-1.5,1.1-1.6,1c0,0-0.1,0-0.1-0.1c0,0,0-0.1,0.1-0.1c0.1-0.1,0.1-0.1,0.2-0.2c1.5-1.7,2.2-2.5,3.5-4.1
			c0.7,0.1,1,0.1,1.7,0.1C67,28.6,67.2,28.7,67.2,28.8z"/>
		<path fill="#07868C" d="M77.6,38.4c0.1,0.5-0.1,1.4-0.4,2.6c-0.7,2.4,0.8,4-1.9,6.1c-0.8,0.6-1.3,1-1.4,1.2
			C73.5,48.8,73.5,49,74,49c0.5,0,1.7-0.4,3.5-1.2c0.1-0.1,0.2-0.1,0.3-0.1c0.1,0,0.1,0.1,0.1,0.1c-0.2,0.2-0.8,0.6-1.8,1
			c-1.4,0.6-2.6,0.8-3.5,0.8c-0.6,0-1-0.2-1.1-0.4c-0.2-0.3-0.1-0.6,0.3-1c0.3-0.3,1.1-0.9,1.5-1.8c0.8-2.4,1.2-3.6,1.9-5.9
			c0.4-1.4,0.6-2.3,0.5-2.8c-0.1-0.7-0.4-1.1-1-1.1c-0.8,0-1.6,0.6-2.7,1.9c-0.8,1-1.5,2.5-2.2,4.4c-0.9,2.5-1.3,3.8-4,6
			c-0.3,0.3-0.6,0.4-0.7,0.4c0,0-0.2,0-0.6,0c-0.1,0-0.2,0-0.3,0c-0.2,0-0.4,0-0.8,0c-0.1,0-0.1,0-0.2,0c-0.1,0-0.2-0.1-0.1-0.2
			c0,0,0.1-0.1,0.2-0.2c0.2-0.2,0.3-0.3,0.5-0.4c5.1-4.2,4.2-7.1,5.8-11.6c0.1-0.1,0.1-0.2,0.1-0.3c0-0.1-0.2-0.2-0.6-0.3
			c-0.5,0-0.8-0.2-0.8-0.4c0-0.1,0.1-0.2,0.3-0.2c0.1,0,0.3,0,0.6,0.1c0.3,0.1,0.5,0.1,0.6,0.1c0.9,0,1.5,0,1.8-0.2
			c0.1-0.1,0.2-0.1,0.2-0.1c0.1,0,0.2,0.1,0.2,0.2c0,0.1,0,0.1,0,0.1c-0.3,1.1-0.5,1.7-0.9,2.9c0.1-0.2,0.3-0.4,0.6-0.8
			c1.2-1.6,2.4-2.3,3.5-2.3c0.7,0,1.2,0.3,1.7,0.7C77.2,37.1,77.5,37.7,77.6,38.4z"/>
		<path fill="#07868C" d="M85.4,41.3c0,0.7,0,1.1,0.1,1.8c-2.2,0-3.4,0-5.6-0.1c0-0.7,0-1.1,0-1.8C82.1,41.3,83.2,41.3,85.4,41.3z"
			/>
		<path fill="#07868C" d="M101.8,49.1c-0.2,0.2-0.7,0.3-1.3,0.4c0.7-0.1,0.4-0.1-1,0c-0.9,0-1.3,0.1-2.2,0.1
			c-1.5,0.1-2.3,0.1-3.8,0.1c-0.2,0.1-0.4,0.1-0.5,0.1c-0.3,0-0.4-0.1-0.1-0.3c0.2-0.2,0.4-0.2,0.6-0.2s0.4,0,0.6,0
			c0.1,0,0.2,0,0.3,0c0.5,0,1.1-0.1,1.6-0.3c0.4-0.1,1.1-0.6,2.1-1.5c1.7-1.4-0.3-2.8-0.6-4.6c0-0.1,0-0.2-0.1-0.3
			c0-0.2-0.4-0.2-1.1-0.2c-0.8,0-1.6,0-2.5,0.1c-0.9,0-1.3,0-1.4,0c-0.2,0-0.3,0-0.4,0c-0.1,0.1-0.2,0.5-0.5,1
			c-0.6,1.7,0.2,2.9-2.2,4.4c-0.8,0.5-1.3,0.8-1.5,1c-0.4,0.4,0,0.6,1,0.6c0.1,0,0.3,0,0.6-0.1c0.3,0,0.5-0.1,0.6-0.1
			c0.3,0,0.3,0.1,0.1,0.3c-0.2,0.2-0.6,0.3-1.1,0.3c-0.6,0-0.9,0-1.5-0.1c-1.1,0-1.6,0.1-2.7,0.1c-1.3,0-2,0-2.3,0
			c-0.3,0-0.3-0.2-0.2-0.3c0.1-0.1,0.3-0.2,0.5-0.2c0.1,0,0.3,0,0.5,0.1c0.2,0,0.4,0.1,0.5,0.1c0.6,0,1.3-0.1,2-0.4
			c0.5-0.2,2.6-0.6,3.3-2.1c2.4-5.3,3.3-7.7,4.4-12.3c0.2-0.7,0.4-1.7,0.6-3c0.2-1.3,0.3-2,0.3-3.2c0-0.2,0.1-0.4,0.2-0.4
			c0.1,0,0.3,0.1,0.4,0.3c0.2,0.4,0.5,0.9,0.7,1.5c0.4,1.1,1.1,2.8,2,5.2c1.5,4.3,2.1,6.6,2.9,11.6c0.2,1.1-0.9,1.5-1,1.6
			c-0.5,0.5-0.5,0.8,0.2,0.8c0.7,0,1,0,1.7-0.1C101.9,48.9,101.9,49,101.8,49.1z M95,32.9c-0.1-0.2-0.2-0.3-0.2-0.3
			c-0.1,0-0.1,0.1-0.1,0.4c0,0.2,0,0.4,0,0.5c0,0.1-0.1,0.6-0.3,1.3c-0.4,1.7-0.6,2.6-1.2,4.5c-0.2,0.5-0.4,1.2-0.7,2
			c-0.1,0.1-0.1,0.2-0.1,0.2c0,0.2,0.2,0.2,0.4,0.2c0.2,0,0.3,0,0.5,0c0.5,0,0.8,0,1.4,0c1.4,0,2.2-0.1,2.4-0.3
			c-0.5-2.7-0.8-4-1.5-6.4c-0.1-0.4-0.3-0.9-0.5-1.6C95.1,33.1,95,33,95,32.9z"/>
		<path fill="#07868C" d="M107.2,35.2c0,0.1,0.1,0.2,0.1,0.4c0,0.3,0.1,0.8,0.2,1.6c0.5,3.5,0.6,5.4,0.5,9.1c0,1.3-1.7,1.7-2,1.9
			c-0.5,0.5-0.5,0.7,0,0.6c0.4,0,0.9-0.2,1.6-0.4c0.7-0.3,1.4-0.6,2-0.9c0.4-0.2,0.6-0.3,0.7-0.3c0.1,0,0.1,0,0,0.1
			c-0.2,0.2-0.8,0.5-1.8,1c-1.5,0.7-2.8,1-3.8,1.1c-0.7,0-1-0.1-1.1-0.4c-0.1-0.3,0.2-0.7,0.7-1.2c0.5-0.4,1.1-1.2,1.2-2.6
			c0.1-3.3,0.1-4.9-0.2-7.9c-0.1-0.4-0.1-0.7-0.1-0.9c0-0.1,0-0.2,0-0.2c-0.1-0.2-0.5-0.3-1.3-0.2c-0.2,0-0.3-0.1-0.3-0.2
			c-0.1-0.2-0.1-0.3,0.1-0.3c0,0,0.2,0,0.4,0c0.3,0,0.6,0,1.2-0.1c0.7-0.1,1.2-0.2,1.4-0.4c0.1-0.1,0.2-0.2,0.3-0.2
			C107,35,107.1,35.1,107.2,35.2z M105.2,29.3c0.6,0.8,0.6,1.3,0,1.4c-0.3,0.1-0.6,0-1-0.2c-0.4-0.2-0.7-0.5-0.9-0.8
			c-0.5-0.8-0.5-1.2,0.2-1.4C104.1,28.1,104.6,28.4,105.2,29.3z"/>
		<path fill="#07868C" d="M117.5,33.9c0.3,0.4,0.4,0.9,0.4,1.2c0,0.4-0.2,0.6-0.5,0.7c-0.3,0.1-0.5,0-0.6-0.2
			c-0.1-0.1-0.1-0.2-0.1-0.3c0-0.1-0.1-0.3-0.2-0.4c-0.3-0.5-0.7-0.7-1.1-0.6c-0.5,0.1-0.8,1-0.9,2.5c-0.2,1.5-0.1,3.5,0.1,6
			c0.2,2.4,0.1,3.6-2.6,5.4c-0.6,0.4-1,0.6-1.2,0.6c-0.3,0-0.6,0-0.8,0c-0.3,0-0.6,0.1-0.9,0.1c-0.1,0-0.1,0-0.2,0
			c-0.2,0-0.2,0-0.1-0.1c0,0,0.1-0.1,0.2-0.1c0.2-0.1,0.3-0.2,0.4-0.3c4.5-3.6,2.7-8.6,1.7-13.3c-0.1-0.2-0.3-0.2-0.5-0.2
			c0,0,0,0-0.1,0c-0.1,0-0.2,0.1-0.3,0.1c-0.1,0-0.1,0-0.2,0.1c-0.2,0.1-0.4,0-0.5-0.1c-0.1-0.1,0.3-0.3,1.1-0.6
			c0.8-0.3,1.3-0.5,1.5-0.8c0.1-0.1,0.2-0.1,0.2-0.1c0.1,0,0.2,0,0.3,0.1c0.1,0.1,0.2,0.5,0.4,1.3c0.3,1.3,0.5,1.9,0.7,3.2
			c0.1-3.3,0.5-5,1.6-5.4C116.2,32.6,116.9,33,117.5,33.9z"/>
		<path fill="#07868C" d="M126.4,31.6c0.9,1.2,1,2.1,0.6,3.2c-0.4,1-1.4,2.1-2.9,2.7c-0.5,0.2-1.2,0.4-1.9,0.5
			c0.4,2,0.9,3.8,1.6,5.4c1,2.2-1.4,2.1,0,1.6c1.1-0.4,2.8-1.4,5.1-2.9c0.5-0.3,0.8-0.5,0.8-0.5c0.1,0,0.1,0,0,0.1
			c-0.5,0.4-1.5,1-3,1.9c-1.8,1-3.2,1.7-4.2,2.2c-1.1,0.5-1.7,0.5-1.6,0.2c0-0.4,0.8-1.1,0.2-2.5c-1.2-2.7-1.4-5.6-0.9-8.6
			c0.5-2.7,1.2-4.2,2.5-4.8C124,29.5,125.3,30.2,126.4,31.6z M124.3,31.4c-0.5-0.7-1-0.9-1.5-0.7c-0.5,0.2-0.8,0.7-0.9,1.4
			c-0.2,1.3-0.1,3.1,0.2,5.3c0.2-0.1,0.5-0.1,0.7-0.2c0.9-0.4,1.6-1.1,2-2.2C125.3,33.8,125.1,32.6,124.3,31.4z"/>
	</g>
</g>
<g>
	<g>
		<path fill="#026F69" d="M35.2,51.6c-0.2,1.3-0.9,2.4-2,3.4c-1.2,1-2.6,1.7-4.5,2.1c-1.4,0.3-3.5,0.4-6.3,0.3
			c0.5,0.2,0.7,0.3,1.2,0.4c1.7,0.6,2.7,1.3,3.2,2.1c0.5,0.8,0.6,2,0.4,3.8c0,0.4-0.1,0.8-0.1,1.1c-0.2,1.4-0.3,2-0.5,3.4
			c-0.1,1-0.1,1.8-0.2,2.2c-0.2,0.9,0,1.4,0.7,1.5c0.2,0,0.4,0,0.7-0.1c0.1,0,0.1-0.2,0.2-0.5c0.1-0.3,0.2-0.5,0.5-0.7
			c0.3-0.2,0.5-0.3,0.8-0.2c0.4,0.1,0.6,0.3,0.5,0.6c-0.1,0.5-0.5,0.8-1.2,1.1c-0.7,0.3-1.4,0.3-2.3,0.2c-2.7-0.4-3.7-1.7-3.6-4.4
			c0-0.7,0.1-1.5,0.3-2.3c0.2-1.2,0.4-1.8,0.6-2.9c0.2-0.9,0.3-1.6,0.4-2.1c0.2-1.3-0.3-2.1-1.4-2.6c-0.4-0.2-1.4-0.4-3.1-0.6
			c-2.8,4.5-3.8,7-6.4,11.5c-0.1,0.2-0.2,0.3-0.2,0.3c0,0.4,0.4,0.6,1.4,0.8c0.4,0.1,0.6,0.1,0.7,0.1c0.4,0,0.6,0,0.9,0.1
			c0.2,0,0.2,0.1,0.2,0.2c0,0.2-0.3,0.3-0.9,0.3c-0.9-0.1-2.5-0.2-4.8-0.4c-1.1-0.1-1.8-0.1-1.9-0.1c-0.3,0-0.8,0-1.5,0
			c-0.7,0-1.1,0-1.5,0c-0.4,0-0.5-0.1-0.5-0.3c0-0.2,0.4-0.2,1.2-0.2c1.1,0,1.8-0.1,2.2-0.3c0.3-0.1,0.8-0.8,1.4-2
			c3.8-7,7.9-13.6,12.5-20.1c0.2-0.2,0.3-0.3,0.3-0.5c0.1-0.4-0.7-0.6-2.1-0.7c-0.2,0-0.3-0.1-0.3-0.2c0.1-0.2,0.2-0.2,0.4-0.3
			c0.2,0,1.1-0.1,2.3,0.1c0.7,0.1,1.3,0.2,1.7,0.2c0.7,0,1.1,0.1,1.9,0.1c2.6,0.2,4.1,0.4,4.6,0.5c0.7,0.1,1.4,0.3,2,0.7
			C34.8,48.2,35.5,49.7,35.2,51.6z M31.5,51.2c0.4-2.1,0-3.5-1.2-4.1c-0.4-0.2-1.3-0.4-2.7-0.5c-0.4,0-0.7,0.1-1,0.4
			c-0.4,0.4-0.7,0.7-0.9,1.1c-2.4,3.5-3.6,5.2-5.8,8.8c0.3,0,0.7,0.1,1.1,0.1c2.8,0.2,5.1-0.2,7.1-1.3C30,54.7,31.1,53.1,31.5,51.2z
			"/>
		<path fill="#026F69" d="M43.3,58c0,0.1-0.1,0.2-0.2,0.4c-0.2,0.3-0.6,0.9-1.1,1.8c-2.2,3.8-3.3,5.7-5.3,9.7
			c-0.7,1.3-1.1,2.1-1.2,2.4c-0.2,0.6,0.1,1,0.9,1.2c0.5,0.1,1.2,0.1,1.9-0.1c0.8-0.2,1.5-0.4,1.9-0.8c0.3-0.3,0.5-0.4,0.6-0.4
			c0.2,0,0.2,0.1,0.2,0.3c0,0.3-0.5,0.7-1.5,1.1c-1.4,0.6-2.8,0.8-4.3,0.5c-1-0.2-1.7-0.5-2.2-1.1c-0.5-0.5-0.5-1-0.5-1.8
			c0-0.7,0.4-1.7,1.2-3.1c1.9-3.5,2.9-5.2,4.9-8.5c0.2-0.4,0.4-0.7,0.6-0.9c0.1-0.1,0.1-0.2,0.1-0.3c0-0.2-0.5-0.5-1.7-0.8
			c-0.2-0.1-0.3-0.2-0.3-0.3c0-0.2,0.1-0.3,0.4-0.3c0,0,0.2,0.1,0.6,0.2c0.4,0.1,1,0.2,1.8,0.4c1.1,0.2,1.9,0.2,2.4,0.1
			c0.3-0.1,0.5-0.1,0.6-0.1C43.2,57.6,43.3,57.8,43.3,58z M50,49.5c0,0.1-0.3,0.3-0.8,0.6c-2.3,1.3-3.5,1.9-5.9,3.1
			c-1.5,0.8-2.4,1.2-2.6,1.2c-0.1,0-0.1,0-0.1-0.1c0-0.1,0-0.1,0.1-0.2c0.1-0.1,0.2-0.1,0.3-0.2c2.3-2.1,3.4-3.1,5.5-5.2
			c1.1,0.2,1.7,0.3,2.8,0.4C49.8,49.2,50,49.3,50,49.5z"/>
		<path fill="#026F69" d="M60.3,67.1c0,3.4-1.5,6.3-4.5,8.5c-2.3,1.7-5.6,1.7-8.1,1.1c-1.7-0.4-2.9-1.2-3.7-2.5
			c-0.7-1.2-1.3-2.9-1.3-4.8c0.1-1.6,0.6-3.1,1.6-4.6c1-1.5,2.3-2.6,3.8-3.5c2.4-1.4,4.6-1.9,6.8-1.6c1.6,0.2,2.9,0.9,3.9,2.3
			C59.8,63.4,60.3,65.1,60.3,67.1z M57.2,64c0-2.1-0.9-3.3-2.7-3.5c-2.2-0.3-4.2,1-6,3.9c-1.7,2.8-2.6,5.6-2.7,8.4
			c0,2.1,0.3,3,2.1,3.4c2.3,0.6,4.9-0.2,6.5-3C56.2,69.9,57.1,66.8,57.2,64z"/>
		<path fill="#026F69" d="M71.4,68.3c-0.1,1-0.2,1.5-0.4,2.4c-3.3-0.3-5-0.5-8.3-0.9c0.1-1,0.2-1.4,0.3-2.4
			C66.4,67.9,68,68.1,71.4,68.3z"/>
		<path fill="#026F69" d="M106.7,49.7c0.1,0.4,0,0.7-0.3,0.6c-0.1,0-0.3,0-0.5-0.1c-0.1,0-0.2,0-0.4,0c-0.2,0-0.3,0-0.4,0
			c-0.3,0-0.5,0-0.8,0.1c-0.1,0-0.2,0-0.4,0c-0.3,0-0.5,0.2-0.6,0.6c-0.2,1.1-0.4,2.3-0.6,3.7c-1.1,7.7-3.1,15.1-5.2,22.5
			c0,0.2-0.2,0.6-0.3,1.1c0,0.1,0,0.2-0.1,0.5c-0.1,0.2-0.4,0.5-0.8,0.8c-0.2,0.1-0.3,0.2-0.4,0.2c-0.2,0.2,0,0.4,0.7,0.3
			c0.2,0,0.3,0,0.6,0c0.4,0,0.6,0,1-0.1c0.3,0,0.5,0,0.8-0.1c0.1,0,0.1,0.1,0,0.1c-0.2,0.2-0.5,0.4-0.9,0.4c-0.5,0-0.7,0.1-1.1,0.1
			c-3.5,0.3-5.2,0.3-8.7,0.4c-0.3,0-0.4-0.1-0.3-0.2c0.2-0.2,0.6-0.4,1.4-0.4c0.8,0,1.4-0.1,2-0.2c0.3-0.1,0.7-0.3,1.3-0.7
			c1.8-1.3,1.5-3.9,2.1-5.9c2.1-7.4,4-14.7,5-22.3c0,0-0.7,2.1-2.7,6.4c-3.4,7.6-7.1,15.7-12.3,22.3c-0.9,0.5-1.5,0.8-1.6,0.8
			c-0.2,0-0.2-0.2,0-0.5c0.1-0.1,0.2-0.2,0.3-0.4c0.3-0.4,0.4-0.6,0.4-1.2c0.2-7.7,0.1-15.3-0.2-23c-0.1-1.1-0.1-1.8-0.2-2.1
			c-0.1-0.6-0.2-1-0.3-1c0,0.1-0.1,0.2-0.1,0.4c-0.1,0.6-0.2,1.3-0.4,2.1c-1.8,8.1-4,16.4-7.2,24.1c-0.1,0.1-0.2,0.2-0.3,0.3
			c-0.2,0.3-0.1,0.5,0.1,0.5c0.2,0.1,0.9,0.2,2,0.2c0.3,0,0.4,0,0.7,0c0.2,0,0.3,0.1,0.2,0.2c-0.1,0.2-0.4,0.3-0.7,0.3
			c-0.3,0-0.5,0-0.7,0c-1.1-0.1-1.6-0.1-2.6-0.2c-1.9-0.2-3.4-0.3-4.3-0.4c-0.2,0-0.4,0-0.6-0.1c-0.3,0-0.4-0.1-0.3-0.2
			c0.1-0.2,0.4-0.3,0.8-0.3c0.1,0,0.3,0,0.5,0s0.6,0.1,1.3,0.1c0.9,0.1,1.6,0,1.9-0.2c0.4-0.2,1.2-0.9,1.8-2.7
			c2.6-7.8,5-15.7,6.8-23.7c0-0.3,0.1-0.6,0.2-1c0.1-0.1,0.1-0.2,0.1-0.3c0-0.1-0.2-0.2-0.5-0.4c-0.3-0.1-0.6-0.2-0.9-0.2
			c-0.4,0-1.1,0-2.2,0c-0.1,0-0.1,0-0.2,0c-0.2,0-0.3-0.1-0.3-0.4c0-0.3,0.1-0.4,0.4-0.4c0.2,0,0.3,0,0.5,0c0.3,0.1,1.6,0.1,3.8,0.1
			c1.9,0,3-0.1,3.1-0.1c0.1,0,0.1,0,0.2,0c0.2,0,0.2,0.1,0.3,0.4c0.1,0.4,0.2,1.2,0.3,2.3c0.6,6.8,0.9,13.6,0.9,20.4
			c0.1-0.2,0.4-0.7,0.9-1.5c0.4-0.6,0.5-0.9,0.9-1.5C93,63.6,96.3,57,99,50c1.1-0.1,1.7-0.1,2.8-0.1c1.7-0.1,2.6-0.2,4.3-0.4
			C106.4,49.4,106.6,49.5,106.7,49.7z"/>
		<path fill="#026F69" d="M122.3,57.6c0,0.1,0,0.4-0.1,1c-0.9,4.9-2.1,9.7-3.6,14.4c-0.5,1.4-0.6,2.6-1.1,2.9
			c-0.6,0.4-0.5,0.5,0.1,0.3c1-0.3,3.4-0.7,4.4-2.6c0.2-0.4,0.4-0.6,0.5-0.7c0.1,0,0.2,0,0.2,0.1c0,0.3-0.1,1-1.3,1.6
			c-2.3,1.1-4.1,2-5.7,2.5c-0.8,0.3-1.3,0.3-1.5,0.2c-0.2-0.1,0-0.4,0.5-0.8c0.3-0.2,0.2-0.9,0.4-1.6c-1.6,3.2-5.6,3.9-7.8,4.3
			c-1.4,0.3-2.2,0.1-2.4-0.4c-0.2-0.5-0.5-1.7-0.6-3.3c-0.1-1.8,0.4-3.8,1.2-5.9c0.9-2.2,2-4.2,3.5-6c2-2.5,3.8-3.8,5.7-4.2
			c1.9-0.4,3.2,0.2,3.8,2.2c0.2-1,0.3-1.5,0.6-2.5c0.1-0.5,0.2-0.8,0.4-0.8c0.1,0,0.2,0,0.5-0.1c0.3,0,0.4-0.1,0.5-0.1
			c0.6-0.2,1-0.4,1.3-0.6c0.1-0.1,0.2-0.2,0.2-0.2C122.2,57.4,122.3,57.5,122.3,57.6z M118.1,62.6c-0.1-0.9-0.5-1.5-1.1-1.9
			c-0.6-0.4-1.2-0.5-2-0.4c-1.3,0.3-2.4,1.3-3.4,3.2c-1.1,2.1-2.1,4.4-2.7,6.8c-0.7,2.4-1,4.4-1,6.2c0,2.1-0.4,2.3,1.1,2
			c0.9-0.2,2.1-0.7,3.9-1.5c1.8-0.8,1.9-2.8,2.5-4.5c1.1-3.3,1.6-4.9,2.4-8.1C118.1,63.5,118.2,62.9,118.1,62.6z"/>
		<path fill="#026F69" d="M137.2,53.7c0.2,0.6,0.1,1.2-0.1,1.8c-0.2,0.6-0.5,1-0.9,1.3c-0.4,0.2-0.6,0.2-0.7-0.1c0-0.2,0-0.3,0-0.5
			c0-0.2,0-0.4,0-0.5c-0.2-0.7-0.5-0.8-1.1-0.5c-0.7,0.4-1.5,1.2-2.4,3.2c-1,2.1-1.8,4.8-2.7,8.1c-0.9,3.1-0.2,5.4-3.7,7.1
			c-0.8,0.4-1.3,0.7-1.5,0.7c-0.5,0.1-0.8,0.2-1.1,0.3c-0.4,0.1-0.8,0.3-1.2,0.4c-0.1,0-0.1,0-0.2,0.1c-0.2,0.1-0.3,0.1-0.2,0
			c0,0,0.1-0.1,0.3-0.1c0.2-0.1,0.3-0.2,0.5-0.3c4.3-4.5,5.2-11.9,6.1-17.8c-0.1-0.2-0.2-0.3-0.6-0.2c0,0,0,0-0.2,0.1
			c-0.1,0.1-0.3,0.1-0.5,0.2c-0.2,0.1-0.2,0.1-0.4,0.1c-0.4,0.1-0.6,0.1-0.6-0.1c0-0.2,0.6-0.5,1.9-1c1.3-0.5,2.1-1,2.5-1.4
			c0.2-0.1,0.3-0.2,0.3-0.2c0.1-0.1,0.2,0,0.3,0.2c0,0.1,0,0.7-0.1,1.7c-0.2,1.7-0.3,2.6-0.6,4.4c1.6-4.5,3.1-6.6,4.7-7.6
			C136.1,52.3,136.8,52.5,137.2,53.7z"/>
	</g>
</g>
<g>
	<g>
		<path fill="#023F29" d="M38,127.4c0.1,0.1,0,0.9,0,2.1c0,0.2,0,0.2,0,0.4c0,0.1,0,0.1-0.1,0.1c-0.1,0-0.3-0.1-0.6-0.2
			c-0.4-0.2-0.6-0.2-1.1-0.4c-0.5-0.2-1-0.4-1.5-0.6s-0.7-0.3-0.7-0.3c0,0-0.2-0.1-0.6-0.2c-0.3-0.1-0.6-0.2-0.9-0.4
			c-0.6-0.2-0.8-0.3-1.4-0.6c-0.2-0.1-0.5-0.2-0.7-0.3c-0.2-0.1-0.3-0.1-0.3-0.1c-0.1-0.1-0.4-0.1-0.6-0.3c-0.3-0.1-0.5-0.2-0.6-0.3
			c-0.2-0.1-0.3-0.1-0.3-0.2c-0.1-0.1,0,0,0.3,0.1c0,0,0.3,0.1,0.8,0.3c0.2,0.1,0.3,0.1,0.3,0.1c0,0,0-0.1,0-0.1c0,0,0-0.1-0.1-0.3
			c-0.5-1.7-0.4-2.9-0.1-5.8c0-0.4,0-0.6,0-0.7c-0.1-0.1-0.5-0.2-1.2-0.2c0,0-0.2,0-0.6,0.1c-0.1,0-0.2,0-0.3-0.1
			c-0.1-0.1,0.3-0.2,1-0.2c0,0,0.3,0,0.9,0c0.3,0,0.7,0,1,0c0.7,0,1.5,0,2.3,0c0.2,0,0.2,0,0.4,0c0.1,0,0.1-0.1,0.2-0.1
			c0.1,0,0.2,0.1,0.3,0.2c0,0.1,0,0.2-0.2,0.2c0,0-0.2,0-0.5,0c-0.1,0-0.2,0-0.3,0c-0.5,0-0.8,0-0.9,0.1c-0.1,0.1-0.2,0.5-0.3,1.2
			c-0.4,3-0.4,4.3-0.1,6.2c0,0.1,0,0.2,0.1,0.3c0,0,0,0,0,0.1c0.1,0.1,0.4,0.3,0.9,0.5c1.6,0.6,2.7,1,3.3,1.1c0.8,0.1,1.3-0.2,1.5-1
			c0.1-0.3,0.1-0.5,0.1-0.7c0-0.1,0-0.1,0.1-0.1C37.9,127.2,38,127.3,38,127.4z"/>
		<path fill="#023F29" d="M45.8,125.6c0.1,0.7-0.1,1.3-0.8,1.6c-0.7,0.4-1.6,0.4-2.7,0.3c-0.4-0.1-0.9-0.2-1.4-0.3
			c-0.2,0.8-0.2,1.6,0.1,2.3c0.3,1,1,1.6,2,1.9c0.7,0.2,1.4,0,1.9-0.6c0.1-0.1,0.2-0.2,0.3-0.2c0.1,0,0.1,0.1,0.1,0.1
			c0.1,0.3-0.1,0.6-0.6,0.8c-0.5,0.3-1.2,0.3-1.9,0.1c-0.8-0.2-1.5-0.6-2.2-1.2s-1.1-1.1-1.4-1.8c-0.5-1.2-0.1-2.2,1.1-3.2
			c1.1-0.9,2.3-1.4,3.4-1.4C45,124.2,45.7,124.7,45.8,125.6z M44.3,125.2c-0.1-0.4-0.3-0.6-0.8-0.6c-0.4,0-0.8,0.1-1.2,0.4
			c-0.6,0.5-1.1,1.2-1.4,2.1c0.2,0,0.3,0.1,0.5,0.1c0.7,0.1,1.4,0,2-0.3C44.2,126.4,44.5,125.9,44.3,125.2z"/>
		<path fill="#023F29" d="M50.1,124.7c0,0.1,0,0.3-0.1,0.7c-0.7,2.7-1,4-1.5,6.3c-0.5,2.3-1.1,3.7-1.8,4.3c-0.5,0.4-1.1,0.4-1.9,0.1
			c-0.9-0.4-1.5-0.9-1.7-1.5c-0.1-0.2-0.1-0.3,0-0.4c0.1-0.1,0.2-0.1,0.4,0c0.2,0.1,0.3,0.2,0.5,0.3c0.2,0.1,0.2,0.3,0.3,0.4
			c0,0.1,0,0.2,0,0.3c0,0.1,0,0.2,0,0.2c0.1,0.2,0.3,0.4,0.6,0.5c0.4,0.2,0.7,0.2,0.9-0.1c0.3-0.3,0.5-1.3,0.8-3.1
			c0.5-2.8,0.8-4.3,1.6-7.6c0,0,0-0.1,0-0.1c0-0.1-0.2-0.2-0.5-0.2c-0.5-0.1-0.7-0.1-0.7-0.3c0-0.1,0-0.2,0.2-0.1c0,0,0.2,0,0.4,0.1
			c0.3,0,0.6,0.1,1.1,0.1c0.4,0,0.7,0,0.9-0.1c0.1,0,0.2-0.1,0.2,0C50,124.6,50.1,124.6,50.1,124.7z M51.3,120.6
			c0,0.3,0,0.6-0.2,0.8c-0.2,0.2-0.4,0.3-0.7,0.3c-0.5,0-0.9-0.3-0.9-0.8c0-0.3,0-0.6,0.2-0.8c0.2-0.2,0.4-0.3,0.7-0.3
			c0.2,0,0.5,0.1,0.6,0.3C51.2,120.1,51.3,120.3,51.3,120.6z"/>
		<path fill="#023F29" d="M60.1,125.6c0,0,0,0.2-0.1,0.5c-0.9,2.6-1.3,3.9-2.1,6.4c-0.2,0.6-0.3,1.1-0.2,1.4c0,0.4,0.2,0.6,0.6,0.7
			c0.5,0.1,1-0.2,1.4-1c0.1-0.2,0.2-0.2,0.2-0.2c0.1,0,0.1,0,0.1,0.1c0,0.2-0.1,0.4-0.4,0.7c-0.5,0.6-1.2,0.9-2,0.7
			c-0.4-0.1-0.7-0.2-1-0.5c-0.3-0.3-0.4-0.6-0.5-0.9c0-0.2,0-0.5,0-0.7c-0.7,1.2-1.5,1.7-2.6,1.5c-0.7-0.1-1.2-0.5-1.7-1
			c-0.5-0.5-0.8-1.2-0.9-1.9c-0.1-0.8,0-1.6,0.3-2.5c0.4-0.9,0.9-1.7,1.7-2.5c1-1,2.1-1.5,3.1-1.4c1,0.1,1.7,0.7,1.9,1.8
			c0.2-0.5,0.2-0.7,0.4-1.1c0.1-0.2,0.2-0.3,0.3-0.3c0,0,0.1,0,0.3,0.1c0.1,0,0.2,0.1,0.3,0.1c0.3,0,0.5,0,0.7,0c0.1,0,0.1,0,0.1,0
			C60.1,125.4,60.1,125.5,60.1,125.6z M57.6,127.2c0-0.5-0.2-0.9-0.5-1.2c-0.3-0.3-0.6-0.5-1-0.5c-0.7-0.1-1.3,0.3-1.8,1.1
			c-0.6,0.9-1.1,1.9-1.3,2.9c-0.3,1-0.4,1.9-0.2,2.7c0.1,1,0.6,1.5,1.3,1.6c0.4,0.1,0.8-0.1,1.2-0.5c0.4-0.4,0.8-1,1-1.7
			c0.5-1.4,0.7-2.1,1.2-3.5C57.6,127.6,57.7,127.4,57.6,127.2z"/>
		<path fill="#023F29" d="M69.7,128.5c0,0.4-0.2,0.9-0.5,1.8c-0.6,1.5-0.9,2.3-1.5,3.9c-0.2,0.5-0.2,0.8-0.2,0.9
			c0,0.3,0.2,0.5,0.5,0.5c0.4,0,0.9-0.3,1.7-0.9c0.1,0,0.1-0.1,0.2-0.1c0.1,0,0.1,0,0.1,0.1c0,0.2-0.2,0.4-0.6,0.7
			c-0.6,0.4-1.2,0.6-1.9,0.5c-0.4,0-0.8-0.2-1.1-0.4c-0.3-0.2-0.4-0.5-0.5-0.8c0-0.3,0.1-0.7,0.3-1.3c0.6-1.5,0.9-2.3,1.5-3.8
			c0.4-0.9,0.5-1.5,0.5-1.9c0-0.5-0.3-0.8-0.8-0.8c-0.6-0.1-1.4,0.3-2.2,1.2c-0.6,0.7-1.2,1.6-1.6,2.9c-0.6,1.6-0.8,2.4-1.4,4
			c0,0.2-0.1,0.3-0.2,0.3c0,0-0.2,0-0.4-0.1c0,0-0.1,0-0.2,0c-0.1,0-0.3,0-0.5-0.1c0,0-0.1,0-0.1,0c-0.1,0-0.1-0.1-0.1-0.1
			c0,0,0-0.1,0-0.1c0-0.1,0.1-0.2,0.1-0.3c0.9-3.1,1.4-4.7,2.5-7.8c0-0.1,0.1-0.1,0.1-0.2c0-0.1-0.2-0.2-0.5-0.3
			c-0.4-0.1-0.6-0.2-0.6-0.3c0-0.1,0.1-0.1,0.2-0.1c0.1,0,0.3,0.1,0.5,0.1c0.2,0.1,0.4,0.1,0.5,0.1c0.8,0.1,1.3,0.1,1.5,0
			c0.1,0,0.2,0,0.2,0c0.1,0,0.1,0.1,0.1,0.2c0,0,0,0.1,0,0.1c-0.3,0.8-0.4,1.2-0.7,2c0.1-0.1,0.3-0.3,0.5-0.5c1-1,2-1.5,3-1.4
			c0.6,0.1,1,0.3,1.4,0.7C69.5,127.5,69.7,127.9,69.7,128.5z"/>
		<path fill="#023F29" d="M79.4,131.1c0,1.5-0.7,2.8-2.2,4c-1.1,1-2.3,1.5-3.5,1.5c-0.8,0-1.5-0.3-2.1-1c-0.6-0.6-0.9-1.4-0.9-2.4
			c0-0.8,0.2-1.7,0.6-2.5s1-1.5,1.8-2.1c1.2-0.8,2.3-1.2,3.4-1c0.8,0.1,1.5,0.5,2,1.1C79.1,129.4,79.4,130.1,79.4,131.1z
			 M77.8,129.6c0-1-0.5-1.6-1.4-1.7c-1.1-0.1-2.1,0.6-3,2.2c-0.8,1.5-1.1,3-1.1,4.5c0,1.1,0.5,1.6,1.4,1.6c1.1,0,2-0.7,2.8-2.1
			C77.4,132.4,77.8,131,77.8,129.6z"/>
		<path fill="#023F29" d="M95.8,125.5c0,0.1-0.2,0.3-0.5,0.6c-0.3,0.3-0.6,0.8-1,1.4c-0.1,0.2-0.2,0.2-0.3,0.2c-0.1,0-0.1,0-0.1-0.1
			c0,0,0-0.1,0-0.1c0.1-0.2,0.1-0.4,0.1-0.5c0.1-0.5-0.1-0.8-0.5-1.1c-0.4-0.3-1-0.5-1.8-0.6c-0.9-0.1-1.6,0-2.2,0.3
			c-0.6,0.3-0.9,0.8-1,1.3c0,0.6,0.4,1.3,1.3,2.1c0.5,0.4,0.7,0.6,1.1,0.9c1,0.8,1.4,1.5,1.3,2.2c-0.1,0.9-0.7,1.7-1.7,2.4
			c-1,0.8-2.1,1.3-3.4,1.5c-0.8,0.1-1.4,0-1.9-0.1c-0.1,0-0.3-0.2-0.8-0.5c-0.1-0.1-0.3-0.1-0.4-0.1c-0.3,0-0.6,0.3-0.8,0.9
			c-0.1,0.2-0.1,0.2-0.2,0.2c-0.1,0-0.2,0-0.2-0.2c0,0,0.1-0.1,0.2-0.4c0.5-1,0.9-1.9,1.3-2.7c0.1-0.3,0.3-0.4,0.4-0.4
			c0.1,0,0.1,0,0.1,0.1c0,0,0,0.1-0.1,0.2c-0.1,0.1-0.2,0.4-0.2,0.8c-0.1,1.4,0.8,2.1,2.6,1.9c0.9-0.1,1.7-0.4,2.3-0.9
			c0.6-0.5,1-1,1-1.7c0.1-0.7-0.3-1.4-1.2-2c-0.4-0.3-0.6-0.5-1.1-0.8c-1.1-0.8-1.6-1.8-1.6-2.6c0.1-0.9,0.6-1.6,1.5-2.1
			c1-0.5,2.1-0.7,3.4-0.5c0.7,0.1,1.4,0.2,2.1,0.5c0.4,0.2,0.7,0.2,0.8,0.2c0.3,0,0.6-0.1,0.8-0.3c0.1-0.1,0.2-0.1,0.3-0.1
			C95.8,125.4,95.8,125.4,95.8,125.5z"/>
		<path fill="#023F29" d="M103.5,128.6C103.4,128.6,103.4,128.6,103.5,128.6c-0.1,0.1-0.2,0.1-0.3,0.2c-1.4,1.1-2,1.7-3.2,3
			c-0.6,0.7-1,1.1-1,1.2c-0.1,0.2,0.1,0.2,0.4,0.1c0.5-0.1,1-0.5,1.7-1c0.2-0.1,0.3-0.2,0.3-0.2c0.1,0,0.1,0,0.1,0
			c-0.1,0.2-0.5,0.4-1.3,0.9c-0.5,0.3-0.9,0.5-1.4,0.6c-0.4,0.1-0.6,0.1-0.9,0.1c-0.2,0-0.3-0.2-0.3-0.3c0-0.1,0.1-0.2,0.3-0.5
			c0.1-0.2,0.2-0.3,0.3-0.4c-1,0.8-1.8,1.3-2.2,1.6c-0.5,0.3-1,0.5-1.7,0.6c-0.5,0.1-0.9,0.1-1.2,0.1c-0.3-0.1-0.4-0.2-0.4-0.5
			c0-0.2,0.2-0.6,0.6-1.1c1-1.4,1.5-2,2.6-3.2c0.1-0.1,0.2-0.2,0.4-0.5c0,0,0.1-0.1,0.1-0.1c0-0.1-0.1-0.1-0.5-0.1
			c-0.4,0-0.7,0-0.6-0.1c0-0.1,0.1-0.1,0.2-0.1c0.1,0,0.3,0,0.5,0c0.2,0,0.4,0,0.5,0c0.7,0,1.3-0.1,1.6-0.1c0.1,0,0.1,0,0.2,0
			c0.1,0,0.1,0,0.1,0.1c0,0.1-0.2,0.3-0.6,0.6c-0.4,0.4-0.7,0.7-1,1.1c-0.1,0.1-0.4,0.4-0.8,1c-0.4,0.5-0.6,0.8-1,1.3
			c-0.4,0.5-0.6,0.9-0.7,1.1c0,0.2,0.2,0.3,0.6,0.2c0.5-0.1,1.2-0.5,2.1-1.2c1-0.7,2-1.5,2.9-2.4c0.7-0.7,1.1-1.1,1.8-1.8
			c0.1-0.1,0.2-0.1,0.3-0.2c0,0,0.1,0,0.4,0c0.1,0,0.1,0,0.2,0c0.4,0,0.6-0.1,0.7-0.1C103.3,128.6,103.3,128.6,103.5,128.6
			C103.4,128.6,103.5,128.6,103.5,128.6z"/>
		<path fill="#023F29" d="M111.2,128.5c-0.1,0.1-0.2,0.1-0.5,0.2c-0.2,0.1-0.5,0.1-0.7,0.1c-0.2,0-0.3,0-0.2,0c0,0,0.1,0,0.1-0.1
			c0.1,0,0.1,0,0.1-0.1c0.1-0.1,0-0.1-0.3-0.1c-0.4,0-1,0.2-1.9,0.5c-0.9,0.3-1.8,0.8-2.7,1.4c-0.9,0.6-1.3,0.9-2.1,1.6
			c-0.2,0.2-0.3,0.3-0.4,0.3c-0.2,0.1-0.4,0.1-0.5,0.1c-0.2,0.1-0.4,0.1-0.5,0.2c0,0-0.1,0-0.1,0c-0.1,0-0.2,0-0.1,0
			c0,0,0,0,0.1-0.1c0.1,0,0.1-0.1,0.1-0.1c1.9-1.8,2.9-2.5,5.1-3.8c0,0,0-0.1-0.2-0.1c0,0,0,0-0.1,0c-0.1,0-0.1,0-0.3,0
			c-0.1,0-0.1,0-0.2,0c-0.2,0-0.3,0-0.3-0.1c0,0,0.4-0.1,1.1-0.1c0.7,0,1.2-0.1,1.5-0.1c0.1,0,0.2,0,0.2,0c0.1,0,0.1,0,0.1,0
			c0,0-0.2,0.1-0.5,0.3c-0.5,0.3-0.7,0.4-1.2,0.7c1.6-0.8,3-1,3.9-1.1C111.1,128.3,111.4,128.4,111.2,128.5z"/>
	</g>
</g>
<g>
	<g>
		<path fill="#045646" d="M28.1,101c0.7,2.3,0.9,4.3,0.6,6.1c-0.3,1.7-1,2.9-2.3,3.7c-0.5,0.3-1,0.5-1.4,0.6
			c-0.4,0.1-1.3,0.2-2.5,0.2c-0.4,0-1.3,0-2.7,0.1c-0.4,0-0.6,0-1,0c-0.1,0-0.2,0.1-0.3,0.1c-0.2,0-0.3-0.1-0.4-0.2
			c-0.1-0.1-0.1-0.2,0.1-0.2c0.1,0,0.3,0,0.5,0c0.5,0,0.8-0.1,0.9-0.2c0-0.2-0.1-0.4-0.1-0.6c-0.1-0.2-0.2-0.6-0.3-1
			c-1.5-4.7-1.9-7.2-2-12.3c0-0.9,0-1.4-0.1-1.6c-0.1-0.2-0.3-0.4-0.8-0.4c-0.5-0.1-0.7-0.1-1.2-0.2c-0.2,0-0.4-0.1-0.4-0.2
			c0-0.1,0.1-0.2,0.4-0.2c0.2,0,0.7,0,1.3,0.1c0.3,0,0.8,0.1,1.4,0.1c0.6,0,0.9,0.1,1.5,0.1c0.3,0,0.7,0,1.1,0c0.4,0,0.7,0,0.7,0.1
			c1.3,0.1,2.5,0.4,3.4,1C26.2,96.9,27.4,98.7,28.1,101z M25.8,100c-0.5-1.6-1.2-2.8-2.2-3.6c-0.8-0.6-1.7-1-2.8-1.1
			c-0.6,0-1,0-1.3,0c-0.1,0-0.2,0.3-0.3,0.8c-0.1,0.7-0.1,1.2-0.1,1.6c0.1,4.9,0.4,7.2,1.8,11.6c0.3,1,0.5,1.5,0.5,1.5
			c0.1,0.2,0.5,0.3,1.2,0.3c2.2,0,3.3-0.9,3.8-2.8c0.3-1,0.3-2.3,0.2-3.7C26.6,103.1,26.3,101.6,25.8,100z"/>
		<path fill="#045646" d="M36.8,104.2c0.2,0.8,0,1.4-0.6,1.9c-0.6,0.5-1.5,0.7-2.6,0.6c-0.4,0-0.9-0.1-1.4-0.2
			c0,1.1,0.2,2.2,0.6,3.1c0.6,1.3,1.3,1.9,2.2,1.9c0.7,0,1.2-0.4,1.6-1.2c0.1-0.2,0.2-0.3,0.2-0.3c0.1,0,0.1,0,0.1,0.1
			c0.1,0.3,0,0.7-0.4,1.1c-0.4,0.5-1,0.8-1.6,0.7c-0.8,0-1.5-0.3-2.3-0.8c-0.8-0.5-1.3-1.2-1.7-2.1c-0.7-1.6-0.7-3.3,0.4-4.8
			c0.9-1.3,2.1-1.9,3.2-1.8C35.8,102.5,36.5,103.1,36.8,104.2z M35.2,103.6c-0.1-0.5-0.4-0.7-0.8-0.8c-0.4,0-0.8,0.1-1.1,0.5
			c-0.6,0.6-0.9,1.6-1.1,2.9c0.2,0,0.3,0,0.5,0.1c0.7,0,1.3-0.2,1.9-0.6C35.2,105.1,35.5,104.5,35.2,103.6z"/>
		<path fill="#045646" d="M43.8,105c0,0.2,0,0.4-0.1,0.6c-0.1,0.2-0.3,0.2-0.5,0.2c-0.4,0-0.6-0.3-0.7-0.7c-0.1-0.3,0-0.5,0.3-0.5
			c0,0,0.1,0,0.2,0.1c0.1,0.1,0.2,0.1,0.2,0.1c0.1,0,0.1,0,0.1-0.1c0-0.2-0.2-0.5-0.6-0.8c-0.4-0.3-0.7-0.4-1-0.4
			c-0.4,0-0.8,0.1-1,0.3c-0.2,0.3-0.3,0.6-0.2,1c0.1,0.4,0.6,1.4,1.6,3c0.2,0.4,0.4,0.8,0.5,1.2c0.2,0.9,0.1,1.6-0.2,2.2
			c-0.4,0.6-0.9,0.8-1.7,0.8c-0.7,0-1.4-0.2-2-0.7c-0.6-0.5-1.1-1-1.3-1.7c-0.1-0.4-0.2-0.7,0-0.9c0.1-0.2,0.3-0.4,0.7-0.3
			c0.2,0,0.5,0.1,0.7,0.3c0.2,0.2,0.4,0.4,0.5,0.7c0.1,0.4,0,0.6-0.3,0.6c-0.4,0-0.6-0.2-0.7-0.5c0-0.1-0.1-0.2-0.1-0.3
			c0-0.1,0-0.1,0-0.2c0-0.1-0.1-0.2-0.2-0.2c-0.1,0-0.2,0.1-0.2,0.3c0,0.2,0,0.4,0.1,0.6c0.2,0.5,0.6,1,1.1,1.4
			c0.5,0.4,1,0.6,1.6,0.6c0.5,0,0.8-0.1,1.1-0.4c0.2-0.3,0.3-0.7,0.1-1.2c-0.1-0.4-0.4-0.9-0.9-1.8c-0.5-0.8-0.8-1.5-0.9-2
			c-0.2-0.9-0.2-1.7,0.2-2.3c0.4-0.6,1-0.9,1.8-0.8c0.5,0.1,1,0.3,1.5,0.6C43.5,104.1,43.7,104.5,43.8,105z"/>
		<path fill="#045646" d="M48.1,103.8c0,0,0,0.1-0.1,0.2c-0.1,0.2-0.2,0.5-0.3,1c-0.7,2.1-1,3.2-1.4,5.1c-0.2,0.6-0.2,1-0.2,1.2
			c0.1,0.3,0.3,0.5,0.6,0.5c0.2,0,0.5-0.1,0.7-0.2c0.3-0.1,0.4-0.3,0.6-0.6c0.1-0.1,0.2-0.2,0.2-0.2c0.1,0,0.1,0,0.1,0.1
			c0,0.1-0.1,0.4-0.4,0.6c-0.4,0.4-0.9,0.6-1.5,0.6c-0.4,0-0.8-0.1-1.1-0.3c-0.3-0.2-0.5-0.5-0.6-0.9c-0.1-0.3,0-0.8,0.1-1.5
			c0.4-1.8,0.6-2.7,1.2-4.6c0-0.2,0.1-0.4,0.2-0.5c0-0.1,0-0.1,0-0.1c0-0.1-0.3-0.2-0.9-0.3c-0.1,0-0.2-0.1-0.2-0.2
			c0-0.1,0-0.2,0.1-0.2c0,0,0.1,0,0.3,0.1c0.2,0,0.5,0.1,0.9,0.1c0.6,0,1,0,1.2-0.1c0.1,0,0.2-0.1,0.3-0.1
			C48,103.6,48.1,103.7,48.1,103.8z M49.2,99.8c0,0.6-0.2,0.9-0.8,0.9c-0.3,0-0.5-0.1-0.7-0.3c-0.2-0.2-0.3-0.4-0.3-0.7
			c-0.1-0.6,0.2-0.9,0.9-0.9C48.8,98.8,49.1,99.1,49.2,99.8z"/>
		<path fill="#045646" d="M56.2,105.5c0,0.7-0.4,1.3-1.2,1.8c-0.8,0.4-1.7,0.6-2.8,0.6c-0.4,0-0.9-0.1-1.4-0.2
			c-0.4,1-0.5,1.9-0.5,2.7c0.1,1.1,0.6,1.6,1.6,1.6c0.7,0,1.4-0.3,2.1-1c0.2-0.2,0.3-0.2,0.3-0.2c0.1,0,0.1,0,0.1,0.1
			c0,0.3-0.3,0.6-0.8,1c-0.6,0.4-1.3,0.6-1.9,0.6c-0.8,0-1.4-0.3-1.9-0.7c-0.6-0.5-0.9-1-1-1.8c-0.2-1.4,0.4-2.8,1.9-4.1
			c1.3-1.2,2.6-1.8,3.8-1.7C55.7,104.1,56.3,104.6,56.2,105.5z M54.8,105.1c0-0.4-0.2-0.7-0.6-0.7c-0.4,0-0.9,0.1-1.3,0.4
			c-0.7,0.6-1.4,1.4-1.9,2.6c0.2,0,0.3,0,0.5,0c0.7,0,1.4-0.2,2.1-0.6C54.4,106.4,54.8,105.8,54.8,105.1z"/>
		<path fill="#045646" d="M63.8,105.7c0,0.3-0.2,0.5-0.4,0.7c-0.2,0.2-0.4,0.3-0.6,0.2c-0.2,0-0.3-0.1-0.3-0.3c0-0.1,0-0.1,0.1-0.2
			c0-0.1,0.1-0.2,0.1-0.2c0-0.3-0.1-0.5-0.4-0.5c-0.4,0-1,0.3-1.7,1c-0.8,0.7-1.5,1.7-2.1,2.9c-0.6,1.1-0.9,1.7-1.5,2.8
			c-0.1,0.3-0.2,0.4-0.3,0.4c-0.2,0-0.4-0.1-0.5-0.1c-0.2,0-0.4,0-0.5,0c0,0-0.1,0-0.1,0c-0.1,0-0.2,0-0.2-0.1c0,0,0,0,0.1-0.1
			c0-0.1,0.1-0.1,0.1-0.2c1.2-2.6,2-4,3.5-7.2c0-0.1-0.1-0.2-0.3-0.2c0,0,0,0-0.1,0c-0.1,0-0.1,0-0.3,0c-0.1,0-0.1,0-0.2,0
			c-0.2,0-0.3-0.1-0.3-0.2c0-0.1,0.4-0.1,1.1-0.1c0.7,0,1.2,0,1.4-0.1c0.1,0,0.2,0,0.2,0c0.1,0,0.1,0.1,0.1,0.1
			c0,0.1-0.1,0.3-0.3,0.8c-0.4,0.7-0.5,1.1-0.9,1.8c1.3-1.6,2.5-2.4,3.5-2.3C63.5,104.7,63.8,105,63.8,105.7z"/>
		<path fill="#045646" d="M69.4,105.6c0,0.2-0.3,0.3-0.9,0.2c-0.3,0-0.5-0.1-0.8-0.1c-0.1,0-0.2,0-0.4,0c-1.5,2.4-2.3,3.5-3.7,5.6
			c-0.4,0.6-0.6,0.9-0.6,1c-0.1,0.2,0.1,0.4,0.5,0.4c0.5,0.1,1.1-0.1,1.6-0.6c0.1-0.1,0.2-0.2,0.3-0.1c0.1,0,0.1,0.1,0.1,0.1
			c0,0.2-0.3,0.4-0.8,0.6c-0.5,0.3-1.1,0.4-1.7,0.3c-0.4-0.1-0.7-0.2-1-0.4c-0.2-0.2-0.3-0.5-0.3-0.8c0-0.2,0.2-0.6,0.6-1.1
			c1.3-1.9,2-3,3.4-5.2c-0.3,0-0.5-0.1-0.8-0.1c-0.2,0-0.3-0.1-0.3-0.2c0-0.2,0.1-0.2,0.3-0.2c0.1,0,0.1,0,0.2,0c0.1,0,0.2,0,0.3,0
			c0.2,0,0.4,0,0.6,0c0.2-0.3,0.3-0.5,0.5-0.9c0.2-0.3,0.3-0.5,0.4-0.4c0.1,0,0.2,0,0.3,0.1c0.1,0,0.3,0.1,0.3,0.1
			c0.2,0,0.4,0,0.7-0.1c0.1,0,0.1,0,0.2,0c0.1,0,0.1,0,0.1,0.1c-0.1,0.2-0.2,0.3-0.3,0.5c-0.2,0.4-0.4,0.6-0.6,1
			c0.2,0,0.3,0,0.5,0.1c0.3,0,0.5,0.1,0.8,0.1c0.1,0,0.2,0,0.3,0c0.1,0,0.2,0,0.2,0C69.3,105.4,69.4,105.5,69.4,105.6z"/>
		<path fill="#045646" d="M75.8,109.5c-0.6,1.6-1.8,2.8-3.6,3.7c-1.4,0.7-2.6,1-3.6,0.8c-0.7-0.1-1.2-0.4-1.5-1
			c-0.3-0.6-0.4-1.2-0.2-2.1c0.2-0.7,0.6-1.4,1.2-2.2s1.4-1.4,2.2-1.9c1.4-0.8,2.6-1.1,3.7-1c0.8,0.1,1.4,0.5,1.8,1.1
			C76.1,107.7,76.1,108.6,75.8,109.5z M74.7,108c0.3-1,0-1.6-0.9-1.7c-1.1-0.1-2.3,0.6-3.5,2.1c-1.1,1.4-1.9,2.7-2.3,3.9
			c-0.3,0.9,0,1.3,0.8,1.5c1,0.1,2.1-0.3,3.2-1.5C73.3,110.9,74.3,109.4,74.7,108z"/>
		<path fill="#045646" d="M80.9,110c-0.3,0.4-0.4,0.7-0.7,1.1c-1.5-0.2-2.2-0.2-3.8-0.4c0.2-0.4,0.4-0.6,0.6-1.1
			C78.6,109.8,79.4,109.9,80.9,110z"/>
		<path fill="#045646" d="M98.2,101.4c0,0,0,0.1-0.1,0.1c-0.1,0.1-0.3,0.4-0.5,0.7c-0.6,1-1.1,1.9-1.5,2.6c-0.4,0.7-0.7,1-0.8,1
			c-0.1,0-0.1-0.1,0-0.2c0-0.1,0.1-0.1,0.1-0.2c0.4-0.5,0.7-1.2,1-1.9c0.3-0.8,0.2-1.4-0.1-1.6c-0.4-0.2-1.1-0.4-2.1-0.5
			c-0.6,0-0.8,0-1.4-0.1c-0.2,0-0.5,0.1-0.7,0.5c-0.5,0.9-0.8,1.3-1.4,2.2c-1.2,1.8-1.9,2.7-3.2,4.3c0.4,0.1,0.7,0.2,0.9,0.2
			c0.7,0.1,1.3,0,2-0.4c0.7-0.3,1.3-0.8,1.8-1.5c0.2-0.2,0.3-0.3,0.4-0.3c0.1,0,0.2,0.1,0.1,0.2c0,0-0.1,0.1-0.2,0.3
			c-1.6,1.9-3.1,3.6-4.6,5.3c-0.1,0.2-0.3,0.3-0.4,0.3c-0.1,0-0.1-0.1,0-0.2c0-0.1,0.1-0.1,0.2-0.2c0.6-0.7,1-1.2,1.2-1.6
			c0.2-0.5,0.3-0.8,0.1-1c-0.2-0.2-0.7-0.4-1.4-0.5c-0.2,0-0.4,0.1-0.7,0.4c-1.9,2.2-2.9,3.2-4.9,5c-0.4,0.3-0.6,0.5-0.6,0.6
			c-0.1,0.1,0,0.2,0.2,0.2c0.3,0.1,0.5,0.1,0.9,0.2c0.3,0.1,0.6,0.1,0.9,0.2c1.7,0.3,3.1,0.2,4.3-0.5c0.6-0.3,1.4-1,2.3-1.9
			c0.3-0.3,0.4-0.4,0.6-0.4c0.1,0,0.1,0.1,0,0.2c0,0.1-0.2,0.3-0.6,0.6c-1.3,1.3-2.4,2.2-3.1,2.8c-0.2,0.1-0.3,0.2-0.4,0.2
			c-0.1,0-0.2,0-0.4,0c-2.3-0.5-3.5-0.7-5.8-1c-1.4-0.2-2.2-0.3-2.4-0.4c-0.2,0-0.3-0.1-0.3-0.2c0-0.1,0.1-0.1,0.2-0.1
			c0.1,0,0.4,0,1,0.1c0.2,0,0.4,0,0.5-0.1c0.1-0.1,0.4-0.3,0.8-0.7c3.5-3.3,5.3-5.3,8.5-9.9c0.2-0.3,0.6-0.8,1-1.5
			c0.4-0.7,0.7-1.1,0.7-1.3c0-0.1,0-0.2-0.1-0.3c-0.1,0-0.6-0.1-1.4-0.2c-0.2,0-0.2-0.1-0.2-0.2c0-0.2,0.2-0.2,0.5-0.2
			c0,0,0.2,0,0.6,0c0.4,0,0.8,0.1,1.4,0.1c2.5,0.2,3.7,0.3,6.2,0.4c0.3,0,0.4,0,0.5-0.1c0.1,0,0.1,0,0.1,0
			C98.2,101.1,98.3,101.2,98.2,101.4z"/>
		<path fill="#045646" d="M100.3,110c-0.2,0.3-0.4,0.5-0.6,0.7c-0.3,0.2-0.5,0.3-0.7,0.3c-0.4,0-0.4-0.3-0.2-0.7
			c0.2-0.4,0.4-0.6,0.7-0.6c0,0,0.1,0,0.1,0.1c0.1,0.1,0.1,0.1,0.2,0.1c0.1,0,0.1-0.1,0.2-0.2c0.2-0.3,0.1-0.5,0-0.8
			c-0.2-0.3-0.4-0.4-0.7-0.4c-0.4,0-0.9,0.1-1.3,0.4c-0.5,0.3-0.8,0.7-1.1,1.1c-0.2,0.4-0.5,1.5-1,3.2c-0.1,0.4-0.4,0.8-0.7,1.3
			c-0.7,1-1.6,1.7-2.6,2.2c-1,0.5-1.9,0.7-2.7,0.6c-0.7-0.1-1.1-0.4-1.2-0.9c-0.1-0.5,0-1.1,0.5-1.7c0.3-0.4,0.6-0.7,0.9-0.9
			c0.4-0.2,0.7-0.3,1-0.3c0.2,0,0.4,0.1,0.4,0.4s0,0.4-0.2,0.7c-0.3,0.4-0.6,0.6-1,0.5c-0.4-0.1-0.4-0.2-0.2-0.5
			c0.1-0.1,0.1-0.2,0.2-0.3c0.1-0.1,0.1-0.1,0.2-0.2c0.1-0.1,0.1-0.2,0-0.2c-0.1,0-0.3,0.1-0.5,0.2c-0.2,0.2-0.4,0.4-0.5,0.6
			c-0.4,0.5-0.5,1-0.4,1.4c0.1,0.4,0.4,0.7,0.9,0.8c0.5,0.1,1,0,1.6-0.3c0.6-0.3,1.1-0.7,1.5-1.2c0.3-0.4,0.6-1,0.9-1.9
			c0.3-0.8,0.6-1.6,1-2.1c0.6-1,1.3-1.8,2.2-2.5c0.9-0.7,1.7-1,2.4-1c0.5,0,0.8,0.2,1,0.6C100.6,109.1,100.6,109.5,100.3,110z"/>
		<path fill="#045646" d="M107.2,108.4c-0.1,0.2-0.5,0.4-1,0.4c-0.3,0-0.4,0-0.7,0c-0.1,0-0.2,0-0.4,0c-2.8,3.1-4.3,4.5-7.3,7
			c-0.8,0.7-1.3,1.1-1.5,1.2c-0.3,0.3-0.2,0.4,0.2,0.5c0.5,0,1.3-0.2,2.3-0.9c0.2-0.1,0.3-0.2,0.4-0.2c0.1,0,0.1,0.1,0,0.2
			c-0.2,0.2-0.6,0.5-1.4,0.8c-0.9,0.4-1.6,0.6-2.2,0.5c-0.4,0-0.6-0.2-0.7-0.4c0-0.3,0.1-0.6,0.4-0.9c0.2-0.2,0.7-0.7,1.5-1.3
			c2.8-2.3,4.2-3.6,6.7-6.4c-0.3,0-0.5,0-0.8,0c-0.2,0-0.3-0.1-0.2-0.2c0.1-0.2,0.3-0.3,0.4-0.3c0.1,0,0.1,0,0.2,0
			c0.1,0,0.2,0,0.3,0c0.2,0,0.4,0,0.5,0c0.4-0.4,0.5-0.7,0.9-1.1c0.3-0.4,0.5-0.6,0.6-0.6c0.1,0,0.2,0,0.3,0c0.1,0,0.2,0,0.3,0
			c0.1,0,0.4-0.1,0.8-0.3c0.1,0,0.1-0.1,0.2-0.1c0.1,0,0.1,0,0,0.1c-0.2,0.3-0.3,0.4-0.5,0.6c-0.4,0.5-0.6,0.7-1.1,1.2
			c0.2,0,0.3,0,0.5,0c0.3,0,0.4,0,0.7,0c0.1,0,0.2,0,0.3-0.1c0.1,0,0.2-0.1,0.2-0.1C107.2,108.2,107.2,108.2,107.2,108.4z"/>
		<path fill="#045646" d="M112.7,109.3c-0.6,1-1.5,1.8-2.7,2.4c-1.2,0.7-2.3,1-3.4,1c-0.4,0-0.8,0-1.2-0.1c-1.3,1.2-2.4,2.3-3.3,3.2
			c-1.1,1.3-1.3,1.9-0.4,1.9c0.7,0,1.8-0.4,3.4-1.3c0.3-0.2,0.5-0.3,0.6-0.3c0.1,0,0.1,0,0,0.1c-0.3,0.3-1,0.8-2,1.2
			c-1.2,0.5-2.1,0.8-2.7,0.8c-0.7,0-1.1-0.3-1.1-0.8c0-0.5,0.4-1.2,1.1-2c1.4-1.6,3.3-3.3,6-5.1c2.3-1.6,4-2.6,5.1-2.7
			C113.3,107.5,113.5,108.1,112.7,109.3z M111.6,109c0.3-0.5,0.3-0.8-0.1-0.8c-0.4,0-0.9,0.3-1.6,0.8c-1.2,0.8-2.5,2-4.1,3.4
			c0.1,0,0.3,0,0.5,0c0.7,0,1.6-0.3,2.6-0.9C110.2,110.8,111.1,109.9,111.6,109z"/>
		<path fill="#045646" d="M120.3,109c-1.5,2.3-3.7,4.5-6.5,6.4c-2.7,1.9-4.7,2.8-5.9,2.9c-0.8,0.1-0.8-0.4-0.2-1.3
			c-2.4,1.9-3.7,2.8-6.2,4.3c-0.4,0.2-0.7,0.4-0.9,0.6c-0.5,0.3-1,0.5-1.4,0.8c0.7,0.1,1,0.2,0.9,0.3c-0.1,0.1-0.3,0.1-0.6,0.1
			c-0.2,0-0.5-0.1-0.8-0.1c-0.2,0-0.2,0-0.4-0.1c0,0-0.1,0-0.3,0c-0.2,0-0.5,0-0.7,0c-0.3,0-0.4,0-0.6,0c-0.2,0-0.3-0.1-0.1-0.2
			c0.2-0.1,0.4-0.2,0.7-0.1c0.4,0,0.7,0,0.9-0.1c0.2-0.1,0.7-0.3,1.5-0.8c5.7-3.3,10.9-7.6,15.2-12.5c0.7-0.8,1-1.2,1.1-1.3
			c0.1-0.2,0.1-0.2-0.1-0.2c-0.1,0-0.1,0-0.2,0c-0.1,0-0.2,0-0.3,0.1c-0.2,0-0.3,0-0.2-0.2c0.1-0.1,0.2-0.2,0.3-0.2
			c0.1,0,0.2,0,0.3-0.1c1-0.2,1.7-0.4,2.1-0.6c0.1-0.1,0.2-0.1,0.2-0.1c0.1,0,0.1,0,0,0.1c-0.1,0.1-0.6,0.8-1.7,2.1
			c1.1-0.9,1.8-1.6,2.4-1.9c0.5-0.4,1-0.6,1.4-0.8c0.7-0.2,1.1,0,1.1,0.5C121.3,107.1,121,107.9,120.3,109z M119.4,108.3
			c0.7-1.2,0.7-1.7,0.1-1.5c-0.7,0.2-1.7,1-3.1,2.3c-1.1,1-2.5,2.5-4.4,4.3c-0.9,0.9-1.4,1.3-2.3,2.1c-0.5,0.4-0.9,0.8-1.1,1
			c-0.4,0.4-0.6,0.7-0.6,1c-0.1,0.3,0.1,0.4,0.4,0.4c0.9-0.1,2.9-1.2,5.7-3.7C116.5,112,118.3,110,119.4,108.3z"/>
		<path fill="#045646" d="M132,102.8c0,0.1-0.2,0.3-0.6,0.8c-3.4,4.5-5.3,6.6-9.3,10.4c-0.9,0.9-1.6,1.6-2,2.1
			c-0.5,0.5-0.5,0.8-0.2,0.8c0.4,0,1.4-0.5,2.8-1.7c0.3-0.2,0.5-0.4,0.5-0.4c0,0,0,0,0,0.1c-0.2,0.2-0.6,0.6-1.3,1.1
			c-1.4,1-2.4,1.4-3.1,1.4c-0.4,0-0.5-0.1-0.5-0.4c0-0.3,0.3-0.6,0.7-1.1c0.3-0.3,0.6-0.6,1-1.1c-2.3,2-3.9,2.8-4.9,2.9
			c-0.6,0-0.8-0.2-0.6-0.8c0.2-0.6,0.7-1.3,1.5-2.2c0.9-1,2-2.2,3.5-3.6c1.4-1.4,2.9-2.8,4.4-4.3c2-2,3.5-3.4,4.4-3.8
			c1-0.4,1.1,0.5,0.2,2.2c0.6-0.8,0.9-1.2,1.5-2c0.3-0.4,0.5-0.6,0.6-0.6c0,0,0.1,0,0.2,0.1c0.1,0,0.2,0.1,0.2,0.1
			c0.3,0,0.6-0.1,0.8-0.2c0.1-0.1,0.1-0.1,0.2-0.1C132.1,102.5,132.1,102.6,132,102.8z M127.9,106c0.4-0.7,0.6-1.3,0.6-1.7
			c0-0.4-0.2-0.6-0.5-0.4c-0.6,0.2-1.6,1.2-2.9,2.8c-1.5,1.7-3,3.4-4.5,4.9c-1.5,1.6-2.7,2.8-3.6,3.9c-1.1,1.3-1.4,1.8-0.7,1.8
			c0.4,0,1.1-0.4,2.1-1.1c1-0.7,2.1-1.7,3.3-2.8c2.2-2.2,3.2-3.4,5.2-5.8C127.4,106.7,127.7,106.2,127.9,106z"/>
	</g>
</g>
<g>
	<g>
		<path fill="#00664E" d="M22.8,75.9c0.1,1.7-0.8,3-2.6,3.8c-0.9,0.4-1.8,0.7-2.7,0.7c1,0.3,1.8,0.7,2.4,1.2
			c0.7,0.6,1.1,1.4,1.3,2.3c0.1,0.9,0,1.7-0.4,2.5c-0.4,0.8-1,1.3-1.8,1.7c-1,0.5-2.9,0.6-5.9,0.5c0,0-0.2,0-0.6,0c-0.3,0-0.7,0-1,0
			c-0.9,0-1.3-0.1-2.2-0.1c-1,0-1.5,0-1.7-0.1c-0.1,0-0.1,0-0.1,0c-0.2,0-0.3-0.1-0.3-0.2c0-0.2,0-0.2,0.3-0.2
			c0.4,0.1,0.7,0.1,1.1,0.1c0.6,0,1-0.1,1.1-0.1c0.1,0,0.2-0.1,0.2-0.3c0-0.1,0-0.2,0.1-0.4s0.2-0.8,0.4-1.8
			c0.9-4.1,1.5-6.3,3.1-10.6c0.5-1.3,0.7-2.1,0.7-2.3c0-0.3-0.6-0.5-1.9-0.6c-0.3,0-0.4-0.1-0.4-0.2c0-0.1,0.1-0.2,0.4-0.2
			c0.5,0,0.8,0,1.3,0c1.8,0.1,2.7,0.2,4.5,0.4c1.6,0.2,2.7,0.5,3.4,1.1C22.3,73.9,22.8,74.8,22.8,75.9z M18.6,83.4
			c-0.3-1.8-1.3-2.9-3.2-3c-0.4,0-0.9,0-1.3,0c-0.8,2.7-1.1,4.1-1.6,6.7c-0.1,0.5-0.1,0.8-0.1,0.8c0.1,0.2,0.2,0.3,0.5,0.4
			c1.7,0.1,3-0.1,3.9-0.6C18.2,86.9,18.8,85.5,18.6,83.4z M20.4,75c-0.1-1.5-0.9-2.3-2.7-2.5c-0.3,0-0.6,0-0.9-0.1
			c-0.1,0.3-0.3,0.7-0.5,1.2c-0.9,2.5-1.3,3.7-2,6.1c0.3,0.1,0.5,0.1,0.8,0.1c2.1,0.1,3.5-0.3,4.3-1.4C20.1,77.6,20.5,76.5,20.4,75z
			"/>
		<path fill="#00664E" d="M33.2,84.3c0.2,1.9-0.4,3.4-2,4.6c-1.2,1-2.5,1.4-4,1.2c-1-0.1-1.9-0.5-2.7-1.3c-0.8-0.7-1.3-1.6-1.5-2.7
			c-0.2-0.9,0-1.8,0.4-2.8c0.4-0.9,1.1-1.7,1.9-2.3c1.3-0.9,2.7-1.3,4-1.1c1,0.1,1.9,0.6,2.6,1.4C32.7,82.2,33.1,83.2,33.2,84.3z
			 M31.1,82.5c-0.1-1.2-0.7-1.9-1.9-2.1c-1.4-0.2-2.5,0.6-3.3,2.4c-0.8,1.7-1,3.4-0.7,4.9c0.2,1.2,0.9,1.8,2,1.9
			c1.4,0.2,2.4-0.5,3-2.1C31,85.8,31.3,84.1,31.1,82.5z"/>
		<path fill="#00664E" d="M43.1,84c0,0.3,0,0.5-0.2,0.6c-0.2,0.2-0.4,0.2-0.6,0.2c-0.5-0.1-0.8-0.3-0.8-0.8c0-0.4,0.1-0.5,0.4-0.5
			c0.1,0,0.1,0,0.2,0.1c0.1,0.1,0.2,0.1,0.3,0.1c0.1,0,0.1,0,0.1-0.1c0-0.3-0.2-0.6-0.6-0.9c-0.4-0.3-0.8-0.5-1.2-0.6
			c-0.5-0.1-1,0-1.3,0.2c-0.3,0.3-0.5,0.6-0.4,1.1c0,0.4,0.5,1.6,1.5,3.4c0.2,0.4,0.4,0.9,0.5,1.4c0.1,1-0.1,1.8-0.8,2.4
			c-0.7,0.6-1.5,0.8-2.7,0.6c-1-0.2-1.9-0.5-2.6-1.1c-0.8-0.6-1.2-1.3-1.3-2c-0.1-0.4,0-0.8,0.2-1c0.2-0.2,0.6-0.3,1-0.3
			c0.3,0,0.6,0.2,0.9,0.4c0.3,0.2,0.4,0.5,0.4,0.8c0.1,0.5-0.1,0.7-0.6,0.6c-0.5-0.1-0.8-0.3-0.8-0.6c0-0.1,0-0.2,0-0.3s0-0.2,0-0.2
			c0-0.2-0.1-0.2-0.2-0.3c-0.2,0-0.3,0.1-0.4,0.3s-0.1,0.4-0.1,0.7c0.1,0.6,0.5,1.2,1.1,1.7c0.6,0.5,1.3,0.8,2,0.9
			c0.7,0.1,1.2,0,1.6-0.3c0.4-0.3,0.6-0.8,0.5-1.3c-0.1-0.4-0.3-1.1-0.8-2.1c-0.5-1-0.7-1.7-0.8-2.3c-0.1-1,0.1-1.8,0.7-2.4
			c0.6-0.6,1.4-0.8,2.3-0.6c0.6,0.1,1.2,0.4,1.7,0.8C42.8,83,43,83.5,43.1,84z"/>
		<path fill="#00664E" d="M54.4,84.2c0,0.1-0.1,0.4-0.4,1.1c-2,4.9-2.9,7.3-4.3,12.2c0.3,0,0.4,0.1,0.7,0.1c0.6,0.1,0.9,0.2,0.9,0.2
			c0,0.1-0.1,0.1-0.4,0.1c-0.3,0-0.8-0.1-1.4-0.1c-0.6-0.1-1.1-0.1-1.4-0.1c0,0-0.2,0-0.4,0c-0.2,0-0.6,0-1.1,0c-0.2,0-0.3,0-0.4,0
			c-0.2,0-0.2-0.1-0.3-0.1c0-0.1,0.3-0.2,1-0.1c0.5,0,0.7,0,0.8-0.1c0-0.1,0.1-0.1,0.1-0.2c0-0.1,0.1-0.3,0.2-0.5
			c0.4-1.6,0.7-2.5,1.2-4.1c0.1-0.1,0.1-0.2,0.2-0.4c-0.5,0.3-0.9,0.5-1.2,0.6c-0.3,0.1-0.8,0.1-1.3,0.1c-0.9-0.1-1.7-0.5-2.4-1.1
			c-0.7-0.6-1.1-1.3-1.2-2.2c-0.1-0.8,0-1.6,0.4-2.5c0.4-0.8,0.9-1.5,1.6-2.1c1.5-1.2,3.1-1.6,4.7-1.4c1,0.2,1.8,0.8,2.2,1.7
			c0-0.1,0.1-0.2,0.1-0.3c0-0.2,0.1-0.3,0.1-0.4c0.1-0.3,0.2-0.4,0.3-0.4c0.2,0,0.3,0.1,0.4,0.1c0.1,0,0.1,0,0.2,0
			c0.4,0.1,0.6,0,0.8,0c0.1,0,0.2,0,0.2,0C54.3,84.1,54.4,84.2,54.4,84.2z M51.8,85.5c0-0.4-0.2-0.7-0.6-1c-0.4-0.3-0.8-0.5-1.3-0.6
			c-1.2-0.2-2.2,0.3-3.1,1.5c-1.2,1.8-1.7,3.4-1.5,4.8c0.1,0.5,0.3,1,0.6,1.3c0.4,0.4,0.8,0.6,1.3,0.6c0.8,0.1,1.5-0.2,2.1-0.8
			c0.4-0.4,0.8-1.2,1.2-2.3c0.4-1,0.6-1.5,1-2.5C51.7,86.1,51.8,85.7,51.8,85.5z"/>
		<path fill="#00664E" d="M66.3,86C66.3,86.1,66.3,86.1,66.3,86c-0.1,0.2-0.1,0.3-0.2,0.4c-1,2-1.4,3-2.4,4.9
			c-0.5,1-0.7,1.6-0.6,1.8c0,0.4,0.3,0.6,0.7,0.6c0.6,0.1,1.2-0.2,1.9-0.8c0.2-0.2,0.3-0.2,0.3-0.2c0.1,0,0.2,0.1,0.2,0.1
			c0,0.3-0.4,0.6-1.3,1c-0.5,0.2-1.1,0.3-1.7,0.2c-0.5-0.1-0.9-0.2-1.3-0.4c-0.4-0.2-0.6-0.5-0.6-0.8c0-0.2,0-0.4,0.1-0.7
			c0.1-0.3,0.1-0.4,0.2-0.6c-1,0.9-1.8,1.5-2.3,1.7c-0.5,0.3-1.2,0.3-2,0.3c-0.6-0.1-1.2-0.2-1.6-0.4c-0.4-0.2-0.7-0.5-0.7-0.9
			c0-0.4,0.1-0.9,0.4-1.5c0.8-1.8,1.2-2.7,2.1-4.5c0.1-0.1,0.2-0.3,0.4-0.7c0-0.1,0.1-0.1,0.1-0.1c0-0.1-0.2-0.2-0.6-0.2
			c-0.5-0.1-0.8-0.2-0.8-0.3c0-0.1,0-0.1,0.2-0.1c0.1,0,0.3,0.1,0.6,0.1c0.3,0.1,0.4,0.1,0.6,0.1c0.9,0.1,1.5,0.1,1.9,0.1
			c0.1,0,0.2,0,0.2,0c0.1,0,0.1,0.1,0.1,0.1c0,0.1-0.1,0.4-0.4,1c-0.3,0.5-0.5,1.1-0.8,1.7c-0.1,0.1-0.3,0.6-0.6,1.4
			c-0.3,0.7-0.5,1.1-0.8,1.8c-0.3,0.7-0.5,1.3-0.4,1.6c0,0.4,0.4,0.6,1,0.7c0.6,0.1,1.4-0.3,2.3-1c1-0.8,1.9-1.9,2.5-3.3
			c0.5-1.1,0.8-1.7,1.3-2.9c0.1-0.2,0.2-0.2,0.3-0.2c0,0,0.2,0,0.5,0.1c0.1,0,0.1,0,0.2,0c0.5,0.1,0.7,0.1,0.9,0.1
			c0.1,0,0.1,0,0.2,0C66.3,85.9,66.3,86,66.3,86z"/>
		<path fill="#00664E" d="M76.6,88.1c0,0.7-0.4,1.3-1.3,1.7c-0.9,0.4-2.2,0.5-3.6,0.4c-0.5-0.1-1.1-0.1-1.8-0.3
			c-0.5,1-0.8,1.9-0.7,2.7c0.1,1.2,0.8,1.8,2.1,1.9c1,0.1,2-0.2,2.9-0.9c0.2-0.2,0.3-0.2,0.4-0.2c0.1,0,0.1,0,0.1,0.1
			c0,0.3-0.3,0.6-1.1,1c-0.9,0.4-1.8,0.6-2.7,0.5c-1.1-0.1-2-0.4-2.7-1c-0.7-0.6-1.1-1.2-1.2-2c-0.1-1.5,0.8-2.8,2.7-4
			c1.7-1.1,3.3-1.5,4.7-1.4C75.8,86.7,76.6,87.2,76.6,88.1z M74.8,87.6c0-0.4-0.3-0.7-0.8-0.7c-0.5,0-1.1,0.1-1.6,0.4
			c-0.9,0.5-1.7,1.3-2.4,2.4c0.2,0,0.4,0.1,0.7,0.1c0.9,0.1,1.8,0,2.7-0.4C74.4,88.9,74.8,88.3,74.8,87.6z"/>
		<path fill="#00664E" d="M85.2,88.6c0,0.2-0.1,0.4-0.2,0.6c-0.2,0.2-0.4,0.2-0.6,0.2c-0.5,0-0.7-0.2-0.8-0.6c0-0.3,0.1-0.5,0.5-0.5
			c0,0,0.1,0,0.2,0.1c0.1,0,0.2,0.1,0.3,0.1c0.1,0,0.1,0,0.1-0.1c0-0.2-0.2-0.5-0.6-0.7c-0.4-0.2-0.8-0.4-1.2-0.4
			c-0.5,0-1,0.1-1.3,0.4c-0.3,0.3-0.5,0.6-0.5,1c0,0.3,0.5,1.3,1.3,2.8c0.2,0.4,0.3,0.8,0.3,1.2c0,0.9-0.3,1.6-1,2.2
			c-0.7,0.6-1.6,0.8-2.8,0.8c-1,0-1.8-0.3-2.5-0.8c-0.7-0.5-1.1-1-1.1-1.7c0-0.4,0.1-0.7,0.4-0.9c0.3-0.2,0.6-0.3,1-0.3
			c0.3,0,0.6,0.1,0.8,0.3c0.2,0.2,0.4,0.4,0.4,0.6c0,0.4-0.2,0.6-0.7,0.5c-0.5,0-0.8-0.2-0.8-0.5c0-0.1,0-0.2,0-0.3
			c0-0.1,0.1-0.1,0.1-0.2c0-0.1-0.1-0.2-0.2-0.2c-0.1,0-0.3,0.1-0.4,0.2c-0.1,0.2-0.2,0.4-0.2,0.6c0,0.5,0.3,1,0.9,1.4
			c0.6,0.4,1.2,0.6,1.9,0.7c0.7,0,1.2-0.1,1.7-0.4c0.4-0.3,0.7-0.7,0.6-1.2c0-0.4-0.2-0.9-0.6-1.7c-0.4-0.8-0.6-1.4-0.6-1.9
			c0-0.9,0.2-1.6,0.9-2.2c0.6-0.6,1.4-0.8,2.3-0.8c0.6,0,1.2,0.2,1.7,0.5C84.9,87.8,85.2,88.2,85.2,88.6z"/>
		<path fill="#00664E" d="M90.6,90.5c-0.1,0.4-0.1,0.7-0.2,1.1c-2,0-3-0.1-4.9-0.1c0.1-0.4,0.1-0.7,0.2-1.1
			C87.6,90.5,88.6,90.5,90.6,90.5z"/>
		<path fill="#00664E" d="M104.4,80.3c0,0.1-0.1,0.5-0.4,1c-0.3,0.6-0.5,1.4-0.8,2.5c-0.1,0.3-0.2,0.4-0.3,0.4c-0.1,0-0.2,0-0.2-0.1
			c0-0.1,0-0.1,0-0.1c0-0.3,0.1-0.6,0.1-0.8c0-0.7-0.3-1.3-0.9-1.6c-0.6-0.4-1.3-0.5-2.2-0.4c-1,0.1-1.8,0.5-2.5,1
			c-0.7,0.6-1,1.2-1,2c0,0.8,0.6,1.7,1.8,2.6c0.6,0.5,0.9,0.7,1.5,1.2c1.3,1.1,1.9,2.2,1.9,3.4c-0.1,1.3-0.7,2.5-1.9,3.4
			c-1.2,0.9-2.6,1.4-4.2,1.4c-0.9,0-1.7-0.2-2.3-0.5c-0.1,0-0.4-0.3-1-0.7c-0.2-0.1-0.3-0.2-0.5-0.2c-0.4,0-0.7,0.3-0.9,0.9
			c-0.1,0.2-0.2,0.3-0.3,0.3c-0.1,0-0.2-0.1-0.2-0.2c0,0,0.1-0.2,0.2-0.4c0.5-1,1-2.1,1.5-3.1c0.1-0.3,0.3-0.5,0.5-0.5
			c0.1,0,0.2,0,0.2,0.1c0,0,0,0.1-0.1,0.2c-0.1,0.1-0.2,0.5-0.2,1c0,1.7,1.1,2.5,3.3,2.6c1.1,0,2.1-0.3,2.8-0.8s1.1-1.3,1.2-2.3
			c0-1.1-0.5-2-1.6-2.9c-0.5-0.4-0.8-0.6-1.4-1.1c-1.4-1.1-2.1-2.1-2.1-3.2c0-1.2,0.5-2.2,1.5-3.1c1.1-0.9,2.3-1.4,3.8-1.6
			c0.8-0.1,1.7-0.1,2.5,0.1c0.5,0.1,0.8,0.2,1,0.1c0.3,0,0.6-0.3,0.9-0.7c0.1-0.2,0.2-0.2,0.3-0.2C104.4,80.2,104.4,80.2,104.4,80.3
			z"/>
		<path fill="#00664E" d="M112.4,86.6c0,0.9-0.5,1.7-1.5,2.4c-1,0.7-2.1,1.2-3.6,1.4c-0.5,0.1-1.1,0.1-1.7,0.1
			c-0.6,1.2-1,2.3-1.1,3.2c-0.1,1.3,0.5,1.9,1.7,1.8c1-0.1,1.9-0.6,3-1.7c0.2-0.2,0.4-0.4,0.4-0.4c0.1,0,0.1,0,0.1,0.1
			c0,0.3-0.4,0.8-1.2,1.4c-0.9,0.7-1.8,1-2.7,1.1c-1,0.1-1.8-0.2-2.5-0.7c-0.6-0.5-0.9-1.2-0.9-2c0.1-1.6,1.1-3.2,3.1-5
			c1.8-1.6,3.3-2.6,4.7-2.9C111.7,85.1,112.4,85.5,112.4,86.6z M110.7,86.5c0-0.5-0.2-0.7-0.7-0.6c-0.5,0.1-1,0.4-1.5,0.8
			c-0.9,0.8-1.8,2-2.6,3.3c0.2,0,0.4,0,0.7-0.1c0.9-0.1,1.8-0.5,2.7-1.1C110.2,88.2,110.7,87.4,110.7,86.5z"/>
		<path fill="#00664E" d="M120.2,75.8c0,0,0,0.2-0.1,0.4c0,0.2-0.1,0.4-0.2,0.7c-1.6,5.2-3.5,10.2-5.7,15.1c-0.5,1-0.7,1.7-0.8,2
			c0,0.4,0.2,0.6,0.8,0.5c0.6-0.1,1.2-0.5,1.8-1.3c0.3-0.3,0.4-0.5,0.5-0.5c0.1,0,0.2,0,0.1,0.1c0,0.2-0.3,0.6-0.9,1.2
			c-0.7,0.7-1.5,1.1-2.4,1.2c-1.3,0.2-1.9-0.2-1.8-1.1c0-0.3,0.3-1,0.8-2c2.2-4.8,4.1-9.8,5.7-14.8c0-0.1,0.1-0.2,0.1-0.2
			c0-0.1-0.2-0.2-0.5-0.1c-0.7,0.3-1.1,0.3-1.1,0.2c0-0.1,0.1-0.1,0.2-0.2c0.1,0,0.4-0.1,0.7-0.2c0.3-0.1,0.5-0.2,0.7-0.2
			c0.7-0.3,1.2-0.5,1.5-0.6c0.2-0.1,0.3-0.1,0.4-0.2C120.1,75.6,120.2,75.7,120.2,75.8z"/>
		<path fill="#00664E" d="M127.7,81.9c-0.1,1.2-0.4,2.6-1,4c-0.6,1.5-1.3,2.8-2.2,4c-1.4,1.9-2.7,3-3.9,3.3
			c-0.7,0.2-1.2,0.1-1.6-0.1c-0.4-0.3-0.5-0.7-0.5-1.3c0.1-0.7,0.5-1.9,1.2-3.7c0.7-1.5,1-2.3,1.6-3.8c0.2-0.5,0.3-0.9,0.3-1
			c0-0.4-0.2-0.5-0.6-0.4c-0.3,0.1-0.7,0.5-1.3,1.1s-1,1.3-1.2,1.9c-0.1,0.3-0.2,0.4-0.4,0.5c-0.1,0-0.2,0-0.2-0.1
			c0-0.4,0.5-1.1,1.4-2.3c0.9-1.1,1.7-1.8,2.5-2c0.5-0.1,0.9-0.1,1.2,0.1c0.3,0.2,0.4,0.5,0.4,0.9c0,0.5-0.2,1.1-0.6,1.9
			c-0.6,1.5-0.9,2.2-1.6,3.6c-0.5,1.2-0.9,2.2-1,2.9c-0.1,0.8,0.2,1.2,0.8,1c1-0.3,2.2-1.5,3.6-3.8c1.4-2.3,2.2-4.2,2.3-5.9
			c0-0.6-0.1-0.8-0.3-0.7c0,0-0.1,0-0.2,0.1c-0.1,0.1-0.3,0.1-0.4,0.2c-0.4,0.1-0.6,0-0.6-0.4c0-0.3,0.1-0.5,0.3-0.8
			c0.2-0.3,0.5-0.4,0.7-0.5C127.4,80.6,127.8,81,127.7,81.9z"/>
		<path fill="#00664E" d="M139.5,75.7c0,0.1-0.1,0.3-0.2,0.6c-1.4,3.5-2.2,5.1-4,8.4c-0.4,0.8-0.7,1.4-0.7,1.7
			c-0.1,0.4,0.1,0.5,0.5,0.3c0.6-0.2,1.3-0.8,2-1.8c0.2-0.2,0.3-0.3,0.3-0.3c0.1,0,0.1,0,0.1,0.1c0,0.2-0.3,0.5-0.7,1
			c-0.8,0.9-1.7,1.5-2.6,2c-0.5,0.2-0.8,0.4-1.1,0.3c-0.2-0.1-0.3-0.3-0.2-0.7c0-0.2,0.2-0.5,0.3-0.9c-1.2,1.9-2.4,3.2-3.7,3.8
			c-0.8,0.4-1.3,0.4-1.7,0.1c-0.4-0.3-0.5-0.9-0.4-1.8c0.1-0.9,0.6-2,1.3-3.4c0.7-1.3,1.6-2.7,2.6-4c1.4-1.8,2.6-2.9,3.8-3.4
			c1.2-0.6,1.8-0.4,1.8,0.7c0.3-0.6,0.4-0.9,0.7-1.6c0.1-0.3,0.3-0.5,0.3-0.5c0,0,0.1,0,0.3-0.1c0.1,0,0.3-0.1,0.3-0.1
			c0.3-0.1,0.6-0.3,0.8-0.4c0.1-0.1,0.1-0.1,0.2-0.1C139.4,75.5,139.5,75.5,139.5,75.7z M136.4,78.9c0-0.5-0.1-0.8-0.3-1
			c-0.3-0.2-0.6-0.1-1.1,0.1c-0.8,0.4-1.5,1.2-2.3,2.5c-0.9,1.4-1.7,2.8-2.3,4.2c-0.6,1.4-1,2.6-1.2,3.5c-0.2,1.1,0.1,1.4,1,1
			c0.5-0.2,1-0.8,1.7-1.6c0.7-0.8,1.3-1.8,1.8-2.8c1-2,1.4-2.9,2.4-4.9C136.3,79.4,136.4,79.1,136.4,78.9z"/>
	</g>
</g>
</svg>
